<?xml version="1.0" encoding="utf-8"?>
<!-- Generator: Adobe Illustrator 18.0.0, SVG Export Plug-In . SVG Version: 6.00 Build 0)  -->
<!DOCTYPE svg PUBLIC "-//W3C//DTD SVG 1.1//EN" "http://www.w3.org/Graphics/SVG/1.1/DTD/svg11.dtd">
<svg version="1.1"
	 id="svg2" sodipodi:docname="New document 1" inkscape:version="0.48.2 r9819" xmlns:cc="http://creativecommons.org/ns#" xmlns:dc="http://purl.org/dc/elements/1.1/" xmlns:inkscape="http://www.inkscape.org/namespaces/inkscape" xmlns:sodipodi="http://sodipodi.sourceforge.net/DTD/sodipodi-0.dtd" xmlns:svg="http://www.w3.org/2000/svg" xmlns:rdf="http://www.w3.org/1999/02/22-rdf-syntax-ns#"
	 xmlns="http://www.w3.org/2000/svg" xmlns:xlink="http://www.w3.org/1999/xlink" x="0px" y="0px" viewBox="-3 151.2 750 750"
	 enable-background="new -3 151.2 750 750" xml:space="preserve">
<sodipodi:namedview  inkscape:window-maximized="0" inkscape:window-y="20" inkscape:current-layer="layer1" inkscape:pageshadow="2" inkscape:document-units="px" inkscape:pageopacity="0.0" inkscape:window-height="634" inkscape:window-width="631" inkscape:window-x="20" inkscape:zoom="0.35" inkscape:cx="375" showgrid="false" inkscape:cy="520" pagecolor="#ffffff" bordercolor="#666666" id="base" borderopacity="1.0">
	</sodipodi:namedview>
<g id="layer1" inkscape:groupmode="layer" inkscape:label="Layer 1">
	<g id="g3052" transform="translate(-422.85714,-237.14287)">
		<path id="path3066" inkscape:connector-curvature="0" fill="#A9D6A9" d="M473.6,1131.5c-12.6-3-25.5-11-35.4-21.9
			c-6.6-7.3-14.7-22.6-16.5-31.3c-0.8-3.9-1.1-98.7-1.1-316.5c0-343.3-0.5-316.5,6.9-331.9c6.7-13.9,19.2-26.4,33.1-33.1
			c15.5-7.5-12.3-6.9,337.2-6.6l315.5,0.3l7.8,2.8c11.4,4.1,18.8,8.9,27.9,17.8c6.5,6.4,9,9.9,13,18c2.7,5.5,5.5,12.6,6.1,15.7
			c0.8,3.9,1.1,98.9,1.1,317.1c0,342.1,0.5,317.5-6.4,331.3c-8.6,17.2-23.7,30.6-41.6,37l-6.9,2.5l-317.3,0.2
			C528.1,1133,478.8,1132.8,473.6,1131.5L473.6,1131.5z M1113.2,761.6v-316H794.9H476.5l-0.3,315c-0.2,173.2,0,315.6,0.2,316.3
			c0.4,1.1,64.7,1.3,318.6,1.1l318.1-0.3V761.6L1113.2,761.6z M621.7,1026.7c-0.9-0.9-1.3-2.4-0.9-3.4c0.4-1,18.1-31.8,39.5-68.5
			l38.8-66.7l-4.3-14.8c-7.4-25.3-11.9-48-15.8-78.9c-2.7-22.1-2.7-92.1,0-114.3c10.4-84.1,35.4-145.9,71.6-177.1
			c13.8-11.9,28.1-17.7,43.6-17.7c35.8-0.1,67.1,30.7,90.8,89.4c17.3,42.7,25.8,90.8,26.9,151.4c1,59.5-5,107-19,150.6l-3.2,9.9
			l2.7,3.9c2.8,4.1,62,105.6,72,123.4c4.5,8.1,5.6,10.8,4.8,12.2c-1,1.5-5.7,1.8-44.3,2c-39,0.2-43.3,0.1-44.7-1.5
			c-0.8-1-8-13-16-26.7c-8-13.7-15-25.1-15.5-25.3c-0.6-0.2-3.4,4.1-6.2,9.5c-2.9,5.4-7.5,14.1-10.4,19.3
			c-2.8,5.2-6.6,12.5-8.4,16.2c-2.1,4.3-4.1,6.8-5.6,7.2c-1.2,0.3-12.5,0.4-25.1,0.2l-22.9-0.3l-13.9-26.2
			c-7.7-14.4-14.3-26.1-14.8-25.9c-0.5,0.2-7.5,11.5-15.5,25.3c-8,13.7-15.2,25.7-16,26.7c-1.3,1.6-5.8,1.7-43.9,1.7
			C629.1,1028.4,623.1,1028.1,621.7,1026.7L621.7,1026.7z M806.2,614.8c13.6-6.4,23-24.5,23-44.3c0-15-5.2-28.8-14-37.6
			c-13-12.9-28.6-13-41.5-0.2c-9,8.9-14.3,23-14.3,37.9c0,22.9,11.9,42.2,28.8,46.7C794.4,618.8,799,618.2,806.2,614.8L806.2,614.8z
			"/>
		<path id="path3064" inkscape:connector-curvature="0" fill="#E79241" d="M474.8,1130.5c-19.3-4.6-38-19.8-46.7-37.9
			c-6.9-14.4-6.4,10.6-6.4-330.5c0-345.9-0.7-315.8,7.7-332.8c6.2-12.7,17.9-24.3,30.7-30.6c17.1-8.3-13.1-7.6,335-7.7
			c304.8,0,312.2,0,320.1,2c13.6,3.4,22.5,8.6,32.8,19c6.8,6.8,10.1,11.2,13,17.1c7.8,15.8,7.2-12.5,7.2,332.4
			c0,341.2,0.5,316.3-6.4,330.8c-6.5,13.7-19.6,26.8-33.3,33.3c-14.5,6.9,10.9,6.4-334,6.3C532.6,1131.9,479.8,1131.7,474.8,1130.5
			L474.8,1130.5z M1114.3,761.6V444.5H794.9H475.5l-0.3,316c-0.2,173.8,0,316.6,0.2,317.3c0.4,1.1,64.9,1.3,319.7,1.1l319.2-0.3
			V761.6z M621.8,1026.6c-0.4-0.4-0.7-1.3-0.7-2.1s17.8-32,39.6-69.4l39.6-68l-4.4-14.9c-7.4-25.3-12-48-15.8-78.9
			c-2.7-22.1-2.7-90.1,0-112.2c11.9-96.7,44.6-166.9,87.4-187.9c18.6-9.1,35.2-9.2,53.9-0.4c37.8,17.8,70.5,80.4,83.4,160
			c4.2,25.8,5.5,41.6,6.1,73.3c1.1,58-4.6,102.8-18.5,147.8l-3.8,12.3l2.7,4.1c2.4,3.6,56.7,96.7,71.9,123.2
			c3.2,5.5,5.6,10.7,5.4,11.6c-0.3,1.5-5.3,1.6-44,1.6h-43.7l-15.7-27c-8.6-14.8-16.2-27-16.9-27c-1.3,0-7.9,11.7-26,46.6l-3.3,6.4
			l-23.7,0.3c-23.6,0.3-23.7,0.3-25.2-2.1c-0.9-1.3-6.8-12.4-13.3-24.6s-12.6-23.4-13.8-24.8l-2-2.5L725,999.4l-15.9,27.4l-43.3,0.3
			C642,1027.2,622.2,1027,621.8,1026.6L621.8,1026.6z M806.6,616.8c5.7-2.6,15.3-12.7,18.3-19.3c4.1-8.7,5.5-16.3,5.5-28.1
			c-0.1-8.5-0.6-12.1-2.8-18.3c-6.6-18.9-18.4-29.1-33.5-29.1c-20.1,0-35.9,21.3-35.9,48.4c0,4.7,0.6,11.2,1.4,14.3
			c4,17.2,15.9,31.2,28.8,34C793.5,619.8,802,618.9,806.6,616.8L806.6,616.8z"/>
		<path id="path3062" inkscape:connector-curvature="0" fill="#5DA05D" d="M474.8,1130.5c-19.3-4.6-38-19.8-46.7-37.9
			c-6.9-14.4-6.4,10.6-6.4-330.5c0-345.9-0.7-315.8,7.7-332.8c6.2-12.7,17.9-24.3,30.7-30.6c17.1-8.3-13.1-7.6,335-7.7
			c304.8,0,312.2,0,320.1,2c13.6,3.4,22.5,8.6,32.8,19c6.8,6.8,10.1,11.2,13,17.1c7.8,15.8,7.2-12.5,7.2,332.4
			c0,341.2,0.5,316.3-6.4,330.8c-6.5,13.7-19.6,26.8-33.3,33.3c-14.5,6.9,10.9,6.4-334,6.3C532.6,1131.9,479.8,1131.7,474.8,1130.5
			L474.8,1130.5z M1114.3,761.6V444.5H794.9H475.5l-0.3,316c-0.2,173.8,0,316.6,0.2,317.3c0.4,1.1,64.9,1.3,319.7,1.1l319.2-0.3
			V761.6z M623.7,1025.1c-0.4-0.6,4-9.1,9.7-18.8c5.7-9.7,11.3-19.4,12.5-21.4c1.2-2,3.6-6.3,5.4-9.5s3.7-6.5,4.4-7.4
			s2.4-3.7,3.8-6.4c1.4-2.6,8.3-14.5,15.3-26.5c7-11.9,13.6-23.3,14.7-25.1c1.1-1.9,3-5.2,4.3-7.4c1.3-2.2,3.4-5.9,4.8-8.3l2.5-4.3
			l-4.7-15.8c-7.8-26.4-12.4-49.5-16.3-80.9c-2.7-22.1-2.7-90.1,0-112.2c11.9-96.7,44.6-166.9,87.4-187.9
			c18.6-9.1,35.2-9.2,53.9-0.4c37.8,17.8,70.5,80.4,83.4,160c7.5,46.1,8.5,104.3,2.6,150.6c-3.4,26.2-9.6,54.4-16.8,76.7l-2.6,7.9
			l2.5,3.8c2.2,3.4,57.3,97.9,71.6,122.8c3.1,5.5,5.3,10.4,4.8,10.9c-0.5,0.5-19.8,0.8-42.9,0.6l-42.1-0.3l-15.7-27
			c-8.6-14.8-16.1-27.1-16.6-27.3c-0.5-0.2-1.4,0.3-2,1c-1.4,1.8-13.2,23.7-25.3,46.9l-3.3,6.4l-23.7,0.3
			c-23.6,0.3-23.7,0.3-25.2-2.1c-0.9-1.3-6.8-12.4-13.3-24.6c-12.6-23.8-15.4-28.2-17.1-26.5c-0.6,0.6-7.4,12-15.1,25.4
			s-14.8,25.2-15.7,26.2c-1.5,1.7-4.9,1.9-43,1.9C638.3,1026.2,624.1,1025.9,623.7,1025.1L623.7,1025.1z M806.6,616.8
			c5.7-2.6,15.3-12.7,18.3-19.3c4.1-8.7,5.5-16.3,5.5-28.1c-0.1-8.5-0.6-12.1-2.8-18.3c-6.6-18.9-18.4-29.1-33.5-29.1
			c-20.1,0-35.9,21.3-35.9,48.4c0,4.7,0.6,11.2,1.4,14.3c4,17.2,15.9,31.2,28.8,34C793.5,619.8,802,618.9,806.6,616.8L806.6,616.8z"
			/>
		<path id="path3060" inkscape:connector-curvature="0" fill="#DF690C" d="M472.8,1128.6c-19-5.6-34.7-18.8-43.2-36.2
			c-7.5-15.2-6.9,11.8-6.9-330.8c0-341.9-0.6-315.2,6.8-330.6c6.6-13.8,18.2-25.4,32.1-32c15.4-7.4-11.8-6.8,333.2-6.8
			c344.4,0,317.5-0.5,333,6.8c13.9,6.6,25.5,18.1,32.3,31.8c7.5,15.2,6.9-11.8,6.9,330.9c0,304.9,0,309.9-2.1,317.9
			c-5.7,22-22.4,40.3-44.1,48.2l-7.7,2.8l-316.2,0.2l-316.2,0.2L472.8,1128.6L472.8,1128.6z M1115.3,761.6V443.4H794.9H474.4
			l-0.3,317.1c-0.2,174.4,0,317.7,0.2,318.4c0.4,1.1,65.1,1.3,320.7,1.1l320.2-0.3V761.6z M623.7,1025.1c-0.4-0.6,4-9.1,9.7-18.8
			c5.7-9.7,11.3-19.4,12.5-21.4c1.2-2,3.6-6.3,5.4-9.5s3.7-6.5,4.4-7.4s2.4-3.7,3.8-6.4c1.4-2.6,8.3-14.5,15.3-26.5
			c7-11.9,13.6-23.3,14.7-25.1c1.1-1.9,2.9-5,4-6.9c1.1-1.9,3.5-5.9,5.3-9l3.3-5.5l-4.6-15.6c-7.7-26.2-12.4-49.4-16.3-80.8
			c-1.5-12.3-1.9-23.5-1.9-55.6c0-43,0.8-53.7,6.4-86.3c16.9-97.7,60.5-163,108.7-163c42.3,0,81.1,49.6,101.7,130.3
			c8.8,34.4,12.9,66.5,13.6,108.5c1.1,57.7-4.9,103.8-19.4,149.7c-4.1,13.1-4.3,13.9-2.6,13.6c0.6-0.1,16,25.2,34.2,56.4
			c45.2,77.5,45.8,78.6,44.8,79.6c-0.5,0.5-19.8,0.8-42.9,0.6l-42.1-0.3l-15.7-27c-8.6-14.8-16.4-27.1-17.3-27.3
			c-2-0.4-4,2.9-18.2,29.4c-6.3,11.9-12,22.3-12.6,23c-0.8,1-6.8,1.3-23.6,1.3h-22.6l-3.8-7.1c-2.1-3.9-8.2-15.5-13.7-25.7
			c-5.4-10.2-10.6-19.4-11.5-20.4c-2.1-2.3-0.8-4.2-18.5,26.3c-7.7,13.3-14.8,25.1-15.7,26.1c-1.5,1.7-4.9,1.9-43,1.9
			C638.3,1026.2,624.1,1025.9,623.7,1025.1L623.7,1025.1z M805.9,618.2c25.7-11,34.5-55,16.2-81.5c-11.4-16.6-29.7-20.7-45.2-10.3
			c-6.9,4.6-13.7,13.9-16.6,22.8c-4.2,12.7-4.2,29.6,0.1,43c4.1,12.6,15.1,24.2,25.8,27.2C791.8,620.9,800.8,620.4,805.9,618.2z"/>
		<path id="path3058" inkscape:connector-curvature="0" fill="#11A911" d="M472.8,1128.6c-19-5.6-34.7-18.8-43.2-36.2
			c-7.5-15.2-6.9,11.8-6.9-330.8c0-341.9-0.6-315.2,6.8-330.6c6.6-13.8,18.2-25.4,32.1-32c15.4-7.4-11.8-6.8,333.2-6.8
			c344.4,0,317.5-0.5,333,6.8c13.9,6.6,25.5,18.1,32.3,31.8c7.5,15.2,6.9-11.8,6.9,330.9c0,304.9,0,309.9-2.1,317.9
			c-5.7,22-22.4,40.3-44.1,48.2l-7.7,2.8l-316.2,0.2l-316.2,0.2L472.8,1128.6L472.8,1128.6z M1115.3,761.6V443.4H794.9H474.4
			l-0.3,317.1c-0.2,174.4,0,317.7,0.2,318.4c0.4,1.1,65.1,1.3,320.7,1.1l320.2-0.3V761.6z M768,1018c-2.1-3.9-8.2-15.5-13.7-25.7
			c-5.4-10.2-10.6-19.4-11.6-20.5c-1.9-2.1-17.9-32.2-30-56.3c-13.5-27-25.7-74.6-31.7-123.3c-2.7-22.1-2.7-89.1,0-111.2
			C694.1,575,732.2,501.8,781,488.9c35.6-9.4,73,20.2,97.6,77.1c14.4,33.4,23.3,69,28.9,115.6c2.4,19.9,2.7,86,0.6,105.3
			c-3.4,30.2-8.5,57.5-14.7,78.3c-2.2,7.3-4.6,16.1-5.5,19.6c-0.9,3.5-3.4,11.2-5.7,17c-2.3,5.9-4.2,11.4-4.2,12.2s-0.4,2-1,2.5
			c-0.5,0.6-3.1,5.1-5.7,10s-7.3,13.8-10.4,19.6c-3.1,5.8-6.6,12.5-7.8,14.8c-1.2,2.3-4.1,7.3-6.6,11.1c-2.5,3.8-9.7,16.6-16,28.6
			c-6.3,11.9-12,22.3-12.6,23c-0.8,1-6.8,1.3-23.6,1.3h-22.6L768,1018L768,1018z M805.9,618.2c25.7-11,34.5-55,16.2-81.5
			c-11.4-16.6-29.7-20.7-45.2-10.3c-6.9,4.6-13.7,13.9-16.6,22.8c-4.2,12.7-4.2,29.6,0.1,43c4.1,12.6,15.1,24.2,25.8,27.2
			C791.8,620.9,800.8,620.4,805.9,618.2z"/>
		<path id="path3056" inkscape:connector-curvature="0" fill="#0E960E" d="M472.8,1128.6c-18.9-5.6-33.6-17.9-42-35.1
			c-4-8.1-5.8-15.8-3.9-16.9c1.8-1.1,1.4-4.1-0.5-3.4c-1.3,0.5-1.2-0.2,0.5-3.5c2.1-4.1,2.1-6,2.1-306.9
			c0-211.9,0.3-304.5,1.1-308.4c0.6-3.1,3.4-10.1,6.1-15.7c9-18.3,25.9-32.1,45.6-37.1c8.1-2.1,12.8-2.1,316-2.1
			c169.3,0,311.1,0.3,315.2,0.7c4.2,0.4,8.3,1.4,9.3,2.2c1.3,1.1,3,1.4,5.6,0.9c3.1-0.6,3.8-0.4,3.8,1.1c0,1.3,0.6,1.6,2.3,1.2
			c4.9-1.3,20.7,14.4,26.5,26.4c6.8,14.1,6.3-10.4,6.4,329.8c0,304.9,0,309.9-2.1,317.9c-5.7,22-22.4,40.3-44.1,48.2l-7.7,2.8
			l-316.2,0.2l-316.2,0.2L472.8,1128.6L472.8,1128.6z M1122,765.5c0.2-279.6,0.1-321.6-1.3-321.6c-0.8,0-1.9,0.5-2.2,1.1
			c-0.5,0.7-1.3,0.6-2.5-0.5c-1.7-1.5-32.6-1.6-321.7-1.4l-319.8,0.3l-0.3,319.7c-0.2,175.8-0.6,320.8-0.9,322.1l-0.6,2.4l324.6-0.3
			l324.6-0.3L1122,765.5L1122,765.5z M767.6,1015.9c-2.8-5.1-9.1-16.9-14-26.2s-9.9-17.7-10.9-18.5s-5.5-8.5-9.9-16.9
			c-4.4-8.4-12.4-23.9-17.9-34.4c-5.5-10.5-9.5-18.7-9.1-18.3c1,0.9,3.7-1,3.7-2.6c0-0.6-0.9-0.7-2.1-0.4c-1.8,0.6-2.3-0.2-3.7-5
			c-0.9-3.1-2.1-7.8-2.6-10.4c-0.6-2.6-2.8-11.2-5-19c-3.2-11.2-3.7-14.6-2.8-16.1c1.7-2.7,1.5-4.4-0.4-3.7c-2,0.8-3.5-4.2-1.7-6
			c1.8-1.8,1.5-4.3-0.4-3.6c-1.3,0.5-1.4,0.2-0.5-1.4c1.6-2.9,1.3-4.6-0.5-3.9c-1.4,0.5-1.4,0.3,0-2.5c2.1-4,2-4.6-0.5-4
			c-2,0.5-2,0.4-0.5-2.5c2.1-4,2-4.5-0.5-3.9c-2,0.5-2,0.4-0.5-2.5c2.1-4,2-4.5-0.5-3.9c-2.1,0.5-2.1,0.5,0-3.5
			c2.7-5.2,2.6-5.6-0.5-5l-2.6,0.5l2.1-4c2.7-5.2,2.6-5.5-0.5-4.9l-2.6,0.5l2.1-4c2.9-5.6,2.7-7.7-0.5-7l-2.6,0.5l2.1-4
			c1.1-2.2,2.1-5.8,2.1-7.9c0-3.5-0.2-3.8-2.6-3.4l-2.6,0.5l1.9-3.8c1.7-3.3,2-7.6,2.5-33.5c0.6-29.6,2-46.2,6.2-70.9
			c2.2-12.9,8-39.4,9.5-43.3c0.5-1.2,1.7-5.1,2.7-8.5c5.1-17.3,16.6-45.1,23.5-56.6c15.5-26.1,28.7-40.2,46.4-49.6
			c10-5.4,23.9-8.9,29.3-7.4c2.1,0.6,4.7,0.8,5.8,0.4c1.1-0.3,2.3-0.2,2.7,0.4s3.5,1.4,7,1.8c4.6,0.5,6.4,1.2,6.4,2.3
			c0,1.1,0.7,1.4,2.3,1c3-0.8,13.7,7.6,22.2,17.4c30.5,35.2,50.4,92.3,58.8,168.7c1.9,16.8,1.9,83.4,0,100
			c-3.3,30-8.5,57.5-14.7,78.3c-2.2,7.3-4.6,16.1-5.5,19.6c-0.9,3.5-3.4,11.2-5.7,17c-2.3,5.9-4.2,11.4-4.2,12.2s-0.4,2-1,2.5
			c-0.5,0.6-3.1,5.1-5.7,10c-2.6,4.9-7.3,13.8-10.4,19.6s-6.6,12.5-7.8,14.8c-1.2,2.3-4.1,7.3-6.6,11.1c-2.5,3.8-9.7,16.6-16,28.6
			c-6.3,11.9-12,22.3-12.6,23c-0.8,1-6.8,1.3-23.2,1.3h-22.2L767.6,1015.9L767.6,1015.9z M814.5,624.5c3.3-1.6,7.8-5,10.3-7.8
			c8.6-9.7,12.3-20.3,13.4-38.8c0.7-10.8,0.6-11.3-1.5-11.8c-2.1-0.5-2.1-0.8-0.7-4c1.6-3.8,1.2-4.8-1.8-4.8c-1.1,0-2-0.8-2-1.7
			c0-0.9-1.4-4.6-3.2-8.2c-12.5-25.1-33.4-33.5-52.1-20.9c-14.2,9.6-22.1,30.8-19.4,52.1c1.9,14.9,7.9,27.8,16.8,36
			c2.5,2.3,4.5,5,4.5,6.1c0,4.8,7.9,7.6,20.5,7.1C806.8,627.5,809.9,626.8,814.5,624.5L814.5,624.5z"/>
		<path id="path3054" inkscape:connector-curvature="0" fill="#117B11" d="M472.8,1128.6c-8.9-2.7-15-5.6-19.7-9.6
			c-2.3-1.9-2.7-2.7-1.4-2.7c1,0,2,0.7,2.4,1.6c0.3,0.9,1.6,1.6,2.9,1.6c1.2,0,3,0.7,3.8,1.6c0.9,0.9,2.9,1.6,4.5,1.6
			c1.6,0,3.4,0.5,4,1.1c0.6,0.6,3.9,1.5,7.4,2.1c4,0.7,119.9,1,316.6,1c341.2,0,316.2,0.5,330.8-6.4c13.7-6.5,26.8-19.6,33.3-33.3
			c6.9-14.5,6.4,10.4,6.5-331.9c0.1-258.4,0.3-311.2,1.5-308.1c1.1,3,1.4,61,1.5,314c0.1,305.8,0.1,310.4-2,318.5
			c-5.7,22-22.4,40.3-44.1,48.2l-7.7,2.8l-316.2,0.2l-316.2,0.2L472.8,1128.6L472.8,1128.6z M445.8,1113.4c-1-1-0.9-2.5,0.2-2.5
			c0.5,0,1.2,0.7,1.6,1.6C448.2,1114.1,447.1,1114.7,445.8,1113.4L445.8,1113.4z M470.9,760.2l0.3-321l322.6-0.3
			c177.4-0.1,323.2,0,324,0.3c0.9,0.3,1.1,1.1,0.5,2.1c-0.8,1.4-36.2,1.6-322.4,1.9l-321.5,0.3l-0.3,318.9
			c-0.2,282.7-0.5,318.9-1.9,318.9C470.9,1081.3,470.7,1045,470.9,760.2L470.9,760.2z M774.6,1024.2c0-2.1,4.5-2.8,21.9-3.3
			l18.1-0.5l3.3-6.4c6.4-12.3,16.7-31.8,19.7-37.1c1.6-2.9,5.3-9.8,8.3-15.4s7.8-14.8,10.9-20.6c3.1-5.8,7.7-14.6,10.3-19.6
			c2.6-4.9,5.2-9.5,5.7-10c0.5-0.6,1-1.8,1-2.7s1.6-5.5,3.6-10.1c13.1-30.8,22.5-70.3,27.4-115.3c1.6-14.5,2.9-73.9,1.6-74.8
			c-0.6-0.4-0.7-3.8-0.3-7.7c0.4-4.7,0.3-7-0.5-7c-0.8,0-0.9-1.7-0.5-5.3c0.5-3.7,0.3-5.3-0.5-5.3c-0.8,0-1-1.5-0.5-4.7
			c0.4-2.9,0.3-4.9-0.4-5.4c-0.6-0.4-0.8-1.9-0.5-3.3c0.4-1.4,0.1-3.3-0.6-4.1c-0.7-0.8-1-2-0.6-2.6c0.7-1.1-3.5-26.4-6.5-39.4
			c-0.9-3.9-1.4-7.7-1.2-8.5c0.4-1.2,4.2,12.6,5.7,20.3c0.3,1.5,0.7,3.6,0.9,4.8c0.3,1.2,0.8,3.8,1.1,5.8c0.4,2,0.8,4.7,1,5.8
			c0.3,1.9,0.8,4.9,2.2,14.3c0.2,1.5,0.7,5,1,7.9c0.4,2.9,0.8,6.7,1,8.5c2.5,19.5,3,84,0.7,104.3c-3.2,29.6-8.4,57.4-14.7,78.3
			c-2.2,7.3-4.6,16.1-5.5,19.6c-0.9,3.5-3.4,11.2-5.7,17c-2.3,5.9-4.2,11.4-4.2,12.2s-0.4,2-1,2.5c-0.5,0.6-3.1,5.1-5.7,10
			c-2.6,4.9-7.3,13.8-10.4,19.6c-3.1,5.8-6.6,12.5-7.8,14.8c-1.2,2.3-4.1,7.3-6.6,11.1c-2.5,3.8-9.7,16.6-16,28.6
			c-6.3,11.9-12,22.3-12.6,23C816.8,1025.4,774.6,1025.8,774.6,1024.2L774.6,1024.2z M740.9,969.9c-2.3-3.6-6.6-13.6-5.7-13
			c1.4,0.9,7.7,13.3,7.1,13.9C742,971.1,741.4,970.7,740.9,969.9z M730,948.7c-11.7-21.7-23.7-45.2-23.2-45.2c0.3,0,2.7,4.2,5.3,9.3
			s8.6,16.4,13.4,25.1s8.5,16.2,8.4,16.6C733.7,954.9,732,952.3,730,948.7z M892.6,610.8c-0.4-1.7-0.6-3.3-0.2-3.6
			c0.9-0.9,1.9,2.6,1.5,4.7C893.5,613.4,893.2,613.1,892.6,610.8z M890.5,603.4c-0.4-1.7-0.6-3.3-0.2-3.6c0.9-0.9,1.9,2.6,1.5,4.7
			C891.4,606,891.1,605.7,890.5,603.4z M758.6,592.9c0-0.8-0.9-3.2-2.1-5.5c-1.3-2.5-1.9-5.1-1.5-6.6c0.3-1.4,0-3.2-0.7-4.1
			c-1.5-1.8-0.7-18.6,1.3-26.9c3.2-13.1,12.4-25.8,22.2-30.5c6.4-3.1,18.5-4.2,25-2.3c4.5,1.3,15.4,9.9,14.1,11.2
			c-0.3,0.3-2.9-1-5.8-2.8c-11.1-6.8-23.3-6.5-34.2,0.9c-16.9,11.4-24,37.1-17.8,64.4c0.4,1.9,0.5,3.4,0.2,3.4
			S758.6,593.7,758.6,592.9L758.6,592.9z"/>
	</g>
</g>
</svg>
