<?xml version="1.0" encoding="UTF-8" standalone="no"?>
<!-- Created with Inkscape (http://www.inkscape.org/) -->

<svg
   xmlns:dc="http://purl.org/dc/elements/1.1/"
   xmlns:cc="http://creativecommons.org/ns#"
   xmlns:rdf="http://www.w3.org/1999/02/22-rdf-syntax-ns#"
   xmlns:svg="http://www.w3.org/2000/svg"
   xmlns="http://www.w3.org/2000/svg"
   xmlns:sodipodi="http://sodipodi.sourceforge.net/DTD/sodipodi-0.dtd"
   xmlns:inkscape="http://www.inkscape.org/namespaces/inkscape"
   width="748.83356"
   height="251.01193"
   id="svg2"
   version="1.1"
   inkscape:version="0.48.2 r9819"
   sodipodi:docname="CoGe.svg">
  <defs
     id="defs4" />
  <sodipodi:namedview
     id="base"
     pagecolor="#ffffff"
     bordercolor="#666666"
     borderopacity="1.0"
     inkscape:pageopacity="0"
     inkscape:pageshadow="2"
     inkscape:zoom="0.35"
     inkscape:cx="28.392032"
     inkscape:cy="449.13695"
     inkscape:document-units="px"
     inkscape:current-layer="layer1"
     showgrid="false"
     inkscape:window-width="887"
     inkscape:window-height="662"
     inkscape:window-x="0"
     inkscape:window-y="0"
     inkscape:window-maximized="0"
     showborder="true"
     borderlayer="false"
     fit-margin-top="0"
     fit-margin-left="0"
     fit-margin-right="0"
     fit-margin-bottom="0" />
  <metadata
     id="metadata7">
    <rdf:RDF>
      <cc:Work
         rdf:about="">
        <dc:format>image/svg+xml</dc:format>
        <dc:type
           rdf:resource="http://purl.org/dc/dcmitype/StillImage" />
        <dc:title></dc:title>
      </cc:Work>
    </rdf:RDF>
  </metadata>
  <g
     inkscape:label="Layer 1"
     inkscape:groupmode="layer"
     id="layer1"
     style="display:inline"
     transform="translate(-0.89368183,-769.48718)">
    <g
       id="g3066"
       transform="matrix(0.97759309,0,0,1,9.5369457,394.28572)">
      <path
         style="fill:#e6f3e6"
         d="m 63.142843,625.69344 c -0.825,-0.16164 -4.875,-0.83665 -9,-1.50003 C 33.517237,620.87643 13.898455,611.19014 4.991215,599.92602 -1.502013,591.71466 -6.009445,579.48274 -7.797828,565.22011 -9.118962,554.68387 -9.216344,442.94732 -7.914179,431.71933 c 1.663086,-14.34005 9.586867,-27.87973 22.142043,-37.83499 6.531968,-5.17933 22.216457,-12.33321 33.63763,-15.34252 8.301705,-2.18737 12.610406,-2.65073 28.548675,-3.07012 21.140304,-0.55629 33.541861,0.6109 46.721961,4.39728 24.6434,7.07956 41.60702,20.41904 46.59356,36.63922 0.88113,2.86612 2.28758,7.23613 3.12545,9.71113 2.08267,6.15202 3.18749,56.2109 1.29103,58.49599 -1.07164,1.29124 -6.71984,1.50401 -39.92577,1.50401 -28.74921,0 -38.985587,-0.30803 -39.877557,-1.2 -0.86015,-0.86015 -1.21751,-7.72802 -1.26182,-24.25 -0.0767,-28.57542 -0.83799,-37.27235 -3.42871,-39.16674 -2.3668,-1.73064 -10.54811,-1.80671 -12.85548,-0.11952 -2.987443,2.18447 -3.620639,16.31388 -3.573303,79.73626 0.04886,65.46341 0.537353,76.51632 3.476695,78.66562 2.901708,2.12178 10.792038,1.71075 12.950788,-0.67465 2.33685,-2.58219 3.32585,-13.43592 3.42076,-37.54097 0.0497,-12.62101 0.432,-18.41093 1.27107,-19.25 0.89197,-0.89197 11.128347,-1.2 39.877557,-1.2 33.37697,0 38.85034,0.20819 39.93835,1.51917 0.96943,1.1681 1.12792,6.54097 0.68582,23.25 -0.5094,19.25255 -0.87125,22.799 -3.17282,31.09714 -1.42882,5.15148 -3.24946,10.55148 -4.04588,12 -9.43974,17.16904 -32.238,31.03243 -58.40925,35.51808 -8.29986,1.42256 -40.489125,2.18389 -46.073777,1.08972 z m 378.028267,-1.03603 c -14.53614,-3.15111 -29.28777,-10.74553 -38.44246,-19.79091 -9.03401,-8.92616 -13.67971,-17.1665 -15.58731,-27.6481 -0.65054,-3.57449 -1.61141,-8.07407 -2.13527,-9.99907 -0.57441,-2.11075 -0.81101,-28.50641 -0.59608,-66.5 0.39809,-70.37174 0.9251,-77.24555 6.83011,-89.08561 7.12906,-14.29439 25.91813,-27.37289 47.49927,-33.0628 13.30597,-3.50815 42.42201,-4.47934 58.4036,-1.9481 22.16446,3.51051 42.83531,13.46203 54.10631,26.04828 4.68828,5.23537 9.66461,16.51412 11.49281,26.04823 2.14306,11.17608 3.04309,39.0211 1.32808,41.08757 -1.62804,1.96166 -78.12513,2.11762 -79.67031,0.16243 -0.54333,-0.6875 -1.24931,-10.8134 -1.56884,-22.50199 -0.69443,-25.40298 -1.04605,-26.60869 -7.88867,-27.05046 -4.17136,-0.2693 -4.88272,-2e-4 -6.49209,2.4559 -1.70249,2.59821 -1.80742,7.0963 -1.80742,77.47901 0,74.34336 0.0106,74.73491 2.09997,77.5441 2.65405,3.56841 8.86685,4.39008 12.26849,1.62256 2.79154,-2.27114 4.08801,-13.15943 4.11377,-34.54912 l 0.0178,-14.75 -5.3,0 c -2.915,0 -5.84,-0.54 -6.5,-1.2 -1.68814,-1.68814 -1.68814,-35.91186 0,-37.6 1.72653,-1.72653 88.87347,-1.72653 90.6,0 1.73418,1.73418 1.73418,126.86582 0,128.6 -0.86727,0.86727 -7.91516,1.2 -25.41821,1.2 -13.32002,0 -24.9069,-0.26427 -25.74862,-0.58727 -0.84173,-0.323 -2.26294,-2.79271 -3.15825,-5.48824 -0.89531,-2.69553 -2.02851,-5.14859 -2.51822,-5.45125 -0.4897,-0.30265 -3.32636,1.43386 -6.30367,3.85891 -6.28116,5.11608 -14.08579,9.02459 -22.28511,11.16024 -7.33819,1.91135 -28.41338,1.8807 -37.33965,-0.0543 z m -185.52827,-0.11372 c -19.4855,-2.442 -37.57589,-9.52221 -45.79499,-17.92323 -5.71773,-5.84429 -11.11232,-15.10536 -12.78306,-21.9451 -0.66584,-2.72582 -1.70816,-5.58718 -2.31628,-6.35859 -1.44233,-1.82962 -2.13632,-94.25201 -0.76664,-102.09744 4.26838,-24.44895 13.37932,-37.62462 32.66097,-47.23228 14.69195,-7.3207 27.26033,-9.76772 50.16892,-9.76772 27.19926,0 44.57071,3.93516 60.76257,13.76455 10.49358,6.37021 20.62437,18.28707 23.57851,27.73545 0.68785,2.2 1.7545,4.63175 2.37032,5.4039 0.79425,0.99586 1.11968,16.69066 1.11968,54 l 0,52.5961 -2.77313,7.94849 c -8.35067,23.93517 -27.31317,38.20953 -57.22687,43.07855 -8.27322,1.34662 -40.44042,1.87004 -49,0.79732 z m 29.22695,-41.0306 c 1.64643,-2.51299 1.77305,-6.89017 1.77305,-61.29418 0,-54.40417 -0.12661,-58.78116 -1.77305,-61.29376 -1.42059,-2.16793 -2.54077,-2.70582 -5.63499,-2.70582 -3.09424,0 -4.23268,0.54667 -5.72695,2.75 -1.76697,2.60543 -1.86501,5.79904 -1.86501,60.75 0,53.67078 0.13254,58.24259 1.77568,61.25 1.54005,2.81872 2.30002,3.25 5.72695,3.25 3.19153,0 4.29218,-0.52034 5.72432,-2.70624 z m 361.87585,40.10058 c -33.38179,-6.02857 -53.30631,-21.62948 -59.25197,-46.39434 -1.60374,-6.67987 -1.80052,-12.69418 -1.79959,-55 10e-4,-45.37072 0.0981,-47.88927 2.16688,-56.18382 5.74212,-23.02283 20.65852,-36.18708 49.78188,-43.93425 11.48201,-3.05435 41.20367,-3.82108 55.49397,-1.43157 25.84291,4.32124 44.91356,15.31614 54.75163,31.56622 3.10109,5.12224 6.99083,16.50797 8.19353,23.98342 1.50676,9.36538 1.39809,48.26278 -0.13913,49.8 -0.8984,0.8984 -12.71111,1.2 -47,1.2 l -45.8,0 10e-4,21.25 c 0.001,19.68017 1.25492,33.11929 3.41619,36.61629 1.1565,1.87126 10.04662,1.40434 11.73428,-0.61629 3.4571,-4.13917 4.09778,-7.86871 4.59529,-26.75 0.27534,-10.45 0.95003,-19.5625 1.49929,-20.25 1.41165,-1.76693 69.78906,-1.81471 71.55377,-0.05 1.5361,1.5361 1.64355,30.03329 0.14384,38.146 -3.56639,19.29234 -21.44497,37.50797 -44.2347,45.06861 -13.90866,4.6143 -47.53384,6.15322 -65.10634,2.97973 z m 32.07624,-146.0342 c -0.74554,-17.26163 -1.56712,-19.36014 -7.57965,-19.36014 -2.11997,0 -4.28596,0.5625 -4.8133,1.25 -1.4197,1.85089 -3.30026,16.12916 -3.2927,25 l 0.007,7.75 8.15567,0 8.15568,0 -0.63231,-14.63986 z"
         id="path3080"
         inkscape:connector-curvature="0" />
      <path
         style="fill:#d3ebd3"
         d="m 62.142843,624.69344 c -0.825,-0.16164 -4.875,-0.83665 -9,-1.50003 -9.463577,-1.52192 -22.014814,-5.39552 -28.5,-8.79576 -14.256741,-7.47494 -24.555654,-18.98573 -27.448441,-30.67832 -0.680359,-2.75 -1.636553,-5.9 -2.124875,-7 -2.274991,-5.12467 -2.926214,-22.63146 -2.919095,-78.47377 0.0077,-60.13818 0.570212,-73.07439 3.414792,-78.52623 0.860914,-1.65 1.576259,-3.45 1.589656,-4 0.0278,-1.14131 4.069871,-7.23064 8.487963,-12.78702 7.706924,-9.69255 23.720221,-18.77229 41.294188,-23.41432 8.366633,-2.20998 12.437223,-2.63065 29.501937,-3.04885 12.575055,-0.30818 23.333375,-0.0399 29.493292,0.73544 27.69962,3.48657 50.2349,15.43594 59.75876,31.68718 1.37368,2.34401 3.68565,8.21413 5.13771,13.04471 2.55896,8.51295 2.64277,9.61261 2.7271,35.78286 l 0.087,27 -39.5,0 -39.499997,0 -0.60358,-28.5 c -0.33198,-15.675 -0.93731,-29.71381 -1.3452,-31.19737 -1.41056,-5.13043 -8.87099,-7.43658 -15.0095,-4.63969 -4.950123,2.25544 -5.04171,3.7239 -5.04171,80.83706 0,76.91133 0.04115,77.55864 5.07598,79.85267 3.8278,1.74406 8.86442,1.37536 11.70193,-0.85664 3.44009,-2.70597 3.89899,-6.08473 4.6173,-33.99603 l 0.60479,-23.5 39.499997,0 39.5,0 -0.0951,22.5 c -0.0897,21.21436 -0.25061,23.07125 -2.81705,32.49751 -2.86776,10.53298 -6.76774,17.58616 -12.74879,23.0564 -9.5632,8.74647 -18.77549,14.25014 -31.33908,18.72283 -11.87559,4.22776 -23.82473,5.73592 -44.426217,5.60726 -10.215557,-0.0638 -19.24876,-0.24825 -20.07376,-0.40989 z m 378.028267,-1.03603 c -7.78837,-1.68834 -17.57157,-5.49088 -24.97288,-9.70645 -6.76841,-3.8551 -17.98934,-14.78191 -21.16746,-20.61263 -1.31336,-2.40955 -2.91483,-5.33455 -3.55883,-6.5 -0.64399,-1.16545 -1.69157,-5.044 -2.32795,-8.619 -0.63638,-3.575 -1.57198,-7.88195 -2.0791,-9.571 -1.1985,-3.99175 -1.22006,-129.88079 -0.0226,-132.19257 0.49467,-0.95504 1.41222,-5.78643 2.03899,-10.73643 1.39759,-11.03761 4.33681,-17.29225 11.64214,-24.77446 9.7697,-10.00623 22.91814,-17.38706 38.14361,-21.41179 8.49507,-2.2456 12.41054,-2.64668 29.88568,-3.06134 15.59403,-0.37003 22.42246,-0.1109 30.40849,1.15396 17.97398,2.8468 32.99375,9.01601 45.04501,18.50176 10.30652,8.11244 16.10778,17.98258 17.98063,30.59187 0.65352,4.4 1.59985,8.9 2.10293,10 0.50309,1.1 0.78835,8.975 0.63391,17.5 l -0.2808,15.5 -39.5,0 -39.5,0 -0.69283,-20.81177 c -0.71535,-21.48815 -1.64035,-26.9934 -4.82151,-28.69591 -4.45241,-2.38285 -9.39475,-0.96435 -11.77265,3.37886 -1.55527,2.84071 -1.74448,8.92995 -2.05483,66.12882 -0.39452,72.71362 0.0143,83.97086 3.22253,88.74835 2.6244,3.908 7.96418,4.88223 12.0579,2.19992 3.95666,-2.59251 4.81948,-7.90396 4.94618,-30.44827 l 0.11521,-20.5 -6,-0.5 -6,-0.5 0,-18.5 0,-18.5 45,0 45,0 0,64 0,64 -25.85029,0 -25.85029,0 -1.8663,-4.91659 c -1.02647,-2.70413 -2.30195,-5.35224 -2.8344,-5.88469 -0.62412,-0.62412 -2.80603,0.6397 -6.14092,3.55698 -6.00618,5.25406 -13.40441,9.10464 -21.58886,11.23642 -7.39235,1.92546 -30.35465,1.89392 -39.34067,-0.054 z m -185.52827,-0.11372 c -10.44037,-1.30843 -23.93809,-4.92821 -31.09917,-8.34009 -16.17763,-7.70779 -24.68809,-20.2272 -28.54012,-41.98427 -1.36697,-7.72089 -0.71014,-101.24315 0.72407,-103.09747 0.59663,-0.77139 1.62275,-3.9067 2.28028,-6.96736 2.9494,-13.72898 13.48737,-26.11878 28.63494,-33.66695 13.81597,-6.88463 26.71835,-9.26822 50.16892,-9.26822 18.20197,0 27.39581,0.95512 38.33108,3.98209 23.86251,6.60533 38.79945,18.94104 46.03474,38.01791 l 2.46526,6.5 0,53.0969 c 0,37.26829 -0.32961,53.51517 -1.10567,54.5 -0.60812,0.7717 -1.65133,3.6531 -2.31825,6.4031 -2.43687,10.04823 -12.90084,22.88213 -24.11191,29.57288 -14.90446,8.89497 -30.38997,11.98693 -58.96417,11.77327 -10.725,-0.0802 -20.85,-0.315 -22.5,-0.52179 z m 30.68191,-39.57436 2.31809,-3.25 0,-58.5 0,-58.5 -2.35537,-3.30235 c -2.09809,-2.94163 -2.8027,-3.26932 -6.45063,-3 -3.48009,0.25693 -4.40312,0.82811 -6.14463,3.80235 -2.00103,3.41745 -2.04937,4.84675 -2.04937,60.59832 0,58.92875 -10e-4,58.90963 3.83107,64.15168 0.5026,0.6875 2.62808,1.25 4.72328,1.25 3.15568,0 4.20729,-0.55777 6.12756,-3.25 z m 360.42089,38.64434 c -4.34346,-0.78441 -11.09346,-2.377 -15,-3.5391 -21.93873,-6.52623 -38.37673,-22.26741 -41.61962,-39.85532 -0.65916,-3.57495 -1.60003,-7.28131 -2.09082,-8.23635 -1.04384,-2.0312 -1.22894,-96.09365 -0.19114,-97.13145 0.38566,-0.38567 1.48154,-4.55556 2.43528,-9.26642 0.95374,-4.71087 2.35119,-9.30782 3.10543,-10.21545 0.75424,-0.90764 1.86383,-2.77525 2.46574,-4.15025 3.37822,-7.71708 15.96861,-17.8586 28.29233,-22.78939 12.89883,-5.16089 20.49852,-6.44339 41.21585,-6.95547 21.24884,-0.52521 33.45797,0.77652 46.04791,4.90958 20.56003,6.74951 36.56743,20.80395 40.81484,35.83528 0.69936,2.475 1.60276,4.95 2.00756,5.5 1.84837,2.51137 2.99115,18.51613 2.7133,38 l -0.29946,21 -46.5,0.5 -46.5,0.5 -0.33026,19.5 c -0.41266,24.36521 1.30992,37.6172 5.22996,40.23469 3.8769,2.58867 13.6003,-1.06272 13.6003,-5.10727 0,-0.95008 0.49467,-2.22209 1.09927,-2.82669 0.6775,-0.6775 1.34895,-8.71563 1.75,-20.95 l 0.65073,-19.85073 35.5,0 35.5,0 0.27543,16.38662 c 0.3883,23.1022 -1.20704,29.87093 -9.80835,41.61498 -10.82603,14.78163 -25.59229,23.33018 -46.63893,27.00041 -11.1544,1.94516 -42.7084,1.88192 -53.72535,-0.10767 z m 34.19201,-137.19382 c 0.4383,-10.85239 -1.22275,-23.91092 -3.33892,-26.24926 -2.16261,-2.38966 -8.62832,-2.65335 -10.47582,-0.42724 -2.66072,3.20597 -5.41921,31.70351 -3.27625,33.84646 0.38709,0.3871 4.32459,0.5746 8.75,0.41667 l 8.04618,-0.28715 0.29481,-7.29948 z"
         id="path3078"
         inkscape:connector-curvature="0" />
      <path
         style="fill:#a9daa9"
         d="M 62.642843,624.53082 C 48.167455,622.65461 30.0112,617.14216 21.812183,612.13416 5.368409,602.09024 0.139219,594.32873 -6.0904,570.71933 -7.555066,565.16845 -8.311922,445.18164 -6.95581,433.52306 c 1.608072,-13.82469 6.328801,-23.4904 16.383343,-33.54494 9.718409,-9.71841 21.077676,-15.59005 39.641538,-20.49084 12.635176,-3.33563 41.904932,-4.30397 57.647159,-1.90715 26.34165,4.01062 47.98475,15.43667 58.05007,30.64639 1.38656,2.09524 3.86713,8.23826 5.51239,13.65116 2.88688,9.49788 3.0111,10.72339 3.55625,35.08437 0.43456,19.41922 0.27629,25.59044 -0.68606,26.75 -1.07412,1.29424 -6.57636,1.50728 -38.92848,1.50728 -27.97144,0 -37.986687,-0.30913 -38.877557,-1.2 -0.86015,-0.86015 -1.21751,-7.72802 -1.26182,-24.25 -0.0772,-28.78367 -0.80807,-36.98563 -3.47543,-39.00239 -2.84655,-2.15223 -11.68572,-1.9974 -14.465312,0.25338 -3.471063,2.8107 -3.891335,11.4605 -3.872371,79.69901 0.01954,70.311 0.328354,76.82924 3.772026,79.61775 3.121787,2.52787 11.047727,2.55726 14.141047,0.0525 2.83618,-2.2966 3.78763,-11.5207 3.89079,-37.7202 0.0497,-12.62101 0.432,-18.41093 1.27107,-19.25 0.89087,-0.89087 10.906117,-1.2 38.877557,-1.2 32.51958,0 37.85054,0.20844 38.94118,1.52258 2.13831,2.57651 0.6323,40.97759 -1.97961,50.47742 -3.14103,11.42428 -4.17395,14.23771 -6.42496,17.5 -10.92261,15.82969 -31.8862,27.6507 -56.54039,31.88216 -8.746357,1.50116 -36.755447,2.07231 -45.573777,0.92933 z m 379.068917,-0.9602 c -8.09897,-1.73599 -21.31167,-6.88959 -27.18235,-10.60245 -12.64681,-7.99836 -22.98417,-21.72464 -25.85623,-34.33274 -0.8665,-3.80386 -2.0153,-8.83506 -2.5529,-11.18045 -1.27154,-5.54742 -1.31111,-125.49732 -0.0428,-129.66465 0.51407,-1.68905 1.60373,-7.25288 2.42148,-12.36407 0.81776,-5.11119 2.45997,-11.1601 3.64938,-13.44202 7.29903,-14.0035 26.08073,-26.8176 47.49448,-32.40385 13.326,-3.47637 40.72624,-4.45591 56.1794,-2.00837 18.70484,2.96256 34.32562,9.17897 46.16311,18.37097 11.28792,8.76526 16.65594,17.95549 19.72882,33.77634 2.16318,11.13725 3.06321,37.0305 1.35855,39.08449 -1.62978,1.96376 -76.12625,2.12251 -77.67286,0.16551 -0.54333,-0.6875 -1.25183,-10.90125 -1.57444,-22.69722 -0.68575,-25.07353 -1.09945,-26.33349 -8.81576,-26.84869 -3.70468,-0.24735 -4.83682,0.13506 -6.89938,2.33049 l -2.46744,2.6264 0,75.66951 0,75.66951 2.31809,3.25 c 2.05801,2.88536 2.8434,3.24643 7,3.2182 9.41621,-0.064 10.24219,-2.38527 10.93025,-30.7182 l 0.54035,-22.25 -5.44435,0 c -2.99439,0 -5.98434,-0.54 -6.64434,-1.2 -1.68427,-1.68427 -1.68427,-33.91573 0,-35.6 1.72595,-1.72595 86.87405,-1.72595 88.6,0 1.73389,1.73389 1.73389,124.86611 0,126.6 -0.8659,0.8659 -7.80635,1.2 -24.92857,1.2 -25.81707,0 -26.05053,-0.049 -27.32731,-5.73971 -0.34062,-1.51816 -1.45525,-3.85687 -2.47696,-5.19714 l -1.85765,-2.43686 -5.35475,4.83948 c -5.94528,5.37316 -14.28765,9.66538 -23.31486,11.99568 -7.59802,1.96137 -26.5778,1.90324 -35.97098,-0.11016 z M 253.8792,623.13165 c -20.26073,-2.96618 -34.70208,-8.89122 -43.4103,-17.8105 -6.50098,-6.65855 -9.13967,-11.20263 -12.9059,-22.22524 l -2.86213,-8.37658 -0.3366,-46 c -0.19389,-26.49739 0.0692,-48.33183 0.62061,-51.5 2.60441,-14.96472 7.38805,-26.54998 13.87866,-33.61205 14.80404,-16.10745 35.95583,-23.38795 67.94822,-23.38795 32.42341,0 54.50128,6.78984 70.38349,21.64579 5.87446,5.49487 9.80085,11.51563 13.5999,20.85421 l 2.84769,7 0,50.5 0,50.5 -2.91481,8.98822 c -1.60314,4.94352 -4.37497,11.24352 -6.15962,14 -4.13194,6.38199 -12.45616,14.42507 -19.09491,18.45001 -6.8734,4.16719 -20.73861,8.77869 -31.83066,10.58671 -9.83349,1.60288 -39.86429,1.83665 -49.76364,0.38738 z m 31.89863,-38.66232 c 1.7683,-2.60741 1.86501,-5.83523 1.86501,-62.25 0,-56.41477 -0.0967,-59.64259 -1.86501,-62.25 -1.60516,-2.36685 -2.54204,-2.75 -6.72432,-2.75 -4.45139,0 -5.00837,0.27282 -6.63499,3.25 -1.64363,3.00832 -1.77568,7.60027 -1.77568,61.75 0,54.14973 0.13205,58.74168 1.77568,61.75 1.62662,2.97718 2.1836,3.25 6.63499,3.25 4.18228,0 5.11916,-0.38315 6.72432,-2.75 z m 361.87155,38.18323 c -12.25499,-2.29601 -26.3695,-6.98101 -33.0107,-10.95715 -8.42707,-5.04537 -17.52126,-14.35501 -21.25941,-21.76307 -6.33907,-12.56242 -6.68593,-16.07595 -6.68476,-67.71301 10e-4,-44.13997 0.1093,-46.9314 2.1339,-55 4.4031,-17.5476 13.27806,-28.83609 28.6135,-36.39489 14.69889,-7.24505 25.92361,-9.74947 46.38707,-10.34974 18.21253,-0.53423 27.63078,0.35475 41.08051,3.87757 18.57095,4.86419 34.03737,15.41281 42.32499,28.86706 2.4743,4.01682 6.70218,16.95654 7.84168,24 1.5089,9.32681 1.40588,46.2608 -0.13332,47.8 -0.8984,0.8984 -12.71111,1.2 -47,1.2 l -45.8,0 0.0351,22.75 c 0.0352,22.77697 1.18018,33.39465 3.96285,36.74756 0.76691,0.92408 2.95736,1.50244 5.69021,1.50244 10.01342,0 11.34823,-3.15954 12.0404,-28.5 0.28544,-10.45 0.96838,-19.5625 1.51764,-20.25 1.41094,-1.76604 67.79001,-1.81376 69.55377,-0.05 1.5407,1.5407 1.63656,28.07108 0.13086,36.21618 -1.77092,9.57982 -6.46791,17.96185 -15.28444,27.2759 -6.79061,7.17381 -9.31813,9.0748 -17.05907,12.83037 -14.64587,7.10556 -22.58119,8.64849 -46.58735,9.05837 -15.24049,0.26021 -22.55081,-0.0342 -28.49346,-1.14759 z m 32.19398,-145.03928 c -0.74237,-19.00909 -1.33074,-20.39395 -8.66456,-20.39395 -2.7531,0 -5.2452,0.52953 -5.6614,1.20297 -1.52689,2.47056 -3.2711,15.62161 -3.32195,25.04703 l -0.0526,9.75 9.155,0 9.15499,0 -0.60947,-15.60605 z"
         id="path3076"
         inkscape:connector-curvature="0" />
      <path
         style="fill:#78c478"
         d="m 63.142843,623.69344 c -0.825,-0.16164 -4.875,-0.83665 -9,-1.50003 -9.11137,-1.46528 -21.735487,-5.32373 -28.5,-8.71079 -7.754447,-3.88272 -18.29375,-12.90203 -22.185581,-18.98595 -3.174475,-4.9625 -5.478341,-11.09845 -8.552206,-22.77734 -1.434511,-5.4503 -2.21523,-127.46534 -0.8907,-139.20338 1.318537,-11.68491 4.603984,-19.0941 13.128487,-29.60673 3.520206,-4.34121 14.494475,-12.05134 22.47927,-15.79315 14.85631,-6.9619 25.101851,-9.07362 46.792056,-9.64437 11.860734,-0.3121 22.350434,-0.0434 28.493291,0.72976 26.22398,3.30083 47.37483,13.81852 58.35433,29.01787 2.94028,4.07034 3.21127,4.72477 6.6254,16 2.46766,8.14946 2.57755,9.57224 2.66473,34.5 l 0.0909,26 -38.5,0 -38.499997,0 -0.57069,-29 c -0.5939,-30.17946 -0.85264,-31.93204 -5.15955,-34.94872 -3.42249,-2.3972 -11.11672,-2.02012 -14.257021,0.69872 -2.260843,1.95741 -2.720923,3.42036 -3.537997,11.25 -1.138672,10.91135 -1.17508,126.58224 -0.04358,138.43829 0.706424,7.402 1.135375,8.7222 3.492843,10.75 3.19864,2.75136 10.882,3.18652 14.27696,0.80861 3.72612,-2.60988 4.50129,-7.61736 5.16444,-33.36162 l 0.634615,-24.63528 38.499997,0 38.5,0 -0.10025,21.5 c -0.0937,20.0993 -0.27725,22.15133 -2.81705,31.49751 -3.74451,13.77938 -7.70656,19.49009 -20.5827,29.66696 -9.23523,7.29921 -24.82124,13.63099 -39.92622,16.21992 -8.29986,1.42256 -40.489125,2.18389 -46.073777,1.08972 z m 378.028267,-1.03603 c -12.38449,-2.68468 -24.41984,-8.37549 -33.50969,-15.84476 -8.09202,-6.64934 -8.68373,-7.41606 -16.18948,-20.9777 -0.64399,-1.16359 -1.69796,-5.04062 -2.34215,-8.61562 -0.64419,-3.575 -1.59986,-8.075 -2.12372,-10 -0.57441,-2.11075 -0.81101,-28.50641 -0.59608,-66.5 0.39233,-69.3538 0.97644,-77.29783 6.49702,-88.36097 6.6836,-13.39381 25.50401,-26.42389 45.95998,-31.81981 13.17295,-3.4748 42.37203,-4.43467 58.27598,-1.91573 17.99237,2.84971 33.00774,9.01559 45.0632,18.50464 14.96811,11.78165 20.21637,26.23966 20.36138,56.09187 l 0.0753,15.5 -38.5,0 -38.5,0 -0.67418,-20.37986 c -0.74714,-22.58517 -1.04536,-24.62518 -4.07426,-27.87014 -3.26925,-3.50245 -9.81686,-3.14953 -13.05931,0.7039 -2.24316,2.66584 -2.55314,4.153 -3.17867,15.25 -0.38121,6.76285 -0.54022,40.6461 -0.35335,75.2961 l 0.33977,63 2.27024,3.65078 c 2.55029,4.10113 3.90721,4.84922 8.79577,4.84922 2.30167,0 4.39454,-0.88969 6.46901,-2.75 2.85965,-2.56444 3.1332,-3.42476 4.05404,-12.75 0.54311,-5.5 0.85775,-16.525 0.6992,-24.5 l -0.28827,-14.5 -6,-0.5 -6,-0.5 0,-17.5 0,-17.5 44,0 44,0 0,63 0,63 -24.91667,0 -24.91666,0 -1.35702,-4 c -0.74636,-2.2 -2.19648,-5.09295 -3.22249,-6.42878 l -1.86547,-2.42878 -5.64982,5.0356 c -6.4007,5.70485 -13.73892,9.60949 -22.20293,11.81408 -7.33921,1.91162 -28.41369,1.88112 -37.34067,-0.054 z m -185.52827,-0.11372 c -10.05557,-1.2602 -24.0069,-4.96616 -31,-8.23466 -12.5456,-5.8637 -22.64148,-17.59739 -25.61144,-29.76628 -0.64747,-2.65288 -1.67477,-5.45457 -2.28289,-6.22598 -1.44233,-1.82962 -2.13632,-94.25201 -0.76664,-102.09744 3.30603,-18.93665 8.92373,-29.46639 20.70673,-38.81235 14.3471,-11.37975 32.20432,-16.18765 60.12316,-16.18765 21.85127,0 34.39456,2.01675 49.1468,7.90198 14.95527,5.96623 28.99844,19.16012 32.91166,30.92127 0.85584,2.57221 2.05479,5.3085 2.66434,6.08065 0.7792,0.98704 1.10828,17.02137 1.10828,54 l 0,52.5961 -2.64077,7.54304 c -8.08444,23.09217 -26.32024,36.75735 -55.35923,41.484 -8.27322,1.34662 -40.44042,1.87004 -49,0.79732 z m 28.42859,-35.28614 c 4.43477,-2.37342 4.57141,-4.31746 4.57141,-65.03822 0,-60.72076 -0.13664,-62.6648 -4.57141,-65.03822 -2.11106,-1.1298 -7.98202,-1.25184 -9.45169,-0.19647 -0.5627,0.40408 -1.9127,2.08469 -3,3.73469 -1.91199,2.9015 -1.9769,4.90424 -1.9769,61 0,54.96818 0.0988,58.18295 1.88953,61.5 1.03925,1.925 2.38925,3.83061 3,4.23469 1.59301,1.05393 7.42718,0.93377 9.53906,-0.19647 z m 362.67421,34.35612 c -32.78294,-5.92042 -51.41568,-20.37278 -57.23554,-44.39434 -1.62541,-6.70894 -1.81696,-12.51003 -1.81602,-55 10e-4,-45.16992 0.10582,-47.91922 2.13678,-56.04605 5.5133,-22.06138 19.77974,-34.6151 47.81198,-42.07202 11.48201,-3.05435 41.20367,-3.82108 55.49397,-1.43157 17.44474,2.91697 29.62317,7.90734 40.50603,16.5982 9.15782,7.31327 13.00836,12.69313 16.98758,23.73453 3.70195,10.27203 4.59718,18.86872 4.29219,41.21691 l -0.27977,20.5 -46.5,0.5 -46.5,0.5 -0.32127,20.5 c -0.35749,22.81071 0.96064,35.63617 4.06856,39.58725 1.503,1.91075 2.83272,2.41275 6.39103,2.41275 6.09591,0 8.13572,-1.32085 10.53278,-6.82034 1.7165,-3.9381 2.14187,-7.69047 2.68431,-23.67966 l 0.64459,-19 34.5,0 34.5,0 0.27674,15.37949 c 0.15221,8.45872 -0.18117,17.8566 -0.74085,20.88417 -2.7207,14.71763 -15.2383,30.59324 -30.3309,38.46755 -14.10133,7.35714 -27.1399,9.80356 -51.58598,9.67905 -10.48925,-0.0534 -20.81472,-0.66686 -25.51621,-1.51592 z M 680.49075,478.9128 c -0.2004,-19.50821 -1.5466,-22.69347 -9.59104,-22.69347 -5.53522,0 -6.82522,1.71047 -8.34601,11.06638 -1.45194,8.93233 -1.88858,25.12257 -0.70933,26.30181 0.38583,0.38584 4.77333,0.57334 9.75,0.41667 l 9.04847,-0.28486 -0.15209,-14.80653 z"
         id="path3074"
         inkscape:connector-curvature="0" />
      <path
         style="fill:#5fb95f"
         d="m 64.142843,623.69344 c -0.825,-0.16164 -4.875,-0.83665 -9,-1.50003 C 34.974735,618.95 17.465822,610.44261 7.104785,598.85223 0.965088,591.98405 -3.981268,578.70746 -5.797828,564.22011 -7.118355,553.6887 -7.21546,443.93969 -5.914179,432.71933 c 2.219246,-19.13557 14.232004,-34.62596 34.580506,-44.5914 15.61378,-7.64666 26.369445,-10.04767 47.722666,-10.65324 11.14825,-0.31616 21.37007,-0.0471 27.493287,0.7236 32.45435,4.08505 57.78197,19.62792 63.79483,39.14915 0.91005,2.95454 2.33686,7.39689 3.1707,9.87189 2.08015,6.1743 3.18446,53.22338 1.30245,55.49105 -1.07481,1.29508 -6.4509,1.50895 -37.92986,1.50895 -27.19366,0 -36.987847,-0.31029 -37.877557,-1.2 -0.85852,-0.85852 -1.21759,-7.61699 -1.26182,-23.75 -0.034,-12.4025 -0.39426,-25.87068 -0.80056,-29.92929 -0.93714,-9.36129 -2.69924,-11.12071 -11.13762,-11.12071 -8.612214,0 -9.86173,1.41705 -11.022144,12.5 -1.140747,10.89512 -1.1802,128.56137 -0.04709,140.43378 0.999866,10.47623 2.450105,12.06622 11.005704,12.06622 10.69913,0 11.84578,-3.82935 11.99246,-40.05 0.0495,-12.23196 0.4347,-17.91363 1.27107,-18.75 0.88971,-0.88971 10.683897,-1.2 37.877557,-1.2 31.64188,0 36.85123,0.20928 37.94258,1.52427 0.97256,1.17186 1.12891,6.20041 0.67626,21.75 -0.71685,24.62541 -3.00983,35.01549 -10.09117,45.72573 -9.42422,14.25376 -31.19601,26.38479 -54.53145,30.38439 -8.280587,1.41926 -38.569472,2.16815 -44.073777,1.08972 z m 378.000917,-0.98822 c -21.03348,-4.73124 -38.18981,-16.1528 -47.25419,-31.45874 -7.84496,-13.24686 -8.10109,-16.05479 -8.12079,-89.02715 -0.015,-55.67396 0.19566,-64.73245 1.70954,-73.5 3.12104,-18.07524 10.43704,-28.0701 28.31146,-38.6781 15.27343,-9.06438 31.62211,-12.82429 55.73405,-12.81788 25.16098,0.007 43.86494,4.3053 60.0029,13.79006 16.32412,9.59418 24.88997,21.34676 28.21075,38.70592 2.15143,11.24644 3.02204,36.05202 1.33662,38.08283 -0.97579,1.17576 -7.42418,1.41717 -37.8537,1.41717 -27.19366,0 -36.98785,-0.31029 -37.87756,-1.2 -0.8076,-0.8076 -1.22324,-5.63086 -1.27107,-14.75 -0.0391,-7.4525 -0.41567,-17.48344 -0.83684,-22.29097 -0.99114,-11.31351 -2.29819,-12.96497 -9.93516,-12.55312 -4.64493,0.2505 -5.76485,0.71247 -7.55511,3.11654 -2.07681,2.78887 -2.10588,3.59797 -2.44263,68 -0.18745,35.84765 -0.0293,70.25974 0.35138,76.47131 0.61413,10.02011 0.97272,11.62715 3.17971,14.25 2.12677,2.52753 3.19163,2.95624 7.34285,2.95624 7.85698,0 9.8371,-2.43188 10.99213,-13.5 0.51656,-4.95 0.9472,-16.3125 0.95697,-25.25 l 0.0178,-16.25 -5.3,0 c -2.915,0 -5.84,-0.54 -6.5,-1.2 -0.83077,-0.83077 -1.2,-6 -1.2,-16.8 0,-10.8 0.36923,-15.96923 1.2,-16.8 1.72533,-1.72533 84.87467,-1.72533 86.6,0 1.7336,1.7336 1.7336,122.8664 0,124.6 -1.74883,1.74883 -47.15663,1.70206 -48.54723,-0.05 -0.54567,-0.6875 -1.51011,-2.825 -2.1432,-4.75 -0.63309,-1.925 -1.98502,-4.58389 -3.00428,-5.90863 l -1.85321,-2.40864 -1.87604,2.24931 c -3.40534,4.0829 -14.0085,11.01787 -20.99862,13.73411 -6.07324,2.35995 -8.51444,2.70805 -20.87742,2.97703 -9.66173,0.21022 -16.01391,-0.1484 -20.49908,-1.15729 z m -185.50092,-0.16153 c -10.13103,-1.26966 -24.01186,-4.96766 -31.1523,-8.2993 -16.52235,-7.70911 -25.22066,-20.15371 -29.37394,-42.02506 -1.10308,-5.80884 -1.11854,-90.08049 -0.0176,-96 4.22986,-22.74327 13.18036,-35.70608 30.97304,-44.85754 14.64263,-7.53128 27.44815,-10.14246 49.73972,-10.14246 16.26674,0 25.60022,1.0198 36.33108,3.96963 24.42917,6.7154 39.55656,19.13658 46.83503,38.45649 l 2.66497,7.07388 -0.005,50.5 -0.005,50.5 -2.7784,8 c -8.09136,23.29791 -26.72172,37.22694 -56.21201,42.02704 -8.25708,1.34399 -38.53888,1.85771 -47,0.79732 z m 29.89875,-37.64787 c 2.08015,-2.79516 2.10125,-3.42467 2.10125,-62.67683 0,-59.25228 -0.0211,-59.88167 -2.10125,-62.67649 -1.74532,-2.34496 -2.95597,-2.87377 -7.14723,-3.12187 -4.71152,-0.27889 -5.20193,-0.0801 -7.39875,3 l -2.35277,3.2987 -0.34081,50.5 c -0.38211,56.62115 0.0492,67.16925 2.94136,71.92495 1.81894,2.991 2.23551,3.16062 7.06493,2.87673 4.28505,-0.25189 5.47881,-0.76767 7.23327,-3.12519 z m 361.20405,36.71785 c -33.05932,-5.97033 -52.4072,-21.04771 -58.25176,-45.39434 -1.60065,-6.6678 -1.80031,-12.65962 -1.79937,-54 10e-4,-44.18348 0.10758,-46.92345 2.13931,-55 5.76687,-22.92444 19.93051,-35.43371 48.80902,-43.10791 6.16494,-1.63828 12.0551,-2.24187 25.67835,-2.63137 25.88518,-0.74008 41.02983,2.10951 58.01841,10.91664 8.84997,4.58795 19.44486,13.82902 23.19857,20.23425 3.56006,6.07479 7.29418,16.82127 8.5438,24.58839 1.50307,9.34245 1.39628,45.26459 -0.13913,46.8 -0.8984,0.8984 -12.71111,1.2 -47,1.2 l -45.8,0 10e-4,22.75 c 0.001,22.90933 1.30297,35.50171 4.00696,38.75981 0.83117,1.0015 3.10707,1.49019 6.93999,1.49019 4.66011,0 6.06602,-0.41153 7.68671,-2.25 3.96446,-4.49718 4.59098,-7.7772 5.10951,-26.75 0.27809,-10.175 0.95447,-19.0625 1.50308,-19.75 1.40849,-1.7651 65.78982,-1.81275 67.55257,-0.05 1.52978,1.52978 1.63845,27.06089 0.14946,35.11558 -1.93071,10.44414 -10.52428,24.10646 -20.09319,31.94477 -4.85521,3.9771 -15.8378,9.7473 -23.14713,12.16137 -13.90077,4.59105 -45.81925,6.09457 -63.10634,2.97262 z M 680.84925,478.0276 c -0.72672,-19.5396 -1.41576,-21.12971 -9.36153,-21.60373 -3.7815,-0.22559 -5.31566,0.12911 -6.48788,1.5 -2.00646,2.34653 -3.87192,15.40486 -3.86361,27.04546 l 0.007,9.25 10.15431,0 10.1543,0 -0.6022,-16.19173 z"
         id="path3072"
         inkscape:connector-curvature="0" />
      <path
         style="fill:#2ba32b"
         d="m 63.142843,622.69344 c -0.825,-0.16164 -4.875,-0.83665 -9,-1.50003 C 24.983812,616.5041 3.900677,601.742 -0.805598,582.71933 c -0.680359,-2.75 -1.636553,-5.9 -2.124875,-7 -2.26729,-5.10732 -2.926211,-22.59532 -2.919095,-77.47377 0.0071,-55.04905 0.700406,-73.70365 2.838763,-76.3861 0.499879,-0.62707 1.239767,-2.26513 1.644195,-3.64013 0.862571,-2.93262 6.271213,-11.17833 10.232384,-15.59971 7.96565,-8.89112 22.46291,-16.7187 39.071257,-21.09594 8.221192,-2.16676 12.577111,-2.63359 28.477138,-3.05198 27.810551,-0.7318 45.721591,2.17291 61.728671,10.01082 17.96125,8.79477 25.54783,17.31682 30.6719,34.45395 2.46401,8.24071 2.6551,10.37237 3.09569,34.53286 l 0.46958,25.75 -38.11858,0 -38.118587,0 -0.0539,-22.75 c -0.0296,-12.5125 -0.42887,-26.32937 -0.88716,-30.70416 -0.73978,-7.06205 -1.15432,-8.21109 -3.69608,-10.24503 -3.42404,-2.73996 -10.86933,-3.12449 -15.375754,-0.79413 -5.461567,2.82427 -5.487106,3.20823 -5.487106,82.49332 0,79.04033 -0.02705,78.64185 5.533632,81.51739 4.817288,2.49112 11.435568,1.92869 15.022998,-1.27668 2.90443,-2.59511 3.14125,-3.35376 3.9801,-12.75 0.49056,-5.49489 0.90797,-17.75321 0.9276,-27.24071 l 0.03567,-17.25 38.138777,0 38.13877,0 -0.5754,21.75 c -0.51057,19.29953 -0.87041,22.82032 -3.19389,31.25 -3.19535,11.59289 -7.60371,18.44658 -16.5534,25.73558 -11.52899,9.38968 -26.27475,15.80255 -42.88108,18.64881 -8.29986,1.42256 -40.489125,2.18389 -46.073777,1.08972 z m 378.028267,-1.03603 c -7.77594,-1.68565 -17.56914,-5.48952 -24.93756,-9.68624 -6.75186,-3.84556 -17.03463,-13.84059 -20.19805,-19.63284 -1.31596,-2.40955 -2.91956,-5.33455 -3.56356,-6.5 -0.64399,-1.16545 -1.69157,-5.044 -2.32795,-8.619 -0.63638,-3.575 -1.57198,-7.88195 -2.0791,-9.571 -1.19809,-3.99038 -1.21963,-127.88161 -0.0226,-130.19257 0.49467,-0.95504 1.41222,-5.78643 2.03899,-10.73643 1.48894,-11.759 4.56354,-17.84455 13.06972,-25.86885 16.95182,-15.99148 37.32066,-22.63512 69.37287,-22.62713 25.74434,0.006 43.72758,3.95504 59.51451,13.06774 16.20706,9.35521 24.83358,20.94139 27.12269,36.42824 0.65037,4.4 1.58733,8.78139 2.08215,9.73643 0.49481,0.95504 0.89966,8.26754 0.89966,16.25 l -4e-5,14.51357 -38,0 -38,0 -0.0357,-13.25 c -0.0196,-7.2875 -0.43699,-17.74516 -0.92747,-23.23923 -0.80225,-8.98618 -1.15571,-10.21625 -3.52009,-12.25 -3.64494,-3.13525 -10.41706,-3.11077 -14.09276,0.0509 -2.35747,2.0278 -2.78642,3.348 -3.49284,10.75 -1.05788,11.08458 -1.0612,130.17031 -0.004,140.25137 0.69123,6.5907 1.25965,8.27258 3.63318,10.75 3.53465,3.68939 10.01774,4.08553 14.51019,0.88663 4.43281,-3.15644 5.20394,-7.85746 5.32293,-32.44971 l 0.10644,-22 -6.25,-0.29772 -6.25,-0.29771 0,-16.95229 0,-16.95228 43.5,0 43.5,0 0,62.51778 0,62.51778 -24.22208,-0.26778 -24.22207,-0.26778 -1.52793,-4.07076 c -0.84035,-2.23892 -2.33746,-5.29423 -3.3269,-6.78958 l -1.79899,-2.71881 -5.93163,5.36782 c -6.62296,5.99343 -13.95154,9.95043 -22.60146,12.20345 -7.33921,1.91162 -28.41369,1.88112 -37.34067,-0.054 z m -185.52827,-0.11372 c -10.47397,-1.31264 -23.9154,-4.92063 -31,-8.32113 -12.34377,-5.92481 -21.83847,-16.99024 -24.52653,-28.58403 -0.62729,-2.70556 -1.66544,-5.99982 -2.307,-7.32059 -1.65735,-3.41195 -1.65735,-102.78527 0,-106.19722 0.64156,-1.32077 1.67833,-4.65139 2.30394,-7.40139 3.04907,-13.40279 12.90804,-24.94573 27.52959,-32.23178 13.61488,-6.78443 26.79168,-9.26822 49.16892,-9.26822 21.92788,0 34.37777,2.0114 49.31092,7.96667 14.36248,5.72769 28.47261,19.25515 31.96739,30.64731 0.65566,2.13731 1.72326,4.96748 2.37244,6.28926 1.62278,3.30412 1.69374,106.13906 0.0747,108.19367 -0.60812,0.7717 -1.64531,3.65309 -2.30487,6.40309 -2.28896,9.54371 -12.60241,22.33907 -22.97104,28.49895 -14.9474,8.88009 -30.56826,12.06434 -58.11842,11.8472 -10.175,-0.0802 -19.85,-0.315 -21.5,-0.52179 z m 31.19911,-35.99668 2.80089,-3.67233 0,-59.65566 0,-59.65567 -2.80089,-3.67201 c -2.55402,-3.34836 -3.23262,-3.67201 -7.69911,-3.67201 -4.46644,0 -5.14512,0.32368 -7.69911,3.67188 l -2.80089,3.67189 0,58.67615 c 0,49.38994 0.23057,59.13543 1.45687,61.57812 2.75493,5.48759 4.0614,6.40196 9.14723,6.40196 4.34671,0 5.05551,-0.34272 7.59501,-3.67232 z m 359.90369,35.06666 c -19.57104,-3.53443 -32.78384,-9.46734 -42.18827,-18.94373 -7.67087,-7.72955 -11.92124,-15.14539 -13.44066,-23.45061 -0.65404,-3.575 -1.59072,-7.28139 -2.08151,-8.23643 -1.04388,-2.03128 -1.22886,-94.09374 -0.19114,-95.13145 0.38566,-0.38567 1.48154,-4.55556 2.43528,-9.26642 0.95374,-4.71087 2.35119,-9.30782 3.10543,-10.21545 0.75424,-0.90764 1.86945,-2.77525 2.47824,-4.15025 3.35691,-7.58184 14.98636,-16.8707 27.27983,-21.78939 12.63556,-5.05556 20.59819,-6.43285 40.19726,-6.95289 20.17805,-0.5354 32.61222,0.81847 45.0665,4.907 20.06616,6.58738 35.36376,19.82292 39.68463,34.33528 0.65503,2.2 1.60108,4.9 2.10235,6 1.98084,4.34686 2.93449,15.93319 2.94171,35.74011 l 0.008,20.74011 -46.75,0.25989 -46.75,0.25989 -0.32954,21 c -0.43495,27.71697 1.54342,41.02502 6.37434,42.87882 0.89033,0.34165 3.57244,0.62118 5.96026,0.62118 4.78736,0 10.49494,-3.74647 10.49494,-6.88889 0,-0.94111 0.5016,-2.21271 1.11466,-2.82577 0.70437,-0.70437 1.31027,-8.32387 1.64607,-20.7 l 0.53095,-19.58534 33.85394,0 33.85393,0 0,15.36351 c 0,22.12363 -1.64122,28.68055 -10.05379,40.16634 -10.3465,14.12621 -24.76616,22.33589 -45.61806,25.97216 -11.0731,1.93098 -40.77915,1.86915 -51.72535,-0.10767 z M 681.9331,485.87844 c 0.15964,-4.86249 -0.12901,-12.65649 -0.64146,-17.32001 -1.17917,-10.73111 -3.16718,-13.3391 -10.16813,-13.3391 -6.38338,0 -7.92737,1.96754 -9.59567,12.22791 -1.42602,8.77027 -1.86034,25.96342 -0.68555,27.1382 0.38469,0.3847 5.22219,0.5722 10.75,0.41667 l 10.05055,-0.28278 0.29026,-8.84089 z"
         id="path3070"
         inkscape:connector-curvature="0" />
      <path
         style="fill:#109810"
         d="M 61.642843,621.584 C 45.870475,619.26011 31.757338,614.98693 23.79763,610.12521 10.468783,601.98406 2.756949,592.73129 -0.29431,581.21933 c -0.947558,-3.575 -2.249336,-8.3 -2.89284,-10.5 -0.843906,-2.88513 -1.169041,-23.37087 -1.166542,-73.5 l 0.0035,-69.5 2.735433,-6.74333 c 7.630389,-18.81037 24.391375,-31.80442 49.638717,-38.48274 8.333605,-2.20436 12.291295,-2.60443 29.618885,-2.99404 22.413277,-0.50397 34.208547,0.76378 48.180437,5.17843 15.26049,4.8218 30.2529,15.05909 36.67329,25.04168 1.41495,2.2 3.78025,8.05 5.25622,13 2.52424,8.46559 2.71169,10.49933 3.15682,34.25 l 0.47323,25.25 -36.99168,0 -36.991677,0 -0.50926,-28.25 c -0.3165,-17.55662 -0.94366,-29.40498 -1.65687,-31.30125 -1.54281,-4.10207 -5.82071,-6.44958 -11.7448,-6.44501 -6.740347,0.005 -10.883199,2.7134 -12.544885,8.20065 -1.940772,6.40885 -1.892568,147.62179 0.05227,153.123 3.664543,10.36561 21.104936,10.34728 24.134716,-0.0254 0.6108,-2.09111 1.38117,-14.71452 1.71193,-28.05202 l 0.60138,-24.25 36.989696,0 36.98969,0 -0.57996,21.25 c -0.50712,18.58105 -0.89946,22.40242 -3.12381,30.42551 -2.87569,10.37242 -6.33904,16.12727 -13.67495,22.72288 -10.87749,9.7798 -24.30806,16.62328 -39.66847,20.21288 -6.56678,1.53459 -45.444682,2.8273 -52.733316,1.7534 z m 379.528267,-0.92659 c -25.97444,-5.63067 -46.43181,-23.43688 -50.03946,-43.55462 -0.62959,-3.51091 -1.55964,-7.76541 -2.06676,-9.45446 -1.19042,-3.96483 -1.21769,-126.57459 -0.0288,-129.63195 0.49126,-1.26338 1.41838,-6.34705 2.06025,-11.29705 1.33417,-10.28885 3.70367,-15.74635 9.49553,-21.87036 10.06388,-10.64106 23.30686,-18.36702 38.19858,-22.28508 8.31799,-2.1885 12.71414,-2.67026 28.22711,-3.09337 33.78182,-0.92136 54.83507,4.39209 72.85957,18.38841 11.10437,8.62273 16.34272,17.18816 18.26639,29.86811 0.66688,4.39576 1.61455,9.02596 2.10594,10.28934 0.49138,1.26338 0.89342,8.35088 0.89342,15.75 l -4e-5,13.45295 -37,0 -37,0 -0.0357,-12.75 c -0.0196,-7.0125 -0.43704,-17.24582 -0.9276,-22.74071 -0.83885,-9.39624 -1.07567,-10.15489 -3.9801,-12.75 -4.36112,-3.89666 -10.77415,-3.87699 -15.16532,0.0465 -2.98239,2.66476 -3.18772,3.33005 -4.08465,13.2348 -1.33391,14.73032 -0.57854,141.71211 0.86232,144.95939 0.61011,1.375 2.26269,3.7375 3.6724,5.25 4.65129,4.99042 15.80824,3.10656 18.6592,-3.15063 2.8337,-6.21929 4.32976,-49.36903 1.79942,-51.89937 -0.66,-0.66 -3.585,-1.2 -6.5,-1.2 l -5.3,0 0,-16 0,-16 42.5,0 42.5,0 0,61.5 0,61.5 -23.42245,0 -23.42245,0 -1.21073,-3.66857 c -1.58929,-4.81566 -4.87772,-10.33141 -6.15946,-10.33141 -0.55966,0 -3.70379,2.48697 -6.98695,5.52659 -11.16085,10.33298 -20.6072,13.51532 -39.75803,13.39391 -6.89694,-0.0437 -15.45218,-0.71082 -19.01163,-1.48242 z m -185.52827,-0.11372 c -10.37393,-1.3001 -23.86132,-4.88804 -30.39296,-8.08519 -11.89895,-5.82437 -21.73587,-17.27333 -24.20489,-28.17151 -0.56915,-2.51221 -1.56747,-5.46766 -2.21848,-6.56766 -1.53541,-2.59432 -2.27829,-94.00368 -0.82213,-101.16042 3.41194,-16.769 6.37164,-23.89291 12.85916,-30.95163 14.78025,-16.08156 33.35698,-22.38795 65.94822,-22.38795 21.62287,0 32.97953,1.73835 47.33108,7.2449 14.95089,5.73652 29.88149,19.6544 33.08603,30.84186 0.69528,2.42728 1.74785,5.04436 2.33905,5.81574 1.41603,1.84756 2.05947,92.4369 0.7192,101.25529 -2.29299,15.08689 -6.39106,23.77067 -15.60243,33.06143 -9.27478,9.35471 -22.67334,15.48076 -40.04185,18.30782 -8.27322,1.34662 -40.44042,1.87004 -49,0.79732 z m 31.07188,-32.99642 c 1.36201,-1.46964 2.80303,-3.83214 3.20225,-5.25 0.94772,-3.36586 0.94772,-116.79002 0,-120.15588 -0.39922,-1.41786 -1.84024,-3.78036 -3.20225,-5.25 -2.02903,-2.18936 -3.35372,-2.67206 -7.333,-2.67206 -5.25709,0 -6.8423,0.88886 -9.80885,5.5 -1.851,2.87716 -1.93003,5.4159 -1.93003,62 l 0,59 2.22326,4.15775 c 2.58541,4.835 3.17291,5.15796 9.57449,5.2633 3.97215,0.0654 5.22389,-0.38086 7.27413,-2.59311 z m 360.00761,32.11095 c -19.66434,-3.67098 -32.44173,-9.5358 -42.20297,-19.37116 -6.74581,-6.79703 -10.78088,-13.86286 -12.32481,-21.58205 -0.65847,-3.29213 -1.63585,-7.56068 -2.17197,-9.48568 -0.5915,-2.12386 -0.83813,-21.19322 -0.62727,-48.5 0.28967,-37.51324 0.62604,-46.24779 2.02181,-52.5 3.7056,-16.59892 12.6057,-27.82184 28.04666,-35.36648 14.33818,-7.00582 22.84672,-8.78272 44.87632,-9.37188 32.15099,-0.85984 51.26725,3.9201 67.30274,16.82875 10.55644,8.49799 13.81625,13.18828 18.00745,25.90961 2.68536,8.15074 2.81886,9.49641 3.24906,32.75 l 0.44863,24.25 -45.90257,0 c -34.36867,0 -46.20409,0.30152 -47.10257,1.2 -1.74145,1.74145 -1.63079,43.02885 0.14023,52.315 2.14528,11.24861 4.0763,13.485 11.64369,13.485 6.13687,0 9.80595,-2.35321 12.17193,-7.8066 1.72215,-3.96942 2.1213,-7.58566 2.58766,-23.4434 l 0.55141,-18.75 32.96218,0 32.96219,0 -0.42124,18.25 c -0.3991,17.29061 -0.56831,18.5917 -3.21881,24.75 -2.94701,6.84723 -10.69117,16.72459 -17.82647,22.73693 -5.56468,4.68891 -18.34713,10.59949 -27.75277,12.83283 -10.35227,2.45811 -46.0171,2.99794 -57.42051,0.86913 z m 35.45198,-124.9768 c 0.97259,-1.1719 1.13086,-5.08218 0.66504,-16.43018 -0.85447,-20.81581 -2.47789,-24.03191 -12.13077,-24.03191 -4.99642,0 -8.14695,2.18174 -8.98854,6.22456 -2.76918,13.30255 -3.53073,32.42191 -1.3772,34.57544 1.90017,1.90017 20.20922,1.61678 21.83147,-0.33791 z"
         id="path3068"
         inkscape:connector-curvature="0" />
    </g>
  </g>
</svg>
