<?xml version="1.0" encoding="UTF-8" standalone="no"?>
<!-- Created with Inkscape (http://www.inkscape.org/) -->

<svg
   xmlns:dc="http://purl.org/dc/elements/1.1/"
   xmlns:cc="http://creativecommons.org/ns#"
   xmlns:rdf="http://www.w3.org/1999/02/22-rdf-syntax-ns#"
   xmlns:svg="http://www.w3.org/2000/svg"
   xmlns="http://www.w3.org/2000/svg"
   xmlns:sodipodi="http://sodipodi.sourceforge.net/DTD/sodipodi-0.dtd"
   xmlns:inkscape="http://www.inkscape.org/namespaces/inkscape"
   width="743.39618"
   height="745.99274"
   id="svg2"
   version="1.1"
   inkscape:version="0.48.2 r9819"
   sodipodi:docname="FeatView.svg">
  <defs
     id="defs4" />
  <sodipodi:namedview
     id="base"
     pagecolor="#ffffff"
     bordercolor="#666666"
     borderopacity="1.0"
     inkscape:pageopacity="0.0"
     inkscape:pageshadow="2"
     inkscape:zoom="0.3915002"
     inkscape:cx="369.32902"
     inkscape:cy="395.86906"
     inkscape:document-units="px"
     inkscape:current-layer="layer1"
     showgrid="false"
     inkscape:window-width="483"
     inkscape:window-height="634"
     inkscape:window-x="553"
     inkscape:window-y="0"
     inkscape:window-maximized="0"
     fit-margin-top="0"
     fit-margin-left="0"
     fit-margin-right="0"
     fit-margin-bottom="0" />
  <metadata
     id="metadata7">
    <rdf:RDF>
      <cc:Work
         rdf:about="">
        <dc:format>image/svg+xml</dc:format>
        <dc:type
           rdf:resource="http://purl.org/dc/dcmitype/StillImage" />
        <dc:title></dc:title>
      </cc:Work>
    </rdf:RDF>
  </metadata>
  <g
     inkscape:label="Layer 1"
     inkscape:groupmode="layer"
     id="layer1"
     transform="translate(-2.718219,-176.05739)">
    <g
       id="g3418"
       transform="matrix(1.0620349,0,0,1.06568,-474.66601,-229.32678)">
      <path
         style="fill:#a7d8a7"
         d="m 498.98874,1079.2882 c -7.79585,-1.2275 -12.49561,-3.1561 -20.70337,-8.4957 -8.47542,-5.5136 -17.21861,-15.0428 -22.04599,-24.0277 -7.19167,-13.3853 -6.71393,9.1219 -6.71254,-316.24155 0.001,-238.92735 0.24484,-293.88134 1.33121,-300.04197 4.11313,-23.32485 25.14505,-44.45762 48.3084,-48.54004 11.66336,-2.05561 588.98125,-2.05561 600.64455,0 17.2861,3.04658 33.5941,15.44525 43.1274,32.7891 6.9536,12.65041 6.5115,-8.70503 6.5319,315.52435 0.013,209.9488 -0.2954,294.27801 -1.0963,299.50001 -1.3986,9.1191 -3.1277,13.5353 -8.5837,21.9233 -5.0832,7.815 -13.8362,16.2195 -21.9899,21.1145 -6.6316,3.9812 -10.1031,5.1729 -19.427,6.6692 -8.5955,1.3793 -590.59236,1.2108 -599.38466,-0.1735 z m 598.99996,-348.76495 0,-298.5 -298.49996,0 -298.5,0 -0.25604,297.5 c -0.14082,163.625 -0.0422,298.06325 0.21925,298.75165 0.3794,0.9991 60.6556,1.2009 298.75604,1 l 298.28071,-0.2516 0,-298.50005 z M 549.98874,986.3321 c -4.4,-4.44624 -9.76047,-9.37611 -11.91216,-10.95525 -6.6689,-4.89436 -19.58784,-20.24548 -19.58784,-23.27554 0,-1.42785 30.29876,-32.39737 129.49888,-132.36574 20.35061,-20.50822 37.16221,-37.75398 37.35909,-38.32391 0.19688,-0.56992 -1.00435,-2.73145 -2.66941,-4.80339 -4.88823,-6.08276 -22.14402,-42.75677 -24.27169,-51.58502 -2.11586,-8.77929 -2.03211,-8.71581 -10.74155,-8.14141 -4.22143,0.27841 -9.5922,0.8093 -11.93506,1.17977 -5.6687,0.89636 -8.47812,0.0697 -12.87088,-3.78719 -6.21903,-5.46038 -7.98442,-12.95008 -4.83124,-20.49669 3.55087,-8.49844 8.95643,-11.20149 22.46186,-11.23206 l 9.5,-0.0215 0.0715,-19.75046 c 0.0919,-25.38254 1.64165,-39.14019 6.33636,-56.25046 1.13182,-4.125 2.06557,-7.64677 2.07499,-7.82615 0.0241,-0.4585 -14.61016,0.55294 -19.7426,1.36451 -5.6687,0.89636 -8.47812,0.0697 -12.87088,-3.78719 -6.42831,-5.64413 -8.06104,-13.4298 -4.47305,-21.32977 3.55183,-7.82035 11.02753,-11.45576 19.49783,-9.48174 3.02422,0.7048 10.40586,1.06159 18.10584,0.87513 l 13,-0.31479 4.5628,-8.61373 c 4.26958,-8.06018 6.5151,-11.40212 18.67937,-27.8 7.60164,-10.24729 30.65813,-32.72861 39.69412,-38.70393 4.43504,-2.9328 9.41371,-6.4212 11.06371,-7.75201 1.65,-1.3308 11.55,-6.70967 22,-11.95303 14.46706,-7.25895 21.38576,-10.12985 29,-12.03347 5.5,-1.37505 11.125,-2.92718 12.5,-3.44918 1.375,-0.52199 7.45,-1.50377 13.5,-2.18173 6.05,-0.67796 12.30465,-1.63321 13.89922,-2.12279 3.89511,-1.19589 37.47412,-1.13825 42.83643,0.0735 2.34539,0.53002 9.21435,1.64434 15.26435,2.47627 16.89552,2.32328 42.32431,9.87236 47.5,14.1014 2.25728,1.84441 9.7317,5.45867 11.28873,5.45867 1.64826,0 9.98606,5.2325 28.06133,17.61027 8.85243,6.06206 34.17311,31.09969 39.47461,39.03326 2.2579,3.37894 4.9085,6.94567 5.8903,7.92605 2.7025,2.69869 7.8614,10.98186 12.5659,20.1759 l 4.2191,8.24547 7.384,0.005 c 4.0612,0.002 9.1237,-0.51671 11.25,-1.15377 6.7796,-2.03122 15.7977,2.25784 19.402,9.22775 1.861,3.59877 1.8902,12.21416 0.053,15.7302 -1.5933,3.04976 -6.0925,7.47033 -9.0893,8.93038 -2.264,1.10302 -11.0441,0.94845 -13.8654,-0.24409 -1.5216,-0.64318 -1.7588,-0.4381 -1.2867,1.11278 0.3183,1.0457 1.0339,3.97963 1.5902,6.51984 0.5563,2.54022 1.4838,5.86094 2.0611,7.37939 2.0232,5.32147 3.9816,29.18379 3.9911,48.63072 l 0.01,19.62868 3.1329,1.29767 c 4.2115,1.74446 8.6183,5.56299 10.4031,9.01443 1.861,3.59877 1.8902,12.21416 0.053,15.7302 -3.0291,5.79812 -10.0331,10.62903 -13.9757,9.63951 -3.6848,-0.92484 -6.2903,1.01894 -7.0823,5.28373 -0.3859,2.07741 -2.2883,8.0521 -4.2278,13.2771 -3.2078,8.64232 -5.3774,13.08971 -16.0163,32.83207 -8.0027,14.85032 -31.3524,43.17964 -43.84525,53.19578 -2.71808,2.17921 -6.2388,5.20195 -7.82382,6.71718 -2.8547,2.729 -9.80019,7.37042 -16.68763,11.15173 -1.96321,1.07784 -5.46084,3.53989 -7.7725,5.47123 -2.31166,1.93134 -5.20539,3.81725 -6.43052,4.19092 -1.22512,0.37367 -4.25249,1.59168 -6.72749,2.7067 -2.475,1.11502 -7.35445,3.3114 -10.84322,4.88085 -3.48877,1.56945 -6.92117,2.85354 -7.62755,2.85354 -0.70639,0 -1.82046,0.64599 -2.47572,1.43553 -0.65526,0.78953 -4.42286,2.15602 -8.37245,3.03664 -3.94958,0.88061 -9.29818,2.28902 -11.88576,3.12979 -13.40298,4.35497 -55.31848,6.26327 -78.2953,3.56456 -13.15833,-1.54549 -33.25091,-6.63997 -42,-10.64911 -3.85,-1.76421 -8.8,-3.78976 -11,-4.50122 -5.79039,-1.87256 -17.84982,-8.26674 -26.5,-14.05091 -4.125,-2.75829 -8.79725,-5.79137 -10.38279,-6.74018 -1.58553,-0.9488 -4.8754,-3.4126 -7.31082,-5.4751 -2.43541,-2.0625 -4.85727,-3.75 -5.38191,-3.75 -0.52463,0 -1.8084,1.40516 -2.85282,3.12257 -1.04443,1.71741 -20.05031,21.41869 -42.23531,43.78062 -22.18499,22.36193 -58.29046,58.75677 -80.23437,80.87743 -21.94391,22.12066 -40.61891,40.19529 -41.5,40.16585 -0.88109,-0.0294 -5.20198,-3.69138 -9.60198,-8.13762 z M 885.85631,827.63344 c 0.92085,-0.7644 2.67736,-1.51261 3.90335,-1.6627 5.78764,-0.70856 20.7803,-4.57096 24.77223,-6.38181 2.45127,-1.11197 5.35685,-2.04429 6.45685,-2.07183 1.1,-0.0276 4.7,-1.57873 8,-3.44709 3.3,-1.86835 8.7,-4.83509 12,-6.59274 16.8807,-8.99105 38.33867,-27.30832 49.006,-41.83324 7.80896,-10.63288 15.87636,-23.15799 19.46626,-30.22238 2.8545,-5.61728 7.0277,-16.37367 7.0277,-18.11374 0,-0.43156 -26.68363,-0.78466 -59.29701,-0.78466 l -59.29705,0 -3.95295,4.0864 c -2.17412,2.24752 -6.14736,5.20893 -8.82941,6.58093 l -4.87646,2.49453 -63.74177,0.004 c -62.9434,0.004 -63.80415,-0.0233 -68.72236,-2.13903 -2.73933,-1.17843 -6.94232,-4.14145 -9.33998,-6.58449 l -4.35939,-4.44234 -17.29179,0 c -10.4119,0 -17.29179,0.38295 -17.29179,0.96249 0,1.81498 4.28257,12.53689 6.00632,15.03751 0.94783,1.375 3.5982,5.99519 5.88973,10.26709 5.67585,10.58103 12.88123,21.59611 16.5576,25.31209 1.67549,1.69355 6.12474,6.54064 9.88721,10.77131 3.76247,4.23066 8.26247,8.4185 10,9.30629 1.73753,0.8878 3.49839,2.19139 3.91303,2.89686 1.08021,1.83788 12.69315,10.47125 16.24611,12.07779 1.65,0.74607 5.475,2.93271 8.5,4.8592 6.34138,4.03852 17.02546,9.24076 20.86519,10.15957 1.44915,0.34676 3.87847,1.25707 5.39851,2.0229 2.78385,1.40258 6.62265,2.36012 18.94499,4.7256 3.68978,0.70831 7.29159,1.7716 8.00402,2.36287 2.09165,1.73591 6.97517,2.02836 31.38393,1.87939 18.08563,-0.11038 23.45989,-0.44249 24.77093,-1.53077 z M 737.64823,678.0794 c 2.1514,-2.44412 6.33934,-5.63162 9.30654,-7.08333 l 5.39491,-2.63949 63.44044,0 c 63.06655,0 63.47044,0.0129 68.53329,2.19089 2.97064,1.27794 6.99983,4.2296 9.66917,7.08334 l 4.57631,4.89244 63.49131,0 c 59.5275,0 63.5362,-0.10925 64.2099,-1.75 0.3953,-0.9625 0.7186,-12.1 0.7186,-24.75 0,-21.1973 -0.1763,-23.52585 -2.25,-29.7091 -1.2375,-3.69 -2.25,-7.32672 -2.25,-8.08159 0,-1.47888 -3.5521,-13.76877 -5.0462,-17.45931 -0.8996,-2.22207 -1.146,-2.25 -19.85076,-2.25 l -18.93988,0 -2.1034,3.40336 c -2.98332,4.82713 -9.53739,10.47805 -14.90807,12.85376 -4.37971,1.93735 -6.5477,2.03177 -46.65165,2.03177 -40.10395,0 -42.27194,-0.0944 -46.65165,-2.03177 -5.37068,-2.37571 -11.92475,-8.02663 -14.90807,-12.85376 l -2.1034,-3.40336 -75.79599,0 c -59.47329,0 -75.99662,0.26919 -76.72759,1.25 -1.85303,2.48638 -5.4512,17.68758 -8.34378,35.25 -1.16774,7.08998 -1.16331,41.8601 0.006,44.9349 l 0.97525,2.5651 21.14868,0 21.14868,0 3.91163,-4.44385 z M 855.74827,563.0647 c 3.41758,-4.2832 9.97868,-8.84089 15.15848,-10.52989 2.92493,-0.95374 14.34972,-1.2735 45.07404,-1.26155 l 41.15602,0.016 5.77104,2.8258 c 3.29595,1.61387 7.61853,4.88066 10.07873,7.61699 l 4.30768,4.79118 11.59724,0 c 6.37848,2e-5 11.5972,-0.24967 11.5972,-0.55485 0,-0.30518 -1.79996,-3.20549 -3.99996,-6.44513 -2.2,-3.23964 -4,-6.31627 -4,-6.83694 0,-1.49408 -22.30762,-24.33472 -27.0175,-27.66306 -2.33489,-1.65 -5.19863,-3.93103 -6.36388,-5.06896 -3.57692,-3.49309 -11.29028,-8.37929 -19.90256,-12.60773 -4.51883,-2.21865 -8.95627,-4.68847 -9.86097,-5.48849 -3.51978,-3.11252 -26.81492,-10.31268 -39.85509,-12.31857 -4.125,-0.63453 -9.075,-1.59984 -11,-2.14514 -2.00516,-0.56801 -11.40132,-0.81439 -22,-0.57688 -18.12228,0.40612 -30.23278,1.8882 -42.5,5.20114 -15.89233,4.29196 -16.70311,4.64333 -45.37579,19.66446 -3.50668,1.83709 -9.13168,5.92406 -12.5,9.08216 -3.36831,3.15809 -6.61538,5.74559 -7.2157,5.75 -0.99798,0.007 -3.54641,2.57351 -18.87649,19.00801 -2.82172,3.025 -6.00826,6.79774 -7.08121,8.38387 -5.52154,8.16245 -7.41478,11.18528 -7.43193,11.86613 -0.0104,0.4125 30.91862,0.74999 68.73112,0.74997 l 68.75,-3e-5 2.75953,-3.45849 z"
         id="path3432"
         inkscape:connector-curvature="0" />
      <path
         style="fill:#ea9135"
         d="m 499.98874,1079.0325 c -22.1354,-6.0544 -39.67006,-22.4332 -47.65032,-44.5092 l -2.34968,-6.5 0,-297.50005 0,-297.5 3.3919,-8.5 c 7.82127,-19.59988 20.94485,-32.71375 40.28421,-40.25441 l 8.32389,-3.24559 297.5,0 297.49996,0 8.5,3.39915 c 11.051,4.41929 17.5804,8.64575 25.0027,16.1842 6.8214,6.9281 12.6861,16.34088 16.1477,25.91665 l 2.3496,6.5 0,298 0,298.00005 -3.2995,8 c -7.8444,19.0191 -21.0227,32.2196 -39.7005,39.7672 l -8,3.2328 -296.49996,0.1884 c -248.12596,0.1577 -297.31575,-0.035 -301.5,-1.1792 z m 597.91826,-48.1162 c 1.4375,-0.5517 1.5817,-27.9593 1.5817,-300.50004 l 0,-299.89301 -299.99996,0 -300,0 0,299.92668 c 0,284.80357 0.0882,299.94977 1.75,300.38397 2.66387,0.6962 594.85566,0.7779 596.66826,0.082 z M 549.98874,984.26181 c -4.4,-4.34642 -9.58795,-9.10317 -11.52878,-10.57057 -3.4357,-2.59761 -12.12844,-11.96815 -16.77906,-18.08737 l -2.30784,-3.03662 6.73794,-7.272 c 6.2913,-6.78996 27.52226,-28.30378 122.92629,-124.56407 20.8733,-21.06063 38.09256,-38.69646 38.26503,-39.19073 0.17247,-0.49427 -1.92025,-4.18784 -4.65049,-8.20794 -2.73024,-4.02009 -6.31534,-10.23426 -7.96689,-13.80926 -6.63451,-14.3613 -14.1962,-31.76493 -14.1962,-32.6733 0,-0.53003 -0.70171,-3.32662 -1.55936,-6.21464 l -1.55936,-5.25094 -8.69064,0.52574 c -4.77985,0.28916 -11.16564,0.80384 -14.19064,1.14373 -4.72713,0.53114 -5.98849,0.28802 -8.9762,-1.7301 -5.63702,-3.80765 -8.0238,-8.21025 -8.0238,-14.80049 0,-6.55774 2.38807,-10.99711 7.92168,-14.7262 3.02829,-2.04077 4.56313,-2.27367 14.9762,-2.27252 l 11.60212,10e-4 -0.31253,-17.33654 c -0.42212,-23.4162 1.38751,-40.4632 6.20687,-58.46958 2.03229,-7.59318 2.23722,-9.40059 1.1147,-9.83134 -1.35933,-0.52163 -10.83606,-0.004 -21.50904,1.17573 -4.71845,0.52138 -5.99397,0.27407 -8.9762,-1.74034 -5.63702,-3.80737 -8.0238,-8.20997 -8.0238,-14.80021 0,-6.55774 2.38807,-10.99711 7.92168,-14.7262 3.58574,-2.41644 10.6885,-3.08797 13.9874,-1.32246 0.97768,0.52324 8.21346,1.01994 16.07951,1.10377 l 14.30191,0.15243 4.60475,-8.64326 c 12.38568,-23.2483 39.84079,-54.37535 59.60475,-67.5765 4.4,-2.93894 9.575,-6.57116 11.5,-8.07161 1.925,-1.50044 10.7,-6.32838 19.5,-10.72873 28.40025,-14.20128 54.76651,-20.11725 89.5,-20.0817 26.76813,0.0274 45.07464,2.8146 69.5,10.58153 10.23931,3.25597 36.37961,17.05429 49.06618,25.89991 14.43597,10.06537 36.50478,30.98471 43.16098,40.91282 2.2124,3.3 5.7721,8.11253 7.9104,10.6945 2.1383,2.58198 6.5188,9.70015 9.7345,15.81816 l 5.8466,11.12365 8.6407,-0.52446 c 4.7523,-0.28845 11.1156,-0.80255 14.1406,-1.14244 4.7272,-0.53114 5.9885,-0.28802 8.9762,1.7301 5.6371,3.80765 8.0238,8.21025 8.0238,14.80049 0,6.49017 -2.3849,10.99502 -7.7269,14.59497 -3.2529,2.19211 -9.6023,2.49947 -16.6779,0.80736 -2.7012,-0.64598 -2.8572,-0.52666 -2.2252,1.70149 0.3738,1.3179 1.3792,4.87118 2.2343,7.89618 4.3823,15.50347 6.574,35.84234 6.2066,57.59747 -0.3063,18.13524 -0.28,18.40497 1.7913,18.40376 2.9318,-0.002 8.4175,3.90414 11.124,7.92045 3.1781,4.71587 3.1781,13.44077 0,18.15664 -3.0502,4.52628 -8.5868,8.17348 -11.3534,7.47909 -1.1976,-0.30057 -3.569,-0.26816 -5.2699,0.072 -2.6218,0.52435 -3.2454,1.2466 -4.0966,4.74454 -2.4245,9.96244 -8.2252,25.69065 -10.8887,29.5238 -0.9945,1.43122 -4.433,7.64952 -7.6413,13.81842 -9.6982,18.64803 -32.9425,47.26352 -46.73797,57.53798 -2.88106,2.14572 -6.25536,4.97662 -7.49845,6.29089 -1.24309,1.31426 -6.19309,4.70939 -11,7.54474 -4.80691,2.83535 -10.31484,6.39462 -12.23984,7.90951 -3.25887,2.56458 -24.37976,12.75886 -30,14.47991 -1.375,0.42106 -2.95,1.11316 -3.5,1.538 -1.10197,0.85121 -19.82412,6.02024 -28.5,7.8686 -19.36472,4.12559 -62.5758,4.15953 -80.33943,0.0631 -19.11296,-4.40759 -38.12243,-11.10528 -53.38213,-18.80835 -6.38689,-3.2241 -29.40056,-18.15792 -34.8784,-22.63299 l -3.09996,-2.53247 -35.30329,35.47166 c -19.41681,19.50941 -36.04111,36.59639 -36.94289,37.97107 -0.90178,1.37469 -3.53118,3.86968 -5.84311,5.54443 -2.31193,1.67476 -5.57884,4.95588 -7.25978,7.29138 -4.89267,6.79785 -80.15285,81.76546 -81.88525,81.56692 -0.86117,-0.0987 -5.16576,-3.73559 -9.56576,-8.082 z m 336.79823,-155.0144 c 1.44727,-0.94829 3.46248,-1.72416 4.47825,-1.72416 6.08017,0 34.92372,-9.40699 41.92396,-13.67302 2.55138,-1.55484 7.32453,-4.30218 10.607,-6.1052 11.68021,-6.4158 22.37179,-14.80955 35.25263,-27.67615 8.05087,-8.04197 14.31892,-15.26362 16.34215,-18.82842 1.80515,-3.18054 4.33328,-7.03207 5.61804,-8.55896 4.8995,-5.82268 17.4797,-31.95865 17.4797,-36.3148 0,-0.4639 -27.27437,-0.84345 -60.60975,-0.84345 l -60.60979,0 -5.37867,4.9158 c -9.20629,8.41403 -6.57212,8.13182 -75.90175,8.13182 -69.32963,0 -66.69546,0.28221 -75.90175,-8.13182 l -5.37867,-4.9158 -18.60979,0 c -11.45002,0 -18.60979,0.37595 -18.60979,0.97717 0,2.14026 5.19059,14.58684 8.29565,19.89223 1.81246,3.09683 4.36591,7.6556 5.67432,10.1306 4.03557,7.63371 10.66084,17.22152 16.21926,23.47184 14.09903,15.85404 32.21855,31.62462 40.31077,35.08505 1.65,0.70558 6.07528,3.30871 9.83396,5.78473 8.43232,5.55479 33.31222,14.68729 44.16604,16.21175 2.75,0.38625 5.9,1.1826 7,1.76967 3.90244,2.08275 10.2682,2.53857 32.58341,2.33317 19.46503,-0.17918 22.94676,-0.44596 25.21482,-1.93205 z M 747.93027,672.391 l 6.05847,-2.86617 61.57186,-7.9e-4 c 70.85527,-9.1e-4 67.70195,-0.35742 76.73487,8.6755 l 5.3237,5.32371 64.77507,0 64.77506,0 1.2428,-5.25 c 2.4049,-10.15872 0.081,-52.62432 -3.0884,-56.44763 -0.5461,-0.6587 -1.1929,-2.6837 -1.4373,-4.5 -0.4806,-3.57173 -2.9216,-12.6226 -4.599,-17.05237 l -1.0413,-2.75 -20.33064,0 -20.33064,0 -3.07545,4.47002 c -3.62249,5.26511 -7.8687,8.69054 -14.29876,11.53486 -4.4667,1.97583 -6.41701,2.06489 -45.22187,2.06489 -38.80486,0 -40.75517,-0.0891 -45.22187,-2.06489 -6.43006,-2.84432 -10.67627,-6.26975 -14.29876,-11.53486 l -3.07545,-4.47002 -77.34497,0 c -72.73149,0 -77.38626,0.10438 -78.03724,1.75 -2.32022,5.86534 -5.53107,19.29912 -6.9151,28.93189 -1.59517,11.10225 -2.28134,48.19899 -0.98125,53.04928 0.59303,2.21244 0.7838,2.23342 22.73635,2.5 l 22.13829,0.26883 3.94153,-4.38304 c 2.28465,-2.54058 6.48827,-5.58787 10,-7.24921 z M 859.01852,562.12447 c 9.05908,-9.20497 8.94793,-9.18734 57.10721,-9.05745 l 41.13699,0.11095 5.63282,2.75588 c 3.29726,1.6132 7.16363,4.58722 9.32477,7.17264 l 3.69195,4.41676 13.28824,0 c 8.27151,0 13.2882,-0.38094 13.2882,-1.00904 0,-0.55497 -2.56272,-4.94088 -5.69498,-9.74646 -9.8229,-15.07054 -33.15867,-37.39858 -48.37343,-46.28448 -3.72927,-2.17801 -7.1704,-3.96002 -7.64694,-3.96002 -0.47654,0 -4.42962,-2.25 -8.78461,-5 -4.35499,-2.75 -8.83658,-5.00988 -9.95908,-5.02196 -1.12251,-0.0121 -4.0461,-0.93157 -6.49687,-2.04332 -4.89394,-2.22003 -16.87186,-5.19561 -30.04405,-7.46358 -9.90875,-1.70609 -43.40613,-2.01095 -52.56634,-0.47842 -21.32518,3.56777 -37.2653,8.64069 -51.12736,16.27121 -5.23168,2.87984 -12.00247,6.55438 -15.0462,8.16566 -3.04373,1.61127 -8.05991,5.25973 -11.14707,8.1077 -3.08717,2.84796 -7.02615,5.90317 -8.75331,6.78935 -1.72715,0.88618 -5.10215,3.92466 -7.5,6.75217 -2.39784,2.82751 -6.91965,7.9135 -10.04846,11.3022 -6.16384,6.67582 -15.81126,20.31689 -15.81126,22.35649 0,1.00466 14.3182,1.2625 70.10829,1.2625 l 70.10829,0 5.3132,-5.39878 z"
         id="path3430"
         inkscape:connector-curvature="0" />
      <path
         style="fill:#de6a0d"
         d="m 499.98874,1079.0325 c -22.1354,-6.0544 -39.67006,-22.4332 -47.65032,-44.5092 l -2.34968,-6.5 0,-297.50005 0,-297.5 3.3919,-8.5 c 7.82127,-19.59988 20.94485,-32.71375 40.28421,-40.25441 l 8.32389,-3.24559 297.5,0 297.49996,0 8.5,3.39915 c 11.051,4.41929 17.5804,8.64575 25.0027,16.1842 6.8214,6.9281 12.6861,16.34088 16.1477,25.91665 l 2.3496,6.5 0,298 0,298.00005 -3.2995,8 c -7.8444,19.0191 -21.0227,32.2196 -39.7005,39.7672 l -8,3.2328 -296.49996,0.1884 c -248.12596,0.1577 -297.31575,-0.035 -301.5,-1.1792 z m 597.91826,-48.1162 c 1.4375,-0.5517 1.5817,-27.9593 1.5817,-300.50004 l 0,-299.89301 -299.99996,0 -300,0 0,299.92668 c 0,284.80357 0.0882,299.94977 1.75,300.38397 2.66387,0.6962 594.85566,0.7779 596.66826,0.082 z M 549.98874,984.26181 c -4.4,-4.34642 -9.58795,-9.10317 -11.52878,-10.57057 -3.4357,-2.59761 -12.12844,-11.96815 -16.77906,-18.08737 l -2.30784,-3.03662 6.73794,-7.272 c 6.2913,-6.78996 27.52226,-28.30378 122.92629,-124.56407 20.8733,-21.06063 38.09256,-38.69646 38.26503,-39.19073 0.17247,-0.49427 -1.92025,-4.18784 -4.65049,-8.20794 -2.73024,-4.02009 -6.31534,-10.23426 -7.96689,-13.80926 -7.72437,-16.72047 -14.07172,-31.81695 -14.71583,-35 -0.38953,-1.925 -1.32292,-4.99582 -2.07421,-6.82404 l -1.36598,-3.32405 -8.27009,0.50303 c -4.54855,0.27666 -10.19697,0.80862 -12.55205,1.18212 -5.36084,0.85021 -9.25981,-0.68167 -13.22264,-5.19508 -2.52409,-2.87478 -2.98982,-4.23215 -2.95996,-8.62678 0.0402,-5.91972 1.1779,-8.40615 5.46456,-11.94289 5.13952,-4.2404 7.05511,-4.77233 17.18426,-4.77176 l 9.81574,5.5e-4 -0.33074,-18.25055 c -0.43794,-24.16593 1.34727,-41.32937 6.17483,-59.36635 1.3419,-5.01369 2.10197,-9.66245 1.68905,-10.33058 -0.76565,-1.23884 -11.46503,-0.98858 -20.8151,0.48685 -5.361,0.84597 -9.26219,-0.68779 -13.22264,-5.19849 -2.52409,-2.87478 -2.98982,-4.23215 -2.95996,-8.62678 0.0424,-6.24552 1.20397,-8.54925 6.3805,-12.6547 4.59764,-3.64635 7.59432,-4.57519 11.35254,-3.51878 1.50233,0.4223 9.07042,0.94546 16.81796,1.16259 10.73915,0.30097 14.33297,0.086 15.12393,-0.90476 0.57062,-0.71475 2.90884,-4.89955 5.19603,-9.29955 11.53258,-22.18589 39.97611,-54.4089 59.5936,-67.51222 4.4,-2.93894 9.575,-6.57116 11.5,-8.07161 1.925,-1.50044 10.7,-6.32837 19.5,-10.72873 28.40025,-14.20128 54.76651,-20.11725 89.5,-20.0817 26.76813,0.0274 45.07464,2.8146 69.5,10.58153 10.23931,3.25597 36.37961,17.05429 49.06618,25.89991 14.43597,10.06537 36.50478,30.98471 43.16098,40.91282 2.2124,3.3 5.7721,8.11253 7.9104,10.6945 2.1383,2.58198 6.4769,9.62044 9.6414,15.64104 3.1644,6.0206 6.3942,11.47821 7.1771,12.12802 1.4227,1.18075 14.1345,0.94222 23.0439,-0.4324 10.7482,-1.65831 18.6633,12.99648 12.4496,23.0504 -3.9753,6.43229 -8.0538,7.63889 -20.9496,6.19781 -3.0639,-0.34239 -3.0848,0.7675 -0.2111,11.22063 1.9556,7.1137 3.2598,14.27518 5.2813,29 0.4908,3.575 0.833,15.66971 0.7605,26.87714 l -0.1319,20.37715 3.7168,1.27777 c 7.0394,2.42001 10.5844,7.46085 10.5844,15.05025 0,7.97433 -7.4313,16.35148 -13.2171,14.89934 -4.3702,-1.09685 -7.5785,1.00658 -8.7314,5.72445 -2.4865,10.17472 -8.2524,25.83268 -10.9339,29.69167 -0.9945,1.43122 -4.433,7.64952 -7.6413,13.81842 -9.6982,18.64803 -32.9425,47.26352 -46.73797,57.53798 -2.88106,2.14572 -6.25536,4.97662 -7.49845,6.29089 -1.24309,1.31426 -6.19309,4.70939 -11,7.54474 -4.80691,2.83535 -10.31484,6.39462 -12.23984,7.90951 -3.25887,2.56458 -24.37976,12.75886 -30,14.47991 -1.375,0.42106 -2.95,1.11316 -3.5,1.538 -1.10197,0.85121 -19.82412,6.02024 -28.5,7.8686 -19.36472,4.12559 -62.5758,4.15953 -80.33943,0.0631 -19.11296,-4.40759 -38.12243,-11.10528 -53.38213,-18.80835 -6.38689,-3.2241 -29.40056,-18.15792 -34.8784,-22.63299 l -3.09996,-2.53247 -35.30329,35.47166 c -19.41681,19.50941 -36.04111,36.59639 -36.94289,37.97107 -0.90178,1.37469 -3.53118,3.86968 -5.84311,5.54443 -2.31193,1.67476 -5.57884,4.95588 -7.25978,7.29138 -4.89267,6.79785 -80.15285,81.76546 -81.88525,81.56692 -0.86117,-0.0987 -5.16576,-3.73559 -9.56576,-8.082 z m 336.79823,-155.0144 c 1.44727,-0.94829 3.46248,-1.72416 4.47825,-1.72416 6.08017,0 34.92372,-9.40699 41.92396,-13.67302 2.55138,-1.55484 7.32453,-4.30218 10.607,-6.1052 11.68021,-6.4158 22.37179,-14.80955 35.25263,-27.67615 8.05087,-8.04197 14.31892,-15.26362 16.34215,-18.82842 1.80515,-3.18054 4.33328,-7.03207 5.61804,-8.55896 5.2382,-6.22516 17.4797,-32.00771 17.4797,-36.8148 0,-1.1097 -10.4597,-1.34345 -60.1163,-1.34345 l -60.11635,0 -5.83717,5.40419 c -9.723,9.00179 -6.5542,8.64343 -76.43014,8.64343 -69.87594,0 -66.70714,0.35836 -76.43014,-8.64343 l -5.83717,-5.40419 -18.11635,0 c -15.31231,0 -18.11634,0.22863 -18.11634,1.47717 0,2.56763 4.87011,14.53926 8.29565,20.39223 1.81246,3.09683 4.36591,7.6556 5.67432,10.1306 4.03557,7.63371 10.66084,17.22152 16.21926,23.47184 14.09903,15.85404 32.21855,31.62462 40.31077,35.08505 1.65,0.70558 6.07528,3.30871 9.83396,5.78473 8.43232,5.55479 33.31222,14.68729 44.16604,16.21175 2.75,0.38625 5.9,1.1826 7,1.76967 3.90244,2.08275 10.2682,2.53857 32.58341,2.33317 19.46503,-0.17918 22.94676,-0.44596 25.21482,-1.93205 z M 737.49076,680.4058 c 2.92768,-3.47205 6.27367,-6.04402 10.40654,-7.99921 l 6.09144,-2.88176 61.57186,-7.9e-4 c 71.82638,-9.2e-4 67.7032,-0.51427 77.58628,9.65977 l 6.15813,6.33944 63.9602,0 63.96019,0 0.8293,-4.25 c 2.3607,-12.09756 0.3561,-55.72 -2.7318,-59.44763 -0.5457,-0.6587 -1.1921,-2.6837 -1.4365,-4.5 -0.5852,-4.34897 -3.1545,-13.47649 -4.9409,-17.55237 l -1.4244,-3.25 -19.48464,0 -19.48463,0 -3.99197,5.40372 c -4.43199,5.99938 -7.78508,8.69752 -14.50021,11.66794 -4.27351,1.89037 -6.70362,1.99811 -45.07091,1.99811 -38.36729,0 -40.7974,-0.10774 -45.07091,-1.99811 -6.71513,-2.97042 -10.06822,-5.66856 -14.50021,-11.66794 l -3.99197,-5.40372 -76.43327,0 c -75.26541,0 -76.44953,0.0304 -77.49761,1.98873 -2.24235,4.18986 -5.87854,19.00353 -7.48935,30.51127 -1.25972,8.99951 -1.59683,17.25085 -1.3482,33 0.18234,11.55 0.69558,21.5625 1.14054,22.25 0.60547,0.93551 6.16405,1.25 22.09346,1.25 l 21.28445,0 4.31509,-5.11745 z M 853.48874,568.63328 c 0,-0.48948 2.43967,-3.36893 5.4215,-6.39878 9.18402,-9.33194 8.96976,-9.29761 57.21549,-9.16748 l 41.13699,0.11095 5.58812,2.73401 c 3.58328,1.75314 7.2639,4.69554 10.25907,8.20143 l 4.67096,5.46741 12.60394,-0.27878 c 14.99289,-0.33163 14.71889,0.21505 6.33803,-12.64305 -9.75516,-14.96659 -33.13609,-37.31803 -48.30255,-46.17572 -3.72927,-2.17801 -7.1704,-3.96002 -7.64694,-3.96002 -0.47654,0 -4.42962,-2.25 -8.78461,-5 -4.35499,-2.75 -8.83658,-5.00988 -9.95908,-5.02196 -1.12251,-0.0121 -4.0461,-0.93157 -6.49687,-2.04332 -4.89394,-2.22003 -16.87186,-5.19561 -30.04405,-7.46358 -9.90875,-1.70609 -43.40613,-2.01095 -52.56634,-0.47842 -21.32518,3.56777 -37.2653,8.64069 -51.12736,16.27121 -5.23168,2.87984 -12.00247,6.55438 -15.0462,8.16566 -3.04373,1.61127 -8.05991,5.25973 -11.14707,8.1077 -3.08717,2.84796 -7.02615,5.90317 -8.75331,6.78935 -1.72715,0.88618 -5.10215,3.92714 -7.5,6.75769 -2.39784,2.83055 -7.07575,8.13203 -10.39534,11.78106 -9.00232,9.89574 -17.14444,22.22523 -15.95161,24.15528 0.77884,1.26018 140.48723,1.34905 140.48723,0.0894 z"
         id="path3428"
         inkscape:connector-curvature="0" />
      <path
         style="fill:#20c420"
         d="m 499.98874,1079.0325 c -22.1354,-6.0544 -39.67006,-22.4332 -47.65032,-44.5092 l -2.34968,-6.5 0,-297.50005 0,-297.5 3.3919,-8.5 c 7.82127,-19.59988 20.94485,-32.71375 40.28421,-40.25441 l 8.32389,-3.24559 297.5,0 297.49996,0 8.5,3.39915 c 11.051,4.41929 17.5804,8.64575 25.0027,16.1842 6.8214,6.9281 12.6861,16.34088 16.1477,25.91665 l 2.3496,6.5 0,298 0,298.00005 -3.2995,8 c -7.8444,19.0191 -21.0227,32.2196 -39.7005,39.7672 l -8,3.2328 -296.49996,0.1884 c -248.12596,0.1577 -297.31575,-0.035 -301.5,-1.1792 z m 597.91826,-48.1162 c 1.4375,-0.5517 1.5817,-27.9593 1.5817,-300.50004 l 0,-299.89301 -299.99996,0 -300,0 0,299.92668 c 0,284.80357 0.0882,299.94977 1.75,300.38397 2.66387,0.6962 594.85566,0.7779 596.66826,0.082 z M 549.98874,984.26181 c -4.4,-4.34642 -9.58795,-9.10317 -11.52878,-10.57057 -3.4357,-2.59761 -12.12844,-11.96815 -16.77906,-18.08737 l -2.30784,-3.03662 6.73794,-7.272 c 6.2913,-6.78996 27.52226,-28.30378 122.92629,-124.56407 20.8733,-21.06063 38.09256,-38.69646 38.26503,-39.19073 0.17247,-0.49427 -1.92025,-4.18784 -4.65049,-8.20794 -2.73024,-4.02009 -6.31534,-10.23426 -7.96689,-13.80926 -7.74084,-16.75611 -14.07152,-31.81826 -14.71062,-35 -0.38667,-1.925 -1.53063,-5.525 -2.54213,-8 -3.12305,-7.64164 -5.00811,-23.35284 -5.57917,-46.5 -0.66162,-26.81812 0.91445,-43.59522 5.74232,-61.12643 1.19256,-4.33046 2.13764,-9.07203 2.10019,-10.53681 -0.0375,-1.46479 1.7007,-6.12194 3.86256,-10.34922 2.16186,-4.22729 3.93065,-8.37314 3.93065,-9.21299 0,-0.83986 2.34424,-5.85771 5.20943,-11.15078 2.86518,-5.29307 6.12768,-11.32652 7.25,-13.40765 4.17499,-7.74179 21.7696,-30.51257 30.30166,-39.21612 13.20824,-13.47373 17.94274,-17.6369 26.73891,-23.51222 4.4,-2.93894 9.575,-6.57116 11.5,-8.07161 1.925,-1.50044 10.7,-6.32837 19.5,-10.72873 28.40025,-14.20128 54.76651,-20.11725 89.5,-20.0817 26.76813,0.0274 45.07464,2.8146 69.5,10.58153 10.23931,3.25597 36.37961,17.05429 49.06618,25.89991 14.44552,10.07202 36.51688,30.99676 43.15478,40.91282 2.2091,3.3 5.6496,7.95384 7.6455,10.34187 1.9959,2.38803 5.7161,8.23803 8.2671,13 2.551,4.76197 6.5724,12.03313 8.9365,16.15813 5.1707,9.02216 11.5755,24.35001 11.9089,28.5 0.1325,1.65 1.0147,5.7 1.9605,9 1.8846,6.57629 4.0077,18.32143 5.694,31.5 1.5022,11.73996 0.5024,50.98493 -1.5796,62 -3.1016,16.40949 -12.3308,44.98931 -16.4363,50.89777 -0.9945,1.43122 -4.4331,7.64952 -7.6413,13.81842 -9.6982,18.64803 -32.9425,47.26352 -46.73797,57.53798 -2.88106,2.14572 -6.25536,4.97662 -7.49845,6.29089 -1.24309,1.31426 -6.19309,4.70939 -11,7.54474 -4.80691,2.83535 -10.31484,6.39462 -12.23984,7.90951 -3.25887,2.56458 -24.37976,12.75886 -30,14.47991 -1.375,0.42106 -2.95,1.11316 -3.5,1.538 -1.10197,0.85121 -19.82412,6.02024 -28.5,7.8686 -19.36472,4.12559 -62.5758,4.15953 -80.33943,0.0631 -19.11296,-4.40759 -38.12243,-11.10528 -53.38213,-18.80835 -6.38689,-3.2241 -29.40056,-18.15792 -34.8784,-22.63299 l -3.09996,-2.53247 -35.30329,35.47166 c -19.41681,19.50941 -36.04111,36.59639 -36.94289,37.97107 -0.90178,1.37469 -3.53118,3.86968 -5.84311,5.54443 -2.31193,1.67476 -5.57884,4.95588 -7.25978,7.29138 -4.89267,6.79785 -80.15285,81.76546 -81.88525,81.56692 -0.86117,-0.0987 -5.16576,-3.73559 -9.56576,-8.082 z m 336.79823,-155.0144 c 1.44727,-0.94829 3.46248,-1.72416 4.47825,-1.72416 6.08017,0 34.92372,-9.40699 41.92396,-13.67302 2.55138,-1.55484 7.32453,-4.30218 10.607,-6.1052 11.68021,-6.4158 22.37179,-14.80955 35.25263,-27.67615 8.05087,-8.04197 14.31892,-15.26362 16.34215,-18.82842 1.80515,-3.18054 4.35121,-7.05337 5.65794,-8.60631 3.6802,-4.37371 14.0598,-24.92235 15.9673,-31.6109 0.9412,-3.3 2.7825,-9.42441 4.0919,-13.6098 1.3093,-4.18539 2.3806,-8.58872 2.3806,-9.78518 0,-1.19646 0.6352,-3.17205 1.4114,-4.3902 2.6767,-4.20032 4.019,-15.8873 4.0446,-35.21482 0.024,-18.50699 -1.4878,-33.62146 -3.6218,-36.19763 -0.5457,-0.6587 -1.1921,-2.6837 -1.4365,-4.5 -0.7128,-5.29701 -3.3178,-13.90414 -5.8421,-19.30237 -1.286,-2.75 -2.8989,-6.8 -3.5842,-9 -1.7354,-5.5702 -6.7745,-15.44855 -9.6039,-18.82673 -1.3021,-1.55469 -2.3675,-3.24626 -2.3675,-3.75903 0,-0.51277 -2.56272,-4.86416 -5.69498,-9.66974 -9.8229,-15.07054 -33.15867,-37.39858 -48.37343,-46.28448 -3.72927,-2.17801 -7.1704,-3.96002 -7.64694,-3.96002 -0.47654,0 -4.42962,-2.25 -8.78461,-5 -4.35499,-2.75 -8.83658,-5.00988 -9.95908,-5.02196 -1.12251,-0.0121 -4.0461,-0.93157 -6.49687,-2.04332 -4.89394,-2.22003 -16.87186,-5.19561 -30.04405,-7.46358 -9.90875,-1.70609 -43.40613,-2.01095 -52.56634,-0.47842 -21.32518,3.56777 -37.2653,8.64069 -51.12736,16.27121 -5.23168,2.87984 -12.00247,6.55438 -15.0462,8.16566 -3.04373,1.61127 -8.05991,5.25973 -11.14707,8.1077 -3.08717,2.84796 -7.02615,5.90317 -8.75331,6.78935 -1.72715,0.88618 -5.10215,3.92714 -7.5,6.75769 -2.39784,2.83055 -7.09569,8.13203 -10.43966,11.78106 -6.03497,6.58553 -16.42006,21.34834 -16.42006,23.34175 0,0.57177 -1.94073,4.24657 -4.31273,8.16622 -2.372,3.91965 -5.35205,9.82664 -6.62234,13.12664 -1.27029,3.3 -2.9337,7.20143 -3.69647,8.66985 -2.57528,4.95775 -6.16217,19.2598 -7.85933,31.33761 -2.26331,16.10677 -1.77872,51.32894 0.85976,62.49254 3.60232,15.24161 8.99368,33.03788 11.57058,38.19319 4.91746,9.83778 11.35367,21.2666 15.65957,27.80681 10.64825,16.17359 38.43253,42.65272 49.90096,47.55689 1.65,0.70558 6.07528,3.30871 9.83396,5.78473 8.43232,5.55479 33.31222,14.68729 44.16604,16.21175 2.75,0.38625 5.9,1.1826 7,1.76967 3.90244,2.08275 10.2682,2.53857 32.58341,2.33317 19.46503,-0.17918 22.94676,-0.44596 25.21482,-1.93205 z M 755.73255,728.35215 c -6.56263,-1.12055 -11.00125,-3.48627 -16.76042,-8.93306 -6.15287,-5.81912 -8.48339,-11.4231 -8.48339,-20.3992 0,-11.2984 6.7186,-21.55604 17.44153,-26.62889 l 6.05847,-2.86617 61.57186,-7.9e-4 c 71.35828,-9.2e-4 67.72915,-0.43131 77.13338,9.14752 8.40231,8.55831 10.81545,18.68428 7.28545,30.5711 -1.18378,3.9862 -2.79141,6.2694 -7.45352,10.58569 -9.7778,9.05252 -6.89468,8.70445 -74.274,8.96679 -32.22393,0.12546 -60.35764,-0.0739 -62.51936,-0.44299 z M 876.31773,615.38053 c -8.72154,-1.24897 -16.00524,-6.24 -22.17084,-15.19218 -3.44548,-5.00268 -3.89406,-6.38036 -4.35379,-13.37122 -0.67313,-10.2359 1.73992,-16.94191 8.7134,-24.21512 9.14069,-9.53356 8.31919,-9.39248 55.48224,-9.52807 48.02032,-0.13805 48.19844,-0.1098 57.15763,9.06676 7.2072,7.38206 9.72351,14.25235 9.03801,24.67643 -0.45973,6.99086 -0.90831,8.36854 -4.35379,13.37122 -4.70216,6.82733 -8.28398,9.93835 -14.99417,13.02332 -5.09699,2.34332 -5.55433,2.37113 -42.59145,2.59017 -20.59153,0.12177 -39.45878,-0.0678 -41.92724,-0.42131 z"
         id="path3426"
         inkscape:connector-curvature="0" />
      <path
         style="fill:#10aa10"
         d="m 502.23874,1079.8111 c -1.5125,-0.2314 -2.75,-0.8408 -2.75,-1.3543 0,-0.5134 -0.85426,-0.9335 -1.89835,-0.9335 -1.04409,0 -5.88159,-1.9962 -10.75,-4.4359 -14.40568,-7.219 -26.3501,-20.3517 -31.88515,-35.0569 -1.35657,-3.6041 -2.51136,-7.7801 -2.56618,-9.2801 l -0.0997,-2.7271 -0.71239,2.5 c -0.64773,2.273 -0.77384,2.1369 -1.38932,-1.5 -0.3723,-2.2 -0.68187,-135.96255 -0.68792,-297.25005 -0.008,-218.09452 0.27963,-293.18593 1.12304,-293 0.62373,0.1375 1.66499,-2 2.31392,-4.75 2.89174,-12.25447 12.07256,-26.24606 22.85765,-34.83512 6.96581,-5.54745 20.00354,-11.9727 27.4936,-13.54938 3.81346,-0.80274 87.36455,-1.18489 298,-1.36298 l 292.70076,-0.24748 -293.99998,-0.50504 -294,-0.50504 294,-0.1772 c 162.18343,-0.0977 294.89678,0.20814 295.99998,0.68224 2,0.85943 2,0.85943 0,1.01303 -1.1,0.0845 0.5994,0.78338 3.7765,1.55311 7.7345,1.87391 19.2366,7.58802 25.2097,12.52387 9.4159,7.78086 19.3163,22.67217 21.1418,31.79969 0.3385,1.69281 0.9776,2.85407 1.4202,2.58057 0.4425,-0.2735 1.0833,1.8713 1.4241,4.76623 1.1726,9.96264 0.1236,593.77415 -1.0683,594.54995 -0.6028,0.3925 -1.4223,2.0445 -1.8211,3.6711 -1.9899,8.1161 -8.1714,18.1685 -16.0646,26.1241 -8.3734,8.4396 -15.2474,12.9439 -24.5183,16.0661 -3.025,1.0187 -5.821,2.3023 -6.2135,2.8523 -0.6927,0.9709 -590.74998,1.7496 -597.03648,0.7878 z M 1101.2404,732.34632 c 0.2279,-271.44751 0.1035,-299.8251 -1.3214,-301.24999 -1.4238,-1.42374 -29.8964,-1.57308 -299.9199,-1.57308 -164.09073,0 -299.05859,0.27315 -299.92857,0.60699 -1.43752,0.55163 -1.58179,27.94166 -1.58179,300.3 0,231.98865 0.27147,299.96446 1.20164,300.89466 0.93131,0.9313 68.70459,1.145 301.25,0.95 l 300.04832,-0.2516 0.2517,-299.67698 z M 555.35709,988.18564 c -2.40259,-2.42213 -9.79002,-9.36218 -16.41651,-15.42233 -8.11995,-7.42597 -12.65909,-12.37325 -13.92193,-15.17372 l -1.87376,-4.15527 5.42192,-5.68392 c 6.22689,-6.52776 67.14652,-68.22028 121.96268,-123.51003 42.37284,-42.73892 40.92354,-40.68049 34.53515,-49.04975 -6.25257,-8.1913 -21.27114,-40.53825 -24.15011,-52.01438 -0.94472,-3.76586 -2.48631,-7.59086 -3.42576,-8.5 -2.98008,-2.88396 -4.25621,-15.78686 -4.11959,-41.65299 0.14922,-28.24986 1.48632,-46.31128 4.14573,-56 4.89272,-17.82506 5.55638,-22.59611 2.91619,-20.96437 -0.5057,0.31253 -0.65692,-0.1159 -0.33605,-0.95207 0.32087,-0.83618 0.87822,-1.42205 1.23855,-1.30194 0.86703,0.28901 4.72282,-3.6053 6.07945,-6.14018 0.59163,-1.10548 1.07569,-3.24161 1.07569,-4.74696 0,-1.50535 0.62802,-3.44743 1.39561,-4.31574 0.76758,-0.86831 3.54214,-5.85374 6.1657,-11.07874 13.02149,-25.93325 40.93634,-58.31596 62.93869,-73.01222 4.4,-2.93894 9.575,-6.57237 11.5,-8.07429 1.925,-1.50192 11.15,-6.55693 20.5,-11.23334 13.05138,-6.52766 19.78378,-9.24004 28.985,-11.67758 6.59175,-1.74626 12.42841,-3.44905 12.97035,-3.78399 1.09763,-0.67837 15.57066,-3.22529 22.54465,-3.96733 10.47679,-1.11474 38.20574,-1.26972 47.47762,-0.26534 15.04308,1.62953 14.60897,1.5518 30.52238,5.46518 14.03021,3.45027 19.35571,5.64294 45.76827,18.8442 3.44755,1.72312 8.52011,4.8373 11.27237,6.9204 2.75225,2.0831 6.68153,4.86174 8.73173,6.17475 4.3856,2.80868 19.59414,15.99715 26.72759,23.17755 9.6077,9.67083 24.3243,29.76963 31.0693,42.43201 2.4902,4.675 5.85,10.3 7.4662,12.5 3.878,5.27905 12.2413,25.62327 11.0309,26.8336 -0.5604,0.56046 -0.5464,1.90388 0.036,3.43559 0.9116,2.3977 4.7277,18.51235 5.3829,22.73081 2.9083,18.72613 3.5549,63.28636 1.0997,75.79216 -0.7782,3.96431 -1.6807,8.78284 -2.0054,10.70784 -0.3247,1.925 -1.1949,4.65778 -1.9337,6.07285 -0.7389,1.41507 -2.3426,5.91507 -3.5638,10 -5.3077,17.75434 -17.4622,41.65255 -29.8996,58.78872 -8.4594,11.6553 -25.18148,30.03388 -32.58439,35.8122 -2.69609,2.10443 -6.37019,5.23533 -8.16467,6.95757 -1.79448,1.72223 -7.23859,5.50189 -12.09802,8.39923 -4.85943,2.89734 -9.96033,6.28953 -11.33533,7.5382 -1.375,1.24866 -5.2,3.48751 -8.5,4.97522 -11.48377,5.17714 -21.93197,9.45601 -23.08978,9.45601 -0.6409,0 -1.7014,0.64599 -2.35666,1.43553 -0.65526,0.78953 -4.42286,2.15602 -8.37245,3.03664 -3.94958,0.88061 -9.29818,2.28902 -11.88576,3.12979 -12.39897,4.02874 -46.90855,6.34593 -65.7953,4.41791 -25.31712,-2.58445 -38.0664,-5.53862 -55.05946,-12.75796 -5.1923,-2.2059 -10.56554,-4.35052 -11.94054,-4.76583 -7.12787,-2.15289 -24.50075,-12.75787 -39.71949,-24.24608 -3.09655,-2.3375 -6.43521,-4.25 -7.41925,-4.25 -0.98404,0 -2.9119,1.65226 -4.28414,3.67169 -1.37223,2.01943 -19.73386,21.03193 -40.80361,42.25 -21.06975,21.21807 -54.72573,55.18433 -74.79107,75.48057 -20.06534,20.29624 -38.79168,39.09865 -41.61409,41.78313 l -5.13166,4.88087 -4.36834,-4.40387 z M 884.48874,832.53906 c 2.475,-0.47573 6.3,-1.36957 8.5,-1.9863 2.2,-0.61673 6.80459,-1.75051 10.23243,-2.51951 10.11175,-2.26848 28.24114,-8.67873 32.14674,-11.36656 1.99146,-1.37051 6.50936,-4.01104 10.03979,-5.86784 11.17951,-5.87975 22.22371,-14.4038 34.08104,-26.30418 6.325,-6.34796 12.28007,-12.65092 13.23349,-14.00658 0.95342,-1.35566 2.54028,-3.58984 3.52636,-4.96484 0.98607,-1.375 2.41548,-3.7299 3.17645,-5.23312 0.76096,-1.50322 2.31256,-3.73028 3.44806,-4.94903 3.598,-3.86203 11.578,-19.78559 15.605,-31.13888 2.1812,-6.14929 2.5111,-8.06672 1.5437,-8.97047 -1.3418,-1.25342 -0.8425,-5.01776 0.5513,-4.15635 0.4714,0.2913 1.144,-0.61376 1.4947,-2.01125 0.3508,-1.3975 1.039,-2.5409 1.5293,-2.5409 0.4904,0 0.8916,-2.22764 0.8916,-4.95031 0,-3.06265 0.5092,-5.25525 1.3352,-5.75 2.7639,-1.65546 4.1664,-15.04509 4.1164,-39.29969 -0.04,-19.44649 -0.3535,-24.53494 -1.8172,-29.5 -0.9728,-3.3 -2.1928,-7.8 -2.711,-10 -2.014,-8.55028 -5.3701,-17.94677 -6.9879,-19.5645 -0.9321,-0.93215 -2.4869,-4.11148 -3.455,-7.06516 -2.0801,-6.34637 -7.994,-18.45164 -9.4556,-19.35495 -0.5637,-0.34838 -1.0249,-1.47611 -1.0249,-2.50606 0,-2.83737 -13.64443,-22.58348 -20.99996,-30.39096 -11.91988,-12.65226 -29.69018,-26.2023 -43.5,-33.1692 -3.85,-1.94228 -8.8,-4.59953 -11,-5.905 -6.24618,-3.70646 -20.84586,-8.21668 -37.4247,-11.56146 -14.53282,-2.93199 -16.0222,-3.04494 -35.37346,-2.68247 -19.70299,0.36905 -29.48253,1.60667 -45.70184,5.7837 -15.46448,3.98262 -46.41962,19.74034 -55.41164,28.20731 -2.7986,2.63518 -6.22838,5.40883 -7.62173,6.16365 -6.95491,3.76771 -34.96663,37.47945 -34.96663,42.08189 0,0.94046 -1.93317,4.91692 -4.29594,8.83657 -4.43365,7.3551 -8.70406,16.55309 -8.70406,18.74757 0,0.68759 -0.8567,2.17917 -1.90379,3.31462 -1.77958,1.92977 -3.32677,7.08122 -7.67804,25.56445 -1.31982,5.6063 -1.87508,13.24823 -2.19911,30.26584 -0.46997,24.68205 -0.45567,24.7891 7.1076,53.23416 1.16992,4.4 2.01057,8.53954 1.86811,9.19897 -0.37771,1.74847 5.51499,16.58949 8.13006,20.47589 1.23057,1.82883 3.4461,5.65105 4.92339,8.49382 7.68411,14.78665 25.94537,37.42313 37.37631,46.33132 14.77772,11.51635 18.41157,14.11714 21.56637,15.43529 1.9854,0.82956 4.21716,2.09868 4.95946,2.82026 3.85429,3.74675 30.9009,15.74445 35.49294,15.74445 0.85494,0 2.97245,0.66907 4.70557,1.48681 1.73312,0.81775 5.85113,1.90869 9.15113,2.42431 3.3,0.51562 8.475,1.59679 11.5,2.4026 6.26726,1.66951 42.33236,2.17593 50,0.70209 z M 751.32119,726.45483 c -5.27335,-1.77199 -11.09643,-5.87864 -13.46803,-9.49816 -0.87694,-1.33838 -2.20025,-2.43342 -2.94069,-2.43342 -1.56528,0 -4.42373,-8.81624 -4.42373,-13.64399 0,-9.52325 9.21853,-22.48774 19.33944,-27.19805 l 4.83945,-2.25229 62.4143,0.002 c 71.72638,0.002 66.98293,-0.59559 76.77582,9.67761 5.84023,6.12667 7.63099,10.51465 7.63099,18.69858 0,7.78788 -2.19509,12.80272 -8.08278,18.4657 -10.382,9.98575 -5.33987,9.34953 -75.79024,9.56336 -53.66075,0.16287 -62.23033,-0.0157 -66.29453,-1.38137 z M 872.84334,613.93859 c -5.6228,-1.42833 -11.84211,-5.82947 -15.17017,-10.73529 -1.47643,-2.17639 -3.78663,-5.04197 -5.13375,-6.36796 -2.16346,-2.1295 -2.43673,-3.22831 -2.34141,-9.41452 0.0843,-5.4739 0.71438,-8.24798 2.88444,-12.70061 3.80585,-7.80899 11.82645,-15.46217 19.02849,-18.1568 5.48406,-2.05185 7.31065,-2.13843 45.04856,-2.13538 37.71714,0.003 39.52776,0.0891 44.08099,2.09389 6.87767,3.02833 15.83165,12.23099 17.86921,18.36552 2.32581,7.00235 1.42009,18.46448 -1.79374,22.70022 -5.94979,7.84169 -10.46595,12.10099 -15.37986,14.50515 l -5.33566,2.61049 -39.74358,0.15998 c -25.80189,0.10385 -41.24144,-0.22052 -44.01352,-0.92469 z M 450.68369,433.02325 c 0.0204,-1.65 0.2445,-2.20394 0.49804,-1.23097 0.25354,0.97297 0.23687,2.32297 -0.0371,3 -0.27393,0.67703 -0.48137,-0.11903 -0.46099,-1.76903 z"
         id="path3424"
         inkscape:connector-curvature="0" />
      <path
         style="fill:#0e940e"
         d="m 502.23874,1079.8111 c -1.5125,-0.2314 -2.75,-0.8408 -2.75,-1.3543 0,-0.5134 -0.85426,-0.9335 -1.89835,-0.9335 -1.04409,0 -5.88159,-1.9962 -10.75,-4.4359 -17.94239,-8.9914 -32.70937,-28.2813 -32.72968,-42.7543 -0.004,-2.5796 -0.37005,-4.4655 -0.81428,-4.191 -1.34571,0.8317 -0.84273,-1.9884 0.72411,-4.06 1.28299,-1.6962 1.4682,-38.04239 1.4682,-288.12335 0,-276.73255 0.0621,-286.43059 1.87951,-293.70344 5.07305,-20.30065 18.28196,-36.84895 36.47874,-45.70107 13.33,-6.48459 -10.76355,-6.01347 308.07003,-6.02401 159.53945,-0.005 293.22168,0.26977 297.07168,0.61122 4.6168,0.40944 7.4311,1.1634 8.2662,2.21446 1.0114,1.2731 1.8201,1.38453 4.0204,0.55399 3.3033,-1.24684 5.2134,-0.7692 5.2134,1.30367 0,0.96731 0.5677,1.30583 1.5546,0.9271 1.9883,-0.76298 6.4776,2.39948 13.5486,9.54417 6.4979,6.56564 10.3683,12.77278 13.4328,21.54294 1.2001,3.43434 2.4333,5.9929 2.7405,5.68567 0.3072,-0.30722 0.8413,1.8418 1.1869,4.77561 1.1785,10.0043 0.1383,593.84104 -1.0594,594.62064 -0.6028,0.3925 -1.4223,2.0445 -1.8211,3.6711 -1.9899,8.1161 -8.1714,18.1685 -16.0646,26.1241 -8.3734,8.4396 -15.2474,12.9439 -24.5183,16.0661 -3.025,1.0187 -5.821,2.3023 -6.2135,2.8523 -0.6927,0.9709 -590.74996,1.7496 -597.03646,0.7878 z m 602.74996,-42.0532 c 1.3249,-0.9733 0.8766,-607.23465 -0.449,-607.23465 -0.5131,0 -1.214,0.45483 -1.5576,1.01072 -0.3954,0.63977 -1.4163,0.45626 -2.7815,-0.5 -1.9123,-1.33943 -35.9674,-1.51072 -300.35258,-1.51072 -164.00764,0 -298.91112,0.27453 -299.78552,0.61007 -1.44831,0.55577 -1.58766,27.49472 -1.56558,302.65046 0.0133,166.12221 -0.20806,302.27272 -0.49197,302.55662 -3.21097,3.2109 -5.87006,3.1831 302.73379,3.1675 166.7875,-0.01 303.69996,-0.3459 304.24996,-0.75 z M 548.9182,981.86881 c -6.0112,-5.83281 -12.84196,-12.44934 -15.17946,-14.7034 -2.3375,-2.25405 -4.25,-4.65313 -4.25,-5.33127 0,-1.1404 35.88773,-37.73747 129.7316,-132.29583 l 37.23159,-37.51506 0.0184,-7.19098 c 0.0101,-3.95504 -0.37871,-7.43641 -0.86406,-7.73638 -0.48536,-0.29996 -2.1046,0.41594 -3.59833,1.59091 -1.52342,1.19832 -3.00199,1.72431 -3.36754,1.19797 -9.02386,-12.99322 -11.37497,-17.23417 -17.10911,-30.86152 -0.46286,-1.1 -2.46178,-5.53421 -4.44206,-9.85379 -3.57251,-7.79275 -4.52214,-12.95857 -2.60049,-14.14621 1.91847,-1.18568 1.01642,-2.63999 -1.20095,-1.93622 -2.17914,0.69163 -2.1833,0.67161 -0.4201,-2.01938 1.98561,-3.03042 1.49179,-4.51194 -0.85478,-2.56446 -2.07786,1.72447 -2.02594,-0.28451 0.0908,-3.51512 1.73288,-2.64471 0.44086,-3.44199 -1.59757,-0.98583 -0.85769,1.03345 -1.74732,1.20076 -2.95319,0.5554 -1.26031,-0.6745 -2.06232,-3.2984 -2.97374,-9.72899 -0.68641,-4.84297 -1.45606,-9.55561 -1.71034,-10.47252 -0.34342,-1.23833 0.0286,-1.53874 1.44648,-1.16796 3.74342,0.97893 9.33126,-11.89962 5.75802,-13.2708 -0.95726,-0.36734 -2.48949,0.11476 -3.62192,1.13959 -2.68719,2.43187 -2.46096,1.17625 0.62949,-3.49373 2.34416,-3.54227 2.67524,-5.28671 3.45961,-18.22856 1.07549,-17.74529 1.85611,-25.44343 2.97228,-29.31142 0.47613,-1.65 2.47635,-9.0134 4.44492,-16.36312 1.96857,-7.34971 4.69336,-15.26425 6.05509,-17.58785 1.36172,-2.32361 2.47586,-4.97963 2.47586,-5.90226 0,-2.36211 11.00768,-24.01976 15.64043,-30.7726 18.58263,-27.08662 35.47605,-45.2456 52.85957,-56.81951 4.4,-2.92951 9.125,-6.35602 10.5,-7.61448 3.75375,-3.43557 38.97304,-20.92691 45.66354,-22.67838 3.21006,-0.84034 9.66146,-2.50265 14.33646,-3.69403 4.675,-1.19138 10.075,-2.57629 12,-3.07758 8.20092,-2.13561 46,-4.41189 46,-2.77014 0,0.68669 1.93615,0.85993 5.5,0.49211 3.56285,-0.36772 5.5,-0.19452 5.5,0.49176 0,0.65873 1.51279,0.85651 3.99981,0.52293 2.19989,-0.29507 4.24887,-0.1335 4.55328,0.35905 0.30441,0.49254 2.30801,0.82678 4.45245,0.74275 2.14444,-0.084 4.48297,0.31927 5.19672,0.89622 0.71376,0.57695 3.32274,1.37576 5.79774,1.77513 2.475,0.39937 5.01513,1.14104 5.64474,1.64815 0.62961,0.50711 1.52961,0.82918 2,0.7157 1.69418,-0.40872 10.88342,1.4109 12.12471,2.40088 0.6982,0.55684 3.66819,1.04711 6.59999,1.08949 4.60416,0.0666 5.26695,0.32021 4.86392,1.86142 -0.2566,0.9814 0.0202,1.78436 0.61525,1.78436 0.59501,0 2.56,1.2375 4.36663,2.75 3.39355,2.84104 8.30084,3.46122 13.64829,1.72484 2.2098,-0.71756 2.28437,-0.61963 1.14675,1.50603 -1.47077,2.74816 0.32475,4.4454 3.12014,2.94935 2.50038,-1.33816 3.86962,-1.14765 3.86962,0.5384 0,0.89459 0.58629,1.24363 1.5,0.89301 0.96528,-0.37042 1.5,0.0213 1.5,1.09877 0,1.13543 0.56329,1.49909 1.75,1.12982 2.49531,-0.77649 4.67234,0.8668 3.88085,2.92937 -0.52105,1.35785 -0.235,1.61016 1.35429,1.19455 1.36849,-0.35787 2.01486,-0.0383 2.01486,0.99611 0,1.02118 0.64689,1.35385 1.96323,1.00962 2.20363,-0.57626 4.56758,1.61224 3.53907,3.27641 -0.44499,0.72 0.14762,0.8787 1.7652,0.47272 1.90917,-0.47917 2.99812,0.058 5.04202,2.48699 1.43381,1.70399 2.37461,3.70357 2.09067,4.44351 -0.36734,0.95727 0.15952,1.21616 1.8265,0.8975 4.90898,-0.93841 31.66157,30.94172 41.90307,49.9344 2.7488,5.09773 6.3133,11.0686 7.921,13.2686 3.8769,5.30524 12.2202,25.62905 11.0156,26.8336 -0.5604,0.56046 -0.5464,1.90388 0.036,3.43559 0.9116,2.3977 4.7277,18.51235 5.3829,22.73081 2.9083,18.72613 3.5549,63.28636 1.0997,75.79216 -0.7782,3.96431 -1.6807,8.78284 -2.0054,10.70784 -0.3247,1.925 -1.1948,4.65778 -1.9337,6.07285 -0.7389,1.41507 -2.3426,5.91507 -3.5638,10 -5.3077,17.75434 -17.4622,41.65255 -29.8996,58.78872 -8.4594,11.6553 -25.18148,30.03388 -32.58439,35.8122 -2.69609,2.10443 -6.37019,5.23533 -8.16467,6.95757 -1.79448,1.72223 -7.23859,5.50189 -12.09802,8.39923 -4.85943,2.89734 -9.96033,6.28953 -11.33533,7.5382 -1.375,1.24866 -5.2,3.48751 -8.5,4.97522 -11.48377,5.17714 -21.93197,9.45601 -23.08978,9.45601 -0.6409,0 -1.7014,0.64599 -2.35666,1.43553 -0.65526,0.78953 -4.42286,2.15602 -8.37245,3.03664 -3.94958,0.88061 -9.29818,2.28902 -11.88576,3.12979 -12.39897,4.02874 -46.90855,6.34593 -65.7953,4.41791 -25.31712,-2.58445 -38.0664,-5.53862 -55.05946,-12.75796 -5.1923,-2.2059 -10.56554,-4.35052 -11.94054,-4.76583 -7.12787,-2.15289 -24.50075,-12.75787 -39.71949,-24.24608 -3.09655,-2.3375 -6.43521,-4.25 -7.41925,-4.25 -0.98404,0 -2.9119,1.65226 -4.28414,3.67169 -1.37223,2.01943 -19.73386,21.03193 -40.80361,42.25 -21.06975,21.21807 -54.72573,55.18433 -74.79107,75.48057 -20.06534,20.29624 -38.76418,39.07264 -41.55298,41.72533 l -5.07054,4.82308 -10.92946,-10.60511 z m 343.57054,-142.1014 c 25.54973,-5.94426 42.60393,-11.49942 50.95151,-16.59675 3.05167,-1.86345 8.31758,-4.85926 11.70203,-6.65735 3.38445,-1.7981 9.23445,-5.5425 13,-8.32091 9.45311,-6.97495 32.36942,-30.09574 35.84932,-36.16915 1.5757,-2.75 4.0956,-6.59369 5.5999,-8.54153 6.4962,-8.41163 16.9104,-30.87066 19.9253,-42.97036 0.4812,-1.93154 1.5718,-5.17959 2.4235,-7.21788 0.8516,-2.0383 1.5484,-4.98045 1.5484,-6.53811 0,-1.55767 0.4032,-3.25962 0.8959,-3.78212 1.8968,-2.01138 3.1041,-18.77841 3.1041,-43.109 0,-27.12106 0,-27.12938 -4.9053,-23.69473 -2.3482,1.64473 -2.3479,1.64206 0.2775,-2.83786 3.9713,-6.77662 3.4725,-9.4892 -1.1496,-6.25171 -2.7331,1.91429 -2.8319,0.77911 -0.2226,-2.5567 2.7048,-3.45777 2.4815,-4.54547 -0.5282,-2.57345 -4.6661,3.05735 -5.9322,0.0978 -1.9718,-4.60892 3.0382,-3.61062 3.3011,-6.81763 0.5591,-6.81763 -1.0676,0 -2.2237,0.45734 -2.5691,1.01631 -1.2077,1.95395 -2.6864,-0.2843 -2.1058,-3.1873 0.361,-1.80466 0.2078,-2.69484 -0.3992,-2.3197 -0.5417,0.3348 -0.985,-0.0663 -0.985,-0.89128 0,-0.825 0.45,-1.77811 1,-2.11803 0.55,-0.33992 1,-1.35648 1,-2.25902 0,-1.27632 -0.2666,-1.37431 -1.2,-0.44098 -1.7955,1.79555 -2.7468,1.47013 -3.8,-1.3 -0.5227,-1.375 -1.5544,-2.5 -2.2926,-2.5 -0.758,0 -2.1276,-2.50264 -3.1469,-5.75 -2.031,-6.47085 -7.9735,-18.76918 -9.5356,-19.73461 -0.5637,-0.34838 -1.0249,-1.41278 -1.0249,-2.36532 0,-2.05788 -7.62398,-14.28929 -14.13554,-22.67808 -11.4627,-14.7673 -34.35312,-33.22384 -51.86442,-41.81826 -3.025,-1.48465 -7.3,-3.77572 -9.5,-5.09126 -6.20788,-3.71214 -20.78669,-8.22304 -37.4247,-11.57976 -14.53282,-2.93199 -16.0222,-3.04494 -35.37346,-2.68247 -19.70299,0.36905 -29.48253,1.60667 -45.70184,5.7837 -15.46448,3.98262 -46.41962,19.74034 -55.41164,28.20731 -2.7986,2.63518 -6.22838,5.40883 -7.62173,6.16365 -6.95491,3.76771 -34.96663,37.47945 -34.96663,42.08189 0,0.94046 -1.93317,4.91692 -4.29594,8.83657 -4.43365,7.3551 -8.70406,16.55309 -8.70406,18.74757 0,0.68759 -0.8567,2.17917 -1.90379,3.31462 -1.77958,1.92977 -3.32677,7.08122 -7.67804,25.56445 -1.31982,5.6063 -1.87508,13.24823 -2.19911,30.26584 -0.46841,24.60023 -0.39015,25.19219 6.97225,52.73416 1.10267,4.125 2.13322,8.85 2.2901,10.5 0.89873,9.45251 20.61709,44.5355 31.47475,56 17.96761,18.97185 17.48834,18.35135 15.70054,20.32685 -1.62792,1.79883 -2.23162,4.17315 -1.06107,4.17315 0.3276,0 1.96581,-0.97566 3.64048,-2.16812 2.94844,-2.09948 3.0879,-2.10926 4.40437,-0.30888 1.61924,2.21444 1.70348,3.14638 0.35952,3.977 -2.25858,1.39588 -0.78377,2.24465 2.04499,1.17692 2.45106,-0.92518 3.21322,-0.87716 3.90748,0.24618 0.47437,0.76754 0.61802,2.0326 0.31923,2.81123 -0.37087,0.96649 0.0551,1.31257 1.34252,1.09069 1.09988,-0.18957 1.78159,0.19592 1.63578,0.92498 -0.1375,0.6875 0.66583,1.25 1.78518,1.25 1.70225,0 1.86584,0.31642 1,1.93426 -2.2646,4.23145 -0.53019,5.0974 5.69844,2.8451 3.80692,-1.3766 5.22278,-0.27713 5.25107,4.07763 0.012,1.85016 0.39161,2.20207 1.76531,1.63655 0.9625,-0.39625 2.58857,-0.96023 3.61349,-1.2533 1.61744,-0.4625 1.71586,-0.25702 0.7454,1.5563 -1.75191,3.27347 0.45854,7.20346 4.05163,7.20346 1.56171,0 2.83948,0.37777 2.83948,0.83948 0,1.38972 4.65135,3.06446 6.8872,2.47977 1.36714,-0.35752 2.30235,0.0111 2.70764,1.0673 0.34052,0.8874 1.20849,1.61345 1.92882,1.61345 0.72032,0 1.48776,0.53427 1.70543,1.18727 0.25197,0.75592 2.28046,1.10127 5.58333,0.95057 4.11992,-0.18799 5.18758,0.0822 5.18758,1.31273 0,0.97607 0.90327,1.54943 2.44098,1.54943 1.34254,0 2.72763,0.46381 3.07798,1.03068 0.3618,0.5854 2.0551,0.76465 3.91938,0.41491 2.54447,-0.47735 3.42963,-0.23203 3.93742,1.09124 0.48962,1.27594 1.38671,1.56068 3.55242,1.12753 1.93452,-0.3869 3.31163,-0.0803 4.1439,0.92249 1.06801,1.28688 5.12602,1.44485 28.33722,1.10311 14.89989,-0.21937 29.1157,-0.86998 31.5907,-1.4458 z M 751.32119,726.45483 c -5.27335,-1.77199 -11.09643,-5.87864 -13.46803,-9.49816 -0.87694,-1.33838 -2.20025,-2.43342 -2.94069,-2.43342 -1.74958,0 -4.4674,-9.17716 -4.2739,-14.4315 0.12122,-3.29156 0.22491,-3.4956 0.543,-1.0685 0.74699,5.6999 1.24964,6.21905 3.38242,3.49347 1.07313,-1.37141 3.29648,-5.26047 4.94078,-8.64236 3.42165,-7.03745 8.1946,-11.65402 15.43834,-14.93253 l 5.04563,-2.28364 63.5,-0.25305 c 45.04967,-0.17953 64.08111,0.0691 65.5,0.8556 4.06243,2.2519 10.34155,9.82808 11.40632,13.76251 2.93488,10.84459 0.59927,19.95084 -6.9891,27.24959 -10.382,9.98575 -5.33987,9.34953 -75.79024,9.56336 -53.66075,0.16287 -62.23033,-0.0157 -66.29453,-1.38137 z m 267.89871,-14.01174 c 0.3537,-1.3522 0.8069,-1.8055 1.0566,-1.05655 0.2405,0.72144 -0.038,1.78716 -0.6193,2.36826 -0.7421,0.74207 -0.8722,0.35164 -0.4373,-1.31171 z m -146.37656,-98.5045 c -5.6228,-1.42833 -11.84211,-5.82947 -15.17017,-10.73529 -1.47643,-2.17639 -3.6393,-4.90725 -4.80636,-6.06856 -1.22598,-1.21996 -2.38182,-4.01153 -2.73746,-6.61149 -0.33854,-2.475 -0.3287,-3.825 0.0219,-3 1.78726,4.20595 4.68312,1.64919 9.62735,-8.5 2.84612,-5.84234 8.3734,-11.60849 14.71017,-15.34591 l 4.5,-2.65409 37,-0.5 c 20.35,-0.275 40.48318,-0.275 44.74041,0 7.59477,0.49059 7.82462,0.58466 12.21666,5 5.99945,6.03126 7.98573,11.96207 7.25262,21.65548 -0.42049,5.55988 -1.12006,8.08612 -2.88247,10.40893 -5.94979,7.84169 -10.46595,12.10099 -15.37986,14.50515 l -5.33566,2.61049 -39.74358,0.15998 c -25.80189,0.10385 -41.24144,-0.22052 -44.01352,-0.92469 z m -211.5091,95.13663 c 0.221,-1.14002 -0.13937,-1.62085 -1,-1.33427 -0.74002,0.24642 -1.50098,1.25007 -1.691,2.23033 -0.221,1.14002 0.13937,1.62085 1,1.33427 0.74002,-0.24642 1.50098,-1.25007 1.691,-2.23033 z m -0.4851,-5.42935 c 2.05206,-3.51362 1.83687,-4.51929 -0.75426,-3.52498 -1.93722,0.74338 -4.842,5.83317 -3.87876,6.79641 1.1383,1.1383 2.70277,0.0336 4.63302,-3.27143 z m -1.05748,-6.05827 c 0.93339,-1.58012 1.69708,-3.58136 1.69708,-4.4472 0,-2.54899 -4.64461,0.11064 -6.02873,3.45221 -2.23725,5.4012 1.25498,6.20337 4.33165,0.99499 z m 0.26137,-102.35748 c 0.37553,-0.98622 0.93469,-1.54122 1.24258,-1.23333 0.30789,0.30789 6.4e-4,1.11479 -0.68278,1.79313 -0.98762,0.98026 -1.10248,0.8654 -0.5598,-0.5598 z"
         id="path3422"
         inkscape:connector-curvature="0" />
      <path
         style="fill:#0e760d"
         d="m 502.22178,1079.8054 c -1.52182,-0.2301 -2.53743,-0.7896 -2.25691,-1.2435 0.28053,-0.4539 -0.69195,-1.127 -2.16105,-1.4957 -3.78326,-0.9495 -15.06089,-6.3226 -15.80804,-7.5316 -0.99304,-1.6067 2.11475,-1.172 3.49296,0.4887 0.68469,0.825 2.44979,1.5 3.92244,1.5 1.47266,0 3.18923,0.5116 3.81461,1.137 3.25451,3.2545 15.24836,3.3655 309.26295,2.863 l 292.49996,-0.5 7.2131,-2.637 c 16.0045,-5.8509 29.5276,-18.0652 37.2636,-33.6574 6.4182,-12.9359 5.9695,10.0491 6.1143,-313.20565 0.072,-161.975 0.4869,-293.375 0.9208,-292 0.7797,2.47078 0.7914,2.46493 1.0069,-0.5 l 0.218,-3 0.7633,3 c 0.9147,3.59451 1.255,588.32345 0.3457,593.82705 -0.3636,2.2003 -0.9413,3.3272 -1.3592,2.6511 -0.4229,-0.6843 -1.0212,0.3935 -1.4309,2.5776 -1.1099,5.9161 -6.3063,16.0012 -11.7211,22.7481 -8.4513,10.5306 -17.4197,16.9782 -29.5911,21.274 -3.7089,1.309 -6.2934,2.4427 -5.7434,2.5194 0.55,0.077 -0.35,0.4829 -2,0.9028 -3.0414,0.7739 -589.67226,1.0521 -594.76692,0.2821 z m -6.73304,-350.17516 c 0,-275.27632 0.14422,-302.94835 1.58179,-303.5 0.86998,-0.33384 137.47628,-0.60699 303.56955,-0.60699 l 301.98772,0 -0.3195,2.0169 -0.3196,2.0169 -301.21218,-0.0218 c -297.85573,-0.0215 -301.22387,2e-5 -302.25815,1.9326 -0.72291,1.35077 -0.96622,94.47047 -0.78779,301.50488 0.20607,239.11144 0.006,299.55057 -0.99184,299.55057 -0.99725,0 -1.25,-61.24537 -1.25,-302.8931 z m 61.96783,259.8329 c -1.19236,-2.22795 -10.37696,7.27895 118.83068,-123.00057 22.16418,-22.34805 41.03809,-41.71428 41.94203,-43.03607 2.39337,-3.4997 3.23042,-3.87101 8.76477,-3.88794 4.91076,-0.015 5.02743,0.0553 6.17609,3.72527 0.64393,2.05731 1.04599,3.86536 0.89347,4.01788 -0.15252,0.15252 -1.58176,-0.40297 -3.17609,-1.23441 -4.09517,-2.13565 -5.95794,-1.89995 -8.27617,1.04721 -1.11241,1.41419 -34.76094,35.64347 -74.77453,76.06506 -40.01359,40.42159 -73.80232,75.03952 -75.08608,76.92874 -1.28376,1.88922 -2.77793,3.43494 -3.32039,3.43494 -0.54246,0 -2.93907,1.8 -5.32578,4 -2.38672,2.2 -4.61083,4 -4.94248,4 -0.33164,0 -1.09912,-0.92705 -1.70552,-2.06011 z M 829.98874,869.39683 c -4.95,-0.47087 -10.125,-1.2768 -11.5,-1.79096 -1.375,-0.51416 -6.07333,-1.69288 -10.44074,-2.61937 -4.36741,-0.9265 -8.64241,-2.05054 -9.5,-2.49786 -0.85759,-0.44733 -6.95926,-2.92404 -13.55926,-5.50381 -17.52297,-6.84927 -35.1334,-16.37367 -30.39602,-16.43934 0.88218,-0.0122 2.76691,1.05553 4.18828,2.37281 1.42137,1.31728 2.84512,2.13424 3.1639,1.81546 0.31878,-0.31878 3.60905,0.82957 7.31172,2.55188 3.70266,1.72231 8.36176,3.38989 10.35355,3.70574 1.99178,0.31584 4.64813,1.46472 5.903,2.55306 1.25488,1.08835 3.09905,1.97881 4.09816,1.97881 0.99912,0 3.47836,0.93337 5.50943,2.07415 2.03107,1.14079 4.52981,1.85529 5.55274,1.58778 1.02294,-0.2675 3.08734,0.11432 4.58756,0.84849 1.50023,0.73416 7.67768,2.09605 13.72768,3.02641 6.05,0.93035 11.66036,2.01748 12.46747,2.41583 0.80711,0.39835 3.16633,0.29306 5.24271,-0.23398 2.85175,-0.72385 4.32741,-0.61395 6.03253,0.44925 2.74373,1.71082 24.54854,0.94947 42.75729,-1.49294 11.71193,-1.57096 32.07197,-6.49017 37.5,-9.06041 1.65,-0.78129 9.3,-4.22089 17,-7.64355 7.7,-3.42265 15.29416,-7.30994 16.87592,-8.63841 1.58176,-1.32848 6.98176,-4.83326 12,-7.7884 5.01824,-2.95515 10.07195,-6.42402 11.23047,-7.70861 1.15851,-1.28458 4.51629,-4.13561 7.46173,-6.33561 2.94544,-2.2 6.49756,-5.28493 7.89361,-6.85541 1.39605,-1.57047 5.71213,-6.29547 9.59123,-10.5 3.8791,-4.20452 9.3419,-10.56959 12.1395,-14.14459 4.6278,-5.91361 14.3075,-19.83063 14.3075,-20.57048 0,-0.16811 2.933,-5.74231 6.5177,-12.38711 7.471,-13.84866 11.2936,-23.73467 15.4831,-40.04241 4.8527,-18.88901 5.5389,-23.81364 6.8977,-49.5 0.4656,-8.8 0.9039,-16.13906 0.974,-16.30902 0.07,-0.16996 0.589,-0.0239 1.1529,0.32469 1.6613,1.02674 1.1816,43.34313 -0.6063,53.48433 -1.8904,10.72223 -3.387,16.34099 -4.5468,17.06967 -0.4987,0.31332 -1.9936,4.36332 -3.322,9 -3.0508,10.64869 -7.3077,21.97959 -8.9902,23.93033 -0.7116,0.825 -3.4724,5.775 -6.1351,11 -5.8103,11.40143 -10.2713,18.46141 -18.0761,28.60762 -7.6419,9.93441 -22.75886,26.31123 -28.19617,30.54603 -2.36312,1.84049 -6.18232,4.99264 -8.48712,7.00478 -2.30481,2.01214 -7.78493,5.78006 -12.17806,8.37316 -4.39313,2.5931 -9.56251,5.95409 -11.48751,7.46887 -1.925,1.51477 -9.8,5.56014 -17.5,8.9897 -7.7,3.42956 -15.14881,6.83283 -16.55292,7.56282 -2.17218,1.12931 -13.70723,4.32496 -26.94708,7.46536 -11.67248,2.76864 -49.33033,3.77388 -69.5,1.85524 z m -80.60834,-30.81531 -2.39166,-1.99173 2.28138,-0.0333 c 1.25477,-0.0183 2.54786,0.66114 2.87354,1.50986 0.94378,2.45943 -0.17755,2.66848 -2.76326,0.51514 z m -7.89166,-5.05827 -2.5,-1.95553 2.75,-0.0222 c 2.09075,-0.0169 2.75,0.45722 2.75,1.97776 0,2.41923 0.0928,2.41923 -3,0 z M 753.16869,726.4032 c -2.65102,-0.89102 -5.35102,-2.19475 -6,-2.89718 -0.93816,-1.01543 -0.77013,-1.12587 0.82005,-0.53897 1.1,0.40598 30.3386,0.70055 64.97467,0.6546 l 62.97468,-0.0835 5.20693,-2.54752 c 9.87136,-4.8296 17.25252,-16.96844 17.44857,-28.69538 l 0.10486,-6.27196 1.31829,4 c 0.72506,2.2 1.35288,6.28082 1.39515,9.0685 0.0835,5.50901 -2.43806,15.4315 -3.92158,15.4315 -0.50653,0 -2.59022,1.80415 -4.63042,4.00921 -2.0402,2.20507 -6.03238,5.14571 -8.87149,6.53476 l -5.16203,2.52555 -60.41882,0.21524 c -53.42146,0.19031 -60.97704,0.0276 -65.23886,-1.40481 z m -60.12337,-13.62995 c -0.96947,-6.86796 -1.50752,-8.25 -3.21187,-8.25 -1.21989,0 -1.3869,-0.79083 -0.84471,-4 0.46769,-2.76824 0.31632,-4 -0.49156,-4 -0.76537,0 -0.95004,-0.9894 -0.53629,-2.87321 0.44252,-2.01477 0.20442,-3.03693 -0.79694,-3.42118 -1.78862,-0.68636 -1.01978,-5.70561 0.87398,-5.70561 1.42339,0 1.68573,0.68602 3.44161,9 0.63887,3.025 2.18614,9.18865 3.43839,13.697 1.59428,5.73972 1.96115,8.51266 1.22381,9.25 -1.84361,1.84361 -2.40972,1.16769 -3.09642,-3.697 z m -36.88991,1.08333 c -0.36667,-0.36666 -0.63815,-1.60416 -0.60328,-2.75 0.0583,-1.91559 0.14052,-1.89048 1.02148,0.31185 0.97931,2.44822 0.77617,3.63253 -0.4182,2.43815 z m 76.42623,-2.49667 c -1.43524,-4.11715 -0.97739,-4.44292 1.11654,-0.79445 0.91954,1.6022 1.29243,3.14762 0.82864,3.43426 -0.46379,0.28664 -1.33912,-0.90128 -1.94518,-2.63981 z m -47.48883,-28.66827 c -0.99107,-1.60359 -0.72198,-48.74089 0.31779,-55.66839 3.88426,-25.879 9.63693,-43.49967 18.66429,-57.16947 1.87762,-2.8432 3.41385,-5.61427 3.41385,-6.15793 0,-1.22513 12.62617,-20.29862 14.34672,-21.6726 0.68873,-0.55 4.99492,-5.18996 9.5693,-10.31103 4.57439,-5.12106 9.95213,-10.34476 11.95053,-11.60821 1.9984,-1.26346 5.72641,-4.2735 8.28447,-6.68898 2.55807,-2.41548 7.28307,-5.79819 10.5,-7.51714 3.21694,-1.71895 9.66011,-5.2887 14.31817,-7.93279 8.25378,-4.68516 21.00041,-10.13136 26.03081,-11.12208 1.375,-0.2708 4.525,-1.1122 7,-1.86977 11.19912,-3.42793 23.66044,-4.74087 48.75,-5.13635 l 25.25,-0.39801 0,2.14917 c 0,1.66527 0.39402,1.98066 1.75,1.40075 3.09725,-1.32459 7.25,-1.72227 7.25,-0.69428 0,0.54905 2.5875,1.31849 5.75,1.70987 3.1625,0.39138 6.2,1.05955 6.75,1.48483 0.55,0.42528 2.8,1.08991 5,1.47696 2.2,0.38704 5.48542,1.56906 7.30094,2.62671 1.81551,1.05765 5.19051,2.20539 7.5,2.55052 4.11231,0.61456 7.62966,3.43923 7.67682,6.16501 0.0156,0.90269 -0.49859,1.01633 -1.72776,0.38182 -3.86745,-1.99643 -23.6813,-8.35805 -30.4926,-9.79024 -18.05486,-3.79635 -22.7411,-4.27101 -42.2574,-4.28022 -11,-0.005 -22.025,0.42149 -24.5,0.94818 -2.475,0.5267 -7.875,1.63203 -12,2.4563 -4.125,0.82428 -8.85,1.7736 -10.5,2.10961 -4.6091,0.93861 -21.02266,7.1545 -25.49878,9.6565 -2.19705,1.22808 -6.13361,3.44992 -8.74793,4.93743 -2.61431,1.48751 -7.15316,3.90037 -10.08633,5.36191 -2.93317,1.46154 -8.10817,5.21086 -11.5,8.33182 -3.39183,3.12096 -7.3428,6.18286 -8.77993,6.80422 -1.43713,0.62136 -6.3355,5.32999 -10.88526,10.46362 -4.54975,5.13363 -8.91459,9.85408 -9.69962,10.48989 -2.55898,2.07253 -13.29076,18.79374 -13.29653,20.71734 -0.003,1.03035 -1.93879,5.08035 -4.30156,9 -4.58331,7.60338 -8.70406,16.57013 -8.70406,18.94005 0,0.79345 -0.89952,2.06003 -1.99893,2.81462 -1.29682,0.89007 -2.73534,4.18195 -4.09549,9.37197 -4.53614,17.30892 -5.01984,21.58444 -5.57186,49.25 -0.48657,24.3852 -0.98784,29.23669 -2.72965,26.41839 z m 375.06259,-38.83506 c -0.9379,-0.93791 -0.8022,-5.57116 0.2099,-7.16786 0.6319,-0.99676 1.0042,-0.74366 1.4711,1 1.3449,5.02307 0.4517,8.30054 -1.681,6.16786 z m -1,-11 c -0.9774,-0.97744 -0.8131,-5.12478 0.2286,-5.76857 1.0235,-0.63256 2.1047,1.68795 2.1047,4.51703 0,1.92141 -1.0827,2.50216 -2.3333,1.25154 z m -1.1667,-9.33333 c -0.3991,-0.64585 -0.2757,-1.62426 0.2743,-2.17426 0.6667,-0.66667 1.2419,-0.60858 1.7257,0.17426 0.3992,0.64585 0.2758,1.62426 -0.2742,2.17426 -0.6667,0.66667 -1.2419,0.60858 -1.7258,-0.17426 z m -181.33899,-9.18481 c -3.9699,-0.67827 -10.16097,-3.36422 -10.16097,-4.40826 0,-0.29794 1.0125,-0.21037 2.25,0.1946 1.2375,0.40498 20.81423,0.67206 43.50385,0.59353 39.8781,-0.13802 41.42114,-0.21474 46.27012,-2.30072 10.90885,-4.69286 19.5197,-18.77724 19.19375,-31.39434 l -0.15501,-6 1.55111,4 c 1.1109,2.8648 1.41575,6.15405 1.07417,11.59 -0.46429,7.38881 -0.6177,7.76662 -5.78714,14.25256 -5.65051,7.08954 -10.14367,10.60243 -16.04358,12.54336 -4.05249,1.33318 -74.63331,2.13601 -81.6963,0.92927 z m 178.83899,-1.81519 c 0,-1.1 0.45,-2 1,-2 0.55,0 1,0.9 1,2 0,1.1 -0.45,2 -1,2 -0.55,0 -1,-0.9 -1,-2 z m -2,-10.05902 c 0,-0.58246 0.45,-0.7809 1,-0.44098 0.55,0.33992 1,0.81648 1,1.05902 0,0.24254 -0.45,0.44098 -1,0.44098 -0.55,0 -1,-0.47656 -1,-1.05902 z m -1.8417,-8.807 c -0.637,-2.12631 -1.1583,-4.79975 -1.1583,-5.94098 0,-1.14123 -0.45,-2.35308 -1,-2.693 -0.55,-0.33992 -1,-1.49368 -1,-2.56392 0,-1.07024 -1.0853,-4.19574 -2.4119,-6.94557 -1.3265,-2.74982 -1.9983,-4.74408 -1.4929,-4.43168 1.2842,0.79365 3.3479,4.96324 7.5055,15.16417 1.9675,4.82735 3.8104,9.3395 4.0953,10.027 0.3106,0.74958 -0.2621,1.25 -1.4307,1.25 -1.3958,0 -2.2773,-1.09685 -3.107,-3.86602 z m -200.49159,2.19935 c -0.36667,-0.36666 -0.65299,-1.37916 -0.63626,-2.25 0.025,-1.3003 0.22011,-1.2571 1.09166,0.24167 1.07678,1.85169 0.76461,3.22835 -0.4554,2.00833 z m 164.54759,-2.98684 c -0.6167,-2.00944 -0.7241,-3.24694 -0.2385,-2.75 0.9785,1.00158 2.4974,6.40351 1.8004,6.40351 -0.2423,0 -0.9452,-1.64408 -1.5619,-3.65351 z m -8.9822,-20.34649 c -1.0417,-1.66811 -0.9987,-2 0.2595,-2 0.8418,0 1.5084,0.8839 1.5084,2 0,1.1 -0.1167,2 -0.2594,2 -0.1427,0 -0.8215,-0.9 -1.5085,-2 z m -34.56539,-46.66667 c -0.36667,-0.36666 -0.66667,-1.13166 -0.66667,-1.7 0,-0.6266 0.46577,-0.56756 1.18333,0.15 0.65084,0.65084 0.95084,1.41584 0.66667,1.7 -0.28417,0.28417 -0.81667,0.21667 -1.18333,-0.15 z m -7,-5 c -1.15064,-1.15063 -0.72824,-2.33333 0.83333,-2.33333 0.825,0 1.5,0.675 1.5,1.5 0,1.56157 -1.1827,1.98397 -2.33333,0.83333 z m -8.16667,-6.86297 c -1.65,-1.35175 -6.6,-4.23791 -11,-6.4137 -4.4,-2.17578 -8.89348,-4.61258 -9.98551,-5.41511 -1.80949,-1.32978 -1.63219,-1.38254 2,-0.5951 8.45703,1.83343 9.43901,2.23169 10.02055,4.06394 0.32985,1.03929 1.45358,1.88961 2.49716,1.88961 1.04359,0 2.3791,0.9 2.9678,2 0.5887,1.1 1.72953,2 2.53518,2 0.80565,0 1.46482,0.45 1.46482,1 0,0.55 0.675,1 1.5,1 0.825,0 1.5,0.675 1.5,1.5 0,1.88332 0.0869,1.90888 -3.5,-1.02964 z"
         id="path3420"
         inkscape:connector-curvature="0" />
    </g>
  </g>
</svg>
