<?xml version="1.0" encoding="UTF-8"?>

<svg version="1.2" baseProfile="tiny" width="41.08mm" height="21.94mm" viewBox="69329 71699 4108 2194" preserveAspectRatio="xMidYMid" fill-rule="evenodd" stroke-width="28.222" stroke-linejoin="round" xmlns="http://www.w3.org/2000/svg" xmlns:ooo="http://xml.openoffice.org/svg/export" xmlns:xlink="http://www.w3.org/1999/xlink" xml:space="preserve">
 <defs class="ClipPathGroup">
  <clipPath id="presentation_clip_path" clipPathUnits="userSpaceOnUse">
   <rect x="69329" y="71699" width="4108" height="2194"/>
  </clipPath>
 </defs>
 <defs class="TextShapeIndex">
  <g ooo:slide="id1" ooo:id-list="id3 id4 id5 id6 id7 id8 id9 id10 id11"/>
 </defs>
 <defs class="EmbeddedBulletChars">
  <g id="bullet-char-template(57356)" transform="scale(0.00048828125,-0.00048828125)">
   <path d="M 580,1141 L 1163,571 580,0 -4,571 580,1141 Z"/>
  </g>
  <g id="bullet-char-template(57354)" transform="scale(0.00048828125,-0.00048828125)">
   <path d="M 8,1128 L 1137,1128 1137,0 8,0 8,1128 Z"/>
  </g>
  <g id="bullet-char-template(10146)" transform="scale(0.00048828125,-0.00048828125)">
   <path d="M 174,0 L 602,739 174,1481 1456,739 174,0 Z M 1358,739 L 309,1346 659,739 1358,739 Z"/>
  </g>
  <g id="bullet-char-template(10132)" transform="scale(0.00048828125,-0.00048828125)">
   <path d="M 2015,739 L 1276,0 717,0 1260,543 174,543 174,936 1260,936 717,1481 1274,1481 2015,739 Z"/>
  </g>
  <g id="bullet-char-template(10007)" transform="scale(0.00048828125,-0.00048828125)">
   <path d="M 0,-2 C -7,14 -16,27 -25,37 L 356,567 C 262,823 215,952 215,954 215,979 228,992 255,992 264,992 276,990 289,987 310,991 331,999 354,1012 L 381,999 492,748 772,1049 836,1024 860,1049 C 881,1039 901,1025 922,1006 886,937 835,863 770,784 769,783 710,716 594,584 L 774,223 C 774,196 753,168 711,139 L 727,119 C 717,90 699,76 672,76 641,76 570,178 457,381 L 164,-76 C 142,-110 111,-127 72,-127 30,-127 9,-110 8,-76 1,-67 -2,-52 -2,-32 -2,-23 -1,-13 0,-2 Z"/>
  </g>
  <g id="bullet-char-template(10004)" transform="scale(0.00048828125,-0.00048828125)">
   <path d="M 285,-33 C 182,-33 111,30 74,156 52,228 41,333 41,471 41,549 55,616 82,672 116,743 169,778 240,778 293,778 328,747 346,684 L 369,508 C 377,444 397,411 428,410 L 1163,1116 C 1174,1127 1196,1133 1229,1133 1271,1133 1292,1118 1292,1087 L 1292,965 C 1292,929 1282,901 1262,881 L 442,47 C 390,-6 338,-33 285,-33 Z"/>
  </g>
  <g id="bullet-char-template(9679)" transform="scale(0.00048828125,-0.00048828125)">
   <path d="M 813,0 C 632,0 489,54 383,161 276,268 223,411 223,592 223,773 276,916 383,1023 489,1130 632,1184 813,1184 992,1184 1136,1130 1245,1023 1353,916 1407,772 1407,592 1407,412 1353,268 1245,161 1136,54 992,0 813,0 Z"/>
  </g>
  <g id="bullet-char-template(8226)" transform="scale(0.00048828125,-0.00048828125)">
   <path d="M 346,457 C 273,457 209,483 155,535 101,586 74,649 74,723 74,796 101,859 155,911 209,963 273,989 346,989 419,989 480,963 531,910 582,859 608,796 608,723 608,648 583,586 532,535 482,483 420,457 346,457 Z"/>
  </g>
  <g id="bullet-char-template(8211)" transform="scale(0.00048828125,-0.00048828125)">
   <path d="M -4,459 L 1135,459 1135,606 -4,606 -4,459 Z"/>
  </g>
 </defs>
 <defs class="TextEmbeddedBitmaps"/>
 <g class="SlideGroup">
  <g>
   <g id="id1" class="Slide" clip-path="url(#presentation_clip_path)">
    <g class="Page">
     <g class="com.sun.star.drawing.OpenBezierShape">
      <g id="id3">
       <path fill="none" stroke="rgb(68,146,45)" stroke-width="188" stroke-linejoin="round" d="M 71360,73486 C 71352,73109 71329,72396 71321,72058 71156,71611 70937,71901 70105,72018 70011,72168 69713,73093 69423,73368 70570,73322 71047,72788 71297,73423"/>
      </g>
     </g>
     <g class="com.sun.star.drawing.OpenBezierShape">
      <g id="id4">
       <path fill="none" stroke="rgb(68,146,45)" stroke-width="188" stroke-linejoin="round" d="M 71331,72070 C 71625,71578 71923,71869 72582,71978 72660,72214 73108,73194 73343,73382 72566,73400 71672,72731 71413,73445"/>
      </g>
     </g>
     <g class="com.sun.star.drawing.OpenBezierShape">
      <g id="id5">
       <path fill="none" stroke="rgb(68,146,45)" stroke-width="188" stroke-linejoin="round" d="M 69423,73366 C 69455,73458 69564,73707 69573,73735"/>
      </g>
     </g>
     <g class="com.sun.star.drawing.OpenBezierShape">
      <g id="id6">
       <path fill="none" stroke="rgb(68,146,45)" stroke-width="188" stroke-linejoin="round" d="M 73146,73759 C 73185,73673 73241,73547 73280,73445"/>
      </g>
     </g>
     <g class="com.sun.star.drawing.OpenBezierShape">
      <g id="id7">
       <path fill="none" stroke="rgb(68,146,45)" stroke-width="188" stroke-linejoin="round" d="M 73240,73770 C 72894,73813 72190,73751 71697,73679 71570,73660 71579,73799 71368,73799 71156,73799 71138,73674 71007,73696 70478,73783 69809,73813 69470,73790"/>
      </g>
     </g>
     <g class="com.sun.star.drawing.OpenBezierShape">
      <g id="id8">
       <path fill="none" stroke="rgb(68,146,45)" stroke-width="188" stroke-linejoin="round" d="M 70234,72448 C 70546,72454 70728,72117 70999,72293"/>
      </g>
     </g>
     <g class="com.sun.star.drawing.OpenBezierShape">
      <g id="id9">
       <path fill="none" stroke="rgb(68,146,45)" stroke-width="188" stroke-linejoin="round" d="M 70220,72837 C 70458,72844 70643,72560 70896,72720"/>
      </g>
     </g>
     <g class="com.sun.star.drawing.OpenBezierShape">
      <g id="id10">
       <path fill="none" stroke="rgb(68,146,45)" stroke-width="188" stroke-linejoin="round" d="M 72441,72379 C 72282,72387 71989,72101 71693,72284"/>
      </g>
     </g>
     <g class="com.sun.star.drawing.OpenBezierShape">
      <g id="id11">
       <path fill="none" stroke="rgb(68,146,45)" stroke-width="188" stroke-linejoin="round" d="M 72499,72814 C 72334,72791 71981,72507 71781,72714"/>
      </g>
     </g>
    </g>
   </g>
  </g>
 </g>
</svg>