<?xml version="1.0" encoding="utf-8"?>
<!-- Generator: Adobe Illustrator 20.1.0, SVG Export Plug-In . SVG Version: 6.00 Build 0)  -->
<svg version="1.1" id="Layer_1" xmlns="http://www.w3.org/2000/svg" xmlns:xlink="http://www.w3.org/1999/xlink" x="0px" y="0px"
	 viewBox="0 0 80 80" style="enable-background:new 0 0 80 80;" xml:space="preserve">
<style type="text/css">
	.st0{fill:none;stroke:#5B9F46;stroke-width:4;stroke-miterlimit:10;}
	.st1{fill:none;stroke:#5B9F46;stroke-width:2.3121;stroke-miterlimit:10;}
	.st2{fill:none;stroke:#5B9F46;stroke-width:16;stroke-miterlimit:10;}
	.st3{fill:none;stroke:#5B9F46;stroke-width:12;stroke-miterlimit:10;}
	.st4{fill:none;stroke:#5B9F46;stroke-width:6;stroke-miterlimit:10;}
	.st5{fill:none;stroke:#5B9F46;stroke-width:0.6;stroke-miterlimit:10;}
	.st6{fill:none;stroke:#5B9F46;stroke-miterlimit:10;}
	.st7{fill:none;stroke:#5B9F46;stroke-width:2;stroke-miterlimit:10;}
</style>
<g>
	<path class="st0" d="M66.7,72.2H13.5c-2.8,0-5-2.3-5-5v-54c0-2.8,2.3-5,5-5h53.2c2.8,0,5,2.3,5,5v54C71.7,69.9,69.4,72.2,66.7,72.2
		z"/>
	<line class="st1" x1="8.5" y1="19.6" x2="71.7" y2="19.6"/>
	<line class="st2" x1="24.4" y1="23.1" x2="24.4" y2="15.8"/>
	<line class="st3" x1="45.3" y1="23.1" x2="45.3" y2="15.8"/>
	<line class="st4" x1="59.9" y1="23.1" x2="59.9" y2="15.8"/>
	<line class="st5" x1="41.2" y1="62.7" x2="41.2" y2="48.1"/>
	<line class="st5" x1="42" y1="62.7" x2="42" y2="53.1"/>
	<line class="st5" x1="42.8" y1="62.7" x2="42.8" y2="53.1"/>
	<line class="st5" x1="43.6" y1="62.7" x2="43.6" y2="54.2"/>
	<line class="st5" x1="44.4" y1="62.7" x2="44.4" y2="54.2"/>
	<line class="st5" x1="40.4" y1="62.7" x2="40.4" y2="48.1"/>
	<line class="st5" x1="58.7" y1="62.3" x2="58.7" y2="55.8"/>
	<line class="st5" x1="59.5" y1="62.3" x2="59.5" y2="52.7"/>
	<line class="st5" x1="60.4" y1="62.3" x2="60.4" y2="52.7"/>
	<line class="st5" x1="61.2" y1="62.3" x2="61.2" y2="58.8"/>
	<line class="st5" x1="62" y1="62.3" x2="62" y2="58.8"/>
	<line class="st5" x1="57.9" y1="62.3" x2="57.9" y2="55.8"/>
	<line class="st5" x1="46.1" y1="62.7" x2="46.1" y2="54.2"/>
	<line class="st5" x1="46.9" y1="62.7" x2="46.9" y2="53.1"/>
	<line class="st5" x1="47.7" y1="62.7" x2="47.7" y2="53.1"/>
	<line class="st5" x1="48.5" y1="62.7" x2="48.5" y2="53.1"/>
	<line class="st5" x1="49.3" y1="62.7" x2="49.3" y2="53.1"/>
	<line class="st5" x1="45.3" y1="62.7" x2="45.3" y2="54.2"/>
	<line class="st5" x1="19.1" y1="62.7" x2="19.1" y2="48.1"/>
	<line class="st5" x1="19.9" y1="62.7" x2="19.9" y2="53.1"/>
	<line class="st5" x1="20.8" y1="62.7" x2="20.8" y2="53.1"/>
	<line class="st5" x1="21.6" y1="62.7" x2="21.6" y2="54.2"/>
	<line class="st5" x1="22.4" y1="62.7" x2="22.4" y2="54.2"/>
	<line class="st5" x1="18.3" y1="62.7" x2="18.3" y2="48.1"/>
	<line class="st5" x1="24" y1="62.7" x2="24" y2="54.2"/>
	<line class="st5" x1="24.8" y1="62.7" x2="24.8" y2="53.1"/>
	<line class="st5" x1="25.7" y1="62.7" x2="25.7" y2="55.2"/>
	<line class="st5" x1="26.5" y1="62.7" x2="26.5" y2="52.1"/>
	<line class="st5" x1="27.3" y1="62.7" x2="27.3" y2="54.2"/>
	<line class="st5" x1="23.2" y1="62.7" x2="23.2" y2="55.2"/>
	<line class="st5" x1="28.1" y1="62.7" x2="28.1" y2="54.2"/>
	<line class="st5" x1="28.9" y1="62.7" x2="28.9" y2="49.1"/>
	<line class="st5" x1="29.7" y1="62.7" x2="29.7" y2="51.1"/>
	<g>
		<line class="st6" x1="18.3" y1="28.7" x2="62" y2="28.7"/>
		<line class="st2" x1="24.4" y1="29.6" x2="24.4" y2="27.6"/>
		<line class="st3" x1="45.3" y1="29.6" x2="45.3" y2="27.6"/>
		<line class="st4" x1="59.9" y1="29.6" x2="59.9" y2="27.6"/>
	</g>
	<g>
		<line class="st6" x1="18.3" y1="39.9" x2="49.3" y2="39.9"/>
		<line class="st2" x1="24.4" y1="40.8" x2="24.4" y2="38.8"/>
		<line class="st3" x1="45.3" y1="40.8" x2="45.3" y2="38.8"/>
	</g>
	<g>
		<line class="st6" x1="18.3" y1="32.4" x2="58.7" y2="32.4"/>
		<line class="st2" x1="24.4" y1="33.4" x2="24.4" y2="31.3"/>
		<line class="st3" x1="45.3" y1="33.4" x2="45.3" y2="31.3"/>
		<line class="st0" x1="59.1" y1="33.4" x2="59.1" y2="31.3"/>
	</g>
	<g>
		<line class="st6" x1="18.3" y1="36.2" x2="60.4" y2="36.2"/>
		<line class="st2" x1="24.4" y1="37.1" x2="24.4" y2="35.1"/>
		<line class="st3" x1="45.3" y1="37.1" x2="45.3" y2="35.1"/>
		<line class="st7" x1="59.9" y1="37.1" x2="59.9" y2="35.1"/>
	</g>
	<line class="st6" x1="7.7" y1="63.3" x2="70.9" y2="63.3"/>
</g>
</svg>
