<?xml version="1.0" encoding="utf-8"?>
<!-- Generator: Adobe Illustrator 20.1.0, SVG Export Plug-In . SVG Version: 6.00 Build 0)  -->
<svg version="1.1" id="Layer_1" xmlns="http://www.w3.org/2000/svg" xmlns:xlink="http://www.w3.org/1999/xlink" x="0px" y="0px"
	 viewBox="0 0 80 80" style="enable-background:new 0 0 80 80;" xml:space="preserve">
<style type="text/css">
	.st0{fill:none;stroke:#5B9F46;stroke-width:3.6209;stroke-miterlimit:10;}
	.st1{fill:none;stroke:#5B9F46;stroke-width:2.0929;stroke-miterlimit:10;}
	.st2{fill:none;stroke:#5B9F46;stroke-width:5.4313;stroke-miterlimit:10;}
	.st3{opacity:0.5;fill:#5B9F46;stroke:#5B9F46;stroke-width:0.5431;stroke-miterlimit:10;}
</style>
<g>
	<path class="st0" d="M67.2,72h-54c-2.8,0-5-2.3-5-5V13c0-2.8,2.3-5,5-5h54c2.8,0,5,2.3,5,5v54C72.2,69.8,69.9,72,67.2,72z"/>
	<line class="st1" x1="8.2" y1="22.4" x2="72.2" y2="22.4"/>
	<line class="st1" x1="8.2" y1="40.8" x2="72.2" y2="40.8"/>
	<line class="st1" x1="8.2" y1="57.1" x2="72.2" y2="57.1"/>
	<line class="st2" x1="19.6" y1="26.1" x2="19.6" y2="18.7"/>
	<line class="st2" x1="36" y1="26.1" x2="36" y2="18.7"/>
	<line class="st2" x1="62.3" y1="26.1" x2="62.3" y2="18.7"/>
	<line class="st2" x1="17.6" y1="44.3" x2="17.6" y2="37"/>
	<line class="st2" x1="47.9" y1="44.3" x2="47.9" y2="37"/>
	<line class="st2" x1="60.3" y1="44.3" x2="60.3" y2="37"/>
	<line class="st2" x1="25.6" y1="60.2" x2="25.6" y2="52.9"/>
	<line class="st2" x1="40" y1="60.2" x2="40" y2="52.9"/>
	<line class="st2" x1="52.4" y1="60.2" x2="52.4" y2="52.9"/>
	<polygon class="st3" points="62.7,37 58.1,37 60,26.1 64.7,26.1 	"/>
	<polygon class="st3" points="50.1,37.1 45.4,37.1 33.8,26.1 38.4,26.1 	"/>
	<polygon class="st3" points="20.1,37.1 15.2,37.1 17.2,26.1 22,26.1 	"/>
	<polygon class="st3" points="27.8,52.9 23.4,52.9 15.5,44.4 19.9,44.4 	"/>
	<polygon class="st3" points="42.4,52.9 37.7,52.9 45.4,44.3 50.1,44.3 	"/>
	<polygon class="st3" points="54.7,52.9 50.1,52.9 57.8,44.3 62.4,44.3 	"/>
</g>
</svg>
