<?xml version="1.0" encoding="UTF-8"?>

<svg version="1.2" baseProfile="tiny" width="31.68mm" height="28.36mm" viewBox="31633 71673 3168 2836" preserveAspectRatio="xMidYMid" fill-rule="evenodd" stroke-width="28.222" stroke-linejoin="round" xmlns="http://www.w3.org/2000/svg" xmlns:ooo="http://xml.openoffice.org/svg/export" xmlns:xlink="http://www.w3.org/1999/xlink" xml:space="preserve">
 <defs class="ClipPathGroup">
  <clipPath id="presentation_clip_path" clipPathUnits="userSpaceOnUse">
   <rect x="31633" y="71673" width="3168" height="2836"/>
  </clipPath>
 </defs>
 <defs class="TextShapeIndex">
  <g ooo:slide="id1" ooo:id-list="id3 id4 id5 id6 id7 id8 id9 id10 id11 id12 id13 id14 id15"/>
 </defs>
 <defs class="EmbeddedBulletChars">
  <g id="bullet-char-template(57356)" transform="scale(0.00048828125,-0.00048828125)">
   <path d="M 580,1141 L 1163,571 580,0 -4,571 580,1141 Z"/>
  </g>
  <g id="bullet-char-template(57354)" transform="scale(0.00048828125,-0.00048828125)">
   <path d="M 8,1128 L 1137,1128 1137,0 8,0 8,1128 Z"/>
  </g>
  <g id="bullet-char-template(10146)" transform="scale(0.00048828125,-0.00048828125)">
   <path d="M 174,0 L 602,739 174,1481 1456,739 174,0 Z M 1358,739 L 309,1346 659,739 1358,739 Z"/>
  </g>
  <g id="bullet-char-template(10132)" transform="scale(0.00048828125,-0.00048828125)">
   <path d="M 2015,739 L 1276,0 717,0 1260,543 174,543 174,936 1260,936 717,1481 1274,1481 2015,739 Z"/>
  </g>
  <g id="bullet-char-template(10007)" transform="scale(0.00048828125,-0.00048828125)">
   <path d="M 0,-2 C -7,14 -16,27 -25,37 L 356,567 C 262,823 215,952 215,954 215,979 228,992 255,992 264,992 276,990 289,987 310,991 331,999 354,1012 L 381,999 492,748 772,1049 836,1024 860,1049 C 881,1039 901,1025 922,1006 886,937 835,863 770,784 769,783 710,716 594,584 L 774,223 C 774,196 753,168 711,139 L 727,119 C 717,90 699,76 672,76 641,76 570,178 457,381 L 164,-76 C 142,-110 111,-127 72,-127 30,-127 9,-110 8,-76 1,-67 -2,-52 -2,-32 -2,-23 -1,-13 0,-2 Z"/>
  </g>
  <g id="bullet-char-template(10004)" transform="scale(0.00048828125,-0.00048828125)">
   <path d="M 285,-33 C 182,-33 111,30 74,156 52,228 41,333 41,471 41,549 55,616 82,672 116,743 169,778 240,778 293,778 328,747 346,684 L 369,508 C 377,444 397,411 428,410 L 1163,1116 C 1174,1127 1196,1133 1229,1133 1271,1133 1292,1118 1292,1087 L 1292,965 C 1292,929 1282,901 1262,881 L 442,47 C 390,-6 338,-33 285,-33 Z"/>
  </g>
  <g id="bullet-char-template(9679)" transform="scale(0.00048828125,-0.00048828125)">
   <path d="M 813,0 C 632,0 489,54 383,161 276,268 223,411 223,592 223,773 276,916 383,1023 489,1130 632,1184 813,1184 992,1184 1136,1130 1245,1023 1353,916 1407,772 1407,592 1407,412 1353,268 1245,161 1136,54 992,0 813,0 Z"/>
  </g>
  <g id="bullet-char-template(8226)" transform="scale(0.00048828125,-0.00048828125)">
   <path d="M 346,457 C 273,457 209,483 155,535 101,586 74,649 74,723 74,796 101,859 155,911 209,963 273,989 346,989 419,989 480,963 531,910 582,859 608,796 608,723 608,648 583,586 532,535 482,483 420,457 346,457 Z"/>
  </g>
  <g id="bullet-char-template(8211)" transform="scale(0.00048828125,-0.00048828125)">
   <path d="M -4,459 L 1135,459 1135,606 -4,606 -4,459 Z"/>
  </g>
 </defs>
 <defs class="TextEmbeddedBitmaps"/>
 <g class="SlideGroup">
  <g>
   <g id="id1" class="Slide" clip-path="url(#presentation_clip_path)">
    <g class="Page">
     <g class="com.sun.star.drawing.ClosedBezierShape">
      <g id="id3">
       <path fill="none" stroke="rgb(68,146,45)" stroke-width="188" stroke-linejoin="round" d="M 31803,71837 C 31678,71909 31729,74289 31799,74366 31868,74444 34574,74423 34659,74351 34744,74279 34713,71944 34596,71835 34480,71727 31928,71764 31803,71837 Z"/>
      </g>
     </g>
     <g class="com.sun.star.drawing.OpenBezierShape">
      <g id="id4">
       <path fill="none" stroke="rgb(68,146,45)" stroke-width="188" stroke-linejoin="round" d="M 34597,72396 C 34168,72396 32111,72423 31744,72414"/>
      </g>
     </g>
     <g class="com.sun.star.drawing.OpenBezierShape">
      <g id="id5">
       <path fill="none" stroke="rgb(68,146,45)" stroke-width="188" stroke-linejoin="round" d="M 31762,73147 C 32556,73147 33909,73131 34664,73115"/>
      </g>
     </g>
     <g class="com.sun.star.drawing.OpenBezierShape">
      <g id="id6">
       <path fill="none" stroke="rgb(68,146,45)" stroke-width="188" stroke-linejoin="round" d="M 31762,73805 C 32185,73805 34332,73822 34695,73822"/>
      </g>
     </g>
     <g class="com.sun.star.drawing.OpenBezierShape">
      <g id="id7">
       <path fill="none" stroke="rgb(68,146,45)" stroke-width="188" stroke-linejoin="round" d="M 32662,73996 C 32648,73865 32671,73749 32649,73614"/>
      </g>
     </g>
     <g class="com.sun.star.drawing.OpenBezierShape">
      <g id="id8">
       <path fill="none" stroke="rgb(68,146,45)" stroke-width="188" stroke-linejoin="round" d="M 33108,74008 C 33108,73872 33111,73753 33111,73617"/>
      </g>
     </g>
     <g class="com.sun.star.drawing.OpenBezierShape">
      <g id="id9">
       <path fill="none" stroke="rgb(68,146,45)" stroke-width="188" stroke-linejoin="round" d="M 33831,73990 C 33831,73872 33840,73707 33831,73601"/>
      </g>
     </g>
     <g class="com.sun.star.drawing.OpenBezierShape">
      <g id="id10">
       <path fill="none" stroke="rgb(68,146,45)" stroke-width="188" stroke-linejoin="round" d="M 34108,73326 C 34103,73204 34118,73057 34088,72937"/>
      </g>
     </g>
     <g class="com.sun.star.drawing.OpenBezierShape">
      <g id="id11">
       <path fill="none" stroke="rgb(68,146,45)" stroke-width="188" stroke-linejoin="round" d="M 33549,73319 C 33549,73194 33549,73069 33549,72943"/>
      </g>
     </g>
     <g class="com.sun.star.drawing.OpenBezierShape">
      <g id="id12">
       <path fill="none" stroke="rgb(68,146,45)" stroke-width="188" stroke-linejoin="round" d="M 32457,73341 C 32471,73240 32469,73078 32478,72953"/>
      </g>
     </g>
     <g class="com.sun.star.drawing.OpenBezierShape">
      <g id="id13">
       <path fill="none" stroke="rgb(68,146,45)" stroke-width="188" stroke-linejoin="round" d="M 32197,72626 C 32203,72526 32203,72343 32210,72237"/>
      </g>
     </g>
     <g class="com.sun.star.drawing.OpenBezierShape">
      <g id="id14">
       <path fill="none" stroke="rgb(68,146,45)" stroke-width="188" stroke-linejoin="round" d="M 32814,72603 C 32814,72487 32820,72355 32829,72237"/>
      </g>
     </g>
     <g class="com.sun.star.drawing.OpenBezierShape">
      <g id="id15">
       <path fill="none" stroke="rgb(68,146,45)" stroke-width="188" stroke-linejoin="round" d="M 34163,72568 C 34168,72460 34163,72314 34158,72205"/>
      </g>
     </g>
    </g>
   </g>
  </g>
 </g>
</svg>