<?xml version="1.0" encoding="utf-8"?>
<!-- Generator: Adobe Illustrator 18.0.0, SVG Export Plug-In . SVG Version: 6.00 Build 0)  -->
<!DOCTYPE svg PUBLIC "-//W3C//DTD SVG 1.1//EN" "http://www.w3.org/Graphics/SVG/1.1/DTD/svg11.dtd">
<svg version="1.1"
	 id="svg2" sodipodi:docname="GEvo.svg" inkscape:version="0.48.2 r9819" xmlns:cc="http://creativecommons.org/ns#" xmlns:dc="http://purl.org/dc/elements/1.1/" xmlns:inkscape="http://www.inkscape.org/namespaces/inkscape" xmlns:sodipodi="http://sodipodi.sourceforge.net/DTD/sodipodi-0.dtd" xmlns:svg="http://www.w3.org/2000/svg" xmlns:rdf="http://www.w3.org/1999/02/22-rdf-syntax-ns#"
	 xmlns="http://www.w3.org/2000/svg" xmlns:xlink="http://www.w3.org/1999/xlink" x="0px" y="0px" viewBox="0 0 750 750"
	 enable-background="new 0 0 750 750" xml:space="preserve">
<sodipodi:namedview  inkscape:window-y="20" inkscape:current-layer="layer1" inkscape:pageopacity="0.0" inkscape:window-x="20" inkscape:pageshadow="2" inkscape:document-units="px" inkscape:window-height="634" inkscape:window-width="631" inkscape:window-maximized="0" inkscape:zoom="0.35" inkscape:cx="375" inkscape:cy="520" showgrid="false" pagecolor="#ffffff" bordercolor="#666666" borderopacity="1.0" id="base">
	</sodipodi:namedview>
<g id="layer1" inkscape:groupmode="layer" inkscape:label="Layer 1">
	<g id="g3313" transform="translate(-365.71429,-202.85714)">
		<path id="path3327" inkscape:connector-curvature="0" fill="#A9D7A9" d="M419.1,951.5c-12.6-3.1-25.5-11.1-35.4-22
			c-6.6-7.3-14.7-22.8-16.5-31.5c-0.9-3.9-1.2-99.4-1.2-318.4c0-345.4-0.5-318.4,6.8-333.9c6.7-14,19.2-26.5,33.2-33.3
			c15.4-7.5-11.9-6.9,334.5-6.9c227.2,0,314.7,0.3,318.7,1.2c12.6,2.7,28.4,12,37.4,22.2c6,6.7,11.9,16.6,15,25l2.3,6.5l0.3,315.2
			c0.2,231.7,0,316.9-0.9,321.6c-4.4,22.9-23.5,44.5-46.9,52.9l-6.9,2.4l-317.3,0.2C473.6,953,424.3,952.8,419.1,951.5z
			 M1058.7,579.3V261.4H740.4H422.1l-0.3,316.8c-0.1,174.2,0,317.5,0.2,318.2c0.4,1.1,64.7,1.3,318.6,1.1l318.1-0.3V579.3
			L1058.7,579.3z M914.9,891.6c-2.6-0.2-4.5-1.1-5.3-2.4c-1.6-2.7-2.6-2.7-3.4,0.1c-1,3-6.4,2.9-8-0.1c-1.1-2.1-1.3-2.1-3.2-0.4
			c-2.3,2.1-6.3,1.7-7.9-0.7c-0.9-1.4-0.5-3,1.3-6.7l2.3-4.9l-3.5-4.2c-2.2-2.7-4.7-4.4-6.9-4.8c-4.8-1-11.4-7.6-13.1-13.1
			c-1.1-3.7-1.1-5.6,0-9.7c1.1-4.4,1.1-5.8-0.3-8.9c-1.8-4.3-2-4.4-4.9-2.8c-3,1.6-5.5,0.2-5.1-2.9c0.2-1.7,1.6-3.4,4.1-4.8
			c5.4-3.1,8.5-2,11.5,4.2c1.5,3.1,2.8,4.6,3.4,3.9c1.4-1.4-0.5-7.7-3.3-10.5c-2.9-3.1-2.3-6.2,1.2-6.6c4.1-0.4,7.6,3,9,8.7
			c1.2,4.8,1.6,5.1,6.8,6.9c3,1.1,6.5,2.8,7.8,3.9c3.2,2.9,6.3,9.4,6.3,13.2c0,3.2,0.1,3.2,5.1,3.3c2.8,0,6.9,0.5,9.4,1.2
			c9.2,2.3,9.1,2.3,12.1-0.4c10.2-9.5,28.4-10.9,33.8-2.4c3.1,4.7,1.5,9.9-4.8,15.7c-6.7,6.2-13.9,8.7-22.6,8.1
			c-3.4-0.2-6.3-0.1-6.3,0.4c0,0.5,1.4,2.1,3.2,3.7c2.1,1.9,3.2,3.8,3.2,5.9c0,3.2-1.1,3.7-8.4,3.9c-2,0.1-4.4,0.7-5.3,1.6
			C920.3,891.7,919.4,892,914.9,891.6L914.9,891.6z M477.8,840c-6.1-5.5-29.6-30.5-29.6-31.4c0-0.4,3.7-4.7,8.2-9.4
			c14.1-14.5,151.5-153.8,183.6-186.1c16.7-16.8,30.6-31.3,30.8-32.2c0.2-0.9-0.9-3.1-2.2-5c-1.5-1.9-4.2-6.6-6.1-10.4
			c-16-32-21.3-53.3-21.2-86.5c0-7.8,0.5-18.4,1.1-23.7c1.3-11.6,6.6-33.1,10-40.5c9.6-21,15.8-32.3,22.7-41.9
			c9.5-13,29.4-33.3,38.9-39.7c3.7-2.4,7.7-5.3,8.9-6.4c1.2-1.1,9.4-5.4,18.1-9.9c15.8-7.9,27.6-11.9,44.8-15.3
			c11.1-2.1,42.7-3,56-1.5c17.3,1.9,43.6,9.2,49.1,13.4c0.9,0.6,5.7,3.2,10.7,5.5c10.6,5,27.4,16.9,39.4,27.7
			c8.4,7.7,23.2,26.3,30.3,38c19.5,32.7,26.3,60.4,25.1,101.2c-0.6,20.2-1.4,25.7-5.7,42.3c-4.3,16.5-10.2,29.9-21,47.5l-2.2,3.6
			l2.3,1.8c2.2,1.7,2.3,2.4,2,15.5l-0.3,13.8l-14.8,0.3l-14.8,0.3l-6,4.4c-3.3,2.4-6.7,5.3-7.7,6.4s-5.8,4.4-10.7,7.3
			s-9.9,6.3-11.1,7.3c-1.2,1.1-7.5,4.2-13.9,6.9c-6.4,2.8-13.1,5.8-14.9,6.5c-5.5,2.6-24.1,6.6-35.7,8c-12.8,1.5-44.8,0.7-55.2-1.2
			c-3.7-0.6-7-1-7.4-0.6c-0.3,0.3,2.1,5.2,5.4,10.9s6,10.9,6,11.5c0,1.7-27.3,17-29.1,16.3c-1.9-0.7-14.8-23.1-14.4-25
			c0.2-0.9,5.4-4.5,11.6-8.1c6.2-3.6,11.3-7,11.2-7.6c-0.1-0.5-4.1-2.6-9-4.4l-8.7-3.3l-6.4,3.6c-3.5,1.9-7.1,3.6-7.9,3.6
			c-0.7,0-4.3-4.8-7.6-10.8c-4.7-8.3-7.1-11.5-11-14.1c-2.7-1.8-6.5-4.8-8.5-6.5l-3.6-3.2l-2.7,3.2c-1.5,1.7-18.3,19-37.4,38.3
			c-19.1,19.4-50.1,50.7-69,69.8c-104.7,106.1-111.5,112.9-114,112.9C482.7,843.4,479.9,841.9,477.8,840L477.8,840z M843.3,620.1
			c1.2-0.6,5.8-2,10.2-3c10-2.1,25.1-7.3,28.7-10c1.5-1.1,5.1-3.2,8-4.7c17.2-8.7,35.7-26.1,47.7-44.4c4.4-6.7,9.1-14.4,10.5-17
			c3-5.8,7.8-19.8,9.6-27.7c0.7-3.2,1.7-6.8,2.2-8c4.1-9.5,4.1-50.4,0-59.6c-0.5-1.2-1.8-5.5-2.8-9.6c-2.7-10.4-9.6-28.3-12.8-32.6
			c-1.5-2-5.5-7.9-9-13.2c-10-15.2-30.8-34.3-44.8-41.1c-3.8-1.9-8.6-4.5-10.7-5.9c-5.2-3.4-20.8-8.3-34.4-11
			c-30-5.8-67.3-0.6-90.5,12.5c-3.1,1.7-8.4,4.7-11.9,6.5c-7.6,3.9-13.5,9.1-26.9,22.5c-17.1,17.3-29.6,38.7-35.6,60.7
			c-8.3,30.6-6.9,65,4.1,94.3c10.6,28.4,35.4,58.1,60.1,72c4.4,2.4,8.6,5,9.5,5.8c1.9,1.6,17.6,7.6,23.9,9.2
			c4.1,1.1,12.1,3,20.9,5.2C804.5,622.2,840.7,621.5,843.3,620.1L843.3,620.1z M836.7,826.1c-3.7-4-13.4-21.9-12.8-23.5
			c0.5-1.5,26.2-16.6,28-16.6c1.6,0,15.4,24.2,14.7,25.9c-0.4,1.2-25.9,16.7-27.4,16.7C839,828.5,837.8,827.4,836.7,826.1
			L836.7,826.1z M938.7,810.5c-0.6-1.2-1.1-7.3-1.1-13.8c0-15.4-0.5-15,17-15c9.3,0,14.2,0.4,15.5,1.4c1.6,1.2,1.8,3.1,1.5,15.1
			l-0.3,13.8l-15.7,0.3C941,812.6,939.8,812.5,938.7,810.5L938.7,810.5z M805,772.6c-3.9-6.7-7-12.9-7-13.7
			c0-1.5,25.2-16.6,27.7-16.6c1.8,0,3.1,1.8,10.3,14.3l6.1,10.5l-2.3,1.9c-2.2,1.8-26.3,15.9-27.2,15.9
			C812.4,784.8,808.9,779.4,805,772.6L805,772.6z M938.7,762.6c-0.6-1.2-1.1-7.3-1.1-13.8c0-15.4-0.5-15,17-15
			c9.3,0,14.2,0.4,15.5,1.4c1.6,1.2,1.8,3.1,1.5,15.1l-0.3,13.8l-15.7,0.3C941,764.7,939.8,764.6,938.7,762.6L938.7,762.6z
			 M785.5,737.7C783,735,774,719.4,773,716c-0.9-2.8,0.4-3.7,16.2-12.6c10.8-6.1,11.1-6.2,13-4.2c3.3,3.3,13.9,22.6,13.3,24.1
			c-0.5,1.4-7,5.4-20.8,13l-7,3.8L785.5,737.7z M938.7,711.4c-0.6-1.2-1.1-7.3-1.1-13.8c0-15.4-0.5-15,17-15
			c9.3,0,14.2,0.4,15.5,1.4c1.6,1.2,1.8,3.1,1.5,15.1l-0.3,13.8l-15.7,0.3C941,713.6,939.8,713.5,938.7,711.4z M938.7,660.3
			c-0.6-1.2-1.1-7.3-1.1-13.8c0-15.4-0.5-15,17-15c9.3,0,14.2,0.4,15.5,1.4c1.6,1.2,1.8,3.1,1.5,15.1l-0.3,13.8l-15.7,0.3
			C941,662.4,939.8,662.3,938.7,660.3z"/>
		<path id="path3325" inkscape:connector-curvature="0" fill="#ED9544" d="M420.2,950.4c-19.3-4.7-38-19.9-46.7-38.1
			c-6.9-14.5-6.4,10.7-6.5-332.5c0-307.3,0-312.3,2.1-320.4c4.9-19.3,18.9-36.5,36.3-45.2c17.1-8.4-13.1-7.7,335-7.7
			c304.8,0,312.2,0,320,2c13.5,3.4,22.5,8.7,32.8,19.1c6.8,6.8,10.1,11.2,13,17.1c7.8,15.9,7.1-12.6,7.1,334.4
			c0,343.3,0.5,318.1-6.4,332.8c-6.5,13.7-19.6,26.9-33.4,33.4c-14.5,6.9,10.9,6.5-334,6.4C478.2,951.9,425.4,951.7,420.2,950.4
			L420.2,950.4z M1059.8,579.3v-319H740.4H421l-0.3,317.9c-0.1,174.9,0,318.5,0.2,319.3c0.4,1.1,64.9,1.3,319.7,1.1l319.2-0.3V579.3
			L1059.8,579.3z M900,889.6c-0.4-0.4-0.7-2.3-0.7-4.3c0-4.6-1.4-4.5-4.2,0.2c-4.4,7.5-8,2-4.3-6.6c1.4-3.2,1.3-3.6-2.1-7.5
			c-2.2-2.6-5.2-4.6-8.1-5.4c-9.5-2.8-15.2-13.6-11.7-22c1.6-3.7,1.5-4.3-0.7-8.9c-1.6-3.2-3-4.8-3.9-4.6c-5.9,1.5-6.6,1.5-6.2-0.4
			c0.5-2.8,6.3-5.9,9.3-5.1c1.6,0.4,3.2,2.2,4.5,5.3c1.9,4.4,4.4,6,5.8,3.6c1.2-1.9-0.7-8.6-3.4-11.8c-2.6-3.1-2.6-5.2,0.1-5.2
			c2.9,0,6.1,3.8,7.4,9.1c1.3,5.1,1.5,5.3,6.9,6.9c7.8,2.2,11.9,6.8,13.5,14.5l1.2,6.1l6.4,0.2c3.5,0.1,9,1.1,12.1,2.1l5.5,1.8
			l3.4-3.2c6.2-5.9,16.7-9.5,23.8-8.1c5.2,1,9.9,5.2,9.9,8.8c0,4.4-5.3,10.9-11.8,14.4c-5,2.8-6.9,3.2-14.8,3.3
			c-10.1,0.1-10.7,0.7-5.2,6.4c1.7,1.8,3.1,4,3.1,4.9c0,2.2-3.1,3.4-4.9,1.8c-1.1-1-1.8-0.9-3,0.1c-0.9,0.7-2.5,1-3.6,0.6
			c-1.5-0.4-2.2,0-2.7,1.5c-0.6,2.2-3.4,2.9-4.5,1.1c-0.4-0.7-1.2-0.7-2.2,0.1c-2,1.7-4.4-0.2-5.2-4.4c-1-4.3-2-3.9-3.6,1.2
			C904.6,890,902,891.6,900,889.6L900,889.6z M466.2,826.1c-8.6-8.9-15.8-16.9-15.8-17.8s5.3-7,11.9-13.8
			c9.8-10.1,138.3-140.6,151.1-153.5c2-2,16.3-16.5,31.8-32.1l28-28.3l-4.5-6.5c-7.3-10.7-17.8-35.1-21.3-49.6
			c-12.9-52.9-2.8-107.4,28.2-150.2c12.6-17.5,26-31.2,39.2-40c3.7-2.4,7.7-5.3,8.9-6.4c1.2-1.1,9.4-5.4,18.1-9.9
			c23.8-11.9,41.3-16.3,69.3-17.4c19.6-0.7,34.2,0.5,50.1,4.5c16,4,20.2,5.5,35,12.8c33.5,16.4,59.9,42.2,78.2,76.1
			c8.4,15.7,11.2,22.8,15.2,38.7c4.4,16.9,5.9,32.7,5.1,53.8c-0.6,19-1.4,24.5-5.7,40.9c-3.6,14-6.7,21.8-13.1,33.8
			c-3,5.5-5.4,10.2-5.4,10.4s-1.2,2.2-2.7,4.4c-3.3,4.8-3.3,5.3-0.2,5.8c2.3,0.3,2.3,0.6,2.3,14.2v13.8l-14.9,0.3l-14.9,0.3
			l-8.3,6.9c-4.6,3.8-11.5,8.8-15.5,11.3c-3.9,2.4-8.1,5.2-9.3,6.3c-3.7,3.4-31.7,15.1-43.3,18.1c-16.3,4.3-32.2,5.8-53.1,4.9
			c-9.7-0.4-21.2-1.4-25.6-2.2s-8.1-1.4-8.4-1.1c-0.2,0.2,2.3,5.4,5.8,11.4c3.4,6.1,6.4,11.5,6.6,12.1c0.3,1.2-24.7,16.3-27.1,16.3
			c-1.2,0-15.9-24.4-15.1-25c0.2-0.2,6-3.5,12.9-7.5s12.8-7.6,13.1-8.1c0.3-0.5-1.3-1.5-3.4-2.1c-2.1-0.6-7-2.4-10.7-3.9
			c-4.6-1.9-7-2.4-8-1.7c-0.7,0.5-4.1,2.6-7.4,4.5l-6,3.4l-6.5-11.6c-5-8.9-7.6-12.2-11.1-14.6c-2.5-1.7-6.1-4.4-8-6
			c-4.2-3.5-6-3.7-8.1-0.6c-0.9,1.3-17.3,18.1-36.6,37.5c-19.3,19.4-50.3,50.8-69.1,69.9s-51.8,52.5-73.4,74.3
			c-21.5,21.8-40,39.6-40.9,39.6C482.7,842.3,474.8,835.1,466.2,826.1L466.2,826.1z M843.9,621.2c0.9-0.6,4.6-1.8,8.4-2.4
			c24.8-4.7,47.3-17.5,68.8-38.9c12.9-13,20.9-24.1,29-40.5c3.7-7.5,9.8-25.9,9.8-29.5c0-1.4,0.4-3,1.1-3.5
			c3.6-3.6,4.3-48.4,0.9-59.5c-0.9-3-2.5-8.2-3.4-11.7c-2.5-8.9-8.6-24.8-11.5-29.5c-10.1-16.9-15.1-23.6-24.7-33.3
			c-11.8-11.9-22.4-20.1-31.4-24.5c-3.3-1.6-7.6-3.9-9.7-5.3c-5.1-3.4-20.7-8.4-34.4-11.1c-14.1-2.8-38.3-3-51.9-0.6
			c-19.3,3.4-29,6.6-43.2,14.5c-4.7,2.6-9.9,5.4-11.6,6.3s-5.7,3.8-8.6,6.6c-3.1,2.8-6.1,5.1-6.6,5.1c-2.8,0-30.1,33-30.1,36.3
			c0,0.4-1.9,3.9-4.3,8c-16.6,28.5-20.9,74.1-10.2,111.7c2.5,8.6,6.7,19.1,9.7,23.9c1.5,2.4,2.8,4.7,2.8,5
			c0,2.1,12.5,19.6,19.7,27.5c9,9.8,22.4,21.3,29.1,24.7c2.1,1.1,6.3,3.6,9.3,5.4c6.5,4.2,21.8,10.1,32.1,12.5
			c7,1.6,14.6,3.5,17.1,4.5C802.3,623.6,842.5,622.4,843.9,621.2L843.9,621.2z M837.2,825.6c-2-2.3-13.9-22.8-13.4-23.2
			c0.4-0.4,14.5-8.6,22.3-13.1l6-3.4l7.1,12.4c5.7,9.7,6.8,12.7,5.9,13.8c-1.1,1.3-24.7,15.3-25.9,15.3
			C839,827.4,838.1,826.7,837.2,825.6L837.2,825.6z M939.2,810.2c-0.3-0.7-0.4-7.1-0.2-14.2l0.3-12.7h15.5h15.5v13.8V811l-15.2,0.3
			C943,811.4,939.6,811.2,939.2,810.2z M805.6,772c-3.6-6.4-6.6-12.4-6.6-13.2s6.1-5,13.4-9.2c15.6-8.9,13-9.7,22.4,6.8
			c5.9,10.2,6,10.7,3.9,12c-2.2,1.6-25.8,15.2-26.2,15.2C812.5,783.7,809.4,778.4,805.6,772L805.6,772z M939.2,762.2
			c-0.3-0.7-0.4-7.1-0.2-14.2l0.3-12.7h15.5h15.5v13.8v13.8l-15.2,0.3C943,763.5,939.6,763.3,939.2,762.2z M786,737.2
			c-2.6-3-12.6-21.1-12.6-22.8c0-1.5,24.2-15.9,26.8-15.9c0.9,0,4.5,5.3,8.2,11.8c5.7,9.9,6.5,12,5.3,13.2
			c-1.3,1.3-25.1,15.3-25.8,15.3C787.7,739,786.9,738.3,786,737.2L786,737.2z M939.2,711.1c-0.3-0.7-0.4-7.1-0.2-14.2l0.3-12.7h15.5
			h15.5v13.8V712l-15.2,0.3C943,712.4,939.6,712.2,939.2,711.1z M939.2,660c-0.3-0.7-0.4-7.1-0.2-14.2l0.3-12.7h15.5h15.5V647v13.8
			l-15.2,0.3C943,661.3,939.6,661.1,939.2,660z"/>
		<path id="path3323" inkscape:connector-curvature="0" fill="#5EA25E" d="M420.2,950.4c-19.3-4.7-38-19.9-46.7-38.1
			c-6.9-14.5-6.4,10.7-6.5-332.5c0-307.3,0-312.3,2.1-320.4c4.9-19.3,18.9-36.5,36.3-45.2c17.1-8.4-13.1-7.7,335-7.7
			c304.8,0,312.2,0,320,2c13.5,3.4,22.5,8.7,32.8,19.1c6.8,6.8,10.1,11.2,13,17.1c7.8,15.9,7.1-12.6,7.1,334.4
			c0,343.3,0.5,318.1-6.4,332.8c-6.5,13.7-19.6,26.9-33.4,33.4c-14.5,6.9,10.9,6.5-334,6.4C478.2,951.9,425.4,951.7,420.2,950.4
			L420.2,950.4z M1059.8,579.3v-319H740.4H421l-0.3,317.9c-0.1,174.9,0,318.5,0.2,319.3c0.4,1.1,64.9,1.3,319.7,1.1l319.2-0.3V579.3
			L1059.8,579.3z M900,889.6c-0.4-0.4-0.7-2.3-0.7-4.3c0-4.6-1.4-4.5-4.2,0.2c-4.4,7.5-8,2-4.3-6.6c1.4-3.2,1.3-3.6-2.1-7.5
			c-2.2-2.6-5.2-4.6-8.1-5.4c-9.5-2.8-15.2-13.6-11.7-22c1.6-3.7,1.5-4.3-0.7-8.9c-1.6-3.2-3-4.8-3.9-4.6c-5.9,1.5-6.6,1.5-6.2-0.4
			c0.5-2.8,6.3-5.9,9.3-5.1c1.6,0.4,3.2,2.2,4.5,5.3c1.9,4.4,4.4,6,5.8,3.6c1.2-1.9-0.7-8.6-3.4-11.8c-2.6-3.1-2.6-5.2,0.1-5.2
			c2.9,0,6.1,3.8,7.4,9.1c1.3,5.1,1.5,5.3,6.9,6.9c7.8,2.2,11.9,6.8,13.5,14.5l1.2,6.1l6.4,0.2c3.5,0.1,9,1.1,12.1,2.1l5.5,1.8
			l3.4-3.2c6.2-5.9,16.7-9.5,23.8-8.1c5.2,1,9.9,5.2,9.9,8.8c0,4.4-5.3,10.9-11.8,14.4c-5,2.8-6.9,3.2-14.8,3.3
			c-10.1,0.1-10.7,0.7-5.2,6.4c1.7,1.8,3.1,4,3.1,4.9c0,2.2-3.1,3.4-4.9,1.8c-1.1-1-1.8-0.9-3,0.1c-0.9,0.7-2.5,1-3.6,0.6
			c-1.5-0.4-2.2,0-2.7,1.5c-0.6,2.2-3.4,2.9-4.5,1.1c-0.4-0.7-1.2-0.7-2.2,0.1c-2,1.7-4.4-0.2-5.2-4.4c-1-4.3-2-3.9-3.6,1.2
			C904.6,890,902,891.6,900,889.6L900,889.6z M466.2,826.1c-8.6-8.9-15.8-16.9-15.8-17.8s5.3-7,11.9-13.8
			c9.8-10.1,138.3-140.6,151.1-153.5c2-2,16.3-16.5,31.8-32.1l28-28.3l-4.5-6.5c-7.3-10.7-17.8-35.1-21.3-49.6
			c-12.9-52.9-2.8-107.4,28.2-150.2c12.6-17.5,26-31.2,39.2-40c3.7-2.4,7.7-5.3,8.9-6.4c1.2-1.1,9.4-5.4,18.1-9.9
			c23.8-11.9,41.3-16.3,69.3-17.4c19.6-0.7,34.2,0.5,50.1,4.5c16,4,20.2,5.5,35,12.8c24.7,12.1,45.6,29.3,62,50.9
			c9.4,12.5,21.3,33.3,25.9,45.3c4.2,11.1,8.5,29.6,10,42.6c1.5,13.4,0.9,43.2-1.1,53.9c-3.1,17.1-9.4,37-14.4,45.7
			c-1.4,2.3-4.2,7.5-6.2,11.3c-2,3.8-4.8,8.7-6.1,10.9l-2.3,3.9l2.8,1.1c2.8,1.1,2.8,1.1,2.8,13.3V609h-13.8h-13.8l-8.2,6.6
			c-4.5,3.6-11.9,9.1-16.5,11.9c-4.6,2.9-9.2,6.2-10.3,7.1c-3.6,3.3-31.8,15-43.1,18c-16.1,4.2-32.2,5.8-52.6,5
			c-23.6-0.9-35.8-3.2-52.8-10.1l-6.8-2.8l-6.7,3.6c-3.7,2-6.9,3.4-7.1,3.2c-0.2-0.2-2.7-4.5-5.5-9.4c-3.6-6.4-6.6-10-10.6-13
			c-3-2.2-7.3-5.5-9.6-7.3c-4.9-3.8-6.4-4-8.5-1c-0.9,1.3-17.3,18.1-36.6,37.5c-19.3,19.4-50.3,50.8-69.1,69.9
			c-18.8,19.1-51.8,52.5-73.4,74.3c-21.5,21.8-40,39.6-40.9,39.6C482.7,842.3,474.8,835.1,466.2,826.1L466.2,826.1z M843.9,621.2
			c0.9-0.6,4.6-1.8,8.4-2.4c24.8-4.7,47.3-17.5,68.8-38.9c12.9-13,20.9-24.1,29-40.5c3.7-7.5,9.8-25.9,9.8-29.5c0-1.4,0.4-3,1.1-3.5
			c3.6-3.6,4.3-48.4,0.9-59.5c-0.9-3-2.5-8.2-3.4-11.7c-2.5-8.9-8.6-24.8-11.5-29.5c-10.1-16.9-15.1-23.6-24.7-33.3
			c-11.8-11.9-22.4-20.1-31.4-24.5c-3.3-1.6-7.6-3.9-9.7-5.3c-5.1-3.4-20.7-8.4-34.4-11.1c-14.1-2.8-38.3-3-51.9-0.6
			c-19.3,3.4-29,6.6-43.2,14.5c-4.7,2.6-9.9,5.4-11.6,6.3s-5.7,3.8-8.6,6.6c-3.1,2.8-6.1,5.1-6.6,5.1c-2.8,0-30.1,33-30.1,36.3
			c0,0.4-1.9,3.9-4.3,8c-16.6,28.5-20.9,74.1-10.2,111.7c2.5,8.6,6.7,19.1,9.7,23.9c1.5,2.4,2.8,4.7,2.8,5
			c0,2.1,12.5,19.6,19.7,27.5c9,9.8,22.4,21.3,29.1,24.7c2.1,1.1,6.3,3.6,9.3,5.4c6.5,4.2,21.8,10.1,32.1,12.5
			c7,1.6,14.6,3.5,17.1,4.5C802.3,623.6,842.5,622.4,843.9,621.2L843.9,621.2z M832.3,815.4c-3.1-5.4-5.5-10.4-5.5-11.1
			c0-1,23.4-15.2,25-15.2c1,0,12.4,20.1,12.4,21.7c0,1.7-21.5,14.6-24.3,14.5C838.6,825.3,835.8,821.6,832.3,815.4L832.3,815.4z
			 M940.9,797.6v-12.8l14.1,0.3l14.1,0.3l0.3,12.6l0.3,12.6h-14.4h-14.4V797.6z M807.1,771.7c-3.3-5.5-6-10.8-6-11.5
			c0-2.1,23.6-15.1,25.3-14.1c2.3,1.5,12.3,19.4,11.6,21.1c-0.5,1.4-18.7,12.2-23.2,14C813.5,781.6,811.7,779.5,807.1,771.7
			L807.1,771.7z M940.9,749.7v-12.8l14.1,0.3l14.1,0.3l0.3,12.6l0.3,12.6h-14.4h-14.4V749.7z M781.1,726.8
			c-3.1-5.5-5.4-10.8-5.2-11.4c0.4-1.2,23.1-14.6,24.5-14.6c1,0,12.5,19.8,12.5,21.5c0,1.6-21.9,14.7-24.5,14.6
			C787.5,736.9,784.2,732.3,781.1,726.8L781.1,726.8z M940.9,698.5v-12.8l14.1,0.3l14.1,0.3l0.3,12.6l0.3,12.6h-14.4h-14.4V698.5z
			 M757.7,686.1c-5.1-8.6-7.7-13.7-7.7-14.9c0-1.2,22.7-14.2,24.6-14.1c0.9,0,4.2,4.7,7.5,10.4c4.6,7.9,5.8,10.7,4.8,11.6
			c-1.4,1.5-23.2,14.2-24.3,14.2C762.2,693.2,760,690,757.7,686.1z M940.9,647.4v-12.8l14.1,0.3l14.1,0.3l0.3,12.6l0.3,12.6h-14.4
			h-14.4V647.4z"/>
		<path id="path3321" inkscape:connector-curvature="0" fill="#DB690E" d="M418.3,948.5c-19-5.6-34.7-18.9-43.2-36.4
			c-7.5-15.3-6.9,11.8-6.9-332.8c0-344-0.5-317.2,6.8-332.6c6.6-13.8,18.2-25.6,32.1-32.2c15.4-7.5-11.8-6.9,333.2-6.9
			c344.4,0,317.6-0.5,333,6.8c13.9,6.6,25.6,18.2,32.2,32.1c7.5,15.3,6.9-11.8,6.9,332.9c0,306.7,0,311.7-2.1,319.8
			c-5.7,22.2-22.4,40.5-44.1,48.5l-7.7,2.8l-316.2,0.2l-316.2,0.2L418.3,948.5L418.3,948.5z M1060.8,579.3v-320H740.4H419.9
			l-0.3,319c-0.1,175.4,0,319.6,0.2,320.4c0.4,1.1,65.2,1.3,320.8,1.1l320.2-0.3V579.3z M900.9,887.9c-0.3-0.9-0.4-3.1-0.3-5.1
			c0.4-5.6-2.5-5.3-5.3,0.5c-2.5,5-5.5,6.5-5.5,2.7c0-1.2,1-3.8,2.1-6.1c2-3.8,1.5-7.8-1.1-7.8c-0.5,0-1.7-1.3-2.6-3
			c-1.1-2.1-2.9-3.3-6.5-4.3c-9.8-2.7-14.8-11.6-11.7-20.8c1.5-4.5,1.5-5.1-0.5-9.7c-2.2-5.2-4.7-7-6.7-5c-0.6,0.6-1.9,1.2-2.8,1.2
			c-1.3,0-1.2-0.4,0.4-2.1c1.1-1.2,3.3-2.1,5-2.1c2.7,0,3.4,0.7,5.1,4.7c2.5,5.9,3.5,6.5,6.5,4c2-1.7,2.2-2.6,1.6-6.5
			c-0.4-2.8-1.8-5.5-3.4-7c-3-2.8-1.8-4.4,1.5-2c1.3,0.9,3,4.2,3.9,7.3c1.6,5.4,1.9,5.8,5.8,6.5c8.7,1.5,13.9,7,14.6,15.9
			c0.2,2.4,0.4,4.7,0.4,4.9c0,0.3,3.5,0.6,7.8,0.6c5.7,0.1,9.5,0.9,14.3,2.8c4.8,2,6.4,2.3,6,1.2c-1.3-3.4,7.1-9.1,16.6-11.1
			c9.9-2.1,18.4,2.4,16.7,9.1c-2.3,9.5-20.3,18.2-29.4,14.4c-2.6-1.1-3.5-1.1-4.8,0c-2.5,2-1.9,3.8,2.2,8.5c2.3,2.6,3.5,4.7,3,5.5
			s-1.7,0.2-3.7-2.2c-3.1-3.7-6.2-3.7-4.2-0.1c0.6,1.2,0.6,2.2,0.1,2.6c-1.1,0.6-2.7-1.1-3.7-4c-0.4-1.1-1.3-1.7-2-1.5
			c-1.2,0.4-1.3,1.5-0.4,6.6c0.1,0.5-0.3,1.3-0.9,1.6c-0.5,0.3-1.4-1.1-1.7-3c-0.4-1.9-1-3.7-1.3-4.2c-1.4-1.4-2.9,1.1-2.9,4.6
			c0,5.1-1.8,3.5-2.8-2.3c-1-6.4-3.6-6.1-5.2,0.5C904,888.7,901.8,890.7,900.9,887.9L900.9,887.9z M467.4,825.3
			c-8.5-8.8-15.5-16.4-15.5-16.9s2.3-3.4,5.3-6.6c5.9-6.4,138.5-140.9,185.4-188c16.4-16.5,30.3-30.9,30.8-31.7
			c0.7-1.3,0-3.2-2.8-7.2c-4.5-6.6-6.2-10-13.9-27.4c-11.7-26.5-16-57.6-12.5-90.3c1.3-12.2,6.5-33.7,9.9-41.2
			c9.6-21,15.8-32.3,22.7-41.7c9.5-13,28.5-32.4,37.9-38.7c3.7-2.4,7.7-5.3,8.9-6.4c1.2-1.1,9.4-5.4,18.1-9.9
			c24.2-12.1,41.4-16.4,70.4-17.4c21.3-0.7,36,0.9,54.9,6c15.1,4.2,38.3,15.2,51.8,24.9c12.2,8.7,28.5,24.1,36.4,34.4
			c3.4,4.5,7,9.2,8,10.4c3.1,4,17.1,30.7,19.7,37.7c8,21.2,11.6,45.6,10.7,71.4c-0.6,18-1.5,23.7-5.7,40c-4.6,18-9.4,29.1-20.3,47.1
			c-2.6,4.2-4.6,7.9-4.6,8.2c0,0.3,1.4,1,3.2,1.6l3.2,1.1v12.4v12.4l-14.4-0.2l-14.4-0.2l-8,6.3c-4.4,3.4-11,8.2-14.7,10.7
			c-3.7,2.4-8.6,5.9-11.1,7.7c-2.5,1.8-9.6,5.4-16,8.2c-6.4,2.8-13,5.6-14.8,6.5c-5.5,2.6-24.1,6.6-35.7,8
			c-15.2,1.7-44.5,0.6-57.1-2.1c-5.3-1.2-13.2-3.4-17.6-4.9c-14.5-5.1-15-5.2-15.8-4.2c-1,1.5-11.7,7.3-12.3,6.7
			c-1.6-1.8-11.2-19.1-10.3-18.6c0.5,0.3,1.1,0.4,1.1,0.1c0-1.2-20-15.5-21.6-15.5c-0.9,0-2.9,1.6-4.5,3.4
			c-1.6,1.8-18.6,19.3-37.6,38.6c-19.1,19.3-50.2,50.7-69,69.8c-90.1,91.4-110.6,111.8-111.9,111.8
			C483.4,841.3,475.8,834.1,467.4,825.3L467.4,825.3z M840.1,623c21.8-4.7,35.9-9.5,45.9-15.2c29.9-17.3,46.2-33.4,61.9-61.3
			c4.6-8.1,13.3-31.2,13.3-35.3c0-1,0.9-3.8,1.7-6.5c3.5-9.8,3-56.3-0.7-60.1c-0.5-0.5-1.1-2.1-1.1-3.5c0-5.1-9.1-30.4-13-36.4
			c-1.3-2-2.9-4.4-3.5-5.3c-11.5-18.6-21.9-31-31.5-37.8c-2.5-1.8-5.4-4.2-6.6-5.2c-2.6-2.3-16.8-11.3-18.1-11.3
			c-0.4,0-2.8-1.3-5-2.8c-6.5-4.3-19.7-8.7-34.4-11.6c-32.7-6.4-70.7-1.6-94.9,12c-3.1,1.7-8.4,4.7-11.9,6.5
			c-7.5,3.9-13.4,8.8-26.4,21.9c-14,14-20.9,23.9-30.1,42.8c-13.5,28-16.4,71-6.9,105.2c3.5,12.6,9.6,25.1,20.6,42.3
			c8.3,12.9,26.2,30.5,38.8,38c3.3,2,8.5,5.2,11.6,7.1c7,4.5,19.7,9.4,31.4,12.1c7.7,1.8,14.2,3.4,18.7,4.8
			C802.1,624.3,836.2,623.9,840.1,623L840.1,623z M832.3,815.4c-3.1-5.4-5.5-10.4-5.5-11.1c0-1,23.4-15.2,25-15.2
			c1,0,12.4,20.1,12.4,21.7c0,1.7-21.5,14.6-24.3,14.5C838.6,825.3,835.8,821.6,832.3,815.4L832.3,815.4z M940.9,797.6v-12.8
			l14.1,0.3l14.1,0.3l0.3,12.6l0.3,12.6h-14.4h-14.4V797.6z M807.1,771.7c-3.3-5.5-6-10.8-6-11.5c0-2.1,23.6-15.1,25.3-14.1
			c2.3,1.5,12.3,19.4,11.6,21.1c-0.5,1.4-18.7,12.2-23.2,14C813.5,781.6,811.7,779.5,807.1,771.7L807.1,771.7z M940.9,749.7v-12.8
			l14.1,0.3l14.1,0.3l0.3,12.6l0.3,12.6h-14.4h-14.4V749.7z M781.1,726.8c-3.1-5.5-5.4-10.8-5.2-11.4c0.4-1.2,23.1-14.6,24.5-14.6
			c1,0,12.5,19.8,12.5,21.5c0,1.6-21.9,14.7-24.5,14.6C787.5,736.9,784.2,732.3,781.1,726.8L781.1,726.8z M940.9,698.5v-12.8
			l14.1,0.3l14.1,0.3l0.3,12.6l0.3,12.6h-14.4h-14.4V698.5z M757.7,686.1c-5.1-8.6-7.7-13.7-7.7-14.9c0-1.2,22.7-14.2,24.6-14.1
			c0.9,0,4.2,4.7,7.5,10.4c4.6,7.9,5.8,10.7,4.8,11.6c-1.4,1.5-23.2,14.2-24.3,14.2C762.2,693.2,760,690,757.7,686.1z M940.9,647.4
			v-12.8l14.1,0.3l14.1,0.3l0.3,12.6l0.3,12.6h-14.4h-14.4V647.4z"/>
		<path id="path3319" inkscape:connector-curvature="0" fill="#11AA11" d="M418.3,948.5c-19-5.6-34.7-18.9-43.2-36.4
			c-7.5-15.3-6.9,11.8-6.9-332.8c0-344-0.5-317.2,6.8-332.6c6.6-13.8,18.2-25.6,32.1-32.2c15.4-7.5-11.8-6.9,333.2-6.9
			c344.4,0,317.6-0.5,333,6.8c13.9,6.6,25.6,18.2,32.2,32.1c7.5,15.3,6.9-11.8,6.9,332.9c0,306.7,0,311.7-2.1,319.8
			c-5.7,22.2-22.4,40.5-44.1,48.5l-7.7,2.8l-316.2,0.2l-316.2,0.2L418.3,948.5L418.3,948.5z M1060.8,579.3v-320H740.4H419.9
			l-0.3,319c-0.1,175.4,0,319.6,0.2,320.4c0.4,1.1,65.2,1.3,320.8,1.1l320.2-0.3V579.3z M900.9,887.9c-0.3-0.9-0.4-3.1-0.3-5.1
			c0.4-5.6-2.5-5.3-5.3,0.5c-2.5,5-5.5,6.5-5.5,2.7c0-1.2,1-3.8,2.1-6.1c2-3.8,1.5-7.8-1.1-7.8c-0.5,0-1.7-1.3-2.6-3
			c-1.1-2.1-2.9-3.3-6.5-4.3c-9.8-2.7-14.8-11.6-11.7-20.8c1.5-4.5,1.5-5.1-0.5-9.7c-2.2-5.2-4.7-7-6.7-5c-0.6,0.6-1.9,1.2-2.8,1.2
			c-1.3,0-1.2-0.4,0.4-2.1c1.1-1.2,3.3-2.1,5-2.1c2.7,0,3.4,0.7,5.1,4.7c2.5,5.9,3.5,6.5,6.5,4c2-1.7,2.2-2.6,1.6-6.5
			c-0.4-2.8-1.8-5.5-3.4-7c-3-2.8-1.8-4.4,1.5-2c1.3,0.9,3,4.2,3.9,7.3c1.6,5.4,1.9,5.8,5.8,6.5c8.7,1.5,13.9,7,14.6,15.9
			c0.2,2.4,0.4,4.7,0.4,4.9c0,0.3,3.5,0.6,7.8,0.6c5.7,0.1,9.5,0.9,14.3,2.8c4.8,2,6.4,2.3,6,1.2c-1.3-3.4,7.1-9.1,16.6-11.1
			c9.9-2.1,18.4,2.4,16.7,9.1c-2.3,9.5-20.3,18.2-29.4,14.4c-2.6-1.1-3.5-1.1-4.8,0c-2.5,2-1.9,3.8,2.2,8.5c2.3,2.6,3.5,4.7,3,5.5
			s-1.7,0.2-3.7-2.2c-3.1-3.7-6.2-3.7-4.2-0.1c0.6,1.2,0.6,2.2,0.1,2.6c-1.1,0.6-2.7-1.1-3.7-4c-0.4-1.1-1.3-1.7-2-1.5
			c-1.2,0.4-1.3,1.5-0.4,6.6c0.1,0.5-0.3,1.3-0.9,1.6c-0.5,0.3-1.4-1.1-1.7-3c-0.4-1.9-1-3.7-1.3-4.2c-1.4-1.4-2.9,1.1-2.9,4.6
			c0,5.1-1.8,3.5-2.8-2.3c-1-6.4-3.6-6.1-5.2,0.5C904,888.7,901.8,890.7,900.9,887.9L900.9,887.9z M467.4,825.3
			c-8.5-8.8-15.5-16.4-15.5-16.9s2.3-3.4,5.3-6.6c5.9-6.4,138.5-140.9,185.4-188c16.4-16.5,30.3-30.9,30.8-31.7
			c0.7-1.3,0-3.2-2.8-7.2c-4.5-6.6-6.2-10-13.9-27.4c-11.7-26.5-16-57.6-12.5-90.3c1.3-12.2,6.5-33.7,9.9-41.2
			c9.6-21,15.8-32.3,22.7-41.7c9.5-13,28.5-32.4,37.9-38.7c3.7-2.4,7.7-5.3,8.9-6.4c1.2-1.1,9.4-5.4,18.1-9.9
			c24.2-12.1,41.4-16.4,70.4-17.4c21.3-0.7,36,0.9,54.9,6c15.1,4.2,38.3,15.2,51.8,24.9c12.2,8.7,28.5,24.1,36.4,34.4
			c3.4,4.5,7,9.2,8,10.4c3.1,4,17.1,30.7,19.7,37.7c8,21.2,11.6,45.6,10.7,71.4c-0.6,18-1.5,23.7-5.7,40c-4.6,18-9.4,29.1-20.3,47.1
			c-2.6,4.2-4.6,8-4.6,8.3c0,1.5-11.9,16.3-17.8,22c-7.7,7.5-19.1,16.6-27.4,21.9c-3.4,2.2-8.3,5.4-10.8,7.3
			c-2.5,1.9-9.7,5.6-16.1,8.4c-6.4,2.8-13,5.8-14.8,6.5c-5.5,2.6-24.1,6.6-35.7,8c-15.2,1.7-44.5,0.6-57.1-2.1
			c-5.3-1.2-13.2-3.4-17.6-4.9s-9.9-3.3-12.3-3.9c-6.3-1.6-21.1-8.8-25.3-12.4c-7.4-6.3-19.9-15.1-21.4-15.1c-0.9,0-2.9,1.6-4.5,3.4
			c-1.6,1.8-18.6,19.3-37.6,38.6s-50.2,50.7-69,69.8C505.8,820.9,485.3,841.4,484,841.4C483.4,841.3,475.8,834.1,467.4,825.3
			L467.4,825.3z M840.1,623c21.8-4.7,35.9-9.5,45.9-15.2c29.9-17.3,46.2-33.4,61.9-61.3c4.6-8.1,13.3-31.2,13.3-35.3
			c0-1,0.9-3.8,1.7-6.5c3.5-9.8,3-56.3-0.7-60.1c-0.5-0.5-1.1-2.1-1.1-3.5c0-5.1-9.1-30.4-13-36.4c-1.3-2-2.9-4.4-3.5-5.3
			c-11.5-18.6-21.9-31-31.5-37.8c-2.5-1.8-5.4-4.2-6.6-5.2c-2.6-2.3-16.8-11.3-18.1-11.3c-0.4,0-2.8-1.3-5-2.8
			c-6.5-4.3-19.7-8.7-34.4-11.6c-32.7-6.4-70.7-1.6-94.9,12c-3.1,1.7-8.4,4.7-11.9,6.5c-7.5,3.9-13.4,8.8-26.4,21.9
			c-14,14-20.9,23.9-30.1,42.8c-13.5,28-16.4,71-6.9,105.2c3.5,12.6,9.6,25.1,20.6,42.3c8.3,12.9,26.2,30.5,38.8,38
			c3.3,2,8.5,5.2,11.6,7.1c7,4.5,19.7,9.4,31.4,12.1c7.7,1.8,14.2,3.4,18.7,4.8C802.1,624.3,836.2,623.9,840.1,623L840.1,623z"/>
		<path id="path3317" inkscape:connector-curvature="0" fill="#0E950E" d="M418.3,948.5c-13.6-4-25-11.5-34.1-22.6
			c-7.8-9.4-15.1-27.8-11.8-29.8c1.8-1.1,1.4-4-0.4-3.4c-1.3,0.5-1.2-0.2,0.5-3.6c2.1-4.2,2.1-6,2.1-308.7
			c0-213.2,0.3-306.3,1.2-310.2c0.6-3.1,3.4-10.2,6.1-15.8c9-18.4,25.9-32.3,45.6-37.3c8.1-2.1,12.8-2.1,316.1-2.1
			c169.2,0,311.2,0.3,315.2,0.6c4.2,0.4,8.3,1.4,9.3,2.2c1.3,1.1,3,1.4,5.5,0.9c3.1-0.5,3.7-0.4,3.7,1.1c0,1.3,0.6,1.6,2.3,1.2
			c5.2-1.4,21.5,15.4,27.2,27.9c6,13.4,5.7-7.5,5.7,330.4c0,306.7,0,311.7-2.1,319.8c-5.7,22.2-22.4,40.5-44.1,48.5l-7.7,2.8
			l-316.2,0.2l-316.2,0.2L418.3,948.5L418.3,948.5z M1067.6,584.1c0.1-177.5,0-323.3-0.3-324.2c-0.4-1.2-1-1.2-2.6,0.3
			c-1.7,1.6-2.1,1.6-3.3,0.1s-35.5-1.6-321.4-1.4l-320,0.3l-0.2,322.1c-0.2,215.3-0.6,322.5-1.3,323.2c-0.6,0.6-1.1,1.5-1.1,1.9
			s146.2,0.7,325,0.6l325-0.3L1067.6,584.1z M901.4,883.4c0-7.5-3.7-7.8-6.9-0.5c-1.1,2.3-2.3,4.2-2.8,4.2c-1.5,0-1.1-3.6,0.6-6
			c2.3-3.1,2-5-1.9-10c-2.7-3.4-5-5-9.3-6.5c-10.3-3.5-12.5-8.6-6.9-17c5.1-7.9,8.5-9.8,16.2-9.4c7.5,0.4,9.9,3,10.7,11.3l0.4,5.4
			l-6.3,5.5c-3.5,3.1-6.1,6-5.8,6.4c0.9,1.4,6.1-1.1,9.7-4.6c3.1-3,3.9-3.2,10.9-3.3c9.1-0.1,19.6,3.4,21.2,7c1,2.1,1.2,1.9,2.5-2.2
			c2.1-7.1,10-11.7,21.3-12.4c5.5-0.3,6.6-0.1,7.6,1.7c2.2,4.3-4.4,13-12.4,16.3c-5.5,2.3-13.1,3-16.6,1.6c-4.2-1.7-6.7,0.1-6.1,4.5
			c0.3,1.9,0,3-0.9,3c-0.7,0-1.6,0.6-1.9,1.3c-0.4,1.1-0.7,1-1.6-0.1c-0.6-1-1.8-1.2-3.5-0.6c-1.4,0.4-3.5,0.9-4.6,1
			c-1.3,0-2.3,1.1-2.8,2.8c-0.6,2.7-0.7,2.6-1.1-0.5c-0.3-2.3-1.1-3.3-2.8-3.5c-2-0.3-2.6,0.4-3.6,4.5
			C902.9,889.5,901.4,889.6,901.4,883.4L901.4,883.4z M931.3,882.7c-1.2-2.3-1.2-2.4,0.6-0.6c1.1,1,1.6,2.1,1.3,2.4
			C932.8,884.8,931.9,884.1,931.3,882.7L931.3,882.7z M468.4,826.2c-7.9-8.3-14.5-15.3-14.7-15.9c-0.2-0.4,2.2-1.1,5.3-1.5
			c5.3-0.6,6.1-1.1,14.2-9.5c4.7-4.9,26.2-26.8,48-48.8s66.3-67.2,99.2-100.4l59.7-60.5l0.3-5.8c0.3-5.9-1-7.3-3.7-4.6
			c-3.5,3.5-21.1-32.1-25.9-52.1c-1.8-7.3-2-10.2-1.2-11.2c1.8-1.8,1.5-4.3-0.4-3.6c-1.4,0.5-1.4,0.3,0-2.4c2.1-4,2-4.7-0.5-3.9
			c-2.1,0.5-2.1,0.5,0-3.5c2.9-5.8,2.8-7.8-0.5-7.1l-2.6,0.5l1.9-3.8c1.4-2.8,2.1-7.6,2.7-17.1c1.1-19.3,5-38.2,10.3-49.7
			c1.7-3.6,3.1-7.1,3.1-7.8c0-3.1,11.4-23.3,19.6-34.6c12.6-17.5,26-31.2,39.2-40c3.7-2.4,7.7-5.3,8.9-6.4c1.2-1.1,9.4-5.4,18.1-9.9
			c16.4-8.2,30.4-12.9,47.3-15.7c11.3-1.8,34.6-3,36.2-1.8c0.7,0.5,3,0.7,5,0.4s3.9-0.2,4.3,0.2c0.3,0.4,3.4,0.9,7,1
			c3.6,0,7.1,0.5,7.8,1.2c0.6,0.6,5.5,1.8,10.9,2.8s10.5,2.2,11.6,2.9c1.2,0.6,3.8,1.1,6.2,1.1c2.6,0,4.1,0.4,4.1,1.3
			c0,2.7,6.2,6,11.2,6c3.6,0,4.8,0.4,4.8,1.6c0,1.1,1.1,1.6,3,1.7c1.6,0,4.5,1.1,6.3,2.3c1.8,1.3,5.9,4,9.1,6.3
			c9.6,6.6,26.1,22.9,34.8,34.3c8.1,10.8,19.3,30.5,24.2,42.8c4.1,10.2,8.7,29.7,10.1,42.9c1.5,13.3,0.9,41-1.1,51.8
			c-4.6,25-11.2,42.6-24.2,64.1c-2.6,4.2-4.6,8-4.6,8.3c0,1.5-11.9,16.3-17.8,22c-7.7,7.5-19.1,16.6-27.4,21.9
			c-3.4,2.2-8.3,5.4-10.8,7.3s-9.7,5.6-16.1,8.4c-6.4,2.8-13,5.8-14.8,6.5c-5.5,2.6-24.1,6.6-35.7,8c-15.2,1.7-44.5,0.6-57.1-2.1
			c-5.3-1.2-13.2-3.4-17.6-4.9s-9.9-3.3-12.3-3.9c-6.3-1.6-21.1-8.8-25.3-12.4c-7.4-6.3-19.9-15.1-21.4-15.1c-0.9,0-2.9,1.6-4.5,3.4
			c-1.6,1.8-18.6,19.3-37.6,38.6c-19.1,19.3-50.2,50.7-69,69.8c-90,91.3-110.6,111.8-111.8,111.8
			C483.4,841.3,476.3,834.6,468.4,826.2L468.4,826.2z M847.6,630.5c20.2-4.6,38.5-10.3,43.2-13.7c1.5-1.1,5.7-3.5,9.2-5.3
			c14.2-7.6,35.8-27.8,45.7-42.8c7.3-11.1,7.4-11.2,11.5-19.8c3.2-6.5,5-11.7,11.4-32.9c2.2-7.5,3.2-18.3,3.2-38.2v-21.2l-2.6,0.5
			c-2.6,0.5-2.6,0.4-1.1-2.4c2.1-4,1.9-5.5-0.4-4.9c-1.6,0.4-1.9,0.1-1.4-1.6c0.4-1.5,0.2-1.9-0.6-1.4c-2.1,1.4-2.7-2.7-0.7-5.9
			c1.9-3.3,1.5-5.4-1-4.5c-1.6,0.6-1.7,0.2-5.1-8.6c-9.9-26.5-28.3-52.9-46.4-66.8c-3.3-2.6-6.3-4.9-6.6-5.3
			c-0.9-1.1-16.3-10.4-17.3-10.4c-0.4,0-2.8-1.3-5-2.8c-6.5-4.3-19.7-8.7-34.4-11.6c-32.7-6.4-70.7-1.6-94.9,12
			c-3.1,1.7-8.4,4.7-11.9,6.5c-7.5,3.9-13.4,8.8-26.4,21.9c-10.7,10.7-16.3,17.9-22.4,28.2c-14.7,25.5-20,45.8-20,76.7
			c0,26.3,5.8,52,15.6,69c6.8,11.7,15.9,25.5,19,28.5c7.8,7.8,14.5,16.4,13.9,18c-0.5,1.4,0,1.6,2.8,1c2.9-0.5,3.5-0.3,3.9,1.6
			c0.3,1.3,1.1,2.2,1.6,2.2c2.3,0,8.3,6,8.3,8.3c0,2.2,0.3,2.4,4.1,1.8c3.3-0.5,4.3-0.3,5.5,1.5c0.9,1.2,2.3,2.1,3.4,2.1
			c1.2,0,1.9,1,2.1,3c0.2,2,1.1,3,2.7,3.3c1.3,0.2,2.9,1.1,3.6,1.9c0.7,0.9,2.6,1.5,4.2,1.5c1.6,0,3.7,1,4.8,2.1
			c1.4,1.5,3.3,2.1,6.6,2.1c3.4,0,4.6,0.4,4.6,1.6c0,1.5,2.3,2,8,1.9c1.2,0,2.6,0.6,3,1.5c0.5,1,1.8,1.3,3.4,1
			c1.4-0.3,2.8-0.1,3.2,0.4C798.3,631.8,841.6,631.8,847.6,630.5L847.6,630.5z M865.1,827.4c-1.4-0.9-1.4-1.1,0.2-1.1
			c1,0,2.1,0.4,2.5,1.1C868.7,828.8,867.3,828.8,865.1,827.4z M877.6,823.3c-0.4-1.8-0.3-2.2,0.4-1.4c0.6,0.6,1,1.7,0.6,2.6
			C878.5,825.2,878.1,824.8,877.6,823.3z"/>
		<path id="path3315" inkscape:connector-curvature="0" fill="#117A11" d="M418.3,948.5c-9-2.7-14.9-5.6-19.7-9.6
			c-2.3-1.9-2.7-2.7-1.5-2.8c1,0,2,0.6,2.3,1.6c0.3,1,1.5,1.6,2.7,1.6c1.1,0,2.7,0.7,3.4,1.6s2.6,1.6,4.2,1.6c1.6,0,3.4,0.5,4.2,1.3
			c0.6,0.6,3.7,1.6,6.9,2c9,1.3,628.1,1.2,634.1-0.1c25.4-5.5,47.1-26.5,53-51.3c1.4-5.9,1.6-47.3,1.7-320.9
			c0.1-236.6,0.4-313.4,1.4-311c0.9,2.3,1.3,84.8,1.5,315.2c0.3,348.5,1,319.4-7.3,335.8c-7.6,15.2-22.3,28.1-38.7,34.2l-7.7,2.8
			l-316.2,0.2L426.4,951L418.3,948.5L418.3,948.5z M391.1,932.9c-0.3-0.6-0.1-1.1,0.4-1.1s1.2,0.4,1.2,1.1s-0.2,1.1-0.4,1.1
			S391.5,933.5,391.1,932.9z M416.4,578l0.3-322.9l322.6-0.3c177.4-0.1,323.2,0,324,0.2c0.9,0.3,1.1,1.1,0.5,2.1
			c-0.9,1.5-36.2,1.6-322.4,1.9l-321.5,0.2L419.6,580c-0.2,284.4-0.4,320.9-1.9,320.9C416.4,900.9,416.2,864.5,416.4,578L416.4,578z
			 M909.9,879.1c-0.9-0.2-4.4-0.6-7.8-1c-4.3-0.4-6.8-1.4-8.2-2.9c-1.2-1.3-1.9-2.4-1.6-2.7c0.2-0.2,3.7,0.3,7.7,1.4
			c8.7,2.2,15.6,1.5,22.9-2.2c6.9-3.5,8-3.3,4.6,1.1c-2.7,3.5-5.1,4.7-13.2,6.2C912.7,879.2,910.8,879.2,909.9,879.1L909.9,879.1z
			 M933,870.8c-1.7-1.2-1.1-1.4,4.9-1.4c8.2,0,14.4-2.8,20.4-9.3c4.6-4.9,6-4.9,2.9,0.1C955.9,868.8,938.9,875.1,933,870.8z
			 M882,865.2c-2.8-0.9-5.3-2.1-5.8-2.8c-0.5-0.9,0-1,1.8-0.4c1.4,0.4,4.2,1.1,6.1,1.4c1.9,0.3,3.4,1.3,3.4,2.1s-0.1,1.4-0.2,1.4
			S884.8,866.1,882,865.2L882,865.2z M483,840.4c-0.3-0.5,0.1-1.5,1-2.2c0.9-0.7,1.6-1.8,1.6-2.3c0-1.8,5.7-7.9,40.4-42.9
			c18.6-18.7,35.8-36.3,38.3-39.1c2.5-2.8,5.1-5.4,5.9-5.9c1.5-1,56.8-57,62.8-63.7c2.1-2.3,17.4-17.7,33.9-34.1
			c16.5-16.4,30.8-31.1,31.8-32.8c1.9-3.2,8.2-5.5,11.4-4.4c1.7,0.6,3.7,4.5,3.7,7c0,0.6-1.2,0.3-2.7-0.6c-3.7-2.4-5.3-2.1-8.5,1.7
			c-1.6,1.9-18.6,19.3-37.6,38.6c-19.1,19.3-50.2,50.7-69,69.8c-86.5,87.7-110.6,111.8-111.4,111.8
			C483.9,841.3,483.3,840.8,483,840.4L483,840.4z M795.6,655.9c-9.7-1.2-20.2-3.6-29.6-6.9c-4.4-1.5-9.8-3.3-12.2-3.8
			c-7.4-1.8-21.4-9.1-27-13.8c-3-2.6-6.5-5.4-7.8-6.4l-2.5-1.8h2.3c1.3,0,2.9,0.9,3.5,2.1c0.6,1.2,1.8,2.1,2.7,2.1
			c0.9,0,3.9,1.7,6.7,3.7c2.8,2,5.8,3.7,6.4,3.7s3.6,1.2,6.5,2.7s6.1,2.7,7.1,2.7c1.1,0,2.9,0.7,4.2,1.6c2.7,1.8,10.6,4.9,14.3,5.4
			c1.5,0.2,6.9,1.4,12.3,2.7s12.7,2.2,16.5,2.3c3.8,0.1,7.5,0.3,8,0.7c1.5,0.9,19,0.3,31.5-1c10.9-1.2,29.4-5.3,34.7-7.8
			c1.8-0.9,8.5-3.7,14.9-6.5c6.4-2.8,12.7-5.9,13.9-6.9s5.5-3.9,9.6-6.4c4.1-2.4,9.2-6,11.2-7.9c2-1.8,5.4-4.5,7.4-6
			c7.7-5.6,21.6-21.5,30.9-35.1c5.8-8.4,15.8-27.2,18.8-34.9c2.9-7.7,7.4-24.5,9.1-34c1.7-10.2,3.2-41.1,1.9-42.7
			c-0.5-0.7-0.7-2.1-0.4-3.3c0.3-1.2,0.2-5.1-0.3-8.8c-0.5-3.7-0.6-7.2-0.2-7.7c0.4-0.4,1.2,1.2,1.5,3.7c0.3,2.6,1.1,6.7,1.5,9.4
			c1.3,8.4,0.9,43.7-0.6,52.2c-1.8,10-6.8,28.8-9.7,36.3c-2.8,7.1-8.5,18.3-14.6,28.3c-2.6,4.2-4.6,8-4.6,8.3
			c0,1.5-11.9,16.3-17.8,22c-7.7,7.5-19.1,16.6-27.4,21.9c-3.4,2.2-8.3,5.4-10.8,7.3c-2.5,1.9-9.7,5.6-16.1,8.4
			c-6.4,2.8-12.6,5.5-13.6,6.1c-4.1,2.1-21.6,6.3-32.6,7.8C833,657.1,807.6,657.3,795.6,655.9L795.6,655.9z M678.6,525.5
			c0-1.3,0.3-1.5,0.6-0.6c0.3,0.7,0.3,1.7-0.1,2C678.8,527.2,678.5,526.6,678.6,525.5L678.6,525.5z M677.6,521.2
			c0-1.3,0.3-1.5,0.6-0.6c0.3,0.7,0.3,1.7-0.1,2C677.8,522.9,677.5,522.3,677.6,521.2L677.6,521.2z M674.2,512.5
			c-0.1-3.9-2.5-14.8-3.4-15.8c-0.4-0.4-0.7-9.7-0.7-20.7c0-38.3,6.3-60.4,25.6-89.4c5.9-8.8,22.2-27.3,25-28.3
			c1.2-0.4,4.3-2.9,7-5.4c7.5-6.9,32.5-20.1,44.4-23.3c17.2-4.6,27.3-5.9,48.1-5.9c14,0,20.6,0.3,20.6,1.2c0,0.6,1.3,1.1,3,1
			c1.7-0.1,4.2,0.1,5.5,0.4c1.5,0.3,6.1,1.5,10.1,2.4c4.1,1,9,2.7,10.8,3.7s4.8,2,6.6,2c2.5,0,3.7,0.7,5.1,3.2
			c1.4,2.3,3.4,3.6,7.7,5c3.2,1,6,2.4,6.3,3.2c0.3,0.7,1,1.4,1.5,1.4c1.7,0,9.4,5.9,9.5,7.1c0,0.6-3.8-1.2-8.6-4
			c-4.8-2.9-9.3-5.2-10-5.2c-0.7,0-1.9-0.7-2.7-1.7c-2.9-3.5-20.2-9.6-36.6-12.8c-32.3-6.4-70.8-1.5-94.8,12.1
			c-3.1,1.7-8.4,4.7-11.9,6.5c-7.5,3.9-13.4,8.8-26.4,21.9c-10.7,10.7-16.3,17.9-22.4,28.2c-15.7,26.9-20.5,47.1-19.7,80.9
			c0.4,20.1,1.3,29,3,32.2c1.3,2.4,1.2,3-0.6,3C674.8,515.4,674.3,514.3,674.2,512.5L674.2,512.5z M987.3,437.6
			c-0.3-0.5-0.3-1.6,0.1-2.2c0.7-1.2,2.6,0.6,2.6,2.6C989.9,439.1,988,438.9,987.3,437.6z M985.8,428.6c0-1.3,0.3-1.5,0.6-0.6
			c0.3,0.7,0.3,1.7-0.1,2C986,430.3,985.7,429.6,985.8,428.6L985.8,428.6z M915.3,362.5c-1.1-1.3-1.1-1.6,0.4-1.6
			c1,0,1.7,0.7,1.7,1.6s-0.2,1.6-0.4,1.6C916.8,364.1,916,363.5,915.3,362.5z M910.5,358.8c-0.4-0.6-0.4-1.4-0.1-1.7
			c0.7-0.7,2.9,0.5,2.9,1.8C913.1,360.3,911.3,360.2,910.5,358.8z"/>
	</g>
</g>
</svg>
