<?xml version="1.0" encoding="UTF-8"?>

<svg version="1.2" baseProfile="tiny" width="39.64mm" height="38.69mm" viewBox="18518 57812 3964 3869" preserveAspectRatio="xMidYMid" fill-rule="evenodd" stroke-width="28.222" stroke-linejoin="round" xmlns="http://www.w3.org/2000/svg" xmlns:ooo="http://xml.openoffice.org/svg/export" xmlns:xlink="http://www.w3.org/1999/xlink" xml:space="preserve">
 <defs class="ClipPathGroup">
  <clipPath id="presentation_clip_path" clipPathUnits="userSpaceOnUse">
   <rect x="18518" y="57812" width="3964" height="3869"/>
  </clipPath>
 </defs>
 <defs class="TextShapeIndex">
  <g ooo:slide="id1" ooo:id-list="id3 id4 id5 id6 id7 id8 id9 id10 id11 id12 id13 id14 id15 id16 id17 id18 id19 id20 id21 id22 id23 id24 id25 id26 id27 id28 id29 id30 id31 id32 id33 id34 id35 id36 id37"/>
 </defs>
 <defs class="EmbeddedBulletChars">
  <g id="bullet-char-template(57356)" transform="scale(0.00048828125,-0.00048828125)">
   <path d="M 580,1141 L 1163,571 580,0 -4,571 580,1141 Z"/>
  </g>
  <g id="bullet-char-template(57354)" transform="scale(0.00048828125,-0.00048828125)">
   <path d="M 8,1128 L 1137,1128 1137,0 8,0 8,1128 Z"/>
  </g>
  <g id="bullet-char-template(10146)" transform="scale(0.00048828125,-0.00048828125)">
   <path d="M 174,0 L 602,739 174,1481 1456,739 174,0 Z M 1358,739 L 309,1346 659,739 1358,739 Z"/>
  </g>
  <g id="bullet-char-template(10132)" transform="scale(0.00048828125,-0.00048828125)">
   <path d="M 2015,739 L 1276,0 717,0 1260,543 174,543 174,936 1260,936 717,1481 1274,1481 2015,739 Z"/>
  </g>
  <g id="bullet-char-template(10007)" transform="scale(0.00048828125,-0.00048828125)">
   <path d="M 0,-2 C -7,14 -16,27 -25,37 L 356,567 C 262,823 215,952 215,954 215,979 228,992 255,992 264,992 276,990 289,987 310,991 331,999 354,1012 L 381,999 492,748 772,1049 836,1024 860,1049 C 881,1039 901,1025 922,1006 886,937 835,863 770,784 769,783 710,716 594,584 L 774,223 C 774,196 753,168 711,139 L 727,119 C 717,90 699,76 672,76 641,76 570,178 457,381 L 164,-76 C 142,-110 111,-127 72,-127 30,-127 9,-110 8,-76 1,-67 -2,-52 -2,-32 -2,-23 -1,-13 0,-2 Z"/>
  </g>
  <g id="bullet-char-template(10004)" transform="scale(0.00048828125,-0.00048828125)">
   <path d="M 285,-33 C 182,-33 111,30 74,156 52,228 41,333 41,471 41,549 55,616 82,672 116,743 169,778 240,778 293,778 328,747 346,684 L 369,508 C 377,444 397,411 428,410 L 1163,1116 C 1174,1127 1196,1133 1229,1133 1271,1133 1292,1118 1292,1087 L 1292,965 C 1292,929 1282,901 1262,881 L 442,47 C 390,-6 338,-33 285,-33 Z"/>
  </g>
  <g id="bullet-char-template(9679)" transform="scale(0.00048828125,-0.00048828125)">
   <path d="M 813,0 C 632,0 489,54 383,161 276,268 223,411 223,592 223,773 276,916 383,1023 489,1130 632,1184 813,1184 992,1184 1136,1130 1245,1023 1353,916 1407,772 1407,592 1407,412 1353,268 1245,161 1136,54 992,0 813,0 Z"/>
  </g>
  <g id="bullet-char-template(8226)" transform="scale(0.00048828125,-0.00048828125)">
   <path d="M 346,457 C 273,457 209,483 155,535 101,586 74,649 74,723 74,796 101,859 155,911 209,963 273,989 346,989 419,989 480,963 531,910 582,859 608,796 608,723 608,648 583,586 532,535 482,483 420,457 346,457 Z"/>
  </g>
  <g id="bullet-char-template(8211)" transform="scale(0.00048828125,-0.00048828125)">
   <path d="M -4,459 L 1135,459 1135,606 -4,606 -4,459 Z"/>
  </g>
 </defs>
 <defs class="TextEmbeddedBitmaps"/>
 <g class="SlideGroup">
  <g>
   <g id="id1" class="Slide" clip-path="url(#presentation_clip_path)">
    <g class="Page">
     <g class="com.sun.star.drawing.ClosedBezierShape">
      <g id="id3">
       <path fill="none" stroke="rgb(118,45,145)" stroke-width="188" stroke-linejoin="round" d="M 20285,58916 C 20196,59014 20208,59195 20309,59285 20484,59441 20783,59321 20796,59080 20809,58826 20444,58741 20285,58916 Z"/>
      </g>
     </g>
     <g class="com.sun.star.drawing.OpenBezierShape">
      <g id="id4">
       <path fill="none" stroke="rgb(118,45,145)" stroke-width="188" stroke-linejoin="round" d="M 20506,59360 C 20503,59587 20511,59894 20499,60238"/>
      </g>
     </g>
     <g class="com.sun.star.drawing.OpenBezierShape">
      <g id="id5">
       <path fill="none" stroke="rgb(118,45,145)" stroke-width="188" stroke-linejoin="round" d="M 20500,60237 C 20438,60433 20323,61197 20299,61338"/>
      </g>
     </g>
     <g class="com.sun.star.drawing.OpenBezierShape">
      <g id="id6">
       <path fill="none" stroke="rgb(118,45,145)" stroke-width="188" stroke-linejoin="round" d="M 20499,60243 C 20355,60389 19949,61117 19864,61232"/>
      </g>
     </g>
     <g class="com.sun.star.drawing.OpenBezierShape">
      <g id="id7">
       <path fill="none" stroke="rgb(118,45,145)" stroke-width="188" stroke-linejoin="round" d="M 20519,60237 C 20581,60433 20696,61197 20720,61338"/>
      </g>
     </g>
     <g class="com.sun.star.drawing.OpenBezierShape">
      <g id="id8">
       <path fill="none" stroke="rgb(118,45,145)" stroke-width="188" stroke-linejoin="round" d="M 20520,60243 C 20664,60389 21070,61117 21155,61232"/>
      </g>
     </g>
     <g class="com.sun.star.drawing.OpenBezierShape">
      <g id="id9">
       <path fill="none" stroke="rgb(118,45,145)" stroke-width="188" stroke-linejoin="round" d="M 21594,59773 C 21142,59773 19893,59772 19451,59773"/>
      </g>
     </g>
     <g class="com.sun.star.drawing.OpenBezierShape">
      <g id="id10">
       <path fill="none" stroke="rgb(118,45,145)" stroke-width="188" stroke-linejoin="round" d="M 21465,59019 C 21301,59172 20594,59726 20500,59726 20406,59726 19710,59160 19534,59007"/>
      </g>
     </g>
     <g class="com.sun.star.drawing.OpenBezierShape">
      <g id="id11">
       <path fill="none" stroke="rgb(118,45,145)" stroke-width="188" stroke-linejoin="round" d="M 19836,61580 C 19733,61576 19633,61572 19541,61566"/>
      </g>
     </g>
     <g class="com.sun.star.drawing.OpenBezierShape">
      <g id="id12">
       <path fill="none" stroke="rgb(118,45,145)" stroke-width="188" stroke-linejoin="round" d="M 20653,61585 C 20554,61587 20453,61588 20352,61587"/>
      </g>
     </g>
     <g class="com.sun.star.drawing.OpenBezierShape">
      <g id="id13">
       <path fill="none" stroke="rgb(118,45,145)" stroke-width="188" stroke-linejoin="round" d="M 21470,61556 C 21382,61563 21282,61569 21175,61574"/>
      </g>
     </g>
     <g class="com.sun.star.drawing.OpenBezierShape">
      <g id="id14">
       <path fill="none" stroke="rgb(118,45,145)" stroke-width="188" stroke-linejoin="round" d="M 19906,58552 C 19803,58556 19703,58560 19611,58566"/>
      </g>
     </g>
     <g class="com.sun.star.drawing.OpenBezierShape">
      <g id="id15">
       <path fill="none" stroke="rgb(118,45,145)" stroke-width="188" stroke-linejoin="round" d="M 20677,58547 C 20578,58545 20477,58544 20376,58544"/>
      </g>
     </g>
     <g class="com.sun.star.drawing.OpenBezierShape">
      <g id="id16">
       <path fill="none" stroke="rgb(118,45,145)" stroke-width="188" stroke-linejoin="round" d="M 21446,58575 C 21358,58568 21258,58562 21151,58557"/>
      </g>
     </g>
     <g class="com.sun.star.drawing.OpenBezierShape">
      <g id="id17">
       <path fill="none" stroke="rgb(118,45,145)" stroke-width="188" stroke-linejoin="round" d="M 21879,61348 C 21871,61486 21862,61477 21851,61543"/>
      </g>
     </g>
     <g class="com.sun.star.drawing.OpenBezierShape">
      <g id="id18">
       <path fill="none" stroke="rgb(118,45,145)" stroke-width="188" stroke-linejoin="round" d="M 21901,60337 C 21900,60438 21898,60490 21895,60585"/>
      </g>
     </g>
     <g class="com.sun.star.drawing.OpenBezierShape">
      <g id="id19">
       <path fill="none" stroke="rgb(118,45,145)" stroke-width="188" stroke-linejoin="round" d="M 21900,59596 C 21902,59689 21903,59760 21903,59856"/>
      </g>
     </g>
     <g class="com.sun.star.drawing.OpenBezierShape">
      <g id="id20">
       <path fill="none" stroke="rgb(118,45,145)" stroke-width="188" stroke-linejoin="round" d="M 21875,58872 C 21881,58952 21886,58978 21890,59086"/>
      </g>
     </g>
     <g class="com.sun.star.drawing.OpenBezierShape">
      <g id="id21">
       <path fill="none" stroke="rgb(118,45,145)" stroke-width="188" stroke-linejoin="round" d="M 19166,61348 C 19174,61486 19183,61477 19194,61543"/>
      </g>
     </g>
     <g class="com.sun.star.drawing.OpenBezierShape">
      <g id="id22">
       <path fill="none" stroke="rgb(118,45,145)" stroke-width="188" stroke-linejoin="round" d="M 19145,60337 C 19146,60438 19148,60490 19151,60585"/>
      </g>
     </g>
     <g class="com.sun.star.drawing.OpenBezierShape">
      <g id="id23">
       <path fill="none" stroke="rgb(118,45,145)" stroke-width="188" stroke-linejoin="round" d="M 19145,59596 C 19143,59689 19142,59760 19142,59856"/>
      </g>
     </g>
     <g class="com.sun.star.drawing.OpenBezierShape">
      <g id="id24">
       <path fill="none" stroke="rgb(118,45,145)" stroke-width="188" stroke-linejoin="round" d="M 19170,58872 C 19164,58952 19159,58978 19155,59086"/>
      </g>
     </g>
     <g class="com.sun.star.drawing.OpenBezierShape">
      <g id="id25">
       <path fill="none" stroke="rgb(118,45,145)" stroke-width="188" stroke-linejoin="round" d="M 21467,58158 C 21381,58110 21291,58069 21198,58034"/>
      </g>
     </g>
     <g class="com.sun.star.drawing.OpenBezierShape">
      <g id="id26">
       <path fill="none" stroke="rgb(118,45,145)" stroke-width="188" stroke-linejoin="round" d="M 22074,58699 C 22021,58626 21964,58559 21904,58496"/>
      </g>
     </g>
     <g class="com.sun.star.drawing.OpenBezierShape">
      <g id="id27">
       <path fill="none" stroke="rgb(118,45,145)" stroke-width="188" stroke-linejoin="round" d="M 22388,59474 C 22377,59378 22358,59285 22330,59194"/>
      </g>
     </g>
     <g class="com.sun.star.drawing.OpenBezierShape">
      <g id="id28">
       <path fill="none" stroke="rgb(118,45,145)" stroke-width="188" stroke-linejoin="round" d="M 22286,60310 C 22317,60218 22343,60126 22361,60032"/>
      </g>
     </g>
     <g class="com.sun.star.drawing.OpenBezierShape">
      <g id="id29">
       <path fill="none" stroke="rgb(118,45,145)" stroke-width="188" stroke-linejoin="round" d="M 21862,61053 C 21924,60982 21982,60905 22035,60825"/>
      </g>
     </g>
     <g class="com.sun.star.drawing.OpenBezierShape">
      <g id="id30">
       <path fill="none" stroke="rgb(118,45,145)" stroke-width="188" stroke-linejoin="round" d="M 21175,61571 C 21257,61541 21364,61473 21437,61411"/>
      </g>
     </g>
     <g class="com.sun.star.drawing.OpenBezierShape">
      <g id="id31">
       <path fill="none" stroke="rgb(118,45,145)" stroke-width="188" stroke-linejoin="round" d="M 19547,61419 C 19612,61466 19714,61534 19807,61570"/>
      </g>
     </g>
     <g class="com.sun.star.drawing.OpenBezierShape">
      <g id="id32">
       <path fill="none" stroke="rgb(118,45,145)" stroke-width="188" stroke-linejoin="round" d="M 18923,60832 C 18973,60900 19027,60964 19084,61023"/>
      </g>
     </g>
     <g class="com.sun.star.drawing.OpenBezierShape">
      <g id="id33">
       <path fill="none" stroke="rgb(118,45,145)" stroke-width="188" stroke-linejoin="round" d="M 18612,60061 C 18623,60148 18642,60235 18667,60320"/>
      </g>
     </g>
     <g class="com.sun.star.drawing.OpenBezierShape">
      <g id="id34">
       <path fill="none" stroke="rgb(118,45,145)" stroke-width="188" stroke-linejoin="round" d="M 18697,59238 C 18673,59311 18653,59385 18637,59461"/>
      </g>
     </g>
     <g class="com.sun.star.drawing.OpenBezierShape">
      <g id="id35">
       <path fill="none" stroke="rgb(118,45,145)" stroke-width="188" stroke-linejoin="round" d="M 19128,58500 C 19073,58561 19021,58626 18973,58693"/>
      </g>
     </g>
     <g class="com.sun.star.drawing.OpenBezierShape">
      <g id="id36">
       <path fill="none" stroke="rgb(118,45,145)" stroke-width="188" stroke-linejoin="round" d="M 19819,58018 C 19735,58051 19655,58090 19577,58135"/>
      </g>
     </g>
     <g class="com.sun.star.drawing.OpenBezierShape">
      <g id="id37">
       <path fill="none" stroke="rgb(118,45,145)" stroke-width="188" stroke-linejoin="round" d="M 20665,57916 C 20572,57907 20478,57904 20382,57907"/>
      </g>
     </g>
    </g>
   </g>
  </g>
 </g>
</svg>