<?xml version="1.0" encoding="UTF-8"?>
<!DOCTYPE svg PUBLIC "-//W3C//DTD SVG 1.1//EN" "http://www.w3.org/Graphics/SVG/1.1/DTD/svg11.dtd">
<svg version="1.2" width="37.1mm" height="36.95mm" viewBox="8092 120502 3710 3695" preserveAspectRatio="xMidYMid" fill-rule="evenodd" stroke-width="28.222" stroke-linejoin="round" xmlns="http://www.w3.org/2000/svg" xmlns:ooo="http://xml.openoffice.org/svg/export" xmlns:xlink="http://www.w3.org/1999/xlink" xmlns:presentation="http://sun.com/xmlns/staroffice/presentation" xmlns:smil="http://www.w3.org/2001/SMIL20/" xmlns:anim="urn:oasis:names:tc:opendocument:xmlns:animation:1.0" xml:space="preserve">
 <defs class="ClipPathGroup">
  <clipPath id="presentation_clip_path" clipPathUnits="userSpaceOnUse">
   <rect x="8092" y="120502" width="3710" height="3695"/>
  </clipPath>
  <clipPath id="presentation_clip_path_shrink" clipPathUnits="userSpaceOnUse">
   <rect x="8095" y="120505" width="3703" height="3688"/>
  </clipPath>
 </defs>
 <defs class="TextShapeIndex">
  <g ooo:slide="id1" ooo:id-list="id3 id4 id5 id6 id7 id8 id9 id10 id11 id12 id13 id14 id15"/>
 </defs>
 <defs class="EmbeddedBulletChars">
  <g id="bullet-char-template(57356)" transform="scale(0.00048828125,-0.00048828125)">
   <path d="M 580,1141 L 1163,571 580,0 -4,571 580,1141 Z"/>
  </g>
  <g id="bullet-char-template(57354)" transform="scale(0.00048828125,-0.00048828125)">
   <path d="M 8,1128 L 1137,1128 1137,0 8,0 8,1128 Z"/>
  </g>
  <g id="bullet-char-template(10146)" transform="scale(0.00048828125,-0.00048828125)">
   <path d="M 174,0 L 602,739 174,1481 1456,739 174,0 Z M 1358,739 L 309,1346 659,739 1358,739 Z"/>
  </g>
  <g id="bullet-char-template(10132)" transform="scale(0.00048828125,-0.00048828125)">
   <path d="M 2015,739 L 1276,0 717,0 1260,543 174,543 174,936 1260,936 717,1481 1274,1481 2015,739 Z"/>
  </g>
  <g id="bullet-char-template(10007)" transform="scale(0.00048828125,-0.00048828125)">
   <path d="M 0,-2 C -7,14 -16,27 -25,37 L 356,567 C 262,823 215,952 215,954 215,979 228,992 255,992 264,992 276,990 289,987 310,991 331,999 354,1012 L 381,999 492,748 772,1049 836,1024 860,1049 C 881,1039 901,1025 922,1006 886,937 835,863 770,784 769,783 710,716 594,584 L 774,223 C 774,196 753,168 711,139 L 727,119 C 717,90 699,76 672,76 641,76 570,178 457,381 L 164,-76 C 142,-110 111,-127 72,-127 30,-127 9,-110 8,-76 1,-67 -2,-52 -2,-32 -2,-23 -1,-13 0,-2 Z"/>
  </g>
  <g id="bullet-char-template(10004)" transform="scale(0.00048828125,-0.00048828125)">
   <path d="M 285,-33 C 182,-33 111,30 74,156 52,228 41,333 41,471 41,549 55,616 82,672 116,743 169,778 240,778 293,778 328,747 346,684 L 369,508 C 377,444 397,411 428,410 L 1163,1116 C 1174,1127 1196,1133 1229,1133 1271,1133 1292,1118 1292,1087 L 1292,965 C 1292,929 1282,901 1262,881 L 442,47 C 390,-6 338,-33 285,-33 Z"/>
  </g>
  <g id="bullet-char-template(9679)" transform="scale(0.00048828125,-0.00048828125)">
   <path d="M 813,0 C 632,0 489,54 383,161 276,268 223,411 223,592 223,773 276,916 383,1023 489,1130 632,1184 813,1184 992,1184 1136,1130 1245,1023 1353,916 1407,772 1407,592 1407,412 1353,268 1245,161 1136,54 992,0 813,0 Z"/>
  </g>
  <g id="bullet-char-template(8226)" transform="scale(0.00048828125,-0.00048828125)">
   <path d="M 346,457 C 273,457 209,483 155,535 101,586 74,649 74,723 74,796 101,859 155,911 209,963 273,989 346,989 419,989 480,963 531,910 582,859 608,796 608,723 608,648 583,586 532,535 482,483 420,457 346,457 Z"/>
  </g>
  <g id="bullet-char-template(8211)" transform="scale(0.00048828125,-0.00048828125)">
   <path d="M -4,459 L 1135,459 1135,606 -4,606 -4,459 Z"/>
  </g>
  <g id="bullet-char-template(61548)" transform="scale(0.00048828125,-0.00048828125)">
   <path d="M 173,740 C 173,903 231,1043 346,1159 462,1274 601,1332 765,1332 928,1332 1067,1274 1183,1159 1299,1043 1357,903 1357,740 1357,577 1299,437 1183,322 1067,206 928,148 765,148 601,148 462,206 346,322 231,437 173,577 173,740 Z"/>
  </g>
 </defs>
 <defs class="TextEmbeddedBitmaps"/>
 <g class="SlideGroup">
  <g>
   <g id="container-id1">
    <g id="id1" class="Slide" clip-path="url(#presentation_clip_path)">
     <g class="Page">
      <g class="com.sun.star.drawing.ClosedBezierShape">
       <g id="id3">
        <rect class="BoundingBox" stroke="none" fill="none" x="8091" y="120501" width="2559" height="2589"/>
        <path fill="none" stroke="rgb(118,45,145)" stroke-width="235" stroke-linejoin="round" d="M 10420,122217 C 10654,121667 10513,121099 10036,120796 9392,120388 8566,120713 8289,121473 8012,122238 8498,122785 9025,122927 9689,123106 10211,122710 10420,122217 Z"/>
       </g>
      </g>
      <g class="com.sun.star.drawing.OpenBezierShape">
       <g id="id4">
        <rect class="BoundingBox" stroke="none" fill="none" x="9815" y="122252" width="1988" height="1946"/>
        <path fill="none" stroke="rgb(118,45,145)" stroke-width="235" stroke-linejoin="round" d="M 10461,122370 C 10811,122720 11286,123154 11605,123473 11883,123751 11355,124279 11077,124000 10758,123681 10283,123248 9933,122897"/>
       </g>
      </g>
      <g class="com.sun.star.drawing.OpenBezierShape">
       <g id="id5">
        <rect class="BoundingBox" stroke="none" fill="none" x="10168" y="122601" width="732" height="731"/>
        <path fill="none" stroke="rgb(118,45,145)" stroke-width="235" stroke-linejoin="round" d="M 10286,123213 C 10489,123219 10788,123017 10781,122719"/>
       </g>
      </g>
      <g class="com.sun.star.drawing.OpenBezierShape">
       <g id="id6">
        <rect class="BoundingBox" stroke="none" fill="none" x="9059" y="121013" width="806" height="1576"/>
        <path fill="none" stroke="rgb(118,45,145)" stroke-width="35" stroke-linejoin="round" d="M 9077,122570 C 9229,122532 9377,122491 9493,122344 9599,122208 9628,122026 9551,121873 9475,121724 9392,121602 9421,121420 9444,121273 9541,121122 9846,121031"/>
       </g>
      </g>
      <g class="com.sun.star.drawing.OpenBezierShape">
       <g id="id7">
        <rect class="BoundingBox" stroke="none" fill="none" x="8618" y="121413" width="1561" height="934"/>
        <path fill="none" stroke="rgb(118,45,145)" stroke-width="35" stroke-linejoin="round" d="M 8636,122328 C 8667,122169 8686,122025 8854,121908 9013,121796 9172,121773 9363,121773 9537,121773 9722,121821 9882,121742 10030,121669 10086,121556 10160,121431"/>
       </g>
      </g>
      <g class="com.sun.star.drawing.OpenBezierShape">
       <g id="id8">
        <rect class="BoundingBox" stroke="none" fill="none" x="8787" y="122309" width="375" height="103"/>
        <path fill="none" stroke="rgb(118,45,145)" stroke-width="35" stroke-linejoin="round" d="M 9143,122393 C 9046,122385 8870,122361 8805,122327"/>
       </g>
      </g>
      <g class="com.sun.star.drawing.OpenBezierShape">
       <g id="id9">
        <rect class="BoundingBox" stroke="none" fill="none" x="8862" y="122136" width="491" height="130"/>
        <path fill="none" stroke="rgb(118,45,145)" stroke-width="35" stroke-linejoin="round" d="M 9334,122247 C 9203,122244 8972,122206 8880,122154"/>
       </g>
      </g>
      <g class="com.sun.star.drawing.OpenBezierShape">
       <g id="id10">
        <rect class="BoundingBox" stroke="none" fill="none" x="9031" y="121982" width="409" height="144"/>
        <path fill="none" stroke="rgb(118,45,145)" stroke-width="35" stroke-linejoin="round" d="M 9421,122107 C 9319,122093 9094,122050 9049,122000"/>
       </g>
      </g>
      <g class="com.sun.star.drawing.OpenBezierShape">
       <g id="id11">
        <rect class="BoundingBox" stroke="none" fill="none" x="9279" y="121901" width="172" height="59"/>
        <path fill="none" stroke="rgb(118,45,145)" stroke-width="35" stroke-linejoin="round" d="M 9432,121941 C 9398,121933 9315,121927 9297,121919"/>
       </g>
      </g>
      <g class="com.sun.star.drawing.OpenBezierShape">
       <g id="id12">
        <rect class="BoundingBox" stroke="none" fill="none" x="9568" y="121578" width="68" height="100"/>
        <path fill="none" stroke="rgb(118,45,145)" stroke-width="35" stroke-linejoin="round" d="M 9617,121659 C 9610,121645 9595,121612 9586,121596"/>
       </g>
      </g>
      <g class="com.sun.star.drawing.OpenBezierShape">
       <g id="id13">
        <rect class="BoundingBox" stroke="none" fill="none" x="9580" y="121322" width="199" height="332"/>
        <path fill="none" stroke="rgb(118,45,145)" stroke-width="35" stroke-linejoin="round" d="M 9760,121635 C 9720,121570 9615,121415 9598,121340"/>
       </g>
      </g>
      <g class="com.sun.star.drawing.OpenBezierShape">
       <g id="id14">
        <rect class="BoundingBox" stroke="none" fill="none" x="9718" y="121175" width="191" height="406"/>
        <path fill="none" stroke="rgb(118,45,145)" stroke-width="35" stroke-linejoin="round" d="M 9890,121562 C 9804,121430 9753,121304 9736,121193"/>
       </g>
      </g>
      <g class="com.sun.star.drawing.OpenBezierShape">
       <g id="id15">
        <rect class="BoundingBox" stroke="none" fill="none" x="9880" y="121144" width="130" height="313"/>
        <path fill="none" stroke="rgb(118,45,145)" stroke-width="35" stroke-linejoin="round" d="M 9991,121438 C 9945,121376 9907,121261 9898,121162"/>
       </g>
      </g>
     </g>
    </g>
   </g>
  </g>
 </g>
</svg>