<?xml version="1.0" encoding="utf-8"?>
<!-- Generator: Adobe Illustrator 18.0.0, SVG Export Plug-In . SVG Version: 6.00 Build 0)  -->
<!DOCTYPE svg PUBLIC "-//W3C//DTD SVG 1.1//EN" "http://www.w3.org/Graphics/SVG/1.1/DTD/svg11.dtd">
<svg version="1.1"
	 id="svg2" sodipodi:docname="OrganismView.svg" inkscape:version="0.48.2 r9819" xmlns:cc="http://creativecommons.org/ns#" xmlns:dc="http://purl.org/dc/elements/1.1/" xmlns:inkscape="http://www.inkscape.org/namespaces/inkscape" xmlns:sodipodi="http://sodipodi.sourceforge.net/DTD/sodipodi-0.dtd" xmlns:svg="http://www.w3.org/2000/svg" xmlns:rdf="http://www.w3.org/1999/02/22-rdf-syntax-ns#"
	 xmlns="http://www.w3.org/2000/svg" xmlns:xlink="http://www.w3.org/1999/xlink" x="0px" y="0px" viewBox="0 0 750 750"
	 enable-background="new 0 0 750 750" xml:space="preserve">
<sodipodi:namedview  inkscape:window-y="20" inkscape:current-layer="layer1" inkscape:pageopacity="0.0" inkscape:window-x="20" inkscape:pageshadow="2" inkscape:document-units="px" inkscape:window-height="634" inkscape:window-width="631" inkscape:window-maximized="0" inkscape:zoom="0.35" inkscape:cx="375" inkscape:cy="520" showgrid="false" pagecolor="#ffffff" bordercolor="#666666" borderopacity="1.0" id="base">
	</sodipodi:namedview>
<g id="layer1" inkscape:groupmode="layer" inkscape:label="Layer 1">
	<g id="g3466" transform="translate(-368.57143,-162.85714)">
		<path id="path3480" inkscape:connector-curvature="0" fill="#AAD7AA" d="M421.2,908.2c-12.8-3.1-25.6-11.1-35.7-22.1
			c-6.8-7.3-14.6-22.3-16.4-31.4c-1.7-8.1-1.6-628.6,0-636.5c1.7-8,8.6-21.6,14.3-28.5c6.9-8.2,16-15.4,24.8-19.7
			c15.4-7.4-12-6.9,336.3-6.9c225.1,0,316.5,0.3,320.6,1.2c3.1,0.6,10.1,3.3,15.4,5.9c16.8,8.1,30.3,22.9,36.7,40.1l2.8,7.7
			l0.3,314.8c0.2,231.5,0,316.5-0.9,321.2c-4.4,22.9-23.6,44.5-47.2,52.9l-7,2.4l-319,0.2C476,909.6,426.4,909.5,421.2,908.2
			L421.2,908.2z M1064.2,536.4V218.9h-320h-320l-0.3,316.4c-0.1,174,0,317.1,0.2,317.8c0.4,1.1,65.1,1.3,320.4,1.1l319.8-0.3
			L1064.2,536.4L1064.2,536.4z M498.9,796.2c-11.9-4.1-20.8-12.4-26.3-24.4c-2-4.4-2.3-6.6-2-15.4c0.8-23.2,0.5-184.9-0.3-191.7
			c-1.7-14.6,3.8-26.8,17-37.4l4.3-3.4l-3.2-2.3c-5.7-4.1-10.2-9.7-13.7-16.8c-3.2-6.5-3.4-7.4-3.1-17c0.2-5.5,0.4-30.4,0.5-55.3
			l0.2-45.2l-11.8-0.3c-14.2-0.3-14.5-0.5-14.5-11.5c0-10.7,0.4-11.1,15.1-11.1H473l-0.5-32.1c-0.3-17.7-0.9-34.6-1.3-37.4
			c-2.1-15.4,8-32.4,24.1-40.2c6.5-3.2,7.7-3.4,18.3-3.4s11.7,0.2,18.4,3.5c9.1,4.5,15.9,11.2,20.3,20c3.1,6.3,3.4,7.9,3.3,15.6
			c-0.1,4.8-0.4,23.4-0.9,41.4l-0.6,32.8h14c7.7,0,15,0.5,16.2,1.1c1.8,1,2,2.3,2,10.8v9.8l6.2-6.1c3.4-3.3,7-6.1,7.8-6.1
			c2,0,19.2,17,19.2,19c0,2-18.2,20.3-20.4,20.3s-19.3-17-19.3-19.1c0-0.9,1.3-2.9,2.9-4.6l2.9-3l-15.5,0.3l-15.5,0.3l0.2,45.2
			c0.1,24.9,0.3,49.8,0.5,55.3c0.3,9.5,0.2,10.5-3,17.1c-3.3,6.9-8.6,13.3-14.9,17.8l-3.2,2.3l3.2,2.3c5.7,4.1,10.2,9.7,13.7,16.8
			c3.2,6.6,3.4,7.3,3,17.2c-0.2,5.7-0.4,49.7-0.4,97.6s0.2,91.9,0.4,97.6c0.3,9.8,0.2,10.7-3,17.6c-4.4,9.1-11.4,16.1-20.5,20.3
			C521.8,798.5,507.9,799.4,498.9,796.2L498.9,796.2z M946.6,794.6c-23.1-8.1-35.8-29.5-32.2-53.9c0.8-5.2,1.2-15.7,1-25.4
			l-0.3-16.5l-10.1-0.3c-5.6-0.2-10.7-0.9-11.6-1.5c-1-0.7-1.4-3.9-1.4-9.5c0-11.2,0.5-11.6,13.5-11.6h10.1v-95.2
			c0-69.4-0.3-97.2-1.3-102.6c-3.3-19.4,7.5-41.1,24.7-49.2c2.5-1.2,4.5-2.4,4.5-2.8s-2.1-1.7-4.8-3.1c-6.5-3.4-15.1-12.7-18.4-19.9
			c-4.2-9-5.4-17.7-3.6-28.3c1-6.5,1.2-16.3,0.6-36.6c-1.2-44.7-1.2-43.9,1.5-50.8c10-25.7,41.3-36.9,67-23.9
			c15.4,7.9,25.7,27.2,23.6,44.5c-1.2,9.3-1.2,62.4,0,71.9c2,16.7-7.1,34.4-22.2,43c-5.7,3.2-5.7,3.1,2.6,7.8
			c9.8,5.5,18.8,18.4,21.3,30.4c0.6,3.1,0.9,8.3,0.4,12c-0.4,3.6-1,50.7-1.2,104.8l-0.4,98.1h9.4c13,0,13.3,0.3,12.9,12.2l-0.3,9.6
			l-10.7,0.5l-10.7,0.5l0.1,19.1c0,10.5,0.4,22.8,1,27.1c2.5,22.2-11.2,42.4-33.5,49.9C968.8,798,956.1,797.9,946.6,794.6
			L946.6,794.6z M859.2,674.9c-5.5-5.1-10-9.9-9.9-10.6c0-2.4,18.3-20.4,20.8-20.4c1.4,0,5.8,3.5,11.9,9.6l9.6,9.6l-10.7,10.6
			c-5.9,5.9-10.9,10.6-11.3,10.6C869.3,684.3,864.6,680,859.2,674.9z M825.9,646.2c-5.5-5.1-10-10-9.9-10.8
			c0-2.4,18.4-20.2,20.9-20.2c1.3,0,6,3.8,11.8,9.6l9.6,9.6l-10.7,10.6c-5.9,5.9-10.9,10.6-11.3,10.6
			C836.1,655.6,831.4,651.3,825.9,646.2L825.9,646.2z M791.6,609c-5.5-5.1-10-10-9.9-10.8c0-2.4,18.4-20.2,20.9-20.2
			c1.3,0,6,3.8,11.8,9.6l9.6,9.6l-9.6,9.8c-10,10.1-11.4,11.5-12.3,11.4C801.8,618.3,797.1,614.1,791.6,609L791.6,609z M757.3,572.9
			c-5.5-5.1-10-10-9.9-10.8c0-2.4,18.4-20.2,20.9-20.2c1.3,0,6,3.8,11.7,9.6l9.5,9.6l-10.2,10.4c-5.6,5.7-10.6,10.5-11.3,10.6
			C767.7,582.1,762.8,577.9,757.3,572.9L757.3,572.9z M725.1,538.8c-5.5-5.1-10-10-9.9-11c0-2.4,18.7-20.1,21.1-20.1
			c1.2,0,6,4,11.6,9.7l9.5,9.7l-10.6,10.5c-5.9,5.9-10.8,10.5-11.2,10.5C735.4,548.1,730.6,543.9,725.1,538.8L725.1,538.8z
			 M699.1,511.3c-1.4-1.5-5.9-5.4-9.9-8.5c-5.1-4-7.3-6.5-7.3-8.2c0-3,18-20.8,21-20.8c2.3,0,21.2,18.3,20.6,19.8
			c-0.5,1.2-20.7,20.6-21.4,20.6C701.9,514.1,700.5,512.9,699.1,511.3L699.1,511.3z M656,470.8c-5.1-5.1-9.3-10.1-9.3-11
			c0-2.3,18.7-20.1,21.1-20.1c1.2,0,6,4,11.6,9.7l9.5,9.7l-10.6,10.5c-5.9,5.9-11.2,10.5-11.7,10.5
			C666.1,480.2,661.1,475.9,656,470.8L656,470.8z M620.6,435.7c-5.1-5.1-9.3-10-9.3-11c0-2.4,18.4-20.2,20.9-20.2
			c1.3,0,6,3.8,11.8,9.6l9.6,9.6l-10.7,10.6c-5.9,5.9-11.2,10.6-11.8,10.6S625.8,440.8,620.6,435.7L620.6,435.7z"/>
		<path id="path3478" inkscape:connector-curvature="0" fill="#EB9237" d="M422.4,907.1c-19.4-4.7-38.2-19.9-47-38.1
			c-7-14.5-6.4,10.6-6.5-332.1c0-306.9,0-311.9,2.1-319.9c4.9-19.3,19-36.5,36.5-45.1c17.2-8.4-13.2-7.7,336.8-7.7
			c307.8,0,313.8,0,321.9,2c25.5,6.5,45.8,26.5,51.6,51.2c1.4,6,1.6,44.1,1.6,319c0,342.8,0.5,317.7-6.4,332.4
			c-6.5,13.7-19.7,26.9-33.6,33.4c-14.6,6.9,10.9,6.5-335.8,6.4C480.5,908.6,427.4,908.3,422.4,907.1L422.4,907.1z M1065.2,536.4
			V217.9H744.1H423l-0.3,317.5c-0.1,174.7,0,318.1,0.2,318.9c0.4,1.1,65.3,1.3,321.4,1.1l320.9-0.3L1065.2,536.4L1065.2,536.4z
			 M499.2,794.8c-19.6-6.7-30.7-24.6-27.4-44.9c0.9-5.5,1.1-32.8,0.6-95.9c-0.3-48.6-0.6-91.2-0.6-94.7
			c-0.2-11.5,6.6-24.4,16.2-30.6c2.9-1.9,5.3-3.9,5.3-4.7c0-0.6-1.6-2.2-3.6-3.5c-11.8-7.2-19.4-24.8-16.8-38.8
			c0.8-3.9,1.2-23.4,1.2-51.3v-44.9l-13.1-0.3l-13.1-0.3v-9.6v-9.6l13.2-0.3l13.2-0.3l-0.6-34.2c-0.3-18.8-0.6-37.1-0.6-40.6
			c-0.2-28,32.2-47.1,58.5-34.7c9.6,4.6,14.9,9.7,19.5,18.8c3.5,7.1,4,8.7,3.9,15.6c-0.1,4.3-0.4,22.9-0.8,41.5l-0.6,33.7l15.9,0.3
			l15.9,0.3v9.6v9.6l-15.5,0.5L554,386v45.7c0,25.2,0.4,48.6,1,52.1c1.8,12.9-4.6,27.3-16,35.8c-3,2.2-5.4,4.5-5.4,4.9
			s2.7,3,5.9,5.6c4.5,3.6,7,6.8,10.2,13.1c4.2,8.2,4.3,8.5,3.9,17.8c-0.9,20.4-0.6,185.8,0.2,191.9c1.8,12.8-4.6,27.3-16,35.8
			C527.3,796.7,511.8,799.2,499.2,794.8L499.2,794.8z M948.7,794c-8.7-2.8-14.5-6.4-21-13.3c-9.8-10.2-14.5-25-12.1-38.2
			c0.6-3.7,1.2-15.4,1.2-26.1v-19.3l-11.6-0.3l-11.6-0.3v-9.6v-9.6l11.6-0.3l11.6-0.3v-96.4c0-65.6-0.4-98.6-1.2-103.2
			c-3.1-17.9,7.2-38.3,23.7-47c3.5-1.9,6.4-3.8,6.4-4.4s-2.3-2-4.9-3.4c-15.8-7.8-26.2-28.5-23.1-45.9c0.6-3.7,1.2-18.6,1.2-33.2
			s-0.5-29.5-1.2-33.2c-2.3-12.8,2.1-26.6,11.6-36.6c17.9-19,46.3-19.8,65.5-1.7c10.6,10,15.8,24.9,13.3,38.3
			c-1.6,8.9-1.7,57.2,0,66.2c3.2,17.6-7.1,38.1-23.1,46.1c-2.8,1.4-4.9,2.8-4.9,3.2c0,0.4,2.3,1.9,5,3.4
			c18.1,9.6,28.4,29.5,25.1,48.8c-0.9,5.2-1.2,36.2-1.2,103.2v95.7l10.9,0.3l11,0.3v9.6v9.6l-10.7,0.5l-10.7,0.5l-0.3,16.5
			c-0.2,9,0.2,21.1,1,26.6c1.5,11.7,0.5,19.3-3.8,28.3c-3.1,6.7-12,16.5-18.5,20.3C976.5,796,960.8,797.8,948.7,794L948.7,794z
			 M859.7,674.4c-5.1-4.8-9.4-9.5-9.4-10.3c0-1.8,18.1-20.2,19.8-20.2c0.6,0,5.5,4.4,10.7,9.6l9.6,9.6l-10.2,10.1
			c-5.6,5.5-10.4,10.1-10.7,10.1C869.3,683.2,864.8,679.2,859.7,674.4z M826.5,645.7c-5.1-4.8-9.4-9.5-9.4-10.3
			c0-1.8,18.1-20.2,19.8-20.2c0.6,0,5.5,4.4,10.7,9.6l9.6,9.6L847,644.4c-5.6,5.5-10.4,10.1-10.7,10.1
			C836.1,654.5,831.6,650.5,826.5,645.7z M792.2,608.5c-5.1-4.8-9.4-9.5-9.4-10.3c0-1.8,18.1-20.2,19.8-20.2c0.6,0,5.5,4.4,10.7,9.6
			l9.6,9.6l-10.2,10.1c-5.6,5.5-10.4,10.1-10.7,10.1C801.8,617.3,797.3,613.2,792.2,608.5z M757.8,572.3c-5.1-4.8-9.4-9.5-9.4-10.3
			c0-1.8,18.1-20.2,19.8-20.2c0.6,0,5.5,4.4,10.7,9.6l9.6,9.6L778.4,571c-5.6,5.5-10.4,10.1-10.7,10.1
			C767.5,581.1,763,577.1,757.8,572.3z M725.7,538.3c-5.1-4.8-9.4-9.5-9.4-10.4s4.3-5.9,9.5-11c8-7.8,9.9-9.1,11.6-8.3
			c1.1,0.5,5.8,4.9,10.5,9.7l8.6,8.6L746.3,537c-5.6,5.5-10.4,10.1-10.7,10C735.3,547.1,730.8,543,725.7,538.3L725.7,538.3z
			 M695.3,507c-3.5-3.4-8-7.4-9.9-9c-1.9-1.6-3.4-3.3-3.4-3.8s4.5-5.3,10.1-10.7c8.5-8.2,10.4-9.7,12-8.8c1.1,0.6,5.8,4.9,10.5,9.7
			l8.6,8.6L713,502.9c-5.6,5.5-10.4,10.1-10.7,10.1C702,513,698.9,510.3,695.3,507z M655.7,469.4l-9.6-9.6l9.1-9.1
			c5-5,10-9.6,11-10.2c1.6-0.9,3.5,0.5,11.8,8.5l9.9,9.6l-10.2,10.1c-5.6,5.5-10.6,10.1-11.3,10.1S661,474.7,655.7,469.4
			L655.7,469.4z M620.3,434.3l-9.6-9.6l10.2-10.1c5.6-5.5,10.6-10.1,11.3-10.1s5.5,4.4,10.7,9.6l9.6,9.6l-10.2,10.1
			c-5.6,5.5-10.6,10.1-11.3,10.1C630.4,443.9,625.6,439.6,620.3,434.3z M589.5,403.8c-4.5-4.6-8.3-8.9-8.3-9.9
			c0-2.1,17.3-19.1,19.3-19.1c1.8,0,18.2,16,18.2,17.7c0,1.9-17.3,19.6-19.2,19.6C598.6,412,594,408.3,589.5,403.8z"/>
		<path id="path3476" inkscape:connector-curvature="0" fill="#5EA15E" d="M422.4,907.1c-19.4-4.7-38.2-19.9-47-38.1
			c-7-14.5-6.4,10.6-6.5-332.1c0-306.9,0-311.9,2.1-319.9c4.9-19.3,19-36.5,36.5-45.1c17.2-8.4-13.2-7.7,336.8-7.7
			c307.8,0,313.8,0,321.9,2c25.5,6.5,45.8,26.5,51.6,51.2c1.4,6,1.6,44.1,1.6,319c0,342.8,0.5,317.7-6.4,332.4
			c-6.5,13.7-19.7,26.9-33.6,33.4c-14.6,6.9,10.9,6.5-335.8,6.4C480.5,908.6,427.4,908.3,422.4,907.1L422.4,907.1z M1065.2,536.4
			V217.9H744.1H423l-0.3,317.5c-0.1,174.7,0,318.1,0.2,318.9c0.4,1.1,65.3,1.3,321.4,1.1l320.9-0.3L1065.2,536.4L1065.2,536.4z
			 M499.2,794.8c-19.6-6.7-30.7-24.6-27.4-44.9c0.9-5.5,1.1-32.8,0.6-95.9c-0.3-48.6-0.6-91.2-0.6-94.7
			c-0.2-11.5,6.6-24.4,16.2-30.6c2.9-1.9,5.3-3.9,5.3-4.7c0-0.6-1.6-2.2-3.6-3.5c-11.8-7.2-19.4-24.8-16.8-38.8
			c0.8-3.9,1.2-23.5,1.2-51.8v-45.4l-12-0.3l-12-0.3l-0.3-8.3l-0.3-8.3h12.7h12.7l-0.2-30.6c-0.1-16.8-0.8-33.7-1.4-37.7
			c-2.8-16.7,4.8-33.1,19.5-41.7c20.7-12.1,47.5-4.6,58.1,16.4c4.5,8.8,5.6,16.4,4,26.2c-0.6,4-1.3,20.7-1.5,37.3l-0.2,30.1H568
			c17.4,0,16.5-0.5,16.5,10.2v6.8h-15c-14.7,0-15,0-15.7,2.4c-0.9,3.2,0.2,92.5,1.1,98.8c1.6,11.2-5.4,26.2-16.1,34.1
			c-3,2.2-5.4,4.5-5.4,4.9s2.7,3,5.9,5.6c4.5,3.6,7,6.8,10.2,13.1c4.2,8.2,4.3,8.5,3.9,17.8c-0.9,20.4-0.6,185.8,0.2,191.9
			c1.8,12.8-4.6,27.3-16,35.8C527.3,796.7,511.8,799.2,499.2,794.8L499.2,794.8z M948.7,794c-8.7-2.8-14.5-6.4-21-13.3
			c-9.8-10.2-14.5-25-12.1-38.2c0.6-3.7,1.2-15.6,1.2-26.6v-19.8l-10.5-0.3l-10.5-0.3l-0.3-8.3l-0.3-8.3h11h11l-0.2-96
			c-0.1-64.7-0.6-98.8-1.4-104.6c-2.8-19.9,6.6-39.2,23.6-48.2c3.5-1.9,6.4-3.8,6.4-4.4s-2.3-2-4.9-3.4
			c-15.8-7.8-26.2-28.5-23.1-45.9c0.6-3.7,1.2-18.6,1.2-33.2c0-14.6-0.5-29.5-1.2-33.2c-2.3-12.8,2.1-26.6,11.6-36.6
			c17.9-19,46.3-19.8,65.5-1.7c10.6,10,15.8,24.9,13.3,38.3c-1.6,8.9-1.7,57.2,0,66.2c3.2,17.6-7.1,38.1-23.1,46.1
			c-2.8,1.4-4.9,2.8-4.9,3.2c0,0.4,2.3,1.9,5,3.4c8,4.3,17,13.2,20.7,20.5c4.7,9.7,5.9,17.2,4.4,29.5c-0.9,6.9-1.3,40.3-1.5,105.1
			l-0.2,95h10.3c11.9,0,11.7-0.2,11.7,10.2v6.8h-10.1c-8.1,0-10.2,0.3-10.7,1.7c-1.2,3-0.8,36.5,0.5,44.1c1.5,9,0.2,18.5-3.8,27.1
			c-3.1,6.8-12.1,16.6-18.7,20.4C976.5,796,960.8,797.8,948.7,794L948.7,794z M860.4,673.1l-8.6-7.9l9.1-9c5-5,9.5-9,10.2-9
			c1.3,0,16.6,15,16.6,16.3c0,1.4-16.3,17.8-17.6,17.7C869.6,681.1,865.2,677.5,860.4,673.1L860.4,673.1z M827.5,644.6
			c-4.6-4.3-8.4-8-8.4-8.3c0-1.1,17.2-17.3,18.5-17.7c0.8-0.2,4.8,3.3,9.1,7.6c6.9,6.9,7.7,8.2,6.8,10c-1.3,2.3-16.1,16.3-17.2,16.2
			C836.1,652.4,832.1,648.9,827.5,644.6L827.5,644.6z M792.9,607.2l-8.6-7.9l9.1-9c5-5,9.5-9,10.2-9c1.3,0,16.6,15,16.6,16.3
			c0,1.4-16.3,17.8-17.6,17.7C802,615.2,797.6,611.5,792.9,607.2L792.9,607.2z M758.6,571l-8.6-7.9l9.1-9c5-5,9.5-9,10.2-9
			c1.3,0,16.6,15,16.6,16.3c0,1.4-16.3,17.8-17.6,17.7C767.7,579,763.3,575.4,758.6,571L758.6,571z M726.4,537l-8.6-7.9l9.1-9.1
			c5-5,9.5-9.1,10.2-9.1c1.3,0,16.6,15,16.6,16.3c0,1.4-16.3,17.8-17.6,17.7C735.5,545,731.1,541.3,726.4,537z M698.6,507.6
			c-1.7-1.8-5.5-5-8.3-7s-5.1-4.3-5.1-5c0-1.5,17.3-18.7,18.8-18.7c1.4,0,16.6,15.1,16.6,16.5c0,1.5-16.3,17.6-17.8,17.6
			C702.2,510.9,700.3,509.4,698.6,507.6z M657.8,469.4l-8.6-8.5l9.1-9c5-5,9.5-9,10.2-9c1.3,0,16.6,15,16.6,16.3
			c0,1.1-17.2,18.8-18.2,18.8C666.7,477.9,662.5,474.1,657.8,469.4L657.8,469.4z M622.4,434.3l-8.5-8.4l9.1-9c5-5,9.5-9,10.2-9
			c1.3,0,16.6,15,16.6,16.3c0,1.2-14.9,16.5-17.3,17.8C631.3,442.5,628.9,440.7,622.4,434.3L622.4,434.3z M590.8,403l-8-8l9.3-9.3
			l9.3-9.3l7.6,7.2c4.2,4,7.6,8.1,7.6,9.1c0,2-14.8,18-16.6,18C599.4,410.9,595.2,407.4,590.8,403L590.8,403z"/>
		<path id="path3474" inkscape:connector-curvature="0" fill="#DC690E" d="M420.3,905.2c-19.1-5.6-34.8-18.8-43.4-36.4
			c-7.5-15.3-7,11.8-7-332.4c0-343.6-0.5-316.8,6.9-332.2c6.6-13.8,18.3-25.5,32.3-32.1c15.4-7.4-11.9-6.9,335-6.9
			c346.3,0,319.3-0.5,334.8,6.8c13.9,6.6,25.7,18.2,32.4,32c7.5,15.3,7-11.8,7,332.5c0,306.3,0,311.3-2.1,319.4
			c-5.7,22.1-22.5,40.4-44.4,48.4l-7.7,2.8l-317.9,0.2l-317.9,0.2L420.3,905.2L420.3,905.2z M1066.3,536.4V216.8H744.1H421.9
			l-0.3,318.6c-0.1,175.2,0,319.2,0.2,319.9c0.4,1.1,65.5,1.3,322.5,1.1l322-0.3L1066.3,536.4L1066.3,536.4z M501.8,794.6
			c-11.6-3.3-22.6-13.1-26.8-23.9c-1.8-4.8-2.3-7.9-2-14.4c0.2-4.6,0.3-48.4,0.3-97.6c0-49.2-0.1-93.1-0.3-97.6
			c-0.2-6.5,0.2-9.6,2-14.4c2.7-6.9,10.7-16.3,16.6-19.5c4.8-2.6,4.8-3.9,0.1-6.8c-10.3-6.3-17.9-19.6-17.8-30.8
			c0-3.3,0.4-28.3,0.9-55.6l0.9-49.7l-12.9-0.3l-12.9-0.3l-0.3-8.3l-0.3-8.3h12.9c7.8,0,12.9-0.4,12.9-1.1c0-0.6,13.1-1.2,35.6-1.4
			l35.6-0.3l-35.6-0.2l-35.6-0.2l-0.6-34.2c-0.3-18.8-0.6-37-0.6-40.2c-0.1-13.8,10.5-28.6,24.2-34c9-3.5,22.1-3.5,31.1,0
			c8.9,3.5,18.7,13.1,21.9,21.8c2.7,7.1,2.7,5.2,1.5,53c-0.4,19.1-0.6,35.3-0.5,36c0.2,0.6,6.5,1.1,15.7,1.1
			c17.6,0,16.6-0.5,16.6,10.2v6.8l-15.2,0.1c-8.4,0.1-15.7,0.1-16.2,0c-0.6-0.1-0.4,57.2,0.4,104.9c0.2,10.3-5.7,22.2-14.3,28.7
			c-2.1,1.7-5,3.8-6.4,4.9l-2.5,1.9l2.7,1.8c1.5,1,5.4,4.5,8.7,7.8c7.2,7.1,10.7,15.3,10.6,24.4c-1,67.1-1.1,185-0.1,191
			c3.8,23.9-13,44.6-37.2,45.8C510.1,795.9,504.7,795.4,501.8,794.6L501.8,794.6z M951,793.4c-13.3-3.7-24.7-12.9-30.1-24.5
			c-3.4-7.2-5.8-18.9-4.7-22.4c0.4-1.2,1.1-13,1.4-26.3l0.6-24.1l-11.3-0.3l-11.3-0.3l-0.3-8.3l-0.3-8.3h11.3
			c6.8,0,11.3-0.4,11.3-1.1c0-0.6,15.1-1.2,41.6-1.4l41.6-0.3l-41.6-0.2l-41.6-0.2v-95.9c0-59.8-0.4-98.5-1.1-102.6
			c-3-18.6,7.3-38.3,24.6-47c3.6-1.8,6.5-3.7,6.5-4.4c0-0.6-2.5-2.2-5.6-3.8c-6.8-3.4-15.9-12.2-19.1-18.5
			c-4.1-7.9-5.7-18.4-4.3-27.1c0.9-5.1,1-17.4,0.5-38.4c-0.3-17-0.8-33.3-0.8-36.4c-0.2-16.3,11.4-32.3,28-38.8
			c8.4-3.3,23.8-3.3,32.4,0c16.6,6.5,27.8,21.8,27.8,38.3c0,3.8-0.3,20.2-0.6,36.3c-0.4,19.6-0.3,32.2,0.5,38.3
			c2.7,19.8-5.7,36.8-22.5,45.6c-3.5,1.9-6.4,3.8-6.4,4.4s3,2.4,6.5,4.3c17.3,8.6,27.9,28.9,24.6,47.3c-0.9,4.9-1.6,142.1-1.2,200.2
			c0,1,2.9,1.3,10.6,1.3c12.2,0,11.9-0.3,11.9,10.2v6.8l-10.5,0.1c-5.8,0.1-10.8,0.1-11.3,0c-1.3-0.2-1,38.4,0.3,46.7
			c1.5,9.5,0.1,17.2-4.9,27.3C994.9,788.8,971.6,799.1,951,793.4L951,793.4z M860.4,673.1l-8.6-7.9l9.1-9c5-5,9.5-9,10.2-9
			c1.3,0,16.6,15,16.6,16.3c0,1.4-16.3,17.8-17.6,17.7C869.6,681.1,865.2,677.5,860.4,673.1L860.4,673.1z M827.5,644.6
			c-4.6-4.3-8.4-8-8.4-8.3c0-1.1,17.2-17.3,18.5-17.7c0.8-0.2,4.8,3.3,9.1,7.6c6.9,6.9,7.7,8.2,6.8,10c-1.3,2.3-16.1,16.3-17.2,16.2
			C836.1,652.4,832.1,648.9,827.5,644.6L827.5,644.6z M792.9,607.2l-8.6-7.9l9.1-9c5-5,9.5-9,10.2-9c1.3,0,16.6,15,16.6,16.3
			c0,1.4-16.3,17.8-17.6,17.7C802,615.2,797.6,611.5,792.9,607.2L792.9,607.2z M758.6,571l-8.6-7.9l9.1-9c5-5,9.5-9,10.2-9
			c1.3,0,16.6,15,16.6,16.3c0,1.4-16.3,17.8-17.6,17.7C767.7,579,763.3,575.4,758.6,571L758.6,571z M726.4,537l-8.6-7.9l9.1-9.1
			c5-5,9.5-9.1,10.2-9.1c1.3,0,16.6,15,16.6,16.3c0,1.4-16.3,17.8-17.6,17.7C735.5,545,731.1,541.3,726.4,537z M698.6,507.6
			c-1.7-1.8-5.5-5-8.3-7s-5.1-4.3-5.1-5c0-1.5,17.3-18.7,18.8-18.7c1.4,0,16.6,15.1,16.6,16.5c0,1.5-16.3,17.6-17.8,17.6
			C702.2,510.9,700.3,509.4,698.6,507.6z M657.8,469.4l-8.6-8.5l9.1-9c5-5,9.5-9,10.2-9c1.3,0,16.6,15,16.6,16.3
			c0,1.1-17.2,18.8-18.2,18.8C666.7,477.9,662.5,474.1,657.8,469.4L657.8,469.4z M622.4,434.3l-8.5-8.4l9.1-9c5-5,9.5-9,10.2-9
			c1.3,0,16.6,15,16.6,16.3c0,1.2-14.9,16.5-17.3,17.8C631.3,442.5,628.9,440.7,622.4,434.3L622.4,434.3z M590.8,403l-8-8l9.3-9.3
			l9.3-9.3l7.6,7.2c4.2,4,7.6,8.1,7.6,9.1c0,2-14.8,18-16.6,18C599.4,410.9,595.2,407.4,590.8,403L590.8,403z"/>
		<path id="path3472" inkscape:connector-curvature="0" fill="#11A911" d="M420.3,905.2c-19.1-5.6-34.8-18.8-43.4-36.4
			c-7.5-15.3-7,11.8-7-332.4c0-343.6-0.5-316.8,6.9-332.2c6.6-13.8,18.3-25.5,32.3-32.1c15.4-7.4-11.9-6.9,335-6.9
			c346.3,0,319.3-0.5,334.8,6.8c13.9,6.6,25.7,18.2,32.4,32c7.5,15.3,7-11.8,7,332.5c0,306.3,0,311.3-2.1,319.4
			c-5.7,22.1-22.5,40.4-44.4,48.4l-7.7,2.8l-317.9,0.2l-317.9,0.2L420.3,905.2L420.3,905.2z M1066.3,536.4V216.8H744.1H421.9
			l-0.3,318.6c-0.1,175.2,0,319.2,0.2,319.9c0.4,1.1,65.5,1.3,322.5,1.1l322-0.3L1066.3,536.4L1066.3,536.4z M501.8,794.6
			c-11.6-3.3-22.6-13.1-26.8-23.9c-1.8-4.8-2.3-7.9-2-14.4c0.2-4.6,0.3-48.4,0.3-97.6c0-49.2-0.1-93.1-0.3-97.6
			c-0.2-6.5,0.2-9.6,2-14.4c2.7-6.9,10.7-16.3,16.6-19.5c4.8-2.6,4.8-3.9,0.1-6.8c-10.3-6.3-17.9-19.6-17.8-30.8
			c0-3.3,0.4-28.2,0.9-55.4l0.9-49.5l38.3-0.3l38.3-0.3l0.6,49.8c0.3,27.3,0.6,52.2,0.6,55.3c0.2,10.3-5.7,22.2-14.3,28.7
			c-2.1,1.7-5,3.8-6.4,4.9l-2.5,1.9l2.7,1.8c1.5,1,5.4,4.5,8.7,7.8c7.2,7.1,10.7,15.3,10.6,24.4c-1,67.1-1.1,185-0.1,191
			c3.8,23.9-13,44.6-37.2,45.8C510.1,795.9,504.7,795.4,501.8,794.6L501.8,794.6z M951,793.4c-13.3-3.7-24.7-12.9-30.1-24.5
			c-3.4-7.2-5.9-18.9-4.7-22.4c0.4-1.2,1.1-13,1.4-26.1l0.6-23.9l44.8-0.3l44.7-0.3v19.8c0,10.8,0.5,23.1,1.2,27
			c1.5,9.5,0.1,17.2-4.9,27.3C994.9,788.8,971.6,799.1,951,793.4L951,793.4z M959.4,676.1l-41.6-0.3v-95.9
			c0-59.8-0.4-98.5-1.1-102.6c-3-18.6,7.3-38.3,24.6-47c3.6-1.8,6.5-3.7,6.5-4.4s-2.5-2.2-5.6-3.8c-6.8-3.4-15.9-12.2-19.1-18.5
			c-4.1-7.9-5.7-18.4-4.3-27.1c0.9-5.1,1-17.4,0.5-38.4c-0.3-17-0.8-33.3-0.8-36.4c-0.2-16.3,11.4-32.3,28-38.8
			c8.4-3.3,23.8-3.3,32.4,0c16.6,6.5,27.8,21.8,27.8,38.3c0,3.8-0.3,20.2-0.6,36.3c-0.4,19.6-0.3,32.2,0.5,38.3
			c2.7,19.8-5.7,36.8-22.5,45.6c-3.5,1.9-6.4,3.8-6.4,4.4s3,2.4,6.5,4.3c8.7,4.4,16.4,12.1,20.4,20.6c3.5,7.4,5.9,19.7,4.6,23.3
			c-0.4,1.3-1.1,47.3-1.4,102.3l-0.5,100h-3.2C1002.4,676.4,982.2,676.3,959.4,676.1L959.4,676.1z M510.8,364.4l-35.6-0.3l-0.6-34.2
			c-0.3-18.8-0.6-36.9-0.6-40.2c-0.1-9.4,3.5-17.3,11.3-25c8.7-8.6,15.9-11.5,28.5-11.5s19.8,2.9,28.5,11.5
			c4.8,4.8,7.2,8.2,8.9,12.8c2.7,7.1,2.7,5.1,1.5,52.8l-0.9,34.6h-2.7C547.6,364.8,530.3,364.7,510.8,364.4z"/>
		<path id="path3470" inkscape:connector-curvature="0" fill="#0E950E" d="M420.3,905.2c-19.1-5.6-33.7-17.9-42.5-35.5
			c-2.9-5.7-3.8-8.6-3.2-11c0.3-1.7,0.2-3.1-0.3-3.1s-0.3-1.3,0.5-2.9c1.1-2,1.2-3.3,0.4-4.1c-0.8-1-0.8-2,0-3.4
			c0.9-1.5,1.2-92.4,1.2-306.5c0-274.4,0.2-305.1,1.7-310.9c6.3-24.5,23.5-43.1,47.2-51.5l8.5-3l308.8-0.3
			c317.5-0.3,326.5-0.2,331,3.7c1.5,1.3,2.5,1.4,5.3,0.4c4.4-1.5,4.3-1.5,4,0.6c-0.2,1.5,0.3,1.8,2.9,1.6c6-0.5,20.3,13.4,26.3,26
			c6.9,14.1,6.3-10.4,6.4,331.3c0,306.3,0,311.3-2.1,319.4c-5.7,22.1-22.5,40.4-44.4,48.4l-7.7,2.8l-317.9,0.2l-317.9,0.2
			L420.3,905.2L420.3,905.2z M1073.3,540.2c0-185.1-0.4-323.9-1-323.9c-0.5,0-1.5,0.7-2.3,1.6c-1.2,1.5-1.5,1.5-3.2,0
			c-1.6-1.5-36.2-1.6-323.4-1.4l-321.5,0.3l-0.2,321c-0.2,213.9-0.6,321.6-1.3,323c-0.6,1.1-1.1,2.2-1.1,2.7
			c0,0.3,147.1,0.6,327,0.6h327L1073.3,540.2L1073.3,540.2z M502.7,794.9c-8.9-2.2-18.2-8.7-22.7-15.8c-3.6-5.7-5.3-11.6-4.1-14.3
			c4.8-10.5,4.6-4.5,4.6-102.9c0-90.7,0-92.5-2-92.5c-2.6,0-2-2.2,3.4-13.8c4.2-9,8.6-14.6,15.4-19.3c2.8-1.9,4.6-4,4.6-5.2
			c0-1.5,0.8-2.1,2.7-2.1c1.7,0,2.7-0.6,2.7-1.6c0-0.9-0.6-1.6-1.4-1.6c-0.8,0-2.3-0.9-3.2-2c-1.2-1.3-2.8-1.8-4.4-1.5
			c-8.4,1.6-24.7-19-21.2-26.7c4.7-10.4,4.6-7.8,4.6-59.1v-48.8l-3.2-0.7c-8.9-1.9,1-2.7,35.9-2.7h37.7l0.6,49.8
			c0.3,27.3,0.6,52.2,0.6,55.3c0.2,13-5.9,22.9-20.6,33.3c-2.3,1.6-2.3,1.8-0.5,4.4c1,1.5,1.5,3,1.1,3.4c-0.4,0.4,0.3,0.7,1.6,0.7
			c3.6,0,10.5,7,14.2,14.3c2.6,5.2,3.2,7.9,3.2,12.9c-1,106.5-1.1,185.2-0.1,191.5c3.8,23.9-13.1,44.7-37.2,45.8
			C510.4,795.8,504.8,795.4,502.7,794.9L502.7,794.9z M523.3,527.4c0-0.9-0.8-1.6-1.6-1.6s-1.6,0.7-1.6,1.6s0.8,1.6,1.6,1.6
			S523.3,528.4,523.3,527.4z M951,793.4c-14.7-4-26.8-14.9-30.6-27.3c-1.6-5.2-1.3-7.2,2.3-15.5c1.1-2.6,1.5-9.6,1.5-27.3v-23.8
			l-3.2-0.7c-9.1-2,1.4-2.7,42.5-2.7h44.4v19.8c0,10.8,0.5,23,1.2,27c1.5,9.5,0.1,17.2-4.9,27.3C994.9,788.8,971.6,799.1,951,793.4z
			 M962.6,676.1l-38.4-0.3v-97.9c0-86.3-0.2-97.9-1.6-97.9c-1,0-1.6-1-1.6-2.3c0-2.6,4.3-14.1,7.7-20.5c3.3-6.3,13.2-15.8,19.7-19.1
			c4-2,5.8-3.5,5.8-4.9c0-1.1,0.6-3,1.3-4.1c1.2-1.8,1.1-2.4-0.9-3.7c-1.2-0.9-3.1-1.4-4.3-1.1c-3.3,0.9-12.8-4-18.1-9.4
			c-7.2-7.1-12.5-18.7-10.4-22.8c3.6-7.3,3.9-9.6,4.2-43.8c0.2-30.1,0.1-34.7-1.3-35.4c-2.4-1.3-2-3.6,1.9-13.3
			c7.3-17.4,16.3-25.7,33.1-30.6c5.6-1.6,6.9-1.6,15.8-0.1c5.4,1,10.8,1.7,12.2,1.7c4,0,11,6.8,14.6,14.1c4.5,9,5.9,17.3,4.4,25.7
			c-1.5,8.5-1.5,57,0,66.5c2.8,18-6.3,36-22.6,44.6c-6.8,3.6-7.4,4.4-4.8,6.5c1.2,1,1.3,1.8,0.4,3.4c-1.5,2.8-1.2,3,5.9,3.7
			c5.4,0.5,6.5,1.2,11.3,5.7c2.9,2.9,6.4,7.7,7.9,10.8c3.2,6.7,5.6,19,4.3,22.3c-0.5,1.3-1.2,47.3-1.5,102.3l-0.5,100h-3.2
			C1002.4,676.4,983.7,676.3,962.6,676.1L962.6,676.1z M972.8,427.4c0.1-0.5-0.6-1.2-1.7-1.4c-1.2-0.2-1.9,0.3-1.9,1.4
			C969.3,429.3,972.5,429.3,972.8,427.4z M513.9,364.4l-32.4-0.3v-31.9c0-30.8-0.1-31.9-2-31.9c-2.7,0-1.9-2.6,4-15
			c4.8-10.1,10.5-16.2,19.1-20.4c8.8-4.4,14.2-5.3,21.3-4c3.4,0.6,8.1,1.2,10.4,1.2c5.5,0,11.6,5.4,15.9,14.3
			c3.8,7.6,3.6,4.3,2.5,53.8l-0.9,34.6h-2.7C547.6,364.8,531.7,364.7,513.9,364.4L513.9,364.4z"/>
		<path id="path3468" inkscape:connector-curvature="0" fill="#127B11" d="M420.3,905.2c-8.7-2.6-18.1-7.2-21-10.4
			c-1.6-1.7-1.6-2-0.1-2c1,0,1.9,0.7,2.3,1.6c0.3,0.9,1.6,1.6,2.9,1.6c1.3,0,3,0.7,3.9,1.6c0.9,0.9,2.9,1.6,4.5,1.6
			c1.6,0,3.4,0.5,4.1,1.1c0.6,0.6,4,1.6,7.5,2.1c4.1,0.6,120.5,1.1,318.3,1.1c343,0,317.9,0.4,332.6-6.5c13.8-6.5,27-19.7,33.6-33.4
			c7-14.6,6.4,10.4,6.5-333.5c0.1-259.5,0.3-312.6,1.5-309.5s1.4,61.3,1.5,315.5c0.1,307.3,0.1,311.9-1.9,319.9
			c-5.7,22.1-22.5,40.5-44.4,48.4l-7.7,2.8l-317.9,0.2l-317.9,0.2L420.3,905.2L420.3,905.2z M393.2,890c-1.1-1.1-0.9-2.4,0.2-2.4
			c0.5,0,1.3,0.7,1.6,1.6C395.7,890.7,394.5,891.3,393.2,890L393.2,890z M418.5,535.3l0.3-322.6l325.7-0.3
			c179.2-0.1,325.6,0.1,325.6,0.5c-0.1,3.5,3.5,3.5-324.9,3.7l-323.1,0.2L421.9,537c-0.2,284.7-0.4,320.2-1.9,320.5
			C418.4,857.8,418.3,822.8,418.5,535.3L418.5,535.3z M502.7,794.9c-5-1.3-11.8-4.6-13.6-6.8c-1.7-2.1-1.7-2.1,4.9,0.4
			c10.6,4,16.9,4.4,25.9,1.4c9.5-3.1,16.8-8,22-15c6.2-8.4,10.2-23.3,7-26.5c-1.4-1.4-0.8-181.5,0.8-189.8c0.9-4.7,1.2-5.4,1.9-3.7
			c0.5,1.2,0.9,3.8,0.6,5.9c-1,13.1-1.2,183.4-0.2,189.4c3.6,23.5-13.3,43.9-37.2,45.1C510.4,795.8,504.8,795.4,502.7,794.9
			L502.7,794.9z M952.1,793.7c-5.8-1.5-15.9-6.5-16.5-8c-0.4-1,1-0.9,4.6,0.6c2.9,1.2,8.8,2.7,13.1,3.5c7.1,1.3,8.7,1.3,15.5-0.4
			c4.2-1.1,9.8-2.9,12.2-4.1c5.9-3,15.4-12,18.9-17.8c5.3-8.9,8.6-24.5,5.7-26.3c-0.6-0.4-1.1-8.6-1.1-21.2c0-20.4,0-20.5-2.5-21.2
			c-1.3-0.3-20.9-0.6-43.5-0.6c-27.1,0-40.8-0.4-40.4-1.1c0.4-0.6,16.6-1.1,45.1-1.1h44.4V716c0,10.8,0.5,23,1.2,27
			c1.5,9.5,0.1,17.2-4.9,27.3c-7.6,15.4-23.7,24.9-41.8,24.7C958.8,794.8,954.3,794.3,952.1,793.7z M1002.3,675.9l2.4-1l0.4-100.3
			c0.4-94.8,1.1-117.1,3.3-112.1c0.5,1.2,0.9,4.5,0.8,7.4c-0.1,3-0.5,50.6-1,105.9l-0.8,100.5l-3.8,0.2
			C1000.4,676.8,1000.3,676.7,1002.3,675.9L1002.3,675.9z M528.3,524.6c-0.3-1.8-0.6-3.7-0.6-4.3c0-0.5,2.7-2.9,5.9-5.2
			c7.4-5.4,12.7-12.4,15.4-20.6c2.4-6.8,2.9-13.8,1.1-15c-0.6-0.4-1.1-17-1.1-46.2v-45.5l-2.4-0.6c-1.3-0.3-18-0.6-37.1-0.6
			c-22.8,0-34.4-0.4-34-1.1c0.4-0.6,14.5-1.1,38.7-1.1h38V430c0,25,0.5,48.4,1.1,52c2.5,15.1-4.8,30.8-18.3,39.4
			c-2.6,1.6-4.1,3.3-4,4.4C531.6,528.8,528.9,528,528.3,524.6L528.3,524.6z M490.6,519.4c-1.1-1.2-1.6-2.1-1.3-2.1
			c1.5,0,6.1,2.6,6.1,3.4C495.4,522.3,492.6,521.7,490.6,519.4z M976.3,425.8c-1.1-3.2-0.9-5.7,0.5-6.2c4.2-1.5,14.7-10,18.2-14.6
			c6.9-9,11.8-26.5,8.4-29.9c-1.3-1.3-0.6-63.6,0.8-75.4l1-7.4l1.4,5.9c1.1,4.6,1.2,7.2,0.2,12.1c-1.5,8.1-1.5,56.9,0,66.5
			c2.8,18-6.3,36-22.5,44.6c-3.5,1.8-6.5,4.1-6.8,5.2C977.3,428.1,977.1,427.9,976.3,425.8L976.3,425.8z M941.4,421.7
			c-2.1-1.1-4.5-2.9-5.4-3.8c-1.4-1.7-1.3-1.8,0.6-1c1.2,0.5,4.2,1.6,6.6,2.4c2.5,0.9,4.5,2.2,4.5,3.1
			C947.8,424.2,946,424,941.4,421.7z M547.2,364c1.7-1.3,1.9-4.8,2.3-34.9c0.4-33.8,1.5-47.3,3.4-43.1c0.5,1.2,0.9,3.8,0.8,5.9
			s-0.5,19.3-1.1,38.3l-0.9,34.6l-3.2,0.3C545.7,365.3,545.5,365.2,547.2,364z"/>
	</g>
</g>
</svg>
