<?xml version="1.0" encoding="UTF-8" standalone="no"?>
<!-- Created with Inkscape (http://www.inkscape.org/) -->

<svg
   xmlns:dc="http://purl.org/dc/elements/1.1/"
   xmlns:cc="http://creativecommons.org/ns#"
   xmlns:rdf="http://www.w3.org/1999/02/22-rdf-syntax-ns#"
   xmlns:svg="http://www.w3.org/2000/svg"
   xmlns="http://www.w3.org/2000/svg"
   xmlns:sodipodi="http://sodipodi.sourceforge.net/DTD/sodipodi-0.dtd"
   xmlns:inkscape="http://www.inkscape.org/namespaces/inkscape"
   width="744.09448819"
   height="1052.3622047"
   id="svg2"
   version="1.1"
   inkscape:version="0.48.2 r9819"
   sodipodi:docname="New document 1">
  <defs
     id="defs4" />
  <sodipodi:namedview
     id="base"
     pagecolor="#ffffff"
     bordercolor="#666666"
     borderopacity="1.0"
     inkscape:pageopacity="0.0"
     inkscape:pageshadow="2"
     inkscape:zoom="0.35"
     inkscape:cx="375"
     inkscape:cy="862.85714"
     inkscape:document-units="px"
     inkscape:current-layer="layer1"
     showgrid="false"
     inkscape:window-width="483"
     inkscape:window-height="454"
     inkscape:window-x="20"
     inkscape:window-y="20"
     inkscape:window-maximized="0" />
  <metadata
     id="metadata7">
    <rdf:RDF>
      <cc:Work
         rdf:about="">
        <dc:format>image/svg+xml</dc:format>
        <dc:type
           rdf:resource="http://purl.org/dc/dcmitype/StillImage" />
        <dc:title></dc:title>
      </cc:Work>
    </rdf:RDF>
  </metadata>
  <g
     inkscape:label="Layer 1"
     inkscape:groupmode="layer"
     id="layer1">
    <g
       id="g3068"
       transform="translate(-354.28572,-228.57143)">
      <path
         style="fill:#fefefe"
         d="m 328.57144,760.93362 0,-400 400,0 399.99996,0 0,400 0,399.99998 -399.99996,0 -400,0 0,-399.99998 z"
         id="path3084"
         inkscape:connector-curvature="0" />
      <path
         style="fill:#abd7ab"
         d="m 427.30417,1110.3738 c -23.12777,-5.6208 -43.3826,-26.6066 -48.68306,-50.4402 -1.4839,-6.6723 -1.41958,-591.14428 0.0658,-598.20076 1.57091,-7.46264 7.95704,-20.31002 13.32126,-26.79922 9.52759,-11.5257 24.86106,-21.33828 37.36246,-23.90991 7.54564,-1.5522 590.93027,-1.54143 598.40157,0.011 2.9146,0.60562 9.4157,3.09807 14.4469,5.53878 15.708,7.62013 28.307,21.49108 34.2282,37.68394 l 2.6241,7.17615 0.294,296 c 0.216,217.58914 -0.01,297.58942 -0.8403,302.00002 -4.0699,21.5302 -21.9697,41.7548 -43.9537,49.6621 l -6.5,2.3379 -297.49999,0.1709 c -252.17633,0.1448 -298.37863,-0.043 -303.26727,-1.2307 z m 599.76723,-349.44018 0,-298.5 -298.49996,0 -298.5,0 -0.25604,297.5 c -0.14082,163.625 -0.0422,298.06328 0.21925,298.75168 0.3794,0.9991 60.6556,1.2009 298.75604,1 l 298.28071,-0.2517 0,-298.49998 z M 457.03462,1036.6855 c -0.26151,-0.6885 -0.3602,-120.72688 -0.21932,-266.75188 l 0.25614,-265.5 21,0 21,0 0.5,248.5 0.5,248.49998 247.5,0.5 247.5,0.5 0,17.5 0,17.5 -268.78068,0.2519 c -214.50016,0.2009 -268.8767,-10e-4 -269.25614,-1 z m 58.26806,-49.51977 c -5.35218,-5.37234 -9.73124,-10.21512 -9.73124,-10.76172 0,-0.54661 7.14041,-8.12378 15.86758,-16.83816 13.71719,-13.69709 16.12269,-15.7037 17.75,-14.80658 1.03533,0.57077 5.86784,5.06304 10.73892,9.98283 6.78097,6.84879 8.71376,9.39479 8.24743,10.86408 -0.82775,2.60798 -29.88666,31.32744 -31.69773,31.32744 -0.79405,0 -5.82278,-4.39555 -11.17496,-9.76789 z m 54,-53 c -5.35218,-5.37234 -9.73124,-10.21512 -9.73124,-10.76172 0,-0.54661 7.14041,-8.12378 15.86758,-16.83816 13.71719,-13.69709 16.12269,-15.7037 17.75,-14.80658 1.03533,0.57077 5.86784,5.06304 10.73892,9.98283 6.78097,6.84879 8.71376,9.39479 8.24743,10.86408 -0.82775,2.60798 -29.88666,31.32744 -31.69773,31.32744 -0.79405,0 -5.82278,-4.39555 -11.17496,-9.76789 z m 322.50666,-29.49384 c -8.38084,-8.39395 -15.2379,-15.93989 -15.2379,-16.76876 0,-1.9543 19.07005,-20.96951 21.02999,-20.96951 1.95712,0 31.97001,30.06967 31.97001,32.03049 0,1.9543 -19.07005,20.96951 -21.02999,20.96951 -0.82182,0 -8.35126,-6.86778 -16.73211,-15.26173 z M 627.30268,877.16573 c -5.35218,-5.37234 -9.73124,-10.21512 -9.73124,-10.76172 0,-0.54661 7.14041,-8.12378 15.86758,-16.83816 13.71719,-13.69709 16.12269,-15.7037 17.75,-14.80658 1.03533,0.57077 5.86784,5.06304 10.73892,9.98283 6.78097,6.84879 8.71376,9.39479 8.24743,10.86408 -0.82775,2.60798 -29.88666,31.32744 -31.69773,31.32744 -0.79405,0 -5.82278,-4.39555 -11.17496,-9.76789 z m 190.50666,-43.49384 c -8.38084,-8.39395 -15.2379,-15.93989 -15.2379,-16.76876 0,-1.9543 19.07005,-20.96951 21.02999,-20.96951 1.95712,0 31.97001,30.06967 31.97001,32.03049 0,1.9543 -19.07005,20.96951 -21.02999,20.96951 -0.82182,0 -8.35126,-6.86778 -16.73211,-15.26173 z m -137.50666,-9.50616 c -5.35218,-5.37234 -9.73124,-10.21512 -9.73124,-10.76172 0,-0.54661 7.14041,-8.12378 15.86758,-16.83816 13.71719,-13.69709 16.12269,-15.7037 17.75,-14.80658 1.03533,0.57077 5.86784,5.06304 10.73892,9.98283 6.78097,6.84879 8.71376,9.39479 8.24743,10.86408 -0.82775,2.60798 -29.88666,31.32744 -31.69773,31.32744 -0.79405,0 -5.82278,-4.39555 -11.17496,-9.76789 z m 62.50666,-60.49384 c -8.38084,-8.39395 -15.2379,-15.93989 -15.2379,-16.76876 0,-1.9543 19.07005,-20.96951 21.02999,-20.96951 1.95712,0 31.97001,30.06967 31.97001,32.03049 0,1.9543 -19.07005,20.96951 -21.02999,20.96951 -0.82182,0 -8.35126,-6.86778 -16.73211,-15.26173 z m 45.49334,-47.50616 c -5.35218,-5.37234 -9.73124,-10.21512 -9.73124,-10.76172 0,-0.54661 7.14041,-8.12378 15.86758,-16.83816 13.71719,-13.69709 16.12269,-15.7037 17.75,-14.80658 1.03533,0.57077 5.86784,5.06304 10.73892,9.98283 6.78097,6.84879 8.71376,9.39479 8.24743,10.86408 -0.82775,2.60798 -29.88666,31.32744 -31.69773,31.32744 -0.79405,0 -5.82278,-4.39555 -11.17496,-9.76789 z M 667.80934,689.67189 c -8.38084,-8.39395 -15.2379,-15.93989 -15.2379,-16.76876 0,-1.9543 19.07005,-20.96951 21.02999,-20.96951 1.95712,0 31.97001,30.06967 31.97001,32.03049 0,1.9543 -19.07005,20.96951 -21.02999,20.96951 -0.82182,0 -8.35126,-6.86778 -16.73211,-15.26173 z m 171.49334,-24.50616 c -5.35218,-5.37234 -9.73124,-10.21512 -9.73124,-10.76172 0,-0.54661 7.14041,-8.12378 15.86758,-16.83816 13.71719,-13.69709 16.12269,-15.7037 17.75,-14.80658 1.03533,0.57077 5.86784,5.06304 10.73892,9.98283 6.78097,6.84879 8.71376,9.39479 8.24743,10.86408 -0.82775,2.60798 -29.88666,31.32744 -31.69773,31.32744 -0.79405,0 -5.82278,-4.39555 -11.17496,-9.76789 z M 594.80934,617.67189 c -8.38084,-8.39395 -15.2379,-15.93989 -15.2379,-16.76876 0,-1.9543 19.07005,-20.96951 21.02999,-20.96951 1.95712,0 31.97001,30.06967 31.97001,32.03049 0,1.9543 -19.07005,20.96951 -21.02999,20.96951 -0.82182,0 -8.35126,-6.86778 -16.73211,-15.26173 z m 292.49334,0.49384 c -5.35218,-5.37234 -9.73124,-10.21512 -9.73124,-10.76172 0,-0.54661 7.14041,-8.12378 15.86758,-16.83816 13.71719,-13.69709 16.12269,-15.7037 17.75,-14.80658 1.03533,0.57077 5.86784,5.06304 10.73892,9.98283 6.78097,6.84879 8.71376,9.39479 8.24743,10.86408 -0.82775,2.60798 -29.88666,31.32744 -31.69773,31.32744 -0.79405,0 -5.82278,-4.39555 -11.17496,-9.76789 z"
         id="path3082"
         inkscape:connector-curvature="0" />
      <path
         style="fill:#ef943d"
         d="m 428.42106,1109.3961 c -18.08305,-4.3872 -35.63027,-18.7404 -43.77544,-35.807 -6.50222,-13.6242 -6.04315,10.032 -6.0594,-312.24552 -0.0146,-288.4547 0.0164,-293.21198 1.95722,-300.80048 4.63091,-18.10671 17.65486,-34.32192 34.028,-42.36594 16.00556,-7.86342 -12.28683,-7.21227 314.09004,-7.22876 286.59302,-0.0145 292.74592,0.0251 300.19552,1.93039 19.202,4.91103 35.3352,17.99771 43.6403,35.3994 6.5029,13.62576 6.0446,-10.08268 6.0446,312.65543 0,322.33038 0.4563,298.74178 -6.0462,312.50438 -6.1049,12.9212 -18.4066,25.2828 -31.2688,31.4214 -13.6317,6.5058 10.1751,6.0515 -313.15546,5.9761 -245.43752,-0.057 -294.93332,-0.2949 -299.65038,-1.4394 z m 599.65034,-348.46248 0,-299.5 -299.49996,0 -299.5,0 -0.25604,298.5 c -0.14081,164.175 -0.0422,299.06328 0.21925,299.75168 0.3794,0.9991 60.85559,1.2008 299.75604,1 l 299.28071,-0.2517 0,-299.49998 z M 458.03461,1035.6855 c -0.2615,-0.6885 -0.3602,-120.27688 -0.21932,-265.75188 l 0.25615,-264.5 20,0 20,0 0.5,248.5 0.5,248.49998 247.5,0.5 247.5,0.5 0,16.5 0,16.5 -267.78068,0.2519 c -213.70015,0.2009 -267.8767,-10e-4 -268.25615,-1 z m 57.76708,-49.02067 c -5.07664,-5.09783 -9.23025,-9.71578 -9.23025,-10.2621 0,-1.30576 30.22313,-31.46911 31.53148,-31.46911 1.30402,0 19.46852,18.22269 19.46852,19.53089 0,1.30576 -30.22313,31.46911 -31.53148,31.46911 -0.55441,0 -5.16163,-4.17096 -10.23827,-9.26879 z m 54,-53 c -5.07664,-5.09783 -9.23025,-9.71578 -9.23025,-10.2621 0,-1.30576 30.22313,-31.46911 31.53148,-31.46911 1.30402,0 19.46852,18.22269 19.46852,19.53089 0,1.30576 -30.22313,31.46911 -31.53148,31.46911 -0.55441,0 -5.16163,-4.17096 -10.23827,-9.26879 z m 321.77308,-30.22787 -15.47246,-15.49666 9.9658,-10.00334 c 5.48119,-5.50184 10.65469,-10.00334 11.49667,-10.00334 0.84197,0 8.47223,6.95222 16.95612,15.44938 l 15.42525,15.44938 -9.87454,10.05062 c -5.431,5.52784 -10.58325,10.05062 -11.44945,10.05062 -0.86621,0 -8.53753,-6.9735 -17.04739,-15.49666 z M 627.80169,876.66483 c -5.07664,-5.09783 -9.23025,-9.71578 -9.23025,-10.2621 0,-1.30576 30.22313,-31.46911 31.53148,-31.46911 1.30402,0 19.46852,18.22269 19.46852,19.53089 0,1.30576 -30.22313,31.46911 -31.53148,31.46911 -0.55441,0 -5.16163,-4.17096 -10.23827,-9.26879 z m 189.77308,-44.22787 -15.47246,-15.49666 9.9658,-10.00334 c 5.48119,-5.50184 10.65469,-10.00334 11.49667,-10.00334 0.84197,0 8.47223,6.95222 16.95612,15.44938 l 15.42525,15.44938 -9.87454,10.05062 c -5.431,5.52784 -10.58325,10.05062 -11.44945,10.05062 -0.86621,0 -8.53753,-6.9735 -17.04739,-15.49666 z m -136.77308,-8.77213 c -5.07664,-5.09783 -9.23025,-9.71578 -9.23025,-10.2621 0,-1.30576 30.22313,-31.46911 31.53148,-31.46911 1.30402,0 19.46852,18.22269 19.46852,19.53089 0,1.30576 -30.22313,31.46911 -31.53148,31.46911 -0.55441,0 -5.16163,-4.17096 -10.23827,-9.26879 z m 61.77308,-61.22787 -15.47246,-15.49666 9.9658,-10.00334 c 5.48119,-5.50184 10.65469,-10.00334 11.49667,-10.00334 0.84197,0 8.47223,6.95222 16.95612,15.44938 l 15.42525,15.44938 -9.87454,10.05062 c -5.431,5.52784 -10.58325,10.05062 -11.44945,10.05062 -0.86621,0 -8.53753,-6.9735 -17.04739,-15.49666 z m 46.22692,-46.77213 c -5.07664,-5.09783 -9.23025,-9.71578 -9.23025,-10.2621 0,-1.30576 30.22313,-31.46911 31.53148,-31.46911 1.30402,0 19.46852,18.22269 19.46852,19.53089 0,1.30576 -30.22313,31.46911 -31.53148,31.46911 -0.55441,0 -5.16163,-4.17096 -10.23827,-9.26879 z m -121.22692,-27.22787 -15.47246,-15.49666 9.9658,-10.00334 c 5.48119,-5.50184 10.65469,-10.00334 11.49667,-10.00334 0.84197,0 8.47223,6.95222 16.95612,15.44938 l 15.42525,15.44938 -9.87454,10.05062 c -5.431,5.52784 -10.58325,10.05062 -11.44945,10.05062 -0.86621,0 -8.53753,-6.9735 -17.04739,-15.49666 z m 172.22692,-23.77213 c -5.07664,-5.09783 -9.23025,-9.71578 -9.23025,-10.2621 0,-1.30576 30.22313,-31.46911 31.53148,-31.46911 1.30402,0 19.46852,18.22269 19.46852,19.53089 0,1.30576 -30.22313,31.46911 -31.53148,31.46911 -0.55441,0 -5.16163,-4.17096 -10.23827,-9.26879 z m -245.22692,-48.22787 -15.47246,-15.49666 9.9658,-10.00334 c 5.48119,-5.50184 10.65469,-10.00334 11.49667,-10.00334 0.84197,0 8.47223,6.95222 16.95612,15.44938 l 15.42525,15.44938 -9.87454,10.05062 c -5.431,5.52784 -10.58325,10.05062 -11.44945,10.05062 -0.86621,0 -8.53753,-6.9735 -17.04739,-15.49666 z m 293.22692,1.22787 c -5.07664,-5.09783 -9.23025,-9.71578 -9.23025,-10.2621 0,-1.30576 30.22313,-31.46911 31.53148,-31.46911 1.30402,0 19.46852,18.22269 19.46852,19.53089 0,1.30576 -30.22313,31.46911 -31.53148,31.46911 -0.55441,0 -5.16163,-4.17096 -10.23827,-9.26879 z"
         id="path3080"
         inkscape:connector-curvature="0" />
      <path
         style="fill:#5e9e5e"
         d="m 428.42106,1109.3961 c -18.08305,-4.3872 -35.63027,-18.7404 -43.77544,-35.807 -6.50222,-13.6242 -6.04315,10.032 -6.0594,-312.24552 -0.0146,-288.4547 0.0164,-293.21198 1.95722,-300.80048 4.63091,-18.10671 17.65486,-34.32192 34.028,-42.36594 16.00556,-7.86342 -12.28683,-7.21227 314.09004,-7.22876 286.59302,-0.0145 292.74592,0.0251 300.19552,1.93039 19.202,4.91103 35.3352,17.99771 43.6403,35.3994 6.5029,13.62576 6.0446,-10.08268 6.0446,312.65543 0,322.33038 0.4563,298.74178 -6.0462,312.50438 -6.1049,12.9212 -18.4066,25.2828 -31.2688,31.4214 -13.6317,6.5058 10.1751,6.0515 -313.15546,5.9761 -245.43752,-0.057 -294.93332,-0.2949 -299.65038,-1.4394 z m 599.65034,-348.46248 0,-299.5 -299.49996,0 -299.5,0 -0.25604,298.5 c -0.14081,164.175 -0.0422,299.06328 0.21925,299.75168 0.3794,0.9991 60.85559,1.2008 299.75604,1 l 299.28071,-0.2517 0,-299.49998 z M 458.03461,1035.6855 c -0.2615,-0.6885 -0.3602,-120.27688 -0.21932,-265.75188 l 0.25615,-264.5 20,0 20,0 0.5,248.5 0.5,248.49998 247.5,0.5 247.5,0.5 0,16.5 0,16.5 -267.78068,0.2519 c -213.70015,0.2009 -267.8767,-10e-4 -268.25615,-1 z m 59.02847,-49.76027 -8.96665,-9.0084 15.1853,-15.1853 15.1853,-15.18531 9.28393,9.13508 9.28393,9.13507 -14.93849,15.05863 c -8.21617,8.28224 -15.19233,15.05862 -15.50258,15.05862 -0.31024,0 -4.59907,-4.05378 -9.53074,-9.00839 z m 54,-53 -8.96665,-9.0084 15.1853,-15.1853 15.1853,-15.18531 9.28393,9.13508 9.28393,9.13507 -14.93849,15.05863 c -8.21617,8.28224 -15.19233,15.05862 -15.50258,15.05862 -0.31024,0 -4.59907,-4.05378 -9.53074,-9.00839 z m 322.74543,-29.25412 c -7.83039,-7.84438 -14.23707,-14.50925 -14.23707,-14.81081 0,-0.73236 18.21878,-18.92668 18.95212,-18.92668 1.02334,0 29.04788,28.49292 29.04788,29.53336 0,1.30375 -17.22431,18.46664 -18.53272,18.46664 -0.54623,0 -7.39983,-6.41813 -15.23021,-14.26251 z m -264.74543,-27.74588 -8.96665,-9.0084 15.1853,-15.1853 15.1853,-15.18531 9.28393,9.13508 9.28393,9.13507 -14.93849,15.05863 c -8.21617,8.28224 -15.19233,15.05862 -15.50258,15.05862 -0.31024,0 -4.59907,-4.05378 -9.53074,-9.00839 z m 190.74543,-43.25412 c -7.83039,-7.84438 -14.23707,-14.50925 -14.23707,-14.81081 0,-0.73236 18.21878,-18.92668 18.95212,-18.92668 1.02334,0 29.04788,28.49292 29.04788,29.53336 0,1.30375 -17.22431,18.46664 -18.53272,18.46664 -0.54623,0 -7.39983,-6.41813 -15.23021,-14.26251 z m -137.74543,-9.74588 -8.96665,-9.0084 15.1853,-15.1853 15.1853,-15.18531 9.28393,9.13508 9.28393,9.13507 -14.93849,15.05863 c -8.21617,8.28224 -15.19233,15.05862 -15.50258,15.05862 -0.31024,0 -4.59907,-4.05378 -9.53074,-9.00839 z m 62.74543,-60.25412 c -7.83039,-7.84438 -14.23707,-14.50925 -14.23707,-14.81081 0,-0.73236 18.21878,-18.92668 18.95212,-18.92668 1.02334,0 29.04788,28.49292 29.04788,29.53336 0,1.30375 -17.22431,18.46664 -18.53272,18.46664 -0.54623,0 -7.39983,-6.41813 -15.23021,-14.26251 z m 45.25457,-47.74588 -8.96665,-9.0084 15.1853,-15.1853 15.1853,-15.18531 9.28393,9.13508 9.28393,9.13507 -14.93849,15.05863 c -8.21617,8.28224 -15.19233,15.05862 -15.50258,15.05862 -0.31024,0 -4.59907,-4.05378 -9.53074,-9.00839 z M 669.80851,688.67111 c -7.83039,-7.84438 -14.23707,-14.50925 -14.23707,-14.81081 0,-0.73236 18.21878,-18.92668 18.95212,-18.92668 1.02334,0 29.04788,28.49292 29.04788,29.53336 0,1.30375 -17.22431,18.46664 -18.53272,18.46664 -0.54623,0 -7.39983,-6.41813 -15.23021,-14.26251 z m 171.25457,-24.74588 -8.96665,-9.0084 15.1853,-15.1853 15.1853,-15.18531 9.28393,9.13508 9.28393,9.13507 -14.93849,15.05863 c -8.21617,8.28224 -15.19233,15.05862 -15.50258,15.05862 -0.31024,0 -4.59907,-4.05378 -9.53074,-9.00839 z M 596.80851,616.67111 c -7.83039,-7.84438 -14.23707,-14.50925 -14.23707,-14.81081 0,-0.73236 18.21878,-18.92668 18.95212,-18.92668 1.02334,0 29.04788,28.49292 29.04788,29.53336 0,1.30375 -17.22431,18.46664 -18.53272,18.46664 -0.54623,0 -7.39983,-6.41813 -15.23021,-14.26251 z m 292.25457,0.25412 -8.96665,-9.0084 15.1853,-15.1853 15.1853,-15.18531 9.28393,9.13508 9.28393,9.13507 -14.93849,15.05863 c -8.21617,8.28224 -15.19233,15.05862 -15.50258,15.05862 -0.31024,0 -4.59907,-4.05378 -9.53074,-9.00839 z"
         id="path3078"
         inkscape:connector-curvature="0" />
      <path
         style="fill:#dd690e"
         d="m 426.57144,1107.5717 c -9.46722,-2.857 -16.0497,-6.3019 -22.85946,-11.9634 -7.50359,-6.2383 -13.66062,-13.9802 -17.64745,-22.1898 -6.9909,-14.3957 -6.46353,11.1003 -6.46353,-312.48488 0,-322.97543 -0.51799,-297.76573 6.41602,-312.25785 6.22164,-13.00327 17.10796,-23.95457 30.06958,-30.24906 14.39567,-6.99089 -11.10035,-6.46353 312.48484,-6.46353 322.97546,0 297.76576,-0.51799 312.25786,6.41602 13.0033,6.22164 23.9546,17.10796 30.2491,30.06959 6.9903,14.39461 6.4619,-11.10169 6.4783,312.57487 0.014,287.95704 -0.017,292.71214 -1.9573,300.30044 -5.3178,20.7927 -21.0012,38.0438 -41.3518,45.4854 l -7.1762,2.6241 -296.49996,0.2007 -296.5,0.2007 -7.5,-2.2633 z m 602.49996,-346.63808 0,-300.5 -300.49996,0 -300.5,0 -0.25603,299.5 c -0.14082,164.725 -0.0422,300.06328 0.21924,300.75168 0.3794,0.9991 61.05558,1.2008 300.75604,1 l 300.28071,-0.2517 0,-300.49998 z M 459.03461,1034.6855 c -0.26151,-0.6885 -0.36021,-119.82688 -0.21932,-264.75188 l 0.25615,-263.5 19,0 19,0 0.5,248.5 0.5,248.49998 247.5,0.5 247.5,0.5 0,15.5 0,15.5 -266.78068,0.2519 c -212.90014,0.201 -266.8767,-10e-4 -267.25615,-1 z m 58.02847,-48.76027 -8.96665,-9.0084 15.1853,-15.1853 15.1853,-15.18531 9.28393,9.13508 9.28393,9.13507 -14.93849,15.05863 c -8.21617,8.28224 -15.19233,15.05862 -15.50258,15.05862 -0.31024,0 -4.59907,-4.05378 -9.53074,-9.00839 z m 54,-53 -8.96665,-9.0084 15.1853,-15.1853 15.1853,-15.18531 9.28393,9.13508 9.28393,9.13507 -14.93849,15.05863 c -8.21617,8.28224 -15.19233,15.05862 -15.50258,15.05862 -0.31024,0 -4.59907,-4.05378 -9.53074,-9.00839 z m 322.74543,-29.25412 c -7.83039,-7.84438 -14.23707,-14.50925 -14.23707,-14.81081 0,-0.73236 18.21878,-18.92668 18.95212,-18.92668 1.02334,0 29.04788,28.49292 29.04788,29.53336 0,1.30375 -17.22431,18.46664 -18.53272,18.46664 -0.54623,0 -7.39983,-6.41813 -15.23021,-14.26251 z m -264.74543,-27.74588 -8.96665,-9.0084 15.1853,-15.1853 15.1853,-15.18531 9.28393,9.13508 9.28393,9.13507 -14.93849,15.05863 c -8.21617,8.28224 -15.19233,15.05862 -15.50258,15.05862 -0.31024,0 -4.59907,-4.05378 -9.53074,-9.00839 z m 190.74543,-43.25412 c -7.83039,-7.84438 -14.23707,-14.50925 -14.23707,-14.81081 0,-0.73236 18.21878,-18.92668 18.95212,-18.92668 1.02334,0 29.04788,28.49292 29.04788,29.53336 0,1.30375 -17.22431,18.46664 -18.53272,18.46664 -0.54623,0 -7.39983,-6.41813 -15.23021,-14.26251 z m -137.74543,-9.74588 -8.96665,-9.0084 15.1853,-15.1853 15.1853,-15.18531 9.28393,9.13508 9.28393,9.13507 -14.93849,15.05863 c -8.21617,8.28224 -15.19233,15.05862 -15.50258,15.05862 -0.31024,0 -4.59907,-4.05378 -9.53074,-9.00839 z m 62.74543,-60.25412 c -7.83039,-7.84438 -14.23707,-14.50925 -14.23707,-14.81081 0,-0.73236 18.21878,-18.92668 18.95212,-18.92668 1.02334,0 29.04788,28.49292 29.04788,29.53336 0,1.30375 -17.22431,18.46664 -18.53272,18.46664 -0.54623,0 -7.39983,-6.41813 -15.23021,-14.26251 z m 45.25457,-47.74588 -8.96665,-9.0084 15.1853,-15.1853 15.1853,-15.18531 9.28393,9.13508 9.28393,9.13507 -14.93849,15.05863 c -8.21617,8.28224 -15.19233,15.05862 -15.50258,15.05862 -0.31024,0 -4.59907,-4.05378 -9.53074,-9.00839 z M 669.80851,688.67111 c -7.83039,-7.84438 -14.23707,-14.50925 -14.23707,-14.81081 0,-0.73236 18.21878,-18.92668 18.95212,-18.92668 1.02334,0 29.04788,28.49292 29.04788,29.53336 0,1.30375 -17.22431,18.46664 -18.53272,18.46664 -0.54623,0 -7.39983,-6.41813 -15.23021,-14.26251 z m 171.25457,-24.74588 -8.96665,-9.0084 15.1853,-15.1853 15.1853,-15.18531 9.28393,9.13508 9.28393,9.13507 -14.93849,15.05863 c -8.21617,8.28224 -15.19233,15.05862 -15.50258,15.05862 -0.31024,0 -4.59907,-4.05378 -9.53074,-9.00839 z M 596.80851,616.67111 c -7.83039,-7.84438 -14.23707,-14.50925 -14.23707,-14.81081 0,-0.73236 18.21878,-18.92668 18.95212,-18.92668 1.02334,0 29.04788,28.49292 29.04788,29.53336 0,1.30375 -17.22431,18.46664 -18.53272,18.46664 -0.54623,0 -7.39983,-6.41813 -15.23021,-14.26251 z m 292.25457,0.25412 -8.96665,-9.0084 15.1853,-15.1853 15.1853,-15.18531 9.28393,9.13508 9.28393,9.13507 -14.93849,15.05863 c -8.21617,8.28224 -15.19233,15.05862 -15.50258,15.05862 -0.31024,0 -4.59907,-4.05378 -9.53074,-9.00839 z"
         id="path3076"
         inkscape:connector-curvature="0" />
      <path
         style="fill:#10a910"
         d="m 426.57144,1107.5717 c -9.46722,-2.857 -16.0497,-6.3019 -22.85946,-11.9634 -7.50359,-6.2383 -13.66062,-13.9802 -17.64745,-22.1898 -6.9909,-14.3957 -6.46353,11.1003 -6.46353,-312.48488 0,-322.97543 -0.51799,-297.76573 6.41602,-312.25785 6.22164,-13.00327 17.10796,-23.95457 30.06958,-30.24906 14.39567,-6.99089 -11.10035,-6.46353 312.48484,-6.46353 322.97546,0 297.76576,-0.51799 312.25786,6.41602 13.0033,6.22164 23.9546,17.10796 30.2491,30.06959 6.9903,14.39461 6.4619,-11.10169 6.4783,312.57487 0.014,287.95704 -0.017,292.71214 -1.9573,300.30044 -5.3178,20.7927 -21.0012,38.0438 -41.3518,45.4854 l -7.1762,2.6241 -296.49996,0.2007 -296.5,0.2007 -7.5,-2.2633 z m 602.49996,-346.63808 0,-300.5 -300.49996,0 -300.5,0 -0.25603,299.5 c -0.14082,164.725 -0.0422,300.06328 0.21924,300.75168 0.3794,0.9991 61.05558,1.2008 300.75604,1 l 300.28071,-0.2517 0,-300.49998 z M 459.03461,1034.6855 c -0.26151,-0.6885 -0.36021,-119.82688 -0.21932,-264.75188 l 0.25615,-263.5 19,0 19,0 0.5,248.5 0.5,248.49998 247.5,0.5 247.5,0.5 0,15.5 0,15.5 -266.78068,0.2519 c -212.90014,0.201 -266.8767,-10e-4 -267.25615,-1 z"
         id="path3074"
         inkscape:connector-curvature="0" />
      <path
         style="fill:#0e950e"
         d="m 426.57144,1107.5737 c -9.68232,-2.9192 -15.06222,-5.737 -22.65322,-11.865 -11.4143,-9.2143 -20.53527,-24.3962 -20.69698,-34.4501 -0.0458,-2.8464 -0.43572,-4.9573 -0.86652,-4.691 -1.32608,0.8195 -0.80406,-2.0224 0.74852,-4.0751 1.28299,-1.6963 1.4682,-38.0424 1.4682,-288.12338 0,-276.73255 0.0621,-286.43059 1.87951,-293.70344 5.07305,-20.30065 18.28196,-36.84895 36.47874,-45.70107 13.33,-6.48459 -10.76355,-6.01347 308.07003,-6.02401 159.53945,-0.005 293.22168,0.26977 297.07168,0.61122 4.6168,0.40944 7.4311,1.1634 8.2662,2.21446 1.0114,1.2731 1.8201,1.38453 4.0204,0.55399 3.3033,-1.24684 5.2134,-0.7692 5.2134,1.30367 0,0.96731 0.5677,1.30583 1.5546,0.9271 1.6326,-0.62649 5.152,1.58992 11.6072,7.30988 5.6688,5.02322 12.494,15.5588 15.6094,24.09527 l 2.7288,7.47743 0.2761,294.5 c 0.3083,328.83578 0.8966,301.43068 -6.8005,316.80908 -7.1466,14.2784 -20.9146,26.4411 -36.2994,32.0668 l -7.1762,2.6241 -296.49996,0.2007 -296.5,0.2007 -7.5,-2.2613 z m 607.49996,-39.4054 c 1.3249,-0.9733 0.8766,-607.23468 -0.449,-607.23468 -0.5131,0 -1.2292,0.47931 -1.5912,1.06514 -0.4365,0.70621 -1.2417,0.53716 -2.3896,-0.50165 -1.5649,-1.41624 -30.54999,-1.54261 -301.65072,-1.31514 l -299.91944,0.25165 -0.23544,302.4021 c -0.12948,166.32116 -0.46698,302.63368 -0.75,302.91668 -3.20905,3.209 -5.84376,3.1815 302.73544,3.1659 166.7875,-0.01 303.69996,-0.3459 304.24996,-0.75 z m -573.49996,-32.8251 c 0,-0.3268 0.9,-1.7383 2,-3.1367 1.98822,-2.5276 2,-4.0568 2,-259.70774 0,-198.684 0.27289,-257.43803 1.2,-258.36514 0.79883,-0.79883 5.17681,-1.2 13.09563,-1.2 10.49781,0 12.24368,-0.24783 14.85757,-2.10909 1.62907,-1.16 3.15752,-1.91352 3.39656,-1.67449 0.98841,0.98842 0.45742,496.90166 -0.53403,498.75416 -0.55865,1.0439 -1.01573,2.1525 -1.01573,2.4637 0,0.3111 110.5875,0.5557 245.75,0.5435 242.35069,-0.022 245.78458,-0.049 248.25,-1.9778 1.375,-1.0755 2.84986,-1.9655 3.27746,-1.9777 0.4276,-0.012 0.6526,6.3902 0.5,14.2277 l -0.27746,14.25 -266.25,0.2519 c -146.4375,0.1385 -266.25,-0.015 -266.25,-0.3423 z"
         id="path3072"
         inkscape:connector-curvature="0" />
      <path
         style="fill:#117a11"
         d="m 426.57144,1107.5737 c -8.36489,-2.522 -14.02138,-5.2889 -18.5,-9.0492 -2.1576,-1.8116 -2.53864,-2.529 -1.35699,-2.5549 0.90366,-0.02 1.90203,0.639 2.21862,1.464 0.31658,0.825 1.52187,1.5 2.67841,1.5 1.15655,0 2.77782,0.675 3.60282,1.5 0.825,0.825 2.72785,1.5 4.22857,1.5 1.50071,0 3.18925,0.4607 3.75231,1.0238 0.56306,0.563 3.69055,1.4627 6.95,1.9992 3.75736,0.6185 112.42689,0.9695 296.92626,0.959 319.93196,-0.018 296.54736,0.4384 310.15546,-6.0562 12.8623,-6.1386 25.1639,-18.5002 31.2688,-31.4214 6.4895,-13.735 6.0299,9.803 6.1219,-313.50438 0.069,-243.83492 0.309,-293.89787 1.3926,-291 1.0662,2.8515 1.3333,57.80066 1.4415,296.56431 0.131,288.95867 0.1052,293.17267 -1.8457,300.80047 -5.3247,20.8193 -20.9974,38.0657 -41.3584,45.5111 l -7.1762,2.6241 -296.49996,0.2007 -296.5,0.2007 -7.5,-2.2613 z m -25.4573,-14.571 c -0.31643,-0.512 -0.16514,-1.1844 0.3362,-1.4942 0.50134,-0.3099 1.16956,0.109 1.48493,0.9309 0.6217,1.6201 -0.88076,2.0849 -1.82113,0.5633 z m 23.70567,-333.24544 0.25163,-303.32364 302.5,-0.25602 c 166.375,-0.14082 303.08746,-0.0329 303.80536,0.23986 0.8461,0.32142 1.0065,1.03003 0.4557,2.01417 -0.7564,1.35163 -33.93718,1.54483 -302.30537,1.76014 l -301.45569,0.24185 -0.23909,301 c -0.21266,267.72758 -0.40628,301.03578 -1.75163,301.32368 -1.34788,0.2884 -1.48515,-32.698 -1.26091,-303.00004 z m 37.75163,275.33874 c 0,-3.1015 5.1327,-3.1624 266.54705,-3.1624 l 261.45295,0 0,-9.9182 c 0,-10.0932 0.48798,-13.0818 2.13601,-13.0818 0.53037,0 0.80351,5.6285 0.64302,13.25 l -0.27903,13.25 -265.25,0.2519 c -145.8875,0.1385 -265.25,-0.1268 -265.25,-0.5895 z m 32,-275.58059 c 0,-134.98002 0.27314,-246.13002 0.60699,-247 0.33384,-0.86999 1.00884,-1.58179 1.5,-1.58179 0.5216,0 0.89301,102.72818 0.89301,247 0,218.88889 -0.17072,246.99998 -1.5,246.99998 -1.32926,0 -1.5,-27.93534 -1.5,-245.41819 z"
         id="path3070"
         inkscape:connector-curvature="0" />
    </g>
  </g>
</svg>
