<?xml version="1.0" encoding="UTF-8" standalone="no"?>
<!-- Created with Inkscape (http://www.inkscape.org/) -->

<svg
   xmlns:dc="http://purl.org/dc/elements/1.1/"
   xmlns:cc="http://creativecommons.org/ns#"
   xmlns:rdf="http://www.w3.org/1999/02/22-rdf-syntax-ns#"
   xmlns:svg="http://www.w3.org/2000/svg"
   xmlns="http://www.w3.org/2000/svg"
   xmlns:sodipodi="http://sodipodi.sourceforge.net/DTD/sodipodi-0.dtd"
   xmlns:inkscape="http://www.inkscape.org/namespaces/inkscape"
   width="64px"
   height="64px"
   id="svg3271"
   version="1.1"
   inkscape:version="0.48.2 r9819"
   sodipodi:docname="New document 18">
  <defs
     id="defs3273" />
  <sodipodi:namedview
     id="base"
     pagecolor="#ffffff"
     bordercolor="#666666"
     borderopacity="1.0"
     inkscape:pageopacity="0.0"
     inkscape:pageshadow="2"
     inkscape:zoom="7.7393818"
     inkscape:cx="34.084994"
     inkscape:cy="43.585072"
     inkscape:current-layer="layer1"
     showgrid="true"
     inkscape:document-units="px"
     inkscape:grid-bbox="true"
     inkscape:window-width="688"
     inkscape:window-height="617"
     inkscape:window-x="40"
     inkscape:window-y="40"
     inkscape:window-maximized="0" />
  <metadata
     id="metadata3276">
    <rdf:RDF>
      <cc:Work
         rdf:about="">
        <dc:format>image/svg+xml</dc:format>
        <dc:type
           rdf:resource="http://purl.org/dc/dcmitype/StillImage" />
        <dc:title></dc:title>
      </cc:Work>
    </rdf:RDF>
  </metadata>
  <g
     id="layer1"
     inkscape:label="Layer 1"
     inkscape:groupmode="layer">
    <path
       inkscape:connector-curvature="0"
       id="path3355"
       d="M 4.5466375,63.884006 C 2.4335997,63.371753 0.58304334,61.459177 0.09877409,59.287076 -0.03680037,58.678981 -0.03092367,5.4123406 0.10478883,4.7692386 0.24831275,4.0891215 0.83177304,2.9182581 1.3218681,2.326856 2.1923432,1.2764457 3.5932659,0.38216318 4.7354393,0.14779398 5.4248367,0.00633258 58.724993,0.00731348 59.4076,0.14880018 c 0.266286,0.055194 0.860252,0.282347 1.319924,0.5047844 1.43514,0.69447042 2.586225,1.95861852 3.127213,3.43437672 l 0.239748,0.6540083 0.02685,26.9763604 c 0.01974,19.83028 -6.39e-4,27.121213 -0.07677,27.523178 -0.371839,1.962185 -2.007234,3.805379 -4.015765,4.526018 l -0.593864,0.213072 -27.180691,0.01557 C 9.214493,64.009372 4.9932813,63.99228 4.5466375,63.884006 z m 54.7969375,-31.846699 0,-27.2042014 -27.272055,0 -27.2720548,0 -0.023393,27.1130654 c -0.012866,14.912185 -0.00386,27.164397 0.020031,27.227136 0.034663,0.09106 5.5417168,0.109444 27.2954468,0.09114 l 27.252024,-0.02294 0,-27.204201 z M 7.2629202,57.168323 C 7.2390277,57.105575 7.230011,46.16572 7.2428823,32.857534 l 0.023402,-24.1967012 1.9186371,0 1.9186366,0 0.04568,22.6473832 0.04568,22.647383 22.612508,0.04557 22.612508,0.04557 0,1.594886 0,1.594886 -24.556789,0.02295 c -19.597521,0.01832 -24.5655606,-9e-5 -24.6002277,-0.09114 z m 5.3235828,-4.513047 c -0.488995,-0.489616 -0.889082,-0.930969 -0.889082,-0.980784 0,-0.04982 0.652374,-0.740372 1.449721,-1.534568 1.253252,-1.248303 1.473028,-1.431178 1.621705,-1.349418 0.09459,0.05202 0.536107,0.461427 0.981147,0.909799 0.619534,0.624173 0.796121,0.856206 0.753515,0.990112 -0.07563,0.237682 -2.730555,2.855069 -2.89602,2.855069 -0.07255,0 -0.531991,-0.400595 -1.020986,-0.89021 z m 4.933638,-4.830227 c -0.488995,-0.489615 -0.889082,-0.930968 -0.889082,-0.980784 0,-0.04982 0.652375,-0.740371 1.449721,-1.534568 1.253253,-1.248303 1.473028,-1.431178 1.621705,-1.349418 0.09459,0.05202 0.536107,0.461427 0.981147,0.909799 0.619534,0.624174 0.796121,0.856207 0.753516,0.990113 -0.07563,0.237681 -2.730555,2.855068 -2.896021,2.855068 -0.07255,0 -0.531991,-0.400594 -1.020986,-0.89021 z m 29.465392,-2.687961 c -0.765704,-0.764994 -1.392191,-1.452703 -1.392191,-1.528243 0,-0.178108 1.74231,-1.911085 1.921378,-1.911085 0.178809,0 2.920897,2.74044 2.920897,2.919142 0,0.178108 -1.74231,1.911085 -1.921377,1.911085 -0.07509,0 -0.763002,-0.625905 -1.528707,-1.390899 z M 22.819234,42.630277 c -0.488995,-0.489615 -0.889082,-0.930968 -0.889082,-0.980784 0,-0.04982 0.652374,-0.740371 1.449721,-1.534568 1.253252,-1.248303 1.473028,-1.431178 1.621705,-1.349418 0.09459,0.05202 0.536107,0.461427 0.981147,0.909799 0.619534,0.624174 0.796121,0.856207 0.753515,0.990113 -0.07563,0.237681 -2.730555,2.855068 -2.896021,2.855068 -0.07255,0 -0.53199,-0.400594 -1.020985,-0.89021 z m 17.405387,-3.96387 c -0.765704,-0.764994 -1.39219,-1.452703 -1.39219,-1.528243 0,-0.178108 1.74231,-1.911085 1.921377,-1.911085 0.17881,0 2.920897,2.74044 2.920897,2.919142 0,0.178108 -1.742309,1.911085 -1.921377,1.911085 -0.07508,0 -0.763001,-0.625905 -1.528707,-1.390899 z M 27.661509,37.800051 c -0.488995,-0.489616 -0.889082,-0.930969 -0.889082,-0.980784 0,-0.04982 0.652374,-0.740372 1.44972,-1.534569 1.253253,-1.248302 1.473028,-1.431178 1.621705,-1.349417 0.09459,0.05202 0.536108,0.461427 0.981147,0.909798 0.619535,0.624174 0.796121,0.856207 0.753516,0.990113 -0.07563,0.237682 -2.730555,2.855069 -2.896021,2.855069 -0.07255,0 -0.531991,-0.400595 -1.020985,-0.89021 z m 5.710837,-5.513188 c -0.765704,-0.764994 -1.39219,-1.452704 -1.39219,-1.528244 0,-0.178108 1.74231,-1.911084 1.921377,-1.911084 0.17881,0 2.920897,2.74044 2.920897,2.919142 0,0.178107 -1.742309,1.911084 -1.921377,1.911084 -0.07508,0 -0.763002,-0.625904 -1.528707,-1.390898 z m 4.156439,-4.329538 c -0.488995,-0.489616 -0.889082,-0.930969 -0.889082,-0.980784 0,-0.04982 0.652374,-0.740372 1.44972,-1.534569 1.253253,-1.248302 1.473028,-1.431178 1.621705,-1.349417 0.09459,0.05202 0.536108,0.461427 0.981148,0.909798 0.619534,0.624174 0.796121,0.856207 0.753515,0.990113 -0.07563,0.237682 -2.730555,2.855069 -2.896021,2.855069 -0.07255,0 -0.53199,-0.400595 -1.020985,-0.89021 z M 26.520071,25.542773 c -0.765704,-0.764994 -1.39219,-1.452704 -1.39219,-1.528244 0,-0.178108 1.742309,-1.911084 1.921377,-1.911084 0.178809,0 2.920897,2.74044 2.920897,2.919142 0,0.178107 -1.74231,1.911084 -1.921377,1.911084 -0.07508,0 -0.763002,-0.625904 -1.528707,-1.390898 z m 15.668261,-2.233402 c -0.488995,-0.489616 -0.889082,-0.930969 -0.889082,-0.980784 0,-0.04982 0.652374,-0.740372 1.44972,-1.534569 1.253253,-1.248302 1.473028,-1.431177 1.621705,-1.349417 0.09459,0.05202 0.536108,0.461427 0.981148,0.909799 0.619534,0.624173 0.796121,0.856206 0.753515,0.990112 -0.07563,0.237682 -2.730555,2.855069 -2.896021,2.855069 -0.07255,0 -0.53199,-0.400595 -1.020985,-0.89021 z M 19.850523,18.980956 c -0.765704,-0.764994 -1.39219,-1.452704 -1.39219,-1.528244 0,-0.178108 1.74231,-1.911085 1.921377,-1.911085 0.17881,0 2.920897,2.74044 2.920897,2.919142 0,0.178108 -1.742309,1.911085 -1.921377,1.911085 -0.07508,0 -0.763001,-0.625904 -1.528707,-1.390898 z m 26.723265,0.04501 c -0.488995,-0.489615 -0.889082,-0.930968 -0.889082,-0.980784 0,-0.04982 0.652374,-0.740371 1.44972,-1.534568 1.253253,-1.248303 1.473029,-1.431178 1.621706,-1.349418 0.09459,0.05202 0.536107,0.461427 0.981147,0.909799 0.619534,0.624174 0.796121,0.856207 0.753515,0.990113 -0.07563,0.237681 -2.730555,2.855068 -2.896021,2.855068 -0.07255,0 -0.53199,-0.400594 -1.020985,-0.89021 z"
       style="fill:#abd7ab" />
    <path
       inkscape:connector-curvature="0"
       id="path3353"
       d="M 4.6486803,63.794907 C 2.996547,63.395069 1.3933686,62.086977 0.64919534,60.531582 0.05512921,59.289925 0.09707153,61.445869 0.09558659,32.074669 0.09425753,5.7859596 0.0970856,5.3523986 0.27440521,4.6608106 0.69750274,3.0106315 1.8874179,1.5328355 3.3833283,0.79973358 4.845655,0.08308998 2.2607587,0.14243328 32.079746,0.14093058 c 26.18419,-0.00132 26.746341,0.00229 27.426969,0.1759286 1.75436,0.4475735 3.228348,1.64024592 3.987129,3.22617252 0.594136,1.2418019 0.552259,-0.9188988 0.552259,28.4942753 0,29.376014 0.04169,27.226238 -0.552398,28.480511 -0.557772,1.177589 -1.681693,2.304184 -2.856838,2.863633 -1.245435,0.592912 0.92964,0.551507 -28.611029,0.544639 C 9.6017658,63.92089 5.0796483,63.89921 4.6486803,63.794907 z m 54.7862577,-31.7576 0,-27.2953374 -27.363418,0 -27.3634185,0 -0.023393,27.2042014 c -0.012865,14.96231 -0.00386,27.255532 0.020031,27.318271 0.034663,0.09106 5.5599895,0.109444 27.3868115,0.09114 l 27.343387,-0.02294 0,-27.295337 z M 7.354283,57.077187 C 7.3303914,57.014439 7.3213738,46.115595 7.3342451,32.857534 l 0.023403,-24.1055652 1.8272734,0 1.8272725,0 0.04568,22.6473832 0.04568,22.647384 22.612508,0.04557 22.612508,0.04557 0,1.50375 0,1.50375 -24.465426,0.02295 c -19.52443,0.01832 -24.4741969,-8.9e-5 -24.5088648,-0.09114 z m 5.277812,-4.467561 c -0.463821,-0.464598 -0.84331,-0.885461 -0.84331,-0.935251 0,-0.119002 2.761296,-2.867979 2.880832,-2.867979 0.11914,0 1.778715,1.660749 1.778715,1.779974 0,0.119002 -2.761296,2.867979 -2.880832,2.867979 -0.05065,0 -0.471585,-0.380126 -0.935405,-0.844723 z m 4.933638,-4.830227 c -0.463821,-0.464597 -0.84331,-0.885461 -0.84331,-0.93525 0,-0.119002 2.761296,-2.86798 2.880832,-2.86798 0.11914,0 1.778715,1.660749 1.778715,1.779974 0,0.119002 -2.761296,2.86798 -2.880831,2.86798 -0.05065,0 -0.471586,-0.380126 -0.935406,-0.844724 z m 29.398369,-2.754858 -1.413621,-1.412309 0.910512,-0.911668 c 0.500782,-0.501417 0.973452,-0.911668 1.050378,-0.911668 0.07693,0 0.774054,0.6336 1.549173,1.408001 l 1.409308,1.408 -0.902174,0.915977 c -0.496196,0.503787 -0.966925,0.915976 -1.046064,0.915976 -0.07914,0 -0.78002,-0.635539 -1.557512,-1.412309 z M 22.864825,42.584627 c -0.46382,-0.464598 -0.843309,-0.885461 -0.843309,-0.93525 0,-0.119002 2.761296,-2.86798 2.880832,-2.86798 0.11914,0 1.778715,1.660749 1.778715,1.779974 0,0.119002 -2.761296,2.86798 -2.880832,2.86798 -0.05065,0 -0.471585,-0.380126 -0.935406,-0.844724 z M 40.20319,38.55386 38.78957,37.141551 39.700082,36.229883 c 0.500781,-0.501417 0.973451,-0.911667 1.050378,-0.911667 0.07693,0 0.774054,0.6336 1.549173,1.408 l 1.409307,1.408 -0.902174,0.915977 c -0.496196,0.503787 -0.966924,0.915976 -1.046064,0.915976 -0.07914,0 -0.78002,-0.635539 -1.557512,-1.412309 z M 27.7071,37.7544 c -0.463821,-0.464597 -0.84331,-0.88546 -0.84331,-0.93525 0,-0.119002 2.761296,-2.86798 2.880832,-2.86798 0.11914,0 1.778715,1.66075 1.778715,1.779974 0,0.119003 -2.761296,2.86798 -2.880831,2.86798 -0.05065,0 -0.471586,-0.380126 -0.935406,-0.844724 z m 5.643815,-5.580084 -1.413621,-1.412309 0.910512,-0.911668 c 0.500782,-0.501418 0.973452,-0.911668 1.050378,-0.911668 0.07693,0 0.774054,0.6336 1.549174,1.408 l 1.409307,1.408 -0.902174,0.915977 c -0.496196,0.503787 -0.966925,0.915977 -1.046064,0.915977 -0.07914,0 -0.78002,-0.635539 -1.557512,-1.412309 z m 4.223461,-4.262641 c -0.46382,-0.464598 -0.843309,-0.885461 -0.843309,-0.935251 0,-0.119002 2.761296,-2.86798 2.880831,-2.86798 0.11914,0 1.778716,1.66075 1.778716,1.779974 0,0.119003 -2.761296,2.86798 -2.880832,2.86798 -0.05065,0 -0.471585,-0.380126 -0.935406,-0.844723 z M 26.49864,25.430226 25.085019,24.017917 25.995531,23.106249 c 0.500782,-0.501418 0.973452,-0.911668 1.050378,-0.911668 0.07693,0 0.774054,0.6336 1.549174,1.408 l 1.409307,1.408 -0.902174,0.915977 c -0.496196,0.503787 -0.966925,0.915977 -1.046064,0.915977 -0.07914,0 -0.78002,-0.635539 -1.557512,-1.412309 z m 15.735283,-2.166505 c -0.46382,-0.464598 -0.843309,-0.885461 -0.843309,-0.935251 0,-0.119002 2.761296,-2.86798 2.880831,-2.86798 0.11914,0 1.778716,1.66075 1.778716,1.779974 0,0.119003 -2.761296,2.86798 -2.880832,2.86798 -0.05065,0 -0.471585,-0.380126 -0.935406,-0.844723 z m -22.404831,-4.395312 -1.413621,-1.41231 0.910512,-0.911667 c 0.500782,-0.501418 0.973452,-0.911668 1.050378,-0.911668 0.07693,0 0.774054,0.6336 1.549174,1.408 l 1.409307,1.408 -0.902174,0.915977 c -0.496196,0.503787 -0.966925,0.915977 -1.046064,0.915977 -0.07914,0 -0.78002,-0.63554 -1.557512,-1.412309 z m 26.790287,0.111903 c -0.46382,-0.464597 -0.843309,-0.885461 -0.843309,-0.93525 0,-0.119002 2.761296,-2.86798 2.880832,-2.86798 0.11914,0 1.778715,1.660749 1.778715,1.779974 0,0.119002 -2.761296,2.86798 -2.880832,2.86798 -0.05065,0 -0.471585,-0.380126 -0.935406,-0.844724 z"
       style="fill:#ef943d" />
    <path
       inkscape:connector-curvature="0"
       id="path3351"
       d="M 4.6486803,63.794907 C 2.996547,63.395069 1.3933686,62.086977 0.64919534,60.531582 0.05512921,59.289925 0.09707153,61.445869 0.09558659,32.074669 0.09425753,5.7859596 0.0970856,5.3523986 0.27440521,4.6608106 0.69750274,3.0106315 1.8874179,1.5328355 3.3833283,0.79973358 4.845655,0.08308998 2.2607587,0.14243328 32.079746,0.14093058 c 26.18419,-0.00132 26.746341,0.00229 27.426969,0.1759286 1.75436,0.4475735 3.228348,1.64024592 3.987129,3.22617252 0.594136,1.2418019 0.552259,-0.9188988 0.552259,28.4942753 0,29.376014 0.04169,27.226238 -0.552398,28.480511 -0.557772,1.177589 -1.681693,2.304184 -2.856838,2.863633 -1.245435,0.592912 0.92964,0.551507 -28.611029,0.544639 C 9.6017658,63.92089 5.0796483,63.89921 4.6486803,63.794907 z m 54.7862577,-31.7576 0,-27.2953374 -27.363418,0 -27.3634185,0 -0.023393,27.2042014 c -0.012865,14.96231 -0.00386,27.255532 0.020031,27.318271 0.034663,0.09106 5.5599895,0.109444 27.3868115,0.09114 l 27.343387,-0.02294 0,-27.295337 z M 7.354283,57.077187 C 7.3303914,57.014439 7.3213738,46.115595 7.3342451,32.857534 l 0.023403,-24.1055652 1.8272734,0 1.8272725,0 0.04568,22.6473832 0.04568,22.647384 22.612508,0.04557 22.612508,0.04557 0,1.50375 0,1.50375 -24.465426,0.02295 c -19.52443,0.01832 -24.4741969,-8.9e-5 -24.5088648,-0.09114 z m 5.393057,-4.534966 -0.819226,-0.820992 1.387384,-1.383933 1.387385,-1.383934 0.848214,0.832538 0.848214,0.832537 -1.364835,1.372388 c -0.75066,0.754814 -1.388027,1.372388 -1.416373,1.372388 -0.02834,0 -0.420188,-0.369447 -0.870763,-0.820992 z m 4.933638,-4.830226 -0.819226,-0.820993 1.387385,-1.383933 1.387384,-1.383934 0.848214,0.832538 0.848214,0.832537 -1.364835,1.372389 c -0.75066,0.754813 -1.388027,1.372387 -1.416373,1.372387 -0.02834,0 -0.420188,-0.369446 -0.870763,-0.820991 z m 29.487206,-2.666114 c -0.715413,-0.714908 -1.300751,-1.32232 -1.300751,-1.349803 0,-0.06675 1.664535,-1.724909 1.731536,-1.724909 0.0935,0 2.653921,2.596741 2.653921,2.691563 0,0.118819 -1.573677,1.682982 -1.693218,1.682982 -0.04991,0 -0.676075,-0.584925 -1.391488,-1.299833 z m -24.188113,-2.528658 -0.819226,-0.820993 1.387384,-1.383933 1.387385,-1.383934 0.848214,0.832538 0.848214,0.832537 -1.364835,1.372389 c -0.75066,0.754813 -1.388027,1.372387 -1.416373,1.372387 -0.02834,0 -0.420188,-0.369446 -0.870763,-0.820991 z M 40.407273,38.5752 c -0.715413,-0.714908 -1.300751,-1.32232 -1.300751,-1.349803 0,-0.06675 1.664535,-1.724909 1.731535,-1.724909 0.0935,0 2.653921,2.596741 2.653921,2.691563 0,0.118819 -1.573676,1.682982 -1.693217,1.682982 -0.04991,0 -0.676076,-0.584925 -1.391488,-1.299833 z m -12.584928,-0.888204 -0.819226,-0.820993 1.387385,-1.383932 1.387385,-1.383934 0.848213,0.832538 0.848214,0.832537 -1.364835,1.372388 c -0.750659,0.754813 -1.388027,1.372388 -1.416373,1.372388 -0.02834,0 -0.420187,-0.369447 -0.870763,-0.820992 z m 5.732653,-5.491341 c -0.715413,-0.714908 -1.300751,-1.32232 -1.300751,-1.349803 0,-0.06674 1.664534,-1.724908 1.731535,-1.724908 0.0935,0 2.653921,2.59674 2.653921,2.691562 0,0.118819 -1.573676,1.682983 -1.693217,1.682983 -0.04991,0 -0.676076,-0.584925 -1.391488,-1.299834 z m 4.134623,-4.351385 -0.819226,-0.820993 1.387385,-1.383932 1.387385,-1.383934 0.848214,0.832538 0.848214,0.832537 -1.364836,1.372388 c -0.750659,0.754813 -1.388027,1.372388 -1.416372,1.372388 -0.02834,0 -0.420188,-0.369447 -0.870764,-0.820992 z M 26.702723,25.451565 c -0.715414,-0.714908 -1.300751,-1.32232 -1.300751,-1.349803 0,-0.06674 1.664534,-1.724908 1.731535,-1.724908 0.0935,0 2.653921,2.59674 2.653921,2.691562 0,0.118819 -1.573676,1.682983 -1.693218,1.682983 -0.04991,0 -0.676075,-0.584925 -1.391487,-1.299834 z m 15.646445,-2.255249 -0.819226,-0.820993 1.387385,-1.383932 1.387385,-1.383934 0.848214,0.832538 0.848214,0.832537 -1.364836,1.372388 c -0.750659,0.754813 -1.388027,1.372388 -1.416372,1.372388 -0.02835,0 -0.420188,-0.369447 -0.870764,-0.820992 z M 20.033175,18.889748 c -0.715413,-0.714908 -1.300751,-1.32232 -1.300751,-1.349803 0,-0.06675 1.664534,-1.724909 1.731535,-1.724909 0.0935,0 2.653921,2.596741 2.653921,2.691563 0,0.118819 -1.573676,1.682982 -1.693217,1.682982 -0.04991,0 -0.676076,-0.584925 -1.391488,-1.299833 z m 26.70145,0.02316 -0.819227,-0.820993 1.387385,-1.383933 1.387385,-1.383934 0.848214,0.832538 0.848214,0.832537 -1.364836,1.372389 c -0.750659,0.754813 -1.388027,1.372387 -1.416372,1.372387 -0.02835,0 -0.420188,-0.369446 -0.870763,-0.820991 z"
       style="fill:#5e9e5e" />
    <path
       inkscape:connector-curvature="0"
       id="path3349"
       d="M 4.4796923,63.628635 C 3.6147323,63.368261 3.0133332,63.054305 2.3911678,62.538336 1.7056122,61.969797 1.1430842,61.264235 0.77883264,60.516034 0.14011853,59.204066 0.18830071,61.52768 0.18830071,32.037307 0.18830071,2.6025044 0.14097542,4.9000246 0.77449174,3.5792654 1.3429239,2.3941945 2.3375375,1.3961338 3.5217593,0.82247668 4.8370001,0.18535178 2.5075903,0.23341408 32.07152,0.23341408 c 29.50822,0 27.204969,-0.047207 28.529022,0.5847325 1.188027,0.56701782 2.188577,1.55915682 2.763665,2.74043222 0.638667,1.3118728 0.590389,-1.0117667 0.591883,28.4869342 0.0013,26.243356 -0.0015,26.676714 -0.178819,27.36829 -0.485859,1.894965 -1.918753,3.467169 -3.778057,4.14537 l -0.655639,0.239152 -27.089328,0.01829 -27.0893271,0.01829 -0.6852276,-0.20627 z m 55.0466097,-31.591328 0,-27.3864744 -27.454782,0 -27.4547822,0 -0.023392,27.2953384 c -0.012866,15.012435 -0.00385,27.346668 0.020031,27.409408 0.034663,0.09106 5.5782622,0.109442 27.4781742,0.09114 l 27.434751,-0.02293 0,-27.386473 z M 7.4456466,56.986052 C 7.4217536,56.923302 7.4127366,46.06547 7.4256086,32.857534 l 0.023403,-24.0144282 1.7359097,0 1.7359087,0 0.04568,22.6473832 0.04568,22.647383 22.612508,0.04557 22.612508,0.04557 0,1.412614 0,1.412613 -24.374062,0.02295 C 12.411806,57.095509 7.4803108,57.0771 7.4456428,56.986049 z m 5.3016934,-4.443831 -0.819226,-0.820992 1.387384,-1.383933 1.387385,-1.383934 0.848214,0.832538 0.848214,0.832537 -1.364835,1.372388 c -0.75066,0.754814 -1.388027,1.372388 -1.416373,1.372388 -0.02834,0 -0.420188,-0.369447 -0.870763,-0.820992 z m 4.933638,-4.830226 -0.819226,-0.820993 1.387385,-1.383933 1.387384,-1.383934 0.848214,0.832538 0.848214,0.832537 -1.364835,1.372389 c -0.75066,0.754813 -1.388027,1.372387 -1.416373,1.372387 -0.02834,0 -0.420188,-0.369446 -0.870763,-0.820991 z m 29.487206,-2.666114 c -0.715413,-0.714908 -1.300751,-1.32232 -1.300751,-1.349803 0,-0.06675 1.664535,-1.724909 1.731536,-1.724909 0.0935,0 2.653921,2.596741 2.653921,2.691563 0,0.118819 -1.573677,1.682982 -1.693218,1.682982 -0.04991,0 -0.676075,-0.584925 -1.391488,-1.299833 z m -24.188113,-2.528658 -0.819226,-0.820993 1.387384,-1.383933 1.387385,-1.383934 0.848214,0.832538 0.848214,0.832537 -1.364835,1.372389 c -0.75066,0.754813 -1.388027,1.372387 -1.416373,1.372387 -0.02834,0 -0.420188,-0.369446 -0.870763,-0.820991 z M 40.407273,38.5752 c -0.715413,-0.714908 -1.300751,-1.32232 -1.300751,-1.349803 0,-0.06675 1.664535,-1.724909 1.731535,-1.724909 0.0935,0 2.653921,2.596741 2.653921,2.691563 0,0.118819 -1.573676,1.682982 -1.693217,1.682982 -0.04991,0 -0.676076,-0.584925 -1.391488,-1.299833 z m -12.584928,-0.888204 -0.819226,-0.820993 1.387385,-1.383932 1.387385,-1.383934 0.848213,0.832538 0.848214,0.832537 -1.364835,1.372388 c -0.750659,0.754813 -1.388027,1.372388 -1.416373,1.372388 -0.02834,0 -0.420187,-0.369447 -0.870763,-0.820992 z m 5.732653,-5.491341 c -0.715413,-0.714908 -1.300751,-1.32232 -1.300751,-1.349803 0,-0.06674 1.664534,-1.724908 1.731535,-1.724908 0.0935,0 2.653921,2.59674 2.653921,2.691562 0,0.118819 -1.573676,1.682983 -1.693217,1.682983 -0.04991,0 -0.676076,-0.584925 -1.391488,-1.299834 z m 4.134623,-4.351385 -0.819226,-0.820993 1.387385,-1.383932 1.387385,-1.383934 0.848214,0.832538 0.848214,0.832537 -1.364836,1.372388 c -0.750659,0.754813 -1.388027,1.372388 -1.416372,1.372388 -0.02834,0 -0.420188,-0.369447 -0.870764,-0.820992 z M 26.702723,25.451565 c -0.715414,-0.714908 -1.300751,-1.32232 -1.300751,-1.349803 0,-0.06674 1.664534,-1.724908 1.731535,-1.724908 0.0935,0 2.653921,2.59674 2.653921,2.691562 0,0.118819 -1.573676,1.682983 -1.693218,1.682983 -0.04991,0 -0.676075,-0.584925 -1.391487,-1.299834 z m 15.646445,-2.255249 -0.819226,-0.820993 1.387385,-1.383932 1.387385,-1.383934 0.848214,0.832538 0.848214,0.832537 -1.364836,1.372388 c -0.750659,0.754813 -1.388027,1.372388 -1.416372,1.372388 -0.02835,0 -0.420188,-0.369447 -0.870764,-0.820992 z M 20.033175,18.889748 c -0.715413,-0.714908 -1.300751,-1.32232 -1.300751,-1.349803 0,-0.06675 1.664534,-1.724909 1.731535,-1.724909 0.0935,0 2.653921,2.596741 2.653921,2.691563 0,0.118819 -1.573676,1.682982 -1.693217,1.682982 -0.04991,0 -0.676076,-0.584925 -1.391488,-1.299833 z m 26.70145,0.02316 -0.819227,-0.820993 1.387385,-1.383933 1.387385,-1.383934 0.848214,0.832538 0.848214,0.832537 -1.364836,1.372389 c -0.750659,0.754813 -1.388027,1.372387 -1.416372,1.372387 -0.02835,0 -0.420188,-0.369446 -0.870763,-0.820991 z"
       style="fill:#dd690e" />
    <path
       inkscape:connector-curvature="0"
       id="path3347"
       d="M 4.4796923,63.628635 C 3.6147323,63.368261 3.0133332,63.054305 2.3911678,62.538336 1.7056122,61.969797 1.1430842,61.264235 0.77883264,60.516034 0.14011853,59.204066 0.18830071,61.52768 0.18830071,32.037307 0.18830071,2.6025044 0.14097542,4.9000246 0.77449174,3.5792654 1.3429239,2.3941945 2.3375375,1.3961338 3.5217593,0.82247668 4.8370001,0.18535178 2.5075903,0.23341408 32.07152,0.23341408 c 29.50822,0 27.204969,-0.047207 28.529022,0.5847325 1.188027,0.56701782 2.188577,1.55915682 2.763665,2.74043222 0.638667,1.3118728 0.590389,-1.0117667 0.591883,28.4869342 0.0013,26.243356 -0.0015,26.676714 -0.178819,27.36829 -0.485859,1.894965 -1.918753,3.467169 -3.778057,4.14537 l -0.655639,0.239152 -27.089328,0.01829 -27.0893271,0.01829 -0.6852276,-0.20627 z m 55.0466097,-31.591328 0,-27.3864744 -27.454782,0 -27.4547822,0 -0.023392,27.2953384 c -0.012866,15.012435 -0.00385,27.346668 0.020031,27.409408 0.034663,0.09106 5.5782622,0.109442 27.4781742,0.09114 l 27.434751,-0.02293 0,-27.386473 z M 7.4456466,56.986052 C 7.4217536,56.923302 7.4127366,46.06547 7.4256086,32.857534 l 0.023403,-24.0144282 1.7359097,0 1.7359087,0 0.04568,22.6473832 0.04568,22.647383 22.612508,0.04557 22.612508,0.04557 0,1.412614 0,1.412613 -24.374062,0.02295 C 12.411806,57.095509 7.4803108,57.0771 7.4456428,56.986049 z"
       style="fill:#10a910" />
    <path
       inkscape:connector-curvature="0"
       id="path3345"
       d="M 4.4796923,63.628822 C 3.5950803,63.362775 3.1035523,63.10597 2.4100112,62.54749 1.3671587,61.707724 0.53383384,60.324104 0.51905854,59.407825 c -0.00418,-0.259401 -0.039809,-0.451785 -0.079168,-0.42752 -0.12115495,0.07469 -0.0734615,-0.184311 0.068388,-0.371387 0.1172184,-0.15459 0.1341399,-3.467046 0.1341399,-26.258512 0,-25.2203954 0.00567,-26.1042394 0.1717193,-26.7670604 C 1.2776293,3.7332184 2.4844437,2.2250663 4.1469692,1.4183165 5.3648464,0.82733478 3.1635709,0.87027148 32.293376,0.86931058 c 14.57611,-4.808e-4 26.789812,0.024586 27.141562,0.055704 0.4218,0.037315 0.67893,0.10602822 0.755222,0.20181822 0.09241,0.1160255 0.166294,0.1261811 0.367326,0.050489 0.3018,-0.1136332 0.476316,-0.070102 0.476316,0.1188116 0,0.088157 0.05186,0.1190083 0.142034,0.084492 0.149161,-0.057096 0.470702,0.1448992 1.06047,0.6661962 0.517926,0.457797 1.141499,1.4179722 1.426132,2.1959549 l 0.24932,0.681465 0.02523,26.8396565 c 0.02816,29.968896 0.08191,27.47129 -0.621326,28.872823 -0.652936,1.30128 -1.910835,2.409741 -3.316444,2.922452 l -0.655639,0.239152 -27.089328,0.01829 -27.0893271,0.01829 -0.6852276,-0.206083 z M 59.98312,60.037556 c 0.121044,-0.08871 0.08008,-55.3411554 -0.04103,-55.3411554 -0.04688,0 -0.112299,0.04368 -0.145378,0.09707 -0.03988,0.06436 -0.113448,0.04896 -0.218321,-0.04572 -0.142975,-0.12907 -2.791156,-0.140587 -27.559914,-0.119856 L 4.6167378,4.6508246 4.5952278,32.210649 C 4.5833968,47.368553 4.5525618,59.791577 4.5267048,59.817369 4.2335138,60.10983 3.9927966,60.10732 32.185724,60.1059 47.424042,60.105171 59.93287,60.07437 59.98312,60.03755 z M 7.5860571,57.045995 c 0,-0.02978 0.082227,-0.158422 0.1827273,-0.285869 0.1816511,-0.230358 0.1827273,-0.36972 0.1827273,-23.668814 0,-18.107335 0.024932,-23.4619632 0.1096365,-23.5464572 0.072984,-0.0728 0.4729723,-0.109363 1.1964648,-0.109363 0.959118,0 1.118627,-0.02259 1.357441,-0.192215 0.148838,-0.105718 0.288483,-0.174391 0.310322,-0.152607 0.0903,0.09008 0.04179,45.2858032 -0.04879,45.4546372 -0.05104,0.09513 -0.0928,0.19617 -0.0928,0.224528 0,0.02836 10.103679,0.05065 22.452621,0.04953 22.142048,-0.002 22.455781,-0.0045 22.681031,-0.180246 0.125625,-0.09802 0.260374,-0.179131 0.299441,-0.180246 0.03907,-0.0011 0.05962,0.582385 0.04568,1.296666 l -0.02535,1.298693 -24.325577,0.02295 c -13.379067,0.01262 -24.3255759,-0.0014 -24.3255759,-0.03119 z"
       style="fill:#0e950e" />
    <path
       inkscape:connector-curvature="0"
       id="path3343"
       d="M 4.4796923,63.628822 C 3.7154452,63.398975 3.1986474,63.146812 2.7894645,62.804103 2.5923384,62.639001 2.5575249,62.57362 2.665485,62.571262 c 0.082561,-0.0018 0.1737767,0.05824 0.2027008,0.133427 0.028924,0.07519 0.1390436,0.136705 0.2447101,0.136705 0.1056664,0 0.2537912,0.06152 0.3291662,0.136704 0.075375,0.07519 0.249227,0.136705 0.3863378,0.136705 0.1371108,0 0.2913819,0.04198 0.3428248,0.0933 0.051443,0.05131 0.3371828,0.133307 0.6349776,0.182206 0.3432862,0.05637 10.2717327,0.08835 27.1282717,0.0874 29.230154,-0.0017 27.093657,0.03995 28.336938,-0.551935 1.175145,-0.559449 2.299066,-1.686044 2.856839,-2.863633 0.592902,-1.25176 0.550909,0.893411 0.559315,-28.571647 0.0063,-22.2222252 0.02823,-26.7847804 0.127229,-26.5206784 0.09741,0.259875 0.121819,5.2677414 0.131709,27.0277894 0.01197,26.334636 0.0096,26.718689 -0.168632,27.413858 -0.486482,1.897395 -1.918399,3.469165 -3.778658,4.147715 L 59.343575,63.79833 32.254247,63.81662 5.1649199,63.83491 4.4796923,63.628827 z M 2.1538205,62.300873 c -0.02891,-0.04666 -0.015088,-0.107943 0.030716,-0.136181 0.045804,-0.02824 0.106855,0.0099 0.1356683,0.08484 0.056801,0.147653 -0.080469,0.190011 -0.1663846,0.05134 z M 4.319657,31.930098 4.342647,4.2862876 31.980156,4.2629576 c 15.20063,-0.01283 27.691178,-0.003 27.756772,0.02186 0.07731,0.02929 0.09195,0.09387 0.04163,0.183564 -0.06911,0.123183 -3.100625,0.14079 -27.619727,0.160413 L 4.6167378,4.6508326 4.594894,32.082875 C 4.575465,56.482585 4.557774,59.518177 4.4348586,59.544412 4.3117116,59.570692 4.29917,56.564438 4.319657,31.930098 z m 3.4491274,25.093367 c 0,-0.282657 0.4689423,-0.288207 24.3527156,-0.288207 l 23.887301,0 0,-0.903909 c 0,-0.919861 0.04458,-1.192227 0.195153,-1.192227 0.04846,0 0.07341,0.512961 0.05875,1.207557 l -0.02549,1.207556 -24.234213,0.02295 C 18.67418,57.089813 7.7687844,57.065637 7.7687844,57.023465 z M 10.692421,31.908056 c 0,-12.301586 0.02496,-22.4313912 0.05546,-22.5106782 0.0305,-0.07929 0.09217,-0.144159 0.137045,-0.144159 0.04766,0 0.08159,9.3622722 0.08159,22.5106792 0,19.948735 -0.0156,22.510679 -0.137045,22.510679 -0.121447,0 -0.137046,-2.545927 -0.137046,-22.366521 z"
       style="fill:#117a11" />
  </g>
</svg>
