<?xml version="1.0" encoding="UTF-8"?>
<!DOCTYPE svg PUBLIC "-//W3C//DTD SVG 1.1//EN" "http://www.w3.org/Graphics/SVG/1.1/DTD/svg11.dtd">
<svg version="1.2" width="39.6mm" height="35.45mm" viewBox="0 0 3960 3545" preserveAspectRatio="xMidYMid" fill-rule="evenodd" stroke-width="28.222" stroke-linejoin="round" xmlns="http://www.w3.org/2000/svg" xmlns:ooo="http://xml.openoffice.org/svg/export" xmlns:xlink="http://www.w3.org/1999/xlink" xmlns:presentation="http://sun.com/xmlns/staroffice/presentation" xmlns:smil="http://www.w3.org/2001/SMIL20/" xmlns:anim="urn:oasis:names:tc:opendocument:xmlns:animation:1.0" xml:space="preserve">
 <defs class="ClipPathGroup">
  <clipPath id="presentation_clip_path" clipPathUnits="userSpaceOnUse">
   <rect x="0" y="0" width="3960" height="3545"/>
  </clipPath>
  <clipPath id="presentation_clip_path_shrink" clipPathUnits="userSpaceOnUse">
   <rect x="3" y="3" width="3953" height="3538"/>
  </clipPath>
 </defs>
 <defs class="TextShapeIndex">
  <g ooo:slide="id1" ooo:id-list="id3 id4 id5 id6 id7 id8 id9 id10"/>
 </defs>
 <defs class="EmbeddedBulletChars">
  <g id="bullet-char-template(57356)" transform="scale(0.00048828125,-0.00048828125)">
   <path d="M 580,1141 L 1163,571 580,0 -4,571 580,1141 Z"/>
  </g>
  <g id="bullet-char-template(57354)" transform="scale(0.00048828125,-0.00048828125)">
   <path d="M 8,1128 L 1137,1128 1137,0 8,0 8,1128 Z"/>
  </g>
  <g id="bullet-char-template(10146)" transform="scale(0.00048828125,-0.00048828125)">
   <path d="M 174,0 L 602,739 174,1481 1456,739 174,0 Z M 1358,739 L 309,1346 659,739 1358,739 Z"/>
  </g>
  <g id="bullet-char-template(10132)" transform="scale(0.00048828125,-0.00048828125)">
   <path d="M 2015,739 L 1276,0 717,0 1260,543 174,543 174,936 1260,936 717,1481 1274,1481 2015,739 Z"/>
  </g>
  <g id="bullet-char-template(10007)" transform="scale(0.00048828125,-0.00048828125)">
   <path d="M 0,-2 C -7,14 -16,27 -25,37 L 356,567 C 262,823 215,952 215,954 215,979 228,992 255,992 264,992 276,990 289,987 310,991 331,999 354,1012 L 381,999 492,748 772,1049 836,1024 860,1049 C 881,1039 901,1025 922,1006 886,937 835,863 770,784 769,783 710,716 594,584 L 774,223 C 774,196 753,168 711,139 L 727,119 C 717,90 699,76 672,76 641,76 570,178 457,381 L 164,-76 C 142,-110 111,-127 72,-127 30,-127 9,-110 8,-76 1,-67 -2,-52 -2,-32 -2,-23 -1,-13 0,-2 Z"/>
  </g>
  <g id="bullet-char-template(10004)" transform="scale(0.00048828125,-0.00048828125)">
   <path d="M 285,-33 C 182,-33 111,30 74,156 52,228 41,333 41,471 41,549 55,616 82,672 116,743 169,778 240,778 293,778 328,747 346,684 L 369,508 C 377,444 397,411 428,410 L 1163,1116 C 1174,1127 1196,1133 1229,1133 1271,1133 1292,1118 1292,1087 L 1292,965 C 1292,929 1282,901 1262,881 L 442,47 C 390,-6 338,-33 285,-33 Z"/>
  </g>
  <g id="bullet-char-template(9679)" transform="scale(0.00048828125,-0.00048828125)">
   <path d="M 813,0 C 632,0 489,54 383,161 276,268 223,411 223,592 223,773 276,916 383,1023 489,1130 632,1184 813,1184 992,1184 1136,1130 1245,1023 1353,916 1407,772 1407,592 1407,412 1353,268 1245,161 1136,54 992,0 813,0 Z"/>
  </g>
  <g id="bullet-char-template(8226)" transform="scale(0.00048828125,-0.00048828125)">
   <path d="M 346,457 C 273,457 209,483 155,535 101,586 74,649 74,723 74,796 101,859 155,911 209,963 273,989 346,989 419,989 480,963 531,910 582,859 608,796 608,723 608,648 583,586 532,535 482,483 420,457 346,457 Z"/>
  </g>
  <g id="bullet-char-template(8211)" transform="scale(0.00048828125,-0.00048828125)">
   <path d="M -4,459 L 1135,459 1135,606 -4,606 -4,459 Z"/>
  </g>
  <g id="bullet-char-template(61548)" transform="scale(0.00048828125,-0.00048828125)">
   <path d="M 173,740 C 173,903 231,1043 346,1159 462,1274 601,1332 765,1332 928,1332 1067,1274 1183,1159 1299,1043 1357,903 1357,740 1357,577 1299,437 1183,322 1067,206 928,148 765,148 601,148 462,206 346,322 231,437 173,577 173,740 Z"/>
  </g>
 </defs>
 <defs class="TextEmbeddedBitmaps"/>
 <g>
  <g id="id2" class="Master_Slide">
   <g id="bg-id2" class="Background"/>
   <g id="bo-id2" class="BackgroundObjects"/>
  </g>
 </g>
 <g class="SlideGroup">
  <g>
   <g id="container-id1">
    <g id="id1" class="Slide" clip-path="url(#presentation_clip_path)">
     <g class="Page">
      <g class="com.sun.star.drawing.OpenBezierShape">
       <g id="id3">
        <rect class="BoundingBox" stroke="none" fill="none" x="1" y="87" width="3903" height="3461"/>
        <path fill="none" stroke="rgb(68,146,45)" stroke-width="235" stroke-linejoin="round" d="M 214,205 C 58,295 121,3271 209,3367 295,3465 3679,3439 3785,3348"/>
       </g>
      </g>
      <g class="com.sun.star.drawing.OpenFreeHandShape">
       <g id="id4">
        <rect class="BoundingBox" stroke="none" fill="none" x="383" y="2687" width="601" height="497"/>
        <path fill="none" stroke="rgb(68,146,45)" stroke-width="159" stroke-linejoin="round" d="M 463,3103 C 529,3091 573,3037 622,2995 677,2948 731,2906 788,2865 826,2837 850,2797 893,2775 L 903,2767"/>
       </g>
      </g>
      <g class="com.sun.star.drawing.OpenFreeHandShape">
       <g id="id5">
        <rect class="BoundingBox" stroke="none" fill="none" x="831" y="2286" width="594" height="595"/>
        <path fill="none" stroke="rgb(68,146,45)" stroke-width="159" stroke-linejoin="round" d="M 911,2366 C 953,2413 1006,2449 1048,2497 1084,2538 1123,2582 1146,2634 1166,2678 1190,2724 1225,2760 1256,2792 1305,2781 1344,2800 L 1344,2800"/>
       </g>
      </g>
      <g class="com.sun.star.drawing.OpenFreeHandShape">
       <g id="id6">
        <rect class="BoundingBox" stroke="none" fill="none" x="1333" y="1983" width="533" height="446"/>
        <path fill="none" stroke="rgb(68,146,45)" stroke-width="159" stroke-linejoin="round" d="M 1413,2348 C 1454,2332 1488,2300 1514,2265 1546,2223 1596,2199 1644,2179 1689,2160 1696,2109 1745,2099 L 1781,2067 1785,2063"/>
       </g>
      </g>
      <g class="com.sun.star.drawing.OpenFreeHandShape">
       <g id="id7">
        <rect class="BoundingBox" stroke="none" fill="none" x="1712" y="1654" width="602" height="544"/>
        <path fill="none" stroke="rgb(68,146,45)" stroke-width="159" stroke-linejoin="round" d="M 1792,1734 C 1853,1775 1909,1825 1966,1872 2011,1908 2047,1955 2092,1994 2132,2028 2183,2050 2211,2099 L 2233,2117"/>
       </g>
      </g>
      <g class="com.sun.star.drawing.OpenFreeHandShape">
       <g id="id8">
        <rect class="BoundingBox" stroke="none" fill="none" x="2196" y="1083" width="754" height="693"/>
        <path fill="none" stroke="rgb(68,146,45)" stroke-width="159" stroke-linejoin="round" d="M 2276,1695 C 2316,1664 2358,1632 2388,1593 2424,1546 2467,1502 2508,1460 2543,1424 2589,1406 2627,1373 2661,1343 2708,1324 2742,1294 2780,1261 2807,1215 2847,1182 L 2869,1163"/>
       </g>
      </g>
      <g class="com.sun.star.drawing.OpenFreeHandShape">
       <g id="id9">
        <rect class="BoundingBox" stroke="none" fill="none" x="2745" y="690" width="638" height="489"/>
        <path fill="none" stroke="rgb(68,146,45)" stroke-width="159" stroke-linejoin="round" d="M 2825,770 C 2881,786 2924,828 2974,856 3033,889 3090,927 3151,961 3197,987 3246,1018 3273,1070 L 3302,1098"/>
       </g>
      </g>
      <g class="com.sun.star.drawing.OpenFreeHandShape">
       <g id="id10">
        <rect class="BoundingBox" stroke="none" fill="none" x="3136" y="86" width="778" height="609"/>
        <path fill="none" stroke="rgb(68,146,45)" stroke-width="159" stroke-linejoin="round" d="M 3216,614 C 3300,556 3385,499 3465,437 3530,387 3601,342 3674,300 3729,268 3783,238 3833,199 L 3794,184 3757,170 3747,166"/>
       </g>
      </g>
     </g>
    </g>
   </g>
  </g>
 </g>
</svg>