<?xml version="1.0" encoding="UTF-8"?>
<!DOCTYPE svg PUBLIC "-//W3C//DTD SVG 1.1//EN" "http://www.w3.org/Graphics/SVG/1.1/DTD/svg11.dtd">
<svg version="1.2" width="48.92mm" height="43.28mm" viewBox="1 108 4892 4328" preserveAspectRatio="xMidYMid" fill-rule="evenodd" stroke-width="28.222" stroke-linejoin="round" xmlns="http://www.w3.org/2000/svg" xmlns:ooo="http://xml.openoffice.org/svg/export" xmlns:xlink="http://www.w3.org/1999/xlink" xmlns:presentation="http://sun.com/xmlns/staroffice/presentation" xmlns:smil="http://www.w3.org/2001/SMIL20/" xmlns:anim="urn:oasis:names:tc:opendocument:xmlns:animation:1.0" xml:space="preserve">
 <defs class="ClipPathGroup">
  <clipPath id="presentation_clip_path" clipPathUnits="userSpaceOnUse">
   <rect x="1" y="108" width="4892" height="4328"/>
  </clipPath>
  <clipPath id="presentation_clip_path_shrink" clipPathUnits="userSpaceOnUse">
   <rect x="5" y="112" width="4883" height="4320"/>
  </clipPath>
 </defs>
 <defs class="TextShapeIndex">
  <g ooo:slide="id1" ooo:id-list="id3 id4 id5 id6 id7 id8 id9 id10 id11 id12 id13 id14 id15 id16 id17 id18"/>
 </defs>
 <defs class="EmbeddedBulletChars">
  <g id="bullet-char-template(57356)" transform="scale(0.00048828125,-0.00048828125)">
   <path d="M 580,1141 L 1163,571 580,0 -4,571 580,1141 Z"/>
  </g>
  <g id="bullet-char-template(57354)" transform="scale(0.00048828125,-0.00048828125)">
   <path d="M 8,1128 L 1137,1128 1137,0 8,0 8,1128 Z"/>
  </g>
  <g id="bullet-char-template(10146)" transform="scale(0.00048828125,-0.00048828125)">
   <path d="M 174,0 L 602,739 174,1481 1456,739 174,0 Z M 1358,739 L 309,1346 659,739 1358,739 Z"/>
  </g>
  <g id="bullet-char-template(10132)" transform="scale(0.00048828125,-0.00048828125)">
   <path d="M 2015,739 L 1276,0 717,0 1260,543 174,543 174,936 1260,936 717,1481 1274,1481 2015,739 Z"/>
  </g>
  <g id="bullet-char-template(10007)" transform="scale(0.00048828125,-0.00048828125)">
   <path d="M 0,-2 C -7,14 -16,27 -25,37 L 356,567 C 262,823 215,952 215,954 215,979 228,992 255,992 264,992 276,990 289,987 310,991 331,999 354,1012 L 381,999 492,748 772,1049 836,1024 860,1049 C 881,1039 901,1025 922,1006 886,937 835,863 770,784 769,783 710,716 594,584 L 774,223 C 774,196 753,168 711,139 L 727,119 C 717,90 699,76 672,76 641,76 570,178 457,381 L 164,-76 C 142,-110 111,-127 72,-127 30,-127 9,-110 8,-76 1,-67 -2,-52 -2,-32 -2,-23 -1,-13 0,-2 Z"/>
  </g>
  <g id="bullet-char-template(10004)" transform="scale(0.00048828125,-0.00048828125)">
   <path d="M 285,-33 C 182,-33 111,30 74,156 52,228 41,333 41,471 41,549 55,616 82,672 116,743 169,778 240,778 293,778 328,747 346,684 L 369,508 C 377,444 397,411 428,410 L 1163,1116 C 1174,1127 1196,1133 1229,1133 1271,1133 1292,1118 1292,1087 L 1292,965 C 1292,929 1282,901 1262,881 L 442,47 C 390,-6 338,-33 285,-33 Z"/>
  </g>
  <g id="bullet-char-template(9679)" transform="scale(0.00048828125,-0.00048828125)">
   <path d="M 813,0 C 632,0 489,54 383,161 276,268 223,411 223,592 223,773 276,916 383,1023 489,1130 632,1184 813,1184 992,1184 1136,1130 1245,1023 1353,916 1407,772 1407,592 1407,412 1353,268 1245,161 1136,54 992,0 813,0 Z"/>
  </g>
  <g id="bullet-char-template(8226)" transform="scale(0.00048828125,-0.00048828125)">
   <path d="M 346,457 C 273,457 209,483 155,535 101,586 74,649 74,723 74,796 101,859 155,911 209,963 273,989 346,989 419,989 480,963 531,910 582,859 608,796 608,723 608,648 583,586 532,535 482,483 420,457 346,457 Z"/>
  </g>
  <g id="bullet-char-template(8211)" transform="scale(0.00048828125,-0.00048828125)">
   <path d="M -4,459 L 1135,459 1135,606 -4,606 -4,459 Z"/>
  </g>
  <g id="bullet-char-template(61548)" transform="scale(0.00048828125,-0.00048828125)">
   <path d="M 173,740 C 173,903 231,1043 346,1159 462,1274 601,1332 765,1332 928,1332 1067,1274 1183,1159 1299,1043 1357,903 1357,740 1357,577 1299,437 1183,322 1067,206 928,148 765,148 601,148 462,206 346,322 231,437 173,577 173,740 Z"/>
  </g>
 </defs>
 <defs class="TextEmbeddedBitmaps"/>
 <g class="SlideGroup">
  <g>
   <g id="container-id1">
    <g id="id1" class="Slide" clip-path="url(#presentation_clip_path)">
     <g class="Page">
      <g class="com.sun.star.drawing.PolyPolygonShape">
       <g id="id3">
        <rect class="BoundingBox" stroke="none" fill="none" x="1" y="109" width="4881" height="4328"/>
       </g>
      </g>
      <g class="com.sun.star.drawing.OpenBezierShape">
       <g id="id4">
        <rect class="BoundingBox" stroke="none" fill="none" x="2" y="109" width="4880" height="4327"/>
        <path fill="none" stroke="rgb(68,146,45)" stroke-width="294" stroke-linejoin="round" d="M 270,256 C 74,369 153,4089 263,4209 371,4332 4602,4300 4734,4186"/>
       </g>
      </g>
      <g class="com.sun.star.drawing.PolyPolygonShape">
       <g id="id5">
        <rect class="BoundingBox" stroke="none" fill="none" x="478" y="3359" width="754" height="623"/>
       </g>
      </g>
      <g class="com.sun.star.drawing.OpenBezierShape">
       <g id="id6">
        <rect class="BoundingBox" stroke="none" fill="none" x="479" y="3359" width="752" height="622"/>
        <path fill="none" stroke="rgb(68,146,45)" stroke-width="199" stroke-linejoin="round" d="M 579,3880 C 662,3865 717,3797 778,3745 847,3686 915,3633 986,3582 1034,3547 1064,3497 1117,3469 L 1130,3459"/>
       </g>
      </g>
      <g class="com.sun.star.drawing.PolyPolygonShape">
       <g id="id7">
        <rect class="BoundingBox" stroke="none" fill="none" x="1039" y="2858" width="744" height="746"/>
       </g>
      </g>
      <g class="com.sun.star.drawing.OpenBezierShape">
       <g id="id8">
        <rect class="BoundingBox" stroke="none" fill="none" x="1039" y="2858" width="743" height="744"/>
        <path fill="none" stroke="rgb(68,146,45)" stroke-width="199" stroke-linejoin="round" d="M 1139,2958 C 1192,3017 1258,3062 1311,3122 1356,3173 1404,3228 1433,3294 1458,3349 1488,3406 1532,3451 1571,3491 1632,3478 1681,3501"/>
       </g>
      </g>
      <g class="com.sun.star.drawing.PolyPolygonShape">
       <g id="id9">
        <rect class="BoundingBox" stroke="none" fill="none" x="1666" y="2479" width="668" height="559"/>
       </g>
      </g>
      <g class="com.sun.star.drawing.OpenBezierShape">
       <g id="id10">
        <rect class="BoundingBox" stroke="none" fill="none" x="1666" y="2479" width="667" height="558"/>
        <path fill="none" stroke="rgb(68,146,45)" stroke-width="199" stroke-linejoin="round" d="M 1766,2936 C 1817,2916 1860,2876 1893,2832 1933,2780 1995,2749 2055,2724 2112,2701 2121,2637 2182,2624 L 2227,2584 2232,2579"/>
       </g>
      </g>
      <g class="com.sun.star.drawing.PolyPolygonShape">
       <g id="id11">
        <rect class="BoundingBox" stroke="none" fill="none" x="2139" y="2067" width="755" height="683"/>
       </g>
      </g>
      <g class="com.sun.star.drawing.OpenBezierShape">
       <g id="id12">
        <rect class="BoundingBox" stroke="none" fill="none" x="2140" y="2068" width="753" height="681"/>
        <path fill="none" stroke="rgb(68,146,45)" stroke-width="199" stroke-linejoin="round" d="M 2240,2168 C 2316,2219 2387,2282 2458,2341 2514,2386 2559,2445 2616,2494 2666,2536 2730,2564 2765,2625 L 2792,2648"/>
       </g>
      </g>
      <g class="com.sun.star.drawing.PolyPolygonShape">
       <g id="id13">
        <rect class="BoundingBox" stroke="none" fill="none" x="2745" y="1354" width="945" height="868"/>
       </g>
      </g>
      <g class="com.sun.star.drawing.OpenBezierShape">
       <g id="id14">
        <rect class="BoundingBox" stroke="none" fill="none" x="2745" y="1354" width="943" height="867"/>
        <path fill="none" stroke="rgb(68,146,45)" stroke-width="199" stroke-linejoin="round" d="M 2845,2120 C 2895,2081 2948,2041 2985,1992 3030,1933 3084,1878 3135,1826 3179,1781 3237,1758 3284,1717 3327,1679 3386,1656 3428,1618 3476,1577 3510,1519 3560,1478 L 3587,1454"/>
       </g>
      </g>
      <g class="com.sun.star.drawing.PolyPolygonShape">
       <g id="id15">
        <rect class="BoundingBox" stroke="none" fill="none" x="3431" y="863" width="799" height="613"/>
       </g>
      </g>
      <g class="com.sun.star.drawing.OpenBezierShape">
       <g id="id16">
        <rect class="BoundingBox" stroke="none" fill="none" x="3431" y="863" width="798" height="612"/>
        <path fill="none" stroke="rgb(68,146,45)" stroke-width="199" stroke-linejoin="round" d="M 3531,963 C 3601,983 3655,1036 3718,1071 3791,1112 3863,1160 3939,1202 3997,1235 4058,1274 4092,1339 L 4128,1374"/>
       </g>
      </g>
      <g class="com.sun.star.drawing.PolyPolygonShape">
       <g id="id17">
        <rect class="BoundingBox" stroke="none" fill="none" x="3920" y="108" width="974" height="763"/>
       </g>
      </g>
      <g class="com.sun.star.drawing.OpenBezierShape">
       <g id="id18">
        <rect class="BoundingBox" stroke="none" fill="none" x="3920" y="408" width="499" height="461"/>
        <path fill="none" stroke="rgb(68,146,45)" stroke-width="199" stroke-linejoin="round" d="M 4020,768 C 4061,734 4102,701 4140,665 4172,636 4206,610 4241,586 4268,567 4294,550 4318,527 L 4299,519 4281,510 4277,508"/>
       </g>
      </g>
     </g>
    </g>
   </g>
  </g>
 </g>
</svg>