<?xml version="1.0" encoding="utf-8"?>
<!-- Generator: Adobe Illustrator 18.0.0, SVG Export Plug-In . SVG Version: 6.00 Build 0)  -->
<!DOCTYPE svg PUBLIC "-//W3C//DTD SVG 1.1//EN" "http://www.w3.org/Graphics/SVG/1.1/DTD/svg11.dtd">
<svg version="1.1"
	 id="svg2" sodipodi:docname="SynFind.svg" inkscape:version="0.48.2 r9819" xmlns:cc="http://creativecommons.org/ns#" xmlns:dc="http://purl.org/dc/elements/1.1/" xmlns:inkscape="http://www.inkscape.org/namespaces/inkscape" xmlns:sodipodi="http://sodipodi.sourceforge.net/DTD/sodipodi-0.dtd" xmlns:svg="http://www.w3.org/2000/svg" xmlns:rdf="http://www.w3.org/1999/02/22-rdf-syntax-ns#"
	 xmlns="http://www.w3.org/2000/svg" xmlns:xlink="http://www.w3.org/1999/xlink" x="0px" y="0px" viewBox="0 0 750 750"
	 enable-background="new 0 0 750 750" xml:space="preserve">
<sodipodi:namedview  inkscape:window-y="20" inkscape:current-layer="layer1" inkscape:pageopacity="0.0" inkscape:window-x="20" inkscape:pageshadow="2" inkscape:document-units="px" inkscape:window-height="634" inkscape:window-width="631" inkscape:window-maximized="0" inkscape:zoom="0.35" inkscape:cx="375" inkscape:cy="520" showgrid="false" pagecolor="#ffffff" bordercolor="#666666" borderopacity="1.0" id="base">
	</sodipodi:namedview>
<g id="layer1" inkscape:groupmode="layer" inkscape:label="Layer 1">
	<g id="g3571" transform="translate(2.8571386,11.428571)">
		<path id="path3585" inkscape:connector-curvature="0" fill="#A9D7A9" d="M49.3,734.5c-12.6-3.1-25.6-11.1-35.5-22
			C7.1,705.1-1,689.7-2.8,681C-3.7,677-4,581.6-4,362.5C-4,15.9-4.6,45.2,3,29.3C9.6,15.5,22.2,2.9,36.1-3.8
			c15.4-7.4-12-6.9,335.6-6.9c227.9,0,315.7,0.3,319.7,1.2c12.6,2.7,28.5,12,37.5,22.1c6,6.7,12,16.6,15.1,25l2.4,6.5l0.3,314.8
			c0.2,231.4,0,316.5-0.9,321.2c-4.4,22.9-23.5,44.5-47.1,52.9l-7,2.4l-318.1,0.3C103.9,735.9,54.5,735.7,49.3,734.5z M690.9,362.8
			V45.4H371.6H52.3L52,361.8c-0.1,174,0,317,0.2,317.8c0.4,1.1,64.9,1.3,319.6,1.1l319.1-0.3V362.8z M81.7,655.3
			c-0.7-1.4-1.1-90.9-1.1-282.3c0-253.3,0.2-280.4,1.7-281.9c1.4-1.4,4.8-1.7,21-1.7c11.2,0,20.1,0.4,21.3,1.1c2,1.1,2,5.2,2,264.8
			v263.8h263.5c209.7,0,263.9,0.3,265.3,1.4c1.6,1.2,1.8,3.3,1.5,18.9l-0.3,17.5l-286.9,0.3C86.9,657.5,82.8,657.3,81.7,655.3z
			 M145.7,605.6c-4.7-4.6-9.5-9.6-10.7-11.3l-2.1-3l15.9-16c8.8-8.8,16.7-16.4,17.6-16.9c1.4-0.7,3.6,0.7,10.5,7.1
			c4.8,4.5,9.6,9.6,10.9,11.3l2.2,3.2l-17,16.9c-9.3,9.3-17.4,16.9-18,16.9S150.3,610.1,145.7,605.6L145.7,605.6z M203.4,549.2
			c-4.7-4.6-9.5-9.6-10.7-11.3l-2.1-3l15.9-16c8.8-8.8,16.7-16.4,17.6-16.9c1.4-0.7,3.6,0.7,10.5,7.1c4.8,4.5,9.6,9.6,10.9,11.3
			l2.2,3.2l-17,16.9c-9.3,9.3-17.4,16.9-18,16.9S208,553.8,203.4,549.2L203.4,549.2z M547.7,518.3c-8.2-8.1-15.8-16-17.1-17.7
			l-2.2-3.1l11.8-11.7l11.8-11.7l3.1,2.2c5.1,3.6,32.5,31.7,32.5,33.3c0,0.9-4.9,6.4-11,12.4s-11.7,11-12.5,11
			C563.2,533.1,556,526.4,547.7,518.3L547.7,518.3z M265.5,488.6c-4.7-4.6-9.5-9.6-10.7-11.3l-2.1-3l15.9-16
			c8.8-8.8,16.7-16.4,17.6-16.9c1.4-0.7,3.6,0.7,10.5,7.1c4.8,4.5,9.6,9.6,10.9,11.3l2.2,3.2l-17,16.9c-9.3,9.3-17.4,16.9-18,16.9
			C274.3,496.9,270.1,493.1,265.5,488.6L265.5,488.6z M468.6,442.8c-8.2-8.1-15.8-16-17.1-17.7l-2.2-3.1l11.8-11.7l11.8-11.7
			l3.1,2.2c5.1,3.6,32.5,31.7,32.5,33.3c0,0.9-4.9,6.4-11,12.4c-6.1,6.1-11.7,11-12.5,11C484,457.6,476.8,450.9,468.6,442.8
			L468.6,442.8z M322.2,432.2c-4.7-4.6-9.5-9.6-10.7-11.3l-2.1-3l15.9-16c8.8-8.8,16.7-16.4,17.6-16.9c1.4-0.7,3.6,0.7,10.5,7.1
			c4.8,4.5,9.6,9.6,10.9,11.3l2.2,3.2l-17,16.9c-9.3,9.3-17.4,16.9-18,16.9S326.8,436.8,322.2,432.2L322.2,432.2z M388.4,368.4
			c-8.2-8.1-15.8-16-17.1-17.7l-2.2-3.1l11.8-11.7l11.8-11.7l3.1,2.2c5.1,3.6,32.5,31.7,32.5,33.3c0,0.9-4.9,6.4-11,12.4
			c-6.1,6.1-11.7,11-12.5,11C403.8,383.2,396.6,376.5,388.4,368.4L388.4,368.4z M437.7,317.3c-4.7-4.6-9.5-9.6-10.7-11.3l-2.1-3
			l15.9-16c8.8-8.8,16.7-16.4,17.6-16.9c1.4-0.7,3.6,0.7,10.5,7.1c4.8,4.5,9.6,9.6,10.9,11.3l2.2,3.2l-17,16.9
			c-9.3,9.3-17.4,16.9-18,16.9C446.6,325.6,442.3,321.9,437.7,317.3L437.7,317.3z M308.1,289.7c-8.2-8.1-15.8-16-17.1-17.7l-2.2-3.1
			l11.8-11.7l11.8-11.7l3.1,2.2c5.1,3.6,32.5,31.7,32.5,33.3c0,0.9-4.9,6.4-11,12.4c-6.1,6.1-11.7,11-12.5,11
			C323.5,304.5,316.4,297.8,308.1,289.7L308.1,289.7z M492.2,263.1c-4.7-4.6-9.5-9.6-10.7-11.3l-2.1-3l15.9-16
			c8.8-8.8,16.7-16.4,17.6-16.9c1.4-0.7,3.6,0.7,10.5,7.1c4.8,4.5,9.6,9.6,10.9,11.3l2.2,3.2l-17,16.9c-9.3,9.3-17.4,16.9-18,16.9
			C501.1,271.4,496.8,267.7,492.2,263.1L492.2,263.1z M230.1,213.1c-8.2-8.1-15.8-16-17.1-17.7l-2.2-3.1l11.8-11.7l11.8-11.7
			l3.1,2.2c5.1,3.6,32.5,31.7,32.5,33.3c0,1.9-21.6,23.4-23.5,23.4C245.6,227.8,238.3,221.2,230.1,213.1L230.1,213.1z M543.6,213.1
			c-4.7-4.6-9.5-9.6-10.7-11.3l-2.1-3l15.9-16c8.8-8.8,16.7-16.4,17.6-16.9c1.4-0.7,3.6,0.7,10.5,7.1c4.8,4.5,9.6,9.6,10.9,11.3
			l2.2,3.2l-17,16.9c-9.3,9.3-17.4,16.9-18,16.9S548.3,217.7,543.6,213.1L543.6,213.1z"/>
		<path id="path3583" inkscape:connector-curvature="0" fill="#EC9344" d="M50.5,733.4c-19.4-4.7-38.1-19.9-46.9-38.1
			c-7-14.5-6.4,10.6-6.5-332c0-306.8,0-311.8,2.1-319.9C4.1,24.1,18.2,6.9,35.6-1.7c17.1-8.4-13.2-7.7,336-7.7
			c306.6,0,313.1,0,321.1,2c20.5,5.2,37.8,19.1,46.6,37.6c7,14.5,6.4-10.7,6.4,332.6c0,342.8,0.5,317.7-6.4,332.4
			c-6.5,13.7-19.7,26.9-33.5,33.4c-14.5,6.9,10.9,6.5-335,6.4C108.4,734.9,55.5,734.7,50.5,733.4z M691.9,362.8V44.3H371.6H51.2
			l-0.3,317.5c-0.1,174.6,0,318.1,0.2,318.9c0.4,1.1,65.1,1.3,320.7,1.1l320.2-0.3V362.8z M82.1,655c-0.3-0.7-0.4-127.9-0.2-282.7
			L82.2,91h21.4H125l0.5,264.3l0.5,264.3l264.7,0.5l264.7,0.5v17.5v17.5l-286.5,0.3C140.5,656.3,82.5,656.1,82.1,655L82.1,655z
			 M144.5,602.4c-5.1-5.1-9.3-9.8-9.3-10.3c0-1.4,31.2-32.4,32.6-32.4c1.7,0,19.8,18.5,19.8,20.2c0,2.1-30.1,31.9-32.1,31.9
			C154.5,611.7,149.6,607.5,144.5,602.4z M202.2,546c-5.1-5.1-9.3-9.8-9.3-10.3c0-1.4,31.2-32.4,32.6-32.4
			c1.7,0,19.8,18.5,19.8,20.2c0,2.1-30.1,31.9-32.1,31.9C212.3,555.4,207.4,551.1,202.2,546z M546.7,515.1
			c-8.7-8.6-15.7-16.4-15.7-17.3c0-2.1,19.4-21.3,21.4-21.3c2.1,0,33.2,30.9,33.2,33c0,2.1-19.4,21.3-21.4,21.3
			C563.2,530.9,555.3,523.8,546.7,515.1z M264.3,485.4c-5.1-5.1-9.3-9.8-9.3-10.3c0-1.4,31.2-32.4,32.6-32.4
			c1.7,0,19.8,18.5,19.8,20.2c0,2.1-30.1,31.9-32.1,31.9C274.3,494.7,269.4,490.5,264.3,485.4z M467.5,439.6
			c-8.7-8.6-15.7-16.4-15.7-17.3c0-2.1,19.4-21.3,21.4-21.3c2.1,0,33.2,30.9,33.2,33c0,2.1-19.4,21.3-21.4,21.3
			C484,455.4,476.2,448.3,467.5,439.6L467.5,439.6z M321,429c-5.1-5.1-9.3-9.8-9.3-10.3c0-1.4,31.2-32.4,32.6-32.4
			c1.7,0,19.8,18.5,19.8,20.2c0,2.1-30.1,31.9-32.1,31.9C331,438.4,326.1,434.1,321,429z M387.3,365.2c-8.7-8.6-15.7-16.4-15.7-17.3
			c0-2.1,19.4-21.3,21.4-21.3c2.1,0,33.2,30.9,33.2,33c0,2.1-19.4,21.3-21.4,21.3C403.8,380.9,396,373.8,387.3,365.2L387.3,365.2z
			 M436.5,314.1c-5.1-5.1-9.3-9.8-9.3-10.3c0-1.4,31.2-32.4,32.6-32.4c1.7,0,19.8,18.5,19.8,20.2c0,2.1-30.1,31.9-32.1,31.9
			C446.6,323.5,441.6,319.2,436.5,314.1L436.5,314.1z M307.1,286.5c-8.7-8.6-15.7-16.4-15.7-17.3c0-2.1,19.4-21.3,21.4-21.3
			c2.1,0,33.2,30.9,33.2,33c0,2.1-19.4,21.3-21.4,21.3C323.5,302.2,315.7,295.1,307.1,286.5L307.1,286.5z M491.1,259.9
			c-5.1-5.1-9.3-9.8-9.3-10.3c0-1.4,31.2-32.4,32.6-32.4c1.7,0,19.8,18.5,19.8,20.2c0,2.1-30.1,31.9-32.1,31.9
			C501.1,269.3,496.2,265,491.1,259.9L491.1,259.9z M229,209.9c-8.7-8.6-15.7-16.4-15.7-17.3c0-2.1,19.4-21.3,21.4-21.3
			c2.1,0,33.2,30.9,33.2,33c0,2.1-19.4,21.3-21.4,21.3C245.5,225.7,237.6,218.5,229,209.9L229,209.9z M542.4,209.9
			c-5.1-5.1-9.3-9.8-9.3-10.3c0-1.4,31.2-32.4,32.6-32.4c1.7,0,19.8,18.5,19.8,20.2c0,2.1-30.1,31.9-32.1,31.9
			C552.5,219.3,547.5,215,542.4,209.9L542.4,209.9z"/>
		<path id="path3581" inkscape:connector-curvature="0" fill="#5EA25E" d="M50.5,733.4c-19.4-4.7-38.1-19.9-46.9-38.1
			c-7-14.5-6.4,10.6-6.5-332c0-306.8,0-311.8,2.1-319.9C4.1,24.1,18.2,6.9,35.6-1.7c17.1-8.4-13.2-7.7,336-7.7
			c306.6,0,313.1,0,321.1,2c20.5,5.2,37.8,19.1,46.6,37.6c7,14.5,6.4-10.7,6.4,332.6c0,342.8,0.5,317.7-6.4,332.4
			c-6.5,13.7-19.7,26.9-33.5,33.4c-14.5,6.9,10.9,6.5-335,6.4C108.4,734.9,55.5,734.7,50.5,733.4z M691.9,362.8V44.3H371.6H51.2
			l-0.3,317.5c-0.1,174.6,0,318.1,0.2,318.9c0.4,1.1,65.1,1.3,320.7,1.1l320.2-0.3V362.8z M83.8,373.9V92.6l20.1,0.3l20.1,0.3
			l0.3,263.1c0.2,192.1,0.6,263.5,1.5,264.5c1,1.2,45.2,1.5,265,1.7l263.8,0.3l0.3,16.2l0.3,16.2H369.6H84L83.8,373.9L83.8,373.9z
			 M144.5,602.4c-5.1-5.1-9.3-9.8-9.3-10.3c0-1.4,31.2-32.4,32.6-32.4c1.7,0,19.8,18.5,19.8,20.2c0,2.1-30.1,31.9-32.1,31.9
			C154.5,611.7,149.6,607.5,144.5,602.4z M202.2,546c-5.1-5.1-9.3-9.8-9.3-10.3c0-1.4,31.2-32.4,32.6-32.4
			c1.7,0,19.8,18.5,19.8,20.2c0,2.1-30.1,31.9-32.1,31.9C212.3,555.4,207.4,551.1,202.2,546z M546.7,515.1
			c-8.7-8.6-15.7-16.4-15.7-17.3c0-2.1,19.4-21.3,21.4-21.3c2.1,0,33.2,30.9,33.2,33c0,2.1-19.4,21.3-21.4,21.3
			C563.2,530.9,555.3,523.8,546.7,515.1z M264.3,485.4c-5.1-5.1-9.3-9.8-9.3-10.3c0-1.4,31.2-32.4,32.6-32.4
			c1.7,0,19.8,18.5,19.8,20.2c0,2.1-30.1,31.9-32.1,31.9C274.3,494.7,269.4,490.5,264.3,485.4z M467.5,439.6
			c-8.7-8.6-15.7-16.4-15.7-17.3c0-2.1,19.4-21.3,21.4-21.3c2.1,0,33.2,30.9,33.2,33c0,2.1-19.4,21.3-21.4,21.3
			C484,455.4,476.2,448.3,467.5,439.6L467.5,439.6z M321,429c-5.1-5.1-9.3-9.8-9.3-10.3c0-1.4,31.2-32.4,32.6-32.4
			c1.7,0,19.8,18.5,19.8,20.2c0,2.1-30.1,31.9-32.1,31.9C331,438.4,326.1,434.1,321,429z M387.3,365.2c-8.7-8.6-15.7-16.4-15.7-17.3
			c0-2.1,19.4-21.3,21.4-21.3c2.1,0,33.2,30.9,33.2,33c0,2.1-19.4,21.3-21.4,21.3C403.8,380.9,396,373.8,387.3,365.2L387.3,365.2z
			 M436.5,314.1c-5.1-5.1-9.3-9.8-9.3-10.3c0-1.4,31.2-32.4,32.6-32.4c1.7,0,19.8,18.5,19.8,20.2c0,2.1-30.1,31.9-32.1,31.9
			C446.6,323.5,441.6,319.2,436.5,314.1L436.5,314.1z M307.1,286.5c-8.7-8.6-15.7-16.4-15.7-17.3c0-2.1,19.4-21.3,21.4-21.3
			c2.1,0,33.2,30.9,33.2,33c0,2.1-19.4,21.3-21.4,21.3C323.5,302.2,315.7,295.1,307.1,286.5L307.1,286.5z M491.1,259.9
			c-5.1-5.1-9.3-9.8-9.3-10.3c0-1.4,31.2-32.4,32.6-32.4c1.7,0,19.8,18.5,19.8,20.2c0,2.1-30.1,31.9-32.1,31.9
			C501.1,269.3,496.2,265,491.1,259.9L491.1,259.9z M229,209.9c-8.7-8.6-15.7-16.4-15.7-17.3c0-2.1,19.4-21.3,21.4-21.3
			c2.1,0,33.2,30.9,33.2,33c0,2.1-19.4,21.3-21.4,21.3C245.5,225.7,237.6,218.5,229,209.9L229,209.9z M542.4,209.9
			c-5.1-5.1-9.3-9.8-9.3-10.3c0-1.4,31.2-32.4,32.6-32.4c1.7,0,19.8,18.5,19.8,20.2c0,2.1-30.1,31.9-32.1,31.9
			C552.5,219.3,547.5,215,542.4,209.9L542.4,209.9z"/>
		<path id="path3579" inkscape:connector-curvature="0" fill="#E1690C" d="M50.7,732.3c-19.7-5.2-36.8-19.3-45.6-37.1
			c-7.5-15.3-7,11.8-7-332.4C-1.9,19.3-2.4,46.1,5,30.7C11.6,16.9,23.3,5.2,37.2-1.4c15.4-7.4-11.9-6.9,334.3-6.9
			C717-8.3,690-8.9,705.5-1.5c13.9,6.6,25.7,18.2,32.3,32c7.5,15.3,7-11.8,7,332.1c0,283.2-0.1,311.5-1.7,318.5
			c-4.5,19.6-18.6,37.2-37.2,46.4c-14.2,7,11.3,6.5-334.9,6.5C98.7,733.8,55.7,733.6,50.7,732.3L50.7,732.3z M693,362.8V43.3H371.6
			H50.1l-0.3,318.5C49.7,537,49.8,681,50,681.7c0.4,1.1,65.4,1.3,321.8,1.1l321.2-0.3V362.8z M83.8,373.9V92.6l20.1,0.3l20.1,0.3
			l0.3,263.1c0.2,192.1,0.6,263.5,1.5,264.5c1,1.2,45.2,1.5,265,1.7l263.8,0.3l0.3,16.2l0.3,16.2H369.6H84L83.8,373.9L83.8,373.9z
			 M145.3,601.1l-9.6-9.6l15.7-15.6l15.7-15.6l9.8,9.8l9.8,9.8l-15.5,15.4c-8.6,8.5-15.7,15.4-16,15.4
			C155.2,610.7,150.6,606.3,145.3,601.1z M203.1,544.7l-9.6-9.6l15.7-15.6l15.7-15.6l9.8,9.8l9.8,9.8l-15.5,15.4
			c-8.6,8.5-15.7,15.4-16,15.4C212.9,554.3,208.3,549.9,203.1,544.7z M547.5,513.9l-16-16l10.4-10.3l10.4-10.3l16,16
			c8.9,8.7,16,16.4,16,16.9c0,0.5-4.3,5.2-9.4,10.4c-5.1,5.2-9.8,9.4-10.5,9.4S556.3,522.6,547.5,513.9z M265.1,484.1l-9.6-9.6
			l15.7-15.6l15.7-15.6l9.8,9.8l9.8,9.8l-15.5,15.4c-8.6,8.5-15.7,15.4-16,15.4S270.4,489.3,265.1,484.1L265.1,484.1z M468.4,438.4
			l-16-16l10.4-10.3l10.4-10.3l16,16c8.9,8.7,16,16.4,16,16.9c0,0.5-4.3,5.2-9.4,10.4s-9.8,9.4-10.5,9.4S477.1,447.1,468.4,438.4z
			 M321.8,427.7l-9.6-9.6l15.7-15.6l15.7-15.6l9.8,9.8l9.8,9.8l-15.5,15.4c-8.6,8.5-15.7,15.4-16,15.4S327.1,432.9,321.8,427.7
			L321.8,427.7z M388.2,363.9l-16-16l10.4-10.3l10.4-10.3l16,16c8.9,8.7,16,16.4,16,16.9s-4.3,5.2-9.4,10.4
			c-5.1,5.2-9.8,9.4-10.5,9.4C404.4,380,396.9,372.6,388.2,363.9L388.2,363.9z M437.4,312.9l-9.6-9.6l15.7-15.6l15.7-15.6l9.8,9.8
			l9.8,9.8L463.3,307c-8.6,8.5-15.7,15.4-16,15.4S442.6,318.1,437.4,312.9L437.4,312.9z M307.9,285.2l-16-16l10.4-10.3l10.4-10.3
			l16,16c8.9,8.7,16,16.4,16,16.9s-4.3,5.2-9.4,10.4c-5.1,5.2-9.8,9.4-10.5,9.4S316.7,293.9,307.9,285.2z M491.9,258.6l-9.6-9.6
			l15.7-15.6l15.7-15.6l9.8,9.8l9.8,9.8l-15.5,15.4c-8.6,8.5-15.7,15.4-16,15.4S497.2,263.8,491.9,258.6L491.9,258.6z M229.8,208.6
			l-16-16l10.4-10.3l10.4-10.3l16,16c8.9,8.7,16,16.4,16,16.9c0,1.3-18.5,19.8-19.9,19.8C246.3,224.6,238.6,217.4,229.8,208.6
			L229.8,208.6z M543.3,208.6l-9.6-9.6l15.7-15.6l15.7-15.6l9.8,9.8l9.8,9.8l-15.5,15.4c-8.6,8.5-15.7,15.4-16,15.4
			C552.9,218.2,548.5,213.8,543.3,208.6L543.3,208.6z"/>
		<path id="path3577" inkscape:connector-curvature="0" fill="#10AA10" d="M50.7,732.3c-19.7-5.2-36.8-19.3-45.6-37.1
			c-7.5-15.3-7,11.8-7-332.4C-1.9,19.3-2.4,46.1,5,30.7C11.6,16.9,23.3,5.2,37.2-1.4c15.4-7.4-11.9-6.9,334.3-6.9
			C717-8.3,690-8.9,705.5-1.5c13.9,6.6,25.7,18.2,32.3,32c7.5,15.3,7-11.8,7,332.1c0,283.2-0.1,311.5-1.7,318.5
			c-4.5,19.6-18.6,37.2-37.2,46.4c-14.2,7,11.3,6.5-334.9,6.5C98.7,733.8,55.7,733.6,50.7,732.3L50.7,732.3z M693,362.8V43.3H371.6
			H50.1l-0.3,318.5C49.7,537,49.8,681,50,681.7c0.4,1.1,65.4,1.3,321.8,1.1l321.2-0.3V362.8z M145.3,601.1l-9.6-9.6l15.7-15.6
			l15.7-15.6l9.8,9.8l9.8,9.8l-15.5,15.4c-8.6,8.5-15.7,15.4-16,15.4C155.2,610.7,150.6,606.3,145.3,601.1z M203.1,544.7l-9.6-9.6
			l15.7-15.6l15.7-15.6l9.8,9.8l9.8,9.8l-15.5,15.4c-8.6,8.5-15.7,15.4-16,15.4C212.9,554.3,208.3,549.9,203.1,544.7z M547.5,513.9
			l-16-16l10.4-10.3l10.4-10.3l16,16c8.9,8.7,16,16.4,16,16.9c0,0.5-4.3,5.2-9.4,10.4c-5.1,5.2-9.8,9.4-10.5,9.4
			S556.3,522.6,547.5,513.9z M265.1,484.1l-9.6-9.6l15.7-15.6l15.7-15.6l9.8,9.8l9.8,9.8l-15.5,15.4c-8.6,8.5-15.7,15.4-16,15.4
			S270.4,489.3,265.1,484.1L265.1,484.1z M468.4,438.4l-16-16l10.4-10.3l10.4-10.3l16,16c8.9,8.7,16,16.4,16,16.9
			c0,0.5-4.3,5.2-9.4,10.4s-9.8,9.4-10.5,9.4S477.1,447.1,468.4,438.4z M321.8,427.7l-9.6-9.6l15.7-15.6l15.7-15.6l9.8,9.8l9.8,9.8
			l-15.5,15.4c-8.6,8.5-15.7,15.4-16,15.4S327.1,432.9,321.8,427.7L321.8,427.7z M388.2,363.9l-16-16l10.4-10.3l10.4-10.3l16,16
			c8.9,8.7,16,16.4,16,16.9s-4.3,5.2-9.4,10.4c-5.1,5.2-9.8,9.4-10.5,9.4C404.4,380,396.9,372.6,388.2,363.9L388.2,363.9z
			 M437.4,312.9l-9.6-9.6l15.7-15.6l15.7-15.6l9.8,9.8l9.8,9.8L463.3,307c-8.6,8.5-15.7,15.4-16,15.4S442.6,318.1,437.4,312.9
			L437.4,312.9z M307.9,285.2l-16-16l10.4-10.3l10.4-10.3l16,16c8.9,8.7,16,16.4,16,16.9s-4.3,5.2-9.4,10.4
			c-5.1,5.2-9.8,9.4-10.5,9.4S316.7,293.9,307.9,285.2z M491.9,258.6l-9.6-9.6l15.7-15.6l15.7-15.6l9.8,9.8l9.8,9.8l-15.5,15.4
			c-8.6,8.5-15.7,15.4-16,15.4S497.2,263.8,491.9,258.6L491.9,258.6z M229.8,208.6l-16-16l10.4-10.3l10.4-10.3l16,16
			c8.9,8.7,16,16.4,16,16.9c0,1.3-18.5,19.8-19.9,19.8C246.3,224.6,238.6,217.4,229.8,208.6L229.8,208.6z M543.3,208.6l-9.6-9.6
			l15.7-15.6l15.7-15.6l9.8,9.8l9.8,9.8l-15.5,15.4c-8.6,8.5-15.7,15.4-16,15.4C552.9,218.2,548.5,213.8,543.3,208.6L543.3,208.6z"
			/>
		<path id="path3575" inkscape:connector-curvature="0" fill="#0E940E" d="M50.7,732.3c-25.5-6.7-48.6-30.8-48.6-50.6
			c0-2.8-0.4-4.8-0.9-4.5c-1.4,0.9-0.9-2.1,0.7-4.4c1.4-1.8,1.6-40.4,1.6-306.4c0-294.3,0.1-304.6,2-312.4
			c5.5-21.6,19.6-39.1,39-48.6c14.2-6.9-11.6-6.4,329.6-6.4c170.6,0,313.6,0.3,317.8,0.6c4.9,0.4,7.9,1.3,8.9,2.3
			c1.1,1.4,1.9,1.5,4.3,0.6c3.5-1.3,5.6-0.9,5.6,1.4c0,1.1,0.6,1.4,1.7,1c4.2-1.6,19.9,14,25.5,25.1c7.7,15.5,7.1-12.2,7.1,332.4
			c0,283.2-0.1,311.5-1.7,318.5c-4.5,19.6-18.6,37.2-37.2,46.4c-14.2,7,11.3,6.5-334.9,6.5C98.1,733.8,55.7,733.6,50.7,732.3
			L50.7,732.3z M698.4,689.6c1.4-1.1,1-645.8-0.4-645.8c-0.5,0-1.3,0.5-1.7,1.2c-0.4,0.7-1.3,0.5-2.6-0.5
			c-1.7-1.5-32.6-1.6-322.7-1.4L50.1,43.4L49.9,365c-0.1,176.9-0.5,321.8-0.9,322.1c-3.4,3.4-6.2,3.4,323.8,3.4
			C551.3,690.3,697.7,690,698.4,689.6L698.4,689.6z M146.4,602.1c-9-9-9-9-0.6-10c4.3-0.5,5.7-1.5,13.6-9.5
			c7.4-7.4,8.9-9.7,9.5-13.4c0.4-2.4,1.1-4.5,1.4-4.5s4.2,3.5,8.5,7.8l7.7,7.8l-15.3,15.1c-8.3,8.3-15.5,15.1-15.8,15.1
			C155.2,610.7,151.1,606.8,146.4,602.1L146.4,602.1z M204.2,545.8c-9-9-9-9-0.6-10c4.3-0.5,5.7-1.5,13.6-9.5
			c7.4-7.4,8.9-9.7,9.5-13.4c0.4-2.4,1.1-4.5,1.4-4.5c0.3,0,4.2,3.5,8.5,7.8l7.7,7.8l-15.3,15.1c-8.3,8.3-15.5,15.1-15.8,15.1
			C212.9,554.3,208.9,550.5,204.2,545.8L204.2,545.8z M548.8,515.1c-8.1-8.1-14.7-15-14.7-15.4c0-0.4,1.7-0.7,3.7-0.7
			c4.7,0,10.1-2.1,12.7-5.1c1.1-1.3,2.6-4.8,3.3-7.9l1.3-5.6l14.5,14.4c8,7.9,14.5,14.8,14.5,15.3c0,1.4-18.5,19.8-19.9,19.8
			C564,529.8,556.9,523.2,548.8,515.1L548.8,515.1z M266.2,485.2c-9-9-9-9-0.6-10c4.3-0.5,5.7-1.5,13.6-9.5
			c7.4-7.4,8.9-9.7,9.5-13.4c0.4-2.4,1.1-4.5,1.4-4.5c0.4,0,4.2,3.5,8.5,7.8l7.7,7.8l-15.3,15.1c-8.3,8.3-15.5,15.1-15.8,15.1
			C275,493.7,270.9,489.8,266.2,485.2L266.2,485.2z M469.7,439.6c-8.1-8.1-14.7-15-14.7-15.4s1.7-0.7,3.7-0.7
			c4.7,0,10.1-2.1,12.7-5.1c1.1-1.3,2.6-4.8,3.3-7.9l1.3-5.6l14.5,14.4c8,7.9,14.5,14.8,14.5,15.3c0,1.4-18.5,19.8-19.9,19.8
			C484.9,454.3,477.8,447.7,469.7,439.6L469.7,439.6z M322.9,428.8c-9-9-9-9-0.6-10c4.3-0.5,5.7-1.5,13.6-9.5
			c7.4-7.4,8.9-9.7,9.5-13.4c0.4-2.4,1.1-4.5,1.4-4.5c0.4,0,4.2,3.5,8.5,7.8l7.7,7.8l-15.3,15.1c-8.3,8.3-15.5,15.1-15.8,15.1
			C331.7,437.3,327.6,433.5,322.9,428.8L322.9,428.8z M389.4,365.2c-8.1-8.1-14.7-15-14.7-15.4s1.7-0.7,3.7-0.7
			c4.7,0,10.1-2.1,12.7-5.1c1.1-1.3,2.6-4.8,3.3-7.9l1.3-5.6l14.5,14.4c8,7.9,14.5,14.8,14.5,15.3c0,1.4-18.5,19.8-19.9,19.8
			C404.6,379.9,397.6,373.3,389.4,365.2L389.4,365.2z M438.4,313.9c-9-9-9-9-0.6-10c4.3-0.5,5.7-1.5,13.6-9.5
			c7.4-7.4,8.9-9.7,9.5-13.4c0.4-2.4,1.1-4.5,1.4-4.5c0.4,0,4.2,3.5,8.5,7.8l7.7,7.8l-15.3,15.1c-8.3,8.3-15.5,15.1-15.8,15.1
			C447.2,322.4,443.1,318.6,438.4,313.9z M309.2,286.5c-8.1-8.1-14.7-15-14.7-15.4s1.7-0.7,3.7-0.7c4.7,0,10.1-2.1,12.7-5.1
			c1.1-1.3,2.6-4.8,3.3-7.9l1.3-5.6l14.5,14.4c8,7.9,14.5,14.8,14.5,15.3c0,1.4-18.5,19.8-19.9,19.8
			C324.4,301.2,317.3,294.6,309.2,286.5L309.2,286.5z M493,259.7c-9-9-9-9-0.6-10c4.3-0.5,5.7-1.5,13.6-9.5
			c7.4-7.4,8.9-9.7,9.5-13.4c0.4-2.4,1.1-4.5,1.4-4.5c0.4,0,4.2,3.5,8.5,7.8l7.7,7.8L517.7,253c-8.3,8.3-15.5,15.1-15.8,15.1
			C501.8,268.2,497.7,264.4,493,259.7L493,259.7z M231.1,209.9c-8.1-8.1-14.7-15-14.7-15.4s1.7-0.7,3.7-0.7c4.7,0,10.1-2.1,12.7-5.1
			c1.1-1.3,2.6-4.8,3.3-7.9l1.3-5.6l14.5,14.4c8,7.9,14.5,14.8,14.5,15.3c0,1.4-18.5,19.8-19.9,19.8
			C246.3,224.6,239.3,218,231.1,209.9L231.1,209.9z M544.3,209.7c-9-9-9-9-0.6-10c4.3-0.5,5.7-1.5,13.6-9.5
			c7.4-7.4,8.9-9.7,9.5-13.4c0.4-2.4,1.1-4.5,1.4-4.5c0.3,0,4.2,3.5,8.5,7.8l7.7,7.8L569,203c-8.3,8.3-15.5,15.1-15.8,15.1
			C552.9,218.1,549,214.4,544.3,209.7L544.3,209.7z"/>
		<path id="path3573" inkscape:connector-curvature="0" fill="#107A10" d="M50.7,732.3c-3.2-0.9-8.8-3-12.3-4.7
			c-7.5-3.6-13.8-8.4-11.1-8.5c1,0,2,0.6,2.4,1.6s1.6,1.6,2.9,1.6c1.3,0,3,0.7,3.9,1.6c0.9,0.9,2.9,1.6,4.5,1.6s3.4,0.5,4.1,1.1
			c0.6,0.5,4,1.6,7.5,2.1c4.1,0.6,120.2,1.1,317.6,1.1c342.2,0,317.2,0.4,331.8-6.5c13.8-6.5,27-19.7,33.5-33.4
			c7-14.6,6.4,10.4,6.6-333.4c0.1-236.4,0.4-312.5,1.4-310c0.9,2.3,1.3,84.1,1.5,314.8c0.3,286,0.2,312.3-1.5,319.6
			c-4.4,19.8-18.5,37.5-37.2,46.7c-14.2,7,11.3,6.5-334.9,6.5C97.3,733.8,55.8,733.6,50.7,732.3L50.7,732.3z M21.3,715.9
			c-0.3-0.5-0.2-1.3,0.3-1.6c0.5-0.3,1.3,0.1,1.6,1C23.9,717.1,22.3,717.6,21.3,715.9z M46.6,361.5L46.9,39l323.6-0.3
			c178-0.1,324.2,0,325,0.2c0.9,0.3,1.1,1.1,0.5,2.1c-0.9,1.5-36.3,1.6-323.4,1.9L50.1,43.1l-0.3,320.3
			c-0.2,284-0.4,320.3-1.9,320.3C46.5,684,46.4,647.6,46.6,361.5L46.6,361.5z M155.5,608.4c0-3.4,4.1-9,12.5-17.1
			c8.7-8.4,14.2-11.8,16.2-10c0.7,0.7-26.3,28.3-27.8,28.3C155.8,609.6,155.5,609.1,155.5,608.4z M213.3,552.1
			c0-3.4,4.1-9,12.5-17.1c8.7-8.4,14.2-11.8,16.2-10c0.7,0.7-26.3,28.3-27.8,28.3C213.6,553.2,213.3,552.7,213.3,552.1z
			 M563.9,529.2c-1.2-1.2,3.3-8.5,7.9-13c4.3-4.1,11.6-7.2,11.6-4.9c0,1-17.4,18.4-18.4,18.4C564.6,529.8,564.2,529.5,563.9,529.2
			L563.9,529.2z M275.3,491.4c0-3.4,4.1-9,12.5-17.1c8.7-8.4,14.2-11.8,16.2-10c0.7,0.7-26.3,28.3-27.8,28.3
			C275.6,492.6,275.3,492.1,275.3,491.4z M484.7,453.7c-1.2-1.2,3.3-8.5,7.9-13c4.3-4.1,11.6-7.2,11.6-4.9c0,1-17.4,18.4-18.4,18.4
			C485.5,454.3,485.1,454,484.7,453.7L484.7,453.7z M332,435.1c0-3.4,4.1-9,12.5-17.1c8.7-8.4,14.2-11.8,16.2-10
			c0.7,0.7-26.3,28.3-27.8,28.3C332.3,436.2,332,435.7,332,435.1z M404.5,379.2c-1.2-1.2,3.3-8.5,7.9-13c4.3-4.1,11.6-7.2,11.6-4.9
			c0,1-17.4,18.4-18.4,18.4C405.3,379.9,404.8,379.5,404.5,379.2L404.5,379.2z M447.5,320.2c0-3.4,4.1-9,12.5-17.1
			c8.7-8.4,14.2-11.8,16.2-10c0.7,0.7-26.3,28.3-27.8,28.3C447.8,321.4,447.5,320.8,447.5,320.2L447.5,320.2z M324.3,300.5
			c-1.2-1.2,3.3-8.5,7.9-13c4.3-4.1,11.6-7.2,11.6-4.9c0,1-17.4,18.4-18.4,18.4C325,301.2,324.6,300.8,324.3,300.5L324.3,300.5z
			 M502.1,266c0-3.4,4.1-9,12.5-17.1c8.7-8.4,14.2-11.8,16.2-10c0.7,0.7-26.3,28.3-27.8,28.3C502.4,267.1,502.1,266.6,502.1,266
			L502.1,266z M246.2,223.9c-1.2-1.2,3.3-8.5,7.9-13c4.3-4.1,11.6-7.2,11.6-4.9c0,1-17.4,18.4-18.4,18.4
			C247,224.6,246.5,224.3,246.2,223.9z M553.4,216c0-3.4,4.1-9,12.5-17.1c8.7-8.4,14.2-11.8,16.2-10c0.7,0.7-26.3,28.3-27.8,28.3
			C553.7,217.1,553.4,216.6,553.4,216L553.4,216z"/>
	</g>
</g>
</svg>
